<?xml version="1.0" encoding="UTF-8"?>
<svg xmlns="http://www.w3.org/2000/svg" width="32" height="33" viewBox="0 0 32 33">
  <path fill="#4DB6AC" d="M22.1244,2.88448 C19.341,1.29495 16.6157,0 15.4998,0 C12.9998,0 2.42097,6.5 1.210379,8.25 C0.653723,9.0547 0.3530336,12.2381 0.30831006,15.6126 L6.92782,19.5317 C7.09981,19.1416 7.57271,19.0804 8.12916,19.4293 C8.83091,19.8694 9.3998,20.795 9.3998,21.4968 C9.3998,22.1985 8.83091,22.4107 8.12916,21.9707 C7.704,21.7041 7.32761,21.2592 7.09695,20.7939 L0.303,16.7716 C0.3174958,20.3669 0.619956,23.8965 1.210379,24.75 C2.42097,26.5 12.9998,33 15.4998,33 C16.7326,33 19.93,31.5409 22.9998,29.792 L22.9998,21.9758 C22.531,22.0827 22.1998,21.8323 22.1998,21.2968 C22.1998,20.595 22.7687,19.6694 23.4704,19.2293 C24.1722,18.7893 24.7411,19.0015 24.7411,19.7032 C24.7411,20.2161 24.4373,20.8485 23.9998,21.3235 L23.9998,29.2093 C26.7707,27.5575 29.2409,25.7691 29.7892,24.75 C29.9405,24.4688 30.0729,24.0273 30.1864,23.4668 C30.9809,19.543 30.8485,9.78125 29.7892,8.25 C29.1834,7.37415 26.2308,5.30848 23.119,3.46336 L16.7233,7.17699 C17.0147,7.52288 16.9483,7.93695 16.5017,8.21434 C15.9185,8.57661 14.9075,8.56857 14.2437,8.19639 C13.5799,7.8242 13.5146,7.22881 14.0979,6.86653 C14.4983,6.61782 15.1003,6.54365 15.6531,6.64201 L22.1244,2.88448 Z M5.51421,11.2577 C5.36391,11.3481 5.18793,11.4 4.99981,11.4 C4.44752,11.4 3.99981,10.9523 3.99981,10.4 C3.99981,9.84772 4.44752,9.4 4.99981,9.4 C5.54642,9.4 5.99061,9.83857 5.99967,10.383 L15.487,16 L15.4998,16 L25.1001,10.4256 C25.0999,10.4171 25.0998,10.4086 25.0998,10.4 C25.0998,9.84772 25.5475,9.4 26.0998,9.4 C26.6521,9.4 27.0998,9.84772 27.0998,10.4 C27.0998,10.9523 26.6521,11.4 26.0998,11.4 C25.9269,11.4 25.7642,11.3561 25.6222,11.2788 L16.0006,16.8656 L15.9998,16.8642 L15.9998,27.9338 C16.2987,28.1067 16.4998,28.4299 16.4998,28.8 C16.4998,29.3523 16.0521,29.8 15.4998,29.8 C14.9475,29.8 14.4998,29.3523 14.4998,28.8 C14.4998,28.4299 14.7009,28.1067 14.9998,27.9338 L14.9998,16.8737 L5.51421,11.2577 Z" transform="translate(.41)"/>
</svg>
