<?xml version="1.0" encoding="UTF-8"?>
<svg xmlns="http://www.w3.org/2000/svg" width="116" height="34" viewBox="0 0 116 34">
  <g fill="none" fill-rule="evenodd" transform="translate(0 1)">
    <path fill="#4DB6AC" fill-rule="nonzero" d="M22.1244,2.88448 C19.341,1.29495 16.6157,0 15.4998,0 C12.9998,0 2.42097,6.5 1.210379,8.25 C0.653723,9.0547 0.3530336,12.2381 0.30831006,15.6126 L6.92782,19.5317 C7.09981,19.1416 7.57271,19.0804 8.12916,19.4293 C8.83091,19.8694 9.3998,20.795 9.3998,21.4968 C9.3998,22.1985 8.83091,22.4107 8.12916,21.9707 C7.704,21.7041 7.32761,21.2592 7.09695,20.7939 L0.303,16.7716 C0.3174958,20.3669 0.619956,23.8965 1.210379,24.75 C2.42097,26.5 12.9998,33 15.4998,33 C16.7326,33 19.93,31.5409 22.9998,29.792 L22.9998,21.9758 C22.531,22.0827 22.1998,21.8323 22.1998,21.2968 C22.1998,20.595 22.7687,19.6694 23.4704,19.2293 C24.1722,18.7893 24.7411,19.0015 24.7411,19.7032 C24.7411,20.2161 24.4373,20.8485 23.9998,21.3235 L23.9998,29.2093 C26.7707,27.5575 29.2409,25.7691 29.7892,24.75 C29.9405,24.4688 30.0729,24.0273 30.1864,23.4668 C30.9809,19.543 30.8485,9.78125 29.7892,8.25 C29.1834,7.37415 26.2308,5.30848 23.119,3.46336 L16.7233,7.17699 C17.0147,7.52288 16.9483,7.93695 16.5017,8.21434 C15.9185,8.57661 14.9075,8.56857 14.2437,8.19639 C13.5799,7.8242 13.5146,7.22881 14.0979,6.86653 C14.4983,6.61782 15.1003,6.54365 15.6531,6.64201 L22.1244,2.88448 Z M5.51421,11.2577 C5.36391,11.3481 5.18793,11.4 4.99981,11.4 C4.44752,11.4 3.99981,10.9523 3.99981,10.4 C3.99981,9.84772 4.44752,9.4 4.99981,9.4 C5.54642,9.4 5.99061,9.83857 5.99967,10.383 L15.487,16 L15.4998,16 L25.1001,10.4256 C25.0999,10.4171 25.0998,10.4086 25.0998,10.4 C25.0998,9.84772 25.5475,9.4 26.0998,9.4 C26.6521,9.4 27.0998,9.84772 27.0998,10.4 C27.0998,10.9523 26.6521,11.4 26.0998,11.4 C25.9269,11.4 25.7642,11.3561 25.6222,11.2788 L16.0006,16.8656 L15.9998,16.8642 L15.9998,27.9338 C16.2987,28.1067 16.4998,28.4299 16.4998,28.8 C16.4998,29.3523 16.0521,29.8 15.4998,29.8 C14.9475,29.8 14.4998,29.3523 14.4998,28.8 C14.4998,28.4299 14.7009,28.1067 14.9998,27.9338 L14.9998,16.8737 L5.51421,11.2577 Z" transform="translate(.197 -.47)"/>
    <g fill="#FFF" transform="translate(49.032 5.63)">
      <path d="M0.119509494,12.8439747 L0.119509494,10.9553671 C1.78837025,10.9553671 3.14583861,9.59764557 3.14583861,7.92903797 L3.14583861,3.98194937 L5.0344462,3.98194937 L5.0344462,7.92903797 C5.0344462,10.6391646 2.82963608,12.8439747 0.119509494,12.8439747"/>
      <path d="M8.33312975 12.8093671L6.44452215 12.8093671 6.44452215 10.7751899C6.44452215 9.1043038 5.08528165 7.74481013 3.41414241 7.74481013L.116927215 7.74481013.116927215 5.85620253 3.41414241 5.85620253C6.12654747 5.85620253 8.33312975 8.06278481 8.33312975 10.7751899L8.33312975 12.8093671zM12.3552563 12.781038C10.4896867 12.781038 8.97221835 11.2205316 8.97221835 9.30255696L8.97221835 2.54281013 10.8608259 2.54281013 10.8608259 9.30255696C10.8608259 10.1792658 11.5312057 10.8924304 12.3552563 10.8924304 13.179307 10.8924304 13.8496867 10.1792658 13.8496867 9.30255696L13.8496867 2.54281013 15.7382943 2.54281013 15.7382943 9.30255696C15.7382943 11.2205316 14.2205728 12.781038 12.3552563 12.781038M15.785712 19.5799241L3.13280063 19.5799241C1.50596519 19.5799241.182420886 18.1961266.182420886 16.4951139.182420886 14.7943544 1.50596519 13.410557 3.13280063 13.410557L15.785712 13.410557 15.785712 15.2991646 3.13280063 15.2991646C2.55735759 15.2991646 2.07102848 15.8470127 2.07102848 16.4951139 2.07102848 17.1434684 2.55735759 17.6913165 3.13280063 17.6913165L15.785712 17.6913165 15.785712 19.5799241zM2.46887658 2.60174684L2.46735759 2.60174684 3.28102848.962506329 1.57140823.111620253.256977848 2.80529114C.239762658 2.83668354.224066456 2.86908861.209889241 2.90225316L.206598101 2.90858228.206598101 2.90858228C.148876582 3.04503797.116977848 3.19491139.116977848 3.35237975.116977848 3.76301266.334952532 4.12174684.661028481 4.32174684.833939873 4.42807595 1.03672468 4.49035443 1.25469937 4.49035443 1.26381329 4.49035443 1.27242089 4.48908861 1.28128165 4.48908861L1.28128165 4.49035443 1.52988924 4.49035443 1.54786392 4.49035443 8.37368671 4.49035443 8.37368671 2.60174684 2.46887658 2.60174684z"/>
      <polygon points="51.404 14.744 57.954 14.744 57.954 12.855 51.404 12.855"/>
      <polygon points="59.641 11.219 66.533 11.219 66.533 9.331 59.641 9.331"/>
      <polygon points="50.837 3.813 59.177 3.813 59.177 1.924 50.837 1.924"/>
      <polygon points="59.567 4.879 66.516 4.879 66.516 2.991 59.567 2.991"/>
      <polygon points="59.567 8.586 66.516 8.586 66.516 6.697 59.567 6.697"/>
      <polygon points="53.799 13.799 55.688 13.799 55.688 3.223 53.799 3.223"/>
      <path d="M57.9538717,6.71455696 L51.7951375,6.71455696 C51.2736185,6.71455696 50.8508337,6.29177215 50.8508337,5.77025316 C50.8508337,5.24873418 51.2736185,4.82594937 51.7951375,4.82594937 L57.9538717,4.82594937 C58.4753907,4.82594937 58.8981755,5.24873418 58.8981755,5.77025316 C58.8981755,6.29177215 58.4753907,6.71455696 57.9538717,6.71455696"/>
      <polygon points="50.851 11.091 52.739 11.091 52.739 5.77 50.851 5.77"/>
      <polygon points="57.009 11.091 58.898 11.091 58.898 5.77 57.009 5.77"/>
      <path d="M57.9538717,19.9848608 L51.7951375,19.9848608 C51.2736185,19.9848608 50.8508337,19.5620759 50.8508337,19.040557 C50.8508337,18.519038 51.2736185,18.0962532 51.7951375,18.0962532 L57.9538717,18.0962532 C58.4753907,18.0962532 58.8981755,18.519038 58.8981755,19.040557 C58.8981755,19.5620759 58.4753907,19.9848608 57.9538717,19.9848608"/>
      <polygon points="57.009 19.041 58.898 19.041 58.898 10.566 57.009 10.566"/>
      <polygon points="50.851 19.041 52.739 19.041 52.739 10.566 50.851 10.566"/>
      <path d="M65.6173148,19.9848608 L60.5973148,19.9848608 C60.0757958,19.9848608 59.653011,19.5620759 59.653011,19.040557 C59.653011,18.519038 60.0757958,18.0962532 60.5973148,18.0962532 L65.6173148,18.0962532 C66.1388337,18.0962532 66.5616185,18.519038 66.5616185,19.040557 C66.5616185,19.5620759 66.1388337,19.9848608 65.6173148,19.9848608"/>
      <polygon points="64.633 19.041 66.522 19.041 66.522 10.566 64.633 10.566"/>
      <polygon points="59.641 19.041 61.53 19.041 61.53 10.566 59.641 10.566"/>
      <polygon points="62.097 7.189 63.986 7.189 63.986 1.944 62.097 1.944"/>
      <polygon points="59.579 4.675 61.467 4.675 61.467 1.944 59.579 1.944"/>
      <path d="M31.6005007,4.26592405 L31.5453109,4.34592405 C31.4860704,4.43174684 31.3880957,4.48313924 31.2835387,4.48313924 L28.0432855,4.48313924 L28.0432855,3.75427848 C28.0432855,3.57883544 28.1860704,3.4363038 28.3612602,3.4363038 L32.4698678,3.4363038 L31.6005007,4.26592405 Z M33.0349311,5.50744304 L34.9232855,3.70516456 L35.3934121,3.23174684 L37.0582222,1.55529114 L34.6572096,1.55529114 C34.6172096,1.55073418 34.5764501,1.5476962 34.5351843,1.5476962 C34.5065767,1.5476962 34.4784754,1.54972152 34.4506273,1.552 L34.448602,1.5476962 L28.3612602,1.5476962 C27.1445514,1.5476962 26.1546779,2.53756962 26.1546779,3.75427848 L26.1546779,6.37174684 L31.2835387,6.37174684 C31.9721463,6.37174684 32.6187286,6.05073418 33.0349311,5.50744304 L33.0349311,5.50744304 Z"/>
      <polygon points="25.489 16.999 41.174 16.999 41.174 15.11 25.489 15.11"/>
      <polygon points="25.489 19.643 41.174 19.643 41.174 17.754 25.489 17.754"/>
      <polygon points="25.477 9.074 41.174 9.074 41.174 7.185 25.477 7.185"/>
      <polygon points="26.155 11.683 33.955 11.683 33.955 9.794 26.155 9.794"/>
      <path d="M39.5862476,14.3548608 L27.0989058,14.3548608 C26.5773868,14.3548608 26.154602,13.9320759 26.154602,13.410557 L26.154602,10.8016962 C26.154602,10.2801772 26.5773868,9.85739241 27.0989058,9.85739241 C27.6204248,9.85739241 28.0432096,10.2801772 28.0432096,10.8016962 L28.0432096,12.4662532 L38.6419438,12.4662532 L38.6419438,8.19258228 C38.6419438,7.67106329 39.0647286,7.24827848 39.5862476,7.24827848 C40.1077666,7.24827848 40.5305514,7.67106329 40.5305514,8.19258228 L40.5305514,13.410557 C40.5305514,13.9320759 40.1077666,14.3548608 39.5862476,14.3548608"/>
      <path d="M33.9549311 19.0133671C33.4334121 19.0133671 33.0106273 18.5905823 33.0106273 18.0690633L33.0106273 10.7386835C33.0106273 10.2171646 33.4334121 9.79437975 33.9549311 9.79437975 34.4764501 9.79437975 34.8992349 10.2171646 34.8992349 10.7386835L34.8992349 18.0690633C34.8992349 18.5905823 34.4764501 19.0133671 33.9549311 19.0133671M38.2311336 1.54764557L36.290121 3.43625316 38.6420197 3.43625316 38.6420197 4.16511392C38.6420197 4.34055696 38.4992349 4.48334177 38.3237919 4.48334177L35.2346779 4.48334177 33.2579691 6.37194937 38.3237919 6.37194937C39.5407539 6.37194937 40.5306273 5.38182278 40.5306273 4.16511392L40.5306273 1.54764557 38.2311336 1.54764557z"/>
    </g>
  </g>
</svg>
