<?xml version="1.0" encoding="UTF-8"?>
<svg xmlns="http://www.w3.org/2000/svg" width="10" height="11" viewBox="0 0 10 11">
  <path fill="#5A646E" fill-rule="evenodd" d="M233.288464,9.216 C233.288464,9.692 233.680464,10.07 234.142464,10.07 C234.618464,10.07 234.996464,9.692 234.996464,9.216 L234.996464,0.928 C234.996464,0.452 234.632464,0.074 234.142464,0.074 L234.114464,0.074 C233.862464,0.074 233.610464,0.13 233.274464,0.228 L231.790464,0.704 C231.440464,0.802 231.216464,1.082 231.216464,1.446 C231.216464,1.838 231.566464,2.174 231.972464,2.174 C232.056464,2.174 232.182464,2.16 232.280464,2.132 L233.288464,1.824 L233.288464,9.216 Z M238.40313,8.964 L238.40313,9.104 C238.40313,9.65 238.82313,10.07 239.39713,10.07 C239.95713,10.07 240.37713,9.65 240.37713,9.104 L240.37713,8.964 C240.37713,8.418 239.95713,7.998 239.39713,7.998 C238.82313,7.998 238.40313,8.418 238.40313,8.964 Z" transform="translate(-231 .821)"/>
</svg>
