<svg width="9" height="14" viewBox="0 0 9 14" version="1.1" xmlns="http://www.w3.org/2000/svg" xmlns:xlink="http://www.w3.org/1999/xlink">
  <g fill="#FFF" fill-rule="evenodd">
    <path d="M2.52332584 11.8916854L2.52332584 12.0642697C2.52332584 12.7373483 3.04107865 13.2551011 3.74867416 13.2551011 4.45626966 13.2551011 4.97402247 12.7373483 4.97402247 12.0642697L4.97402247 11.8916854C4.97402247 11.2186067 4.45626966 10.7008539 3.74867416 10.7008539 3.04107865 10.7008539 2.52332584 11.2186067 2.52332584 11.8916854L2.52332584 11.8916854zM3.85222472 9.17132584C4.24916854 9.17132584 4.52530337 8.86067416 4.59433708 8.48098876L4.66337079 7.95676404C6.57905618 7.62885393 8.14957303 6.6451236 8.14957303 4.4705618L8.14957303 4.43604494C8.14957303 2.27874157 6.51002247.93258427 4.0938427.93258427 2.50606742.93258427 1.34975281 1.50211236.43505618 2.36503371.193438202 2.57213483.0898876404 2.84826966.0898876404 3.10714607.0898876404 3.62489888.521348315 4.05635955 1.05635955 4.05635955 1.29797753 4.05635955 1.52233708 3.95280899 1.69492135 3.81474157 2.38525843 3.1934382 3.12737079 2.86552809 4.04206742 2.86552809 5.28467416 2.86552809 6.02678652 3.53860674 6.02678652 4.50507865L6.02678652 4.53959551C6.02678652 5.6268764 5.12934831 6.24817978 3.50705618 6.40350562 3.04107865 6.4552809 2.76494382 6.80044944 2.83397753 7.26642697L3.0065618 8.48098876C3.05833708 8.87793258 3.35173034 9.17132584 3.74867416 9.17132584L3.85222472 9.17132584z"/>
  </g>
</svg>