<?xml version="1.0" encoding="UTF-8"?>
<svg xmlns="http://www.w3.org/2000/svg" width="9" height="10" viewBox="0 0 9 10">
  <path fill="#5A646E" fill-rule="evenodd" d="M35.1469234,8.922 L35.1469234,1.278 C35.1469234,0.676 35.6229234,0.2 36.2249234,0.2 L39.6969234,0.2 C40.8169234,0.2 41.6989234,0.508 42.2589234,1.068 C42.7069234,1.516 42.9309234,2.062 42.9309234,2.734 L42.9309234,2.762 C42.9309234,3.868 42.3429234,4.484 41.6429234,4.876 C42.7769234,5.31 43.4769234,5.968 43.4769234,7.284 L43.4769234,7.312 C43.4769234,9.104 42.0209234,10 39.8089234,10 L36.2249234,10 C35.6229234,10 35.1469234,9.524 35.1469234,8.922 Z M37.2469234,4.162 L39.2349234,4.162 C40.1869234,4.162 40.7889234,3.854 40.7889234,3.126 L40.7889234,3.098 C40.7889234,2.454 40.2849234,2.09 39.3749234,2.09 L37.2469234,2.09 L37.2469234,4.162 Z M37.2469234,8.11 L39.8089234,8.11 C40.7609234,8.11 41.3349234,7.774 41.3349234,7.046 L41.3349234,7.018 C41.3349234,6.36 40.8449234,5.954 39.7389234,5.954 L37.2469234,5.954 L37.2469234,8.11 Z" transform="translate(-35 -.179)"/>
</svg>
