<?xml version="1.0" encoding="UTF-8"?>
<svg xmlns="http://www.w3.org/2000/svg" width="15" height="15" viewBox="0 0 15 15">
  <path fill="#FFF" fill-opacity=".75" d="M4.58738828,27.3638825 L3.69761668,26.3003274 L0.5,28.9765935 L1.39672294,30.0401486 L4.58738828,27.3638825 L4.58738828,27.3638825 Z M14.4026812,28.9835448 L11.2050645,26.3003274 L10.3083416,27.3638825 L13.5059583,30.0471 L14.4026812,28.9835448 L14.4026812,28.9835448 Z M7.45134062,27.7879143 C3.99652433,27.7879143 1.19513406,30.5893045 1.19513406,34.0441208 C1.19513406,37.4989371 3.99652433,40.3003274 7.45134062,40.3003274 C10.9061569,40.3003274 13.7075472,37.4989371 13.7075472,34.0441208 C13.7075472,30.5893045 10.9061569,27.7879143 7.45134062,27.7879143 L7.45134062,27.7879143 Z M7.45134062,38.9100592 C4.7611718,38.9100592 2.58540218,36.7342896 2.58540218,34.0441208 C2.58540218,31.353952 4.7611718,29.1781824 7.45134062,29.1781824 C10.1415094,29.1781824 12.317279,31.353952 12.317279,34.0441208 C12.317279,36.7342896 10.1415094,38.9100592 7.45134062,38.9100592 L7.45134062,38.9100592 Z M5.36593843,32.6538527 L7.88927507,32.6538527 L5.36593843,35.5734157 L5.36593843,36.8246571 L9.5367428,36.8246571 L9.5367428,35.4343889 L7.01340616,35.4343889 L9.5367428,32.5148259 L9.5367428,31.2635846 L5.36593843,31.2635846 L5.36593843,32.6538527 Z" transform="translate(.41 -25.617)"/>
</svg>
