<?xml version="1.0" encoding="UTF-8"?>
<svg xmlns:xlink="http://www.w3.org/1999/xlink" width="47" height="47" viewBox="0 0 47 47">
  <defs>
    <path id="combined-shape-b" d="M192.370217,31.7302445 L192.370217,32.266213 L181.368088,32.266213 L166.374475,32.266213 C164.162985,32.266213 162.370217,30.4771855 162.370217,28.2619553 L162.370217,4.27047072 C162.370217,2.05898026 164.159245,0.266213017 166.374475,0.266213017 L190.36596,0.266213017 C192.57745,0.266213017 194.370217,2.05524053 194.370217,4.27047072 L194.370217,28.2619553 C194.370217,29.7439033 193.566853,31.0378231 192.370217,31.7302445 Z M192.370217,31.7302445 L192.370217,29.5995464 C192.370217,26.0528797 185.263551,24.266213 181.703551,24.266213 L181.370217,24.266213 C175.036884,24.266213 169.703551,18.9328797 169.703551,12.9328797 L169.703551,10.9328797 L165.036884,10.9328797 L165.036884,12.9328797 C165.036884,18.466213 167.983551,23.306213 172.370217,25.9995464 L172.370217,32.266213 L181.368088,32.266213 L190.36596,32.266213 C191.096736,32.266213 191.78113,32.071114 192.370217,31.7302445 Z M181.703551,10.9328797 C178.756884,10.9328797 176.370217,13.3195464 176.370217,16.266213 C176.370217,19.2128797 178.756884,21.5995464 181.703551,21.5995464 C184.650217,21.5995464 187.036884,19.2128797 187.036884,16.266213 C187.036884,13.3195464 184.650217,10.9328797 181.703551,10.9328797 Z"/>
    <filter id="combined-shape-a" width="200%" height="200%" x="-50%" y="-50%" filterUnits="objectBoundingBox">
      <feMorphology in="SourceAlpha" operator="dilate" radius=".5" result="shadowSpreadOuter1"/>
      <feOffset in="shadowSpreadOuter1" result="shadowOffsetOuter1"/>
      <feGaussianBlur in="shadowOffsetOuter1" result="shadowBlurOuter1" stdDeviation="3"/>
      <feColorMatrix in="shadowBlurOuter1" values="0 0 0 0 0.768627451   0 0 0 0 0.839215686   0 0 0 0 0.878431373  0 0 0 0.5 0"/>
    </filter>
  </defs>
  <g fill="none" fill-rule="evenodd" transform="translate(-155 7)">
    <use fill="#000" filter="url(#combined-shape-a)" xlink:href="#combined-shape-b"/>
    <use fill="#5A646E" xlink:href="#combined-shape-b"/>
  </g>
</svg>
