<?xml version="1.0" encoding="UTF-8"?>
<svg xmlns="http://www.w3.org/2000/svg" xmlns:xlink="http://www.w3.org/1999/xlink" width="372" height="247" viewBox="0 0 372 247">
  <defs>
    <filter id="图层_2-a" width="103.8%" height="105.6%" x="-1.9%" y="-2.8%" filterUnits="objectBoundingBox">
      <feGaussianBlur in="SourceGraphic" stdDeviation="2"/>
    </filter>
    <path id="图层_2-b" d="M146.056431,115.228364 L146.056431,153.166622 L150.798523,153.166622 L150.798523,201.447016 L0,201.447016 L0,0.00261388208 L146.056431,0.00261388208 L146.056431,28.5920291 L148.90593,28.5920291 L148.90593,36.1297782 L146.056431,36.1297782 L146.056431,44.4117462 L148.90593,44.4117462 L148.90593,51.9494953 L146.056431,51.9494953 L146.056431,60.2314633 L148.90593,60.2314633 L148.90593,67.7692124 L146.056431,67.7692124 L146.056431,76.0511805 L148.90593,76.0511805 L148.90593,83.5889296 L146.056431,83.5889296 L146.056431,91.8708976 L148.90593,91.8708976 L148.90593,99.4086467 L146.056431,99.4086467 L146.056431,107.690615 L148.90593,107.690615 L148.90593,115.228364 L146.056431,115.228364 Z"/>
    <path id="图层_2-d" d="M142.215339,25.7793139 C141.752484,30.2417384 137.958909,33.7220404 133.347636,33.7220404 C128.423944,33.7220404 124.432503,29.7541742 124.432503,24.8595633 C124.432503,24.8253872 124.432698,24.7912562 124.432503,24.7571715 L124.432503,0.341042895 L142.262768,0.322580112 L142.262768,0.340944671 L159.998175,0.322580112 L159.998175,24.7571715 L159.997592,24.7571715 C159.99798,24.7912562 159.998175,24.8253872 159.998175,24.8595633 C159.998175,29.7541742 156.006734,33.7220404 151.083042,33.7220404 C146.471769,33.7220404 142.678194,30.2417384 142.215339,25.7793139 Z M106.64965,25.7793139 C106.186794,30.2417384 102.393219,33.7220404 97.7819465,33.7220404 C93.3015685,33.7220404 89.593125,30.4365166 88.9616526,26.1568915 C88.3301802,30.4365166 84.6217367,33.7220404 80.1413588,33.7220404 C75.2176671,33.7220404 71.2262263,29.7541742 71.2262263,24.8595633 C71.2262263,24.8253872 71.2264209,24.7912562 71.2262263,24.7571715 L71.2262263,0.341042895 L89.0564912,0.322580112 L89.0564912,0.340846489 L106.697079,0.322580112 L106.697079,0.340944671 L124.432485,0.322580112 L124.432485,24.7571715 L124.431903,24.7571715 C124.432291,24.7912562 124.432485,24.8253872 124.432485,24.8595633 C124.432485,29.7541742 120.441045,33.7220404 115.517353,33.7220404 C110.90608,33.7220404 107.112505,30.2417384 106.64965,25.7793139 Z M35.8502141,24.7571715 L35.8496314,24.7571715 C35.8500195,24.7912562 35.8502141,24.8253872 35.8502141,24.8595633 C35.8502141,29.7541742 31.8587734,33.7220404 26.9350817,33.7220404 C22.01139,33.7220404 18.0199493,29.7541742 18.0199493,24.8595633 C18.0199493,24.8253872 18.0201439,24.7912562 18.0199493,24.7571715 L18.0199493,0.341042895 L35.8502141,0.322580112 L35.8502141,24.7571715 Z M17.8302649,24.7571715 L17.8296821,24.7571715 C17.8300703,24.7912562 17.8302649,24.8253872 17.8302649,24.8595633 C17.8302649,29.7541742 13.8388241,33.7220404 8.91513243,33.7220404 C3.99144075,33.7220404 0,29.7541742 0,24.8595633 C0,24.8253872 0.000194598484,24.7912562 0,24.7571715 L0,0.341042895 L17.8302649,0.322580112 L17.8302649,24.7571715 Z M71.2262082,0.322580112 L71.2256255,24.7571715 C71.2260136,24.7912562 71.2262082,24.8253872 71.2262082,24.8595633 C71.2262082,29.7541742 67.2347675,33.7220404 62.3110758,33.7220404 C57.3873841,33.7220404 53.3959434,29.7541742 53.3959434,24.8595633 C53.3959434,24.8253872 53.396138,24.7912562 53.3959434,24.7571715 L53.3959434,0.341042895 L71.2262082,0.322580112 Z"/>
  </defs>
  <g fill="none" fill-rule="evenodd" transform="translate(0 -.05)">
    <g fill-rule="nonzero" transform="translate(13.348 28.133)">
      <rect width="312.244" height="213.834" x=".806" y=".777" fill="#B3E5FC" filter="url(#图层_2-a)" rx="5"/>
      <path fill="#2683B6" d="M0.80610968,192.411246 L33.689908,192.713362 C33.689908,192.713362 32.7980125,195.961101 38.0330512,195.205813 L93.9122415,195.507928 C93.9122415,195.507928 96.1613692,196.37651 96.1613692,193.015477 L142.927714,193.015477 C142.927714,193.015477 142.190931,196.414274 145.487067,195.810044 L220.910401,195.507928 C220.910401,195.507928 223.469754,196.678625 223.314641,193.015477 L311.652116,193.015477 L311.698787,204.000913 L0.961221936,203.740571 L0.80610968,192.411246 Z"/>
    </g>
    <g fill="#2683B6" fill-rule="nonzero" transform="translate(11.633 200.529)">
      <path d="M34.5900331 14.3504774L3.83902834 14.3504774C2.59813029 14.3504774 1.58990063 13.3686026 1.58990063 12.1601414L1.58990063 12.1601414C1.58990063 10.9516801 2.59813029 9.96980534 3.83902834 9.96980534L34.5900331 9.96980534C35.8309312 9.96980534 36.8391609 10.9516801 36.8391609 12.1601414L36.8391609 12.1601414C36.8391609 13.3686026 35.8309312 14.3504774 34.5900331 14.3504774zM162.092308 4.41843646L2.44301804 4.41843646C1.24089805 4.41843646.232668384 3.4743261.232668384 2.26586485L.232668384 2.26586485C.232668384 1.09516801 1.20211999.113293243 2.44301804.113293243L162.092308.113293243C163.294428.113293243 164.302657 1.0574036 164.302657 2.26586485L164.302657 2.26586485C164.302657 3.43656169 163.294428 4.41843646 162.092308 4.41843646zM240.695444 13.9728332L97.5268311 13.9728332C95.8205963 13.9728332 94.424586 12.6133143 94.424586 10.9516801L94.424586 10.9516801C94.424586 9.29004589 95.8205963 7.93052698 97.5268311 7.93052698L240.695444 7.93052698C242.401678 7.93052698 243.797689 9.29004589 243.797689 10.9516801L243.797689 10.9516801C243.797689 12.6133143 242.401678 13.9728332 240.695444 13.9728332z"/>
    </g>
    <path fill="#7DBCD1" fill-rule="nonzero" d="M367.616047,106.080239 L322.788605,106.080239 C320.772146,106.080239 319.143467,104.985071 319.143467,103.663317 L319.143467,103.663317 C319.143467,102.303798 320.772146,101.246394 322.788605,101.246394 L327.403195,101.246394 C329.070652,101.246394 330.582996,100.528871 330.931999,99.4337025 C331.436114,97.9231259 329.691101,96.563607 327.519529,96.563607 L229.178359,96.563607 C227.510902,96.563607 225.998557,97.2811309 225.649555,98.3762989 C225.14544,99.8868755 226.890453,101.246394 229.062024,101.246394 L209.71177,101.246394 C207.695311,101.246394 206.066632,102.341562 206.066632,103.663317 L206.066632,103.663317 C206.066632,105.022836 207.695311,106.080239 209.71177,106.080239 L269.313655,106.080239 C267.374752,106.080239 265.823629,107.137643 265.823629,108.421633 C265.823629,109.705623 267.41353,110.763027 269.313655,110.763027 L228.286463,110.763027 C226.270004,110.763027 224.641325,111.858195 224.641325,113.179949 L224.641325,113.179949 C224.641325,114.539468 226.270004,115.596872 228.286463,115.596872 L249.57562,115.596872 C248.102054,116.050045 247.17138,117.107448 247.597939,118.31591 C247.98572,119.373313 249.459286,120.090837 251.087965,120.090837 L349.312801,120.090837 C350.980258,120.090837 352.492602,119.373313 352.841605,118.278145 C353.34572,116.767569 351.600707,115.40805 349.429135,115.40805 L341.208186,115.40805 C339.269283,115.40805 337.71816,114.350646 337.71816,113.066656 L337.71816,113.066656 C337.71816,111.782666 339.269283,110.725262 341.208186,110.725262 L367.732382,110.725262 C369.903953,110.725262 371.648966,109.365743 371.144851,107.855167 C370.795849,106.797763 369.283504,106.080239 367.616047,106.080239 Z"/>
    <g fill-rule="nonzero" transform="translate(138.825 51.36)">
      <rect width="28.424" height="153.172" x="115.714" y=".302" fill="#1E9CBF"/>
      <rect width="25.632" height="149.774" x="157.206" y="3.134" fill="#1E9CBF"/>
      <path fill="#2683B6" d="M191.757527,133.081796 C190.710519,126.170908 185.010144,120.88389 178.107648,120.88389 C174.540066,120.88389 171.243931,122.318937 168.800913,124.660331 L160.735076,119.486606 L107.027457,85.0076963 C105.902893,84.2901724 104.468105,84.2901724 103.343541,85.0076963 L49.635922,119.486606 L1.24089805,150.566719 C-0.698005153,151.812945 0.0775561281,155.173978 2.32668384,155.173978 L105.204888,155.173978 L172.213383,155.173978 L172.213383,155.438329 L210.991447,155.438329 L210.991447,154.909627 C210.952669,142.938308 202.382716,133.232853 191.757527,133.081796 Z"/>
    </g>
    <path fill="#2683B6" fill-rule="nonzero" d="M315.498329,213.70882 L269.546323,213.70882 C267.956423,213.70882 266.637969,212.42483 266.637969,210.876489 L266.637969,210.876489 C266.637969,209.328148 267.956423,208.044158 269.546323,208.044158 L315.498329,208.044158 C317.08823,208.044158 318.406684,209.328148 318.406684,210.876489 L318.406684,210.876489 C318.406684,212.42483 317.08823,213.70882 315.498329,213.70882 Z"/>
    <path fill="#7DBCD1" fill-rule="nonzero" d="M200.366257,41.1632114 L170.080589,41.1632114 C168.723357,41.1632114 167.598793,40.0680434 167.598793,38.7462889 L167.598793,38.7462889 C167.598793,37.4245344 168.723357,36.3293664 170.080589,36.3293664 L173.182834,36.3293664 C174.384954,36.3293664 175.47074,35.4985493 175.625852,34.3278525 C175.819742,32.9305692 174.695179,31.7221079 173.26039,31.7221079 L106.794788,31.7221079 C105.592668,31.7221079 104.506883,32.552925 104.35177,33.7236219 C104.15788,35.1209052 105.282444,36.3293664 106.717232,36.3293664 L91.1284506,36.3293664 L91.1284506,41.1632114 L133.900655,41.1632114 C132.582201,41.1632114 131.535193,42.1828506 131.535193,43.4668407 C131.535193,44.7508308 132.582201,45.77047 133.900655,45.77047 L103.731321,45.77047 L103.731321,50.604315 L120.599779,50.604315 C119.669106,51.0197235 119.048657,52.0015983 119.203769,53.0590019 C119.397659,54.1919343 120.444667,55.0227514 121.608009,55.0227514 L187.996055,55.0227514 C189.198175,55.0227514 190.28396,54.1919343 190.439073,53.0212375 C190.632963,51.6239542 189.508399,50.4154929 188.073611,50.4154929 L182.528348,50.4154929 C181.209893,50.4154929 180.162886,49.3958537 180.162886,48.1118637 L180.162886,48.1118637 C180.162886,46.8278736 181.209893,45.8082344 182.528348,45.8082344 L200.443813,45.8082344 C201.839823,45.8082344 202.964387,44.5997731 202.809275,43.2024898 C202.615385,41.9940286 201.568377,41.1632114 200.366257,41.1632114 Z"/>
    <g fill-rule="nonzero" transform="translate(157.051 93.278)">
      <rect width="5.623" height="41.994" x="40.678" y="77.53" fill="#44384E"/>
      <ellipse cx="42.152" cy="41.05" fill="#2A9842" rx="42.152" ry="41.05"/>
      <path fill="#187B40" d="M60.3774458,4.11632114 C66.7758263,10.9516801 70.6924108,20.0529039 70.6924108,30.0227093 C70.6924108,51.24631 53.0096136,68.4668829 31.2163416,68.4668829 C20.4748178,68.4668829 10.7415237,64.2750329 3.64513802,57.5152028 C10.1210747,72.0922666 25.0118513,82.2886585 42.345646,82.2886585 C65.6124844,82.2886585 84.4974016,63.8973888 84.4974016,41.2387403 C84.4974016,24.8489845 74.6477733,10.7250936 60.3774458,4.11632114 Z"/>
      <path fill="#187B40" d="M48.8603607 25.1888643C48.8603607 25.1888643 58.0507619 25.0000422 55.1811852 37.3112412 55.1811852 37.3112412 65.5349283 34.5166746 68.5983953 41.6163844 68.5983953 41.6163844 73.7558779 36.9335971 70.4985205 31.7221079 70.4985205 31.7221079 65.8839309 28.7387192 60.9203387 31.3444638 60.9203387 31.3444638 60.532558 23.1495859 48.8603607 25.1888643zM20.3197056 17.1828084C20.3197056 17.1828084 12.6416489 20.7326634 14.3866618 29.1163633 14.3866618 29.1163633 4.4206993 27.7946088.581670961 35.0831408.581670961 35.0831408 1.35723224 27.2281426 4.61458962 23.9048742 4.61458962 23.9048742 6.32082444 23.1495859 8.06583733 24.6601625 8.06583733 24.622398 11.3231947 15.1057657 20.3197056 17.1828084zM20.3197056 29.4562431L18.6134708 29.5317719C18.6134708 29.5317719 18.6910269 37.839943 21.2891572 40.7100385 21.2891572 40.7100385 18.8073611 43.126961 15.8214501 39.5015772L14.1927714 40.7100385C14.1927714 40.7100385 17.527685 45.2795326 22.6076114 42.5604948 22.6076114 42.5604948 25.2057416 45.8082344 25.6710784 45.8082344L27.1058668 44.4109511C27.1058668 44.4109511 22.4912772 39.4638128 22.1422746 37.0468903 22.1422746 37.0468903 26.0588591 36.6692462 26.9507545 31.1556417L25.3220758 30.9668196C25.3220758 30.9668196 24.9342952 35.4607849 21.211601 35.3474917 21.172823 35.4230205 20.3972617 31.8731656 20.3197056 29.4562431zM55.2975194 51.5106609C55.2975194 51.5106609 54.3280678 63.1798649 51.2646007 64.463855L48.0072433 64.8414991C48.0072433 64.8414991 50.6829297 64.0862108 52.2340523 58.7614284 52.2340523 58.7614284 46.3010085 57.5529672 47.5419065 53.0590019L49.3644756 53.1345307C49.3644756 53.1345307 49.2869194 57.0620298 52.8932794 56.7599145 52.8932794 56.7599145 54.0566213 51.6239542 53.5525065 51.3596033L55.2975194 51.5106609z"/>
      <path fill="#42A642" d="M37.1106073 47.8097483C36.1799338 48.4517434 35.2492602 48.4895078 34.7063673 48.5272722 33.9308061 48.5650366 32.8450203 48.602801 32.4960177 47.960806 32.1857932 47.4321042 32.5347958 46.6768159 32.8837983 45.9970565 33.0776887 45.6194123 33.5042474 44.7885952 34.512477 44.1088357 35.5594848 43.4290763 36.5677144 43.3913119 36.9942731 43.3535475 37.7698344 43.3157831 38.8168421 43.2780186 39.1658447 43.8444849 39.5536253 44.4487155 38.8943983 45.4683547 38.3515054 46.3747006 37.9637247 46.9411668 37.6922783 47.3943398 37.1106073 47.8097483zM22.1034965 24.622398C21.6769378 25.8308593 20.8238204 26.5106187 20.3197056 26.8504985 19.6217004 27.3792003 18.6134708 28.1344886 17.8379095 27.7946088 17.1399043 27.4924935 16.9847921 26.5483832 16.8296798 25.6798016 16.7521237 25.2266287 16.5970114 24.1314607 17.1011263 22.8097062 17.6052411 21.4879517 18.5359146 20.7704278 18.9236953 20.4683125 19.6217004 19.9396107 20.591152 19.1843224 21.3279352 19.4864377 22.1034965 19.8263174 22.2198307 21.1858363 22.2973868 22.432062 22.3361649 23.2251147 22.374943 23.8293453 22.1034965 24.622398zM26.2527494 5.8534842C25.5547442 5.28701798 25.3608539 4.5317297 25.2832978 4.11632114 25.1281855 3.51209052 24.9342952 2.64350899 25.43841 2.19033602 25.8649687 1.77492747 26.5629739 1.88822071 27.222201 1.96374954 27.5712036 2.00151395 28.3855429 2.11480719 29.0835481 2.75680223 29.8203313 3.39879728 30.0142216 4.19184997 30.0917777 4.5317297 30.24689 5.13596033 30.4407803 5.96677744 30.0142216 6.41995041 29.5488848 6.91088779 28.5794332 6.68430131 27.6875377 6.45771482 27.1058668 6.30665717 26.6793081 6.19336392 26.2527494 5.8534842zM72.4762017 20.0529039C71.5843063 20.6193701 70.6924108 20.5816057 70.188296 20.5816057 69.4515127 20.5438413 68.4432831 20.5060769 68.0942805 19.8640819 67.784056 19.2976156 68.1718366 18.6178562 68.5208392 17.9758611 68.7147295 17.6359814 69.1412882 16.8429287 70.1107398 16.2764625 71.1189695 15.7099963 72.049643 15.7099963 72.4762017 15.7099963 73.212985 15.7477607 74.2212146 15.7477607 74.5314391 16.3519913 74.8804417 16.9939864 74.2599927 17.9380967 73.7170998 18.7689138 73.3293192 19.2598512 73.0578727 19.6752598 72.4762017 20.0529039zM68.0167244 14.954708C67.784056 15.6722319 67.2411631 16.049876 66.9697166 16.2764625 66.5431579 16.5785778 65.9227089 17.0317508 65.4573721 16.8051643 65.0308134 16.6163422 64.9144792 16.049876 64.7981451 15.5211742 64.7205889 15.2568233 64.6042547 14.5770639 64.9144792 13.8217756 65.2247038 13.0664873 65.7675967 12.6510787 66.000265 12.4622567 66.4268237 12.1601414 67.0084947 11.7069684 67.4738315 11.8957905 67.9779463 12.0846125 68.0555024 12.9154296 68.1330586 13.6329535 68.1330586 14.1238909 68.1718366 14.501535 68.0167244 14.954708zM9.46184763 39.5015772C8.84139861 39.2749907 8.53117409 38.8218178 8.37606184 38.5574669 8.14339345 38.1798227 7.79439088 37.6511209 7.9882812 37.2734768 8.18217152 36.9335971 8.64750829 36.8580682 9.11284506 36.7825394 9.34551344 36.744775 9.9271844 36.6692462 10.5864115 36.9335971 11.2456386 37.197948 11.5946412 37.6888853 11.7109753 37.8777074 11.9824218 38.2553516 12.3314244 38.7462889 12.1375341 39.1239331 11.9436437 39.5393416 11.2068605 39.577106 10.5864115 39.577106 10.1598528 39.6148705 9.84962827 39.6526349 9.46184763 39.5015772zM5.54526316 52.794651C4.65336769 53.3611172 3.76147221 53.3611172 3.25735738 53.3233528 2.52057416 53.2855884 1.5123445 53.247824 1.12456386 52.6435934.814339345 52.0771271 1.16334192 51.3973677 1.5123445 50.7176082 1.70623482 50.3777285 2.13279352 49.5469114 3.10224513 48.9804452 4.11047479 48.3762146 5.04114833 48.413979 5.46770703 48.413979 6.20449025 48.413979 7.21271992 48.4517434 7.52294443 49.0182096 7.87194701 49.6602046 7.25149798 50.604315 6.70860508 51.4351321 6.39838057 52.0015983 6.08815606 52.4547713 5.54526316 52.794651zM12.5253147 55.3626312C12.2150902 56.2312127 11.517085 56.7221501 11.1680825 56.986501 10.6251896 57.3641451 9.84962827 57.8928469 9.22917925 57.5907316 8.68628635 57.3641451 8.56995216 56.6466213 8.45361797 56.0046262 8.37606184 55.6647465 8.25972765 54.8339294 8.64750829 53.889819 9.03528893 52.9457087 9.73329408 52.4170069 10.0435186 52.2281848 10.5864115 51.8505407 11.3231947 51.3218389 11.9048657 51.5861898 12.5253147 51.8505407 12.6028708 52.8701798 12.680427 53.7765258 12.680427 54.342992 12.719205 54.796165 12.5253147 55.3626312z"/>
      <path fill="#2A9842" d="M51.3421568,71.488036 C51.6911594,72.3566175 51.4972691,73.1496702 51.3809349,73.5650788 C51.2258226,74.2070738 50.9931542,75.0756554 50.3339272,75.2644774 C49.7910343,75.4155351 49.2093633,74.9623621 48.6664704,74.5469536 C48.395024,74.3203671 47.7357969,73.7916653 47.3867943,72.8475549 C47.0377917,71.8656802 47.231682,71.0348631 47.3092382,70.6949833 C47.4643504,70.0529883 47.6970188,69.1844068 48.2786898,69.0333491 C48.9379169,68.844527 49.6747001,69.5620509 50.3339272,70.2040459 C50.7992639,70.6194545 51.1482665,70.9593342 51.3421568,71.488036 Z"/>
      <path fill="#42A642" d="M58.0119838 45.4683547C57.9344277 46.2614074 57.4690909 46.7901092 57.1976445 47.0922245 56.8098639 47.507633 56.305749 48.1118637 55.7240781 47.9985704 55.2199632 47.9230416 54.9485168 47.3565754 54.7158484 46.8278736 54.5995142 46.5635227 54.2892897 45.8837632 54.4056239 45.0151817 54.5219581 44.1466002 54.9872948 43.580134 55.2199632 43.3157831 55.6077439 42.9003745 56.1118587 42.2961439 56.6547516 42.4094371 57.2364226 42.5227304 57.507869 43.3535475 57.7793155 44.1088357 57.9344277 44.5997731 58.08954 44.9774173 58.0119838 45.4683547zM49.5971439 48.5272722C48.9766949 48.2251569 48.7052485 47.6964551 48.5501362 47.4321042 48.3174678 47.0166956 48.0072433 46.4502294 48.2786898 46.0348209 48.5113581 45.6949411 49.015473 45.6571767 49.5195878 45.6194123 49.7910343 45.6194123 50.4114833 45.5816479 51.0319323 45.9215276 51.6911594 46.2991718 52.0013839 46.8278736 52.1177181 47.0544601 52.3503865 47.4698686 52.660611 48.0363348 52.4279426 48.413979 52.1564962 48.8293875 51.419713 48.7916231 50.7604859 48.7538587 50.3339272 48.7160943 49.9849246 48.7160943 49.5971439 48.5272722z"/>
      <path fill="#2A9842" d="M79.6501436 24.6979269C79.2235849 24.8489845 78.8358043 24.7734557 78.6031359 24.7356913 78.2929114 24.6601625 77.8275746 24.5468692 77.7500185 24.2447539 77.6724623 23.980403 77.9051307 23.7160521 78.099021 23.4517012 78.2153552 23.3006435 78.4868017 22.9985282 78.9521384 22.8474706 79.4562533 22.6964129 79.8440339 22.7719417 80.0379242 22.8097062 80.3481487 22.885235 80.7747075 22.9985282 80.8910416 23.2628791 81.0073758 23.5649944 80.6195952 23.9426386 80.3093707 24.2447539 80.0767023 24.433576 79.92159 24.5846336 79.6501436 24.6979269zM73.2905411 56.7599145C72.8252043 56.7599145 72.4762017 56.4955636 72.3210895 56.3822704 72.049643 56.1934483 71.7006405 55.9290974 71.7394185 55.5892177 71.7781966 55.3248668 72.0884211 55.1360447 72.3986456 54.984987 72.5537579 54.9094582 72.9415385 54.7206361 73.4456533 54.7584005 73.9497682 54.796165 74.2987708 55.0227514 74.453883 55.1360447 74.7253295 55.3248668 75.074332 55.5892177 75.035554 55.891333 74.9967759 56.1934483 74.5314391 56.3822704 74.1048804 56.5710924 73.7946559 56.6843857 73.6007656 56.7599145 73.2905411 56.7599145zM71.2740818 60.3097694C71.0026353 59.9321253 71.0026353 59.5544811 71.0026353 59.3278947 71.0026353 59.0257793 71.0026353 58.5726064 71.2740818 58.3837843 71.5067501 58.2327266 71.8557527 58.3837843 72.1659772 58.534842 72.3210895 58.6103708 72.7088701 58.7614284 72.9803166 59.176837 73.251763 59.5922456 73.2905411 60.0076541 73.2905411 60.1964762 73.2905411 60.5363559 73.2905411 60.9517645 73.0578727 61.1028221 72.7864263 61.2538798 72.3210895 61.0272933 71.9333088 60.8007068 71.6230843 60.6496492 71.429194 60.5363559 71.2740818 60.3097694z"/>
    </g>
    <g transform="translate(3.49)">
      <g transform="translate(10.986 .933)">
        <mask id="图层_2-c" fill="#fff">
          <use xlink:href="#图层_2-b"/>
        </mask>
        <use fill="#EC5B1D" xlink:href="#图层_2-b"/>
        <path fill="#F3855E" d="M134.679655,18.8301281 L148.90593,18.8301281 L148.90593,153.035574 L134.679655,153.035574 L134.679655,18.8301281 Z M44.4343764,92.874512 L60.5574889,92.874512 L60.5574889,100.27895 L44.4343764,100.27895 L44.4343764,92.874512 Z" mask="url(#图层_2-c)" style="mix-blend-mode:luminosity"/>
      </g>
      <rect width="134.675" height="41.98" x="10.986" y="153.167" fill="#9A4B26" style="mix-blend-mode:luminosity"/>
      <rect width="63.544" height="126.873" x="71.488" y="19.763" fill="#2EC1BD"/>
      <g stroke="#FFF" transform="translate(78.324 71.468)">
        <path stroke-width="3" d="M17.4501288,2.26586485 C17.4501288,2.26586485 10.4700773,1.13293243 10.4700773,6.79759455 C10.4700773,12.4622567 17.4501288,11.3293243 17.4501288,11.3293243 L17.4501288,2.26586485 Z"/>
        <path fill="#FFF" stroke-width="1.5" d="M16.2867869,11.3293243 C16.2867869,11.3293243 17.4864478,16.9939864 25.6116818,16.9939864 C33.7369157,16.9939864 34.9365767,11.3293243 34.9365767,11.3293243 L34.9365767,-5.52110498e-05 L16.2867869,-5.52110498e-05 L16.2867869,11.3293243 Z"/>
        <path stroke-width="4.5" d="M13.3784321 20.9592499L36.6452705 20.9592499M13.3784321 46.6180986L36.6452705 46.6180986"/>
        <path stroke-width="12" d="M0,37.38677 C0,37.38677 8.14339345,32.8550403 23.2668384,32.8550403 C38.3902834,32.8550403 51.2002627,37.38677 51.2002627,37.38677"/>
      </g>
      <path fill="#C9B3A8" d="M142.418054,36.3637096 C141.995438,40.8261341 138.53167,44.306436 134.321294,44.306436 C129.825659,44.306436 126.181228,40.3385699 126.181228,35.443959 C126.181228,35.4097828 126.181405,35.3756518 126.181228,35.3415671 L126.181228,10.9254385 L142.46136,10.9069757 L142.46136,10.9253403 L158.65488,10.9069757 L158.65488,35.3415671 L158.654348,35.3415671 C158.654702,35.3756518 158.65488,35.4097828 158.65488,35.443959 C158.65488,40.3385699 155.010448,44.306436 150.514814,44.306436 C146.304438,44.306436 142.840669,40.8261341 142.418054,36.3637096 Z M109.944385,36.3637096 C109.521769,40.8261341 106.058001,44.306436 101.847625,44.306436 C97.7567632,44.306436 94.3707254,41.0209122 93.7941521,36.7412871 C93.2175789,41.0209122 89.8315411,44.306436 85.7406796,44.306436 C81.2450453,44.306436 77.6006136,40.3385699 77.6006136,35.443959 C77.6006136,35.4097828 77.6007912,35.3756518 77.6006136,35.3415671 L77.6006136,10.9254385 L93.8807456,10.9069757 L93.8807456,10.9252421 L109.987691,10.9069757 L109.987691,10.9253403 L126.181211,10.9069757 L126.181211,35.3415671 L126.180679,35.3415671 C126.181033,35.3756518 126.181211,35.4097828 126.181211,35.443959 C126.181211,40.3385699 122.536779,44.306436 118.041145,44.306436 C113.830769,44.306436 110.367,40.8261341 109.944385,36.3637096 Z M17.1984919,32.8235129 L17.3806866,32.8235129 L17.3806866,10.9254385 L34.5069196,10.9069757 L34.5069196,35.3415671 L34.5063599,35.3415671 C34.5067327,35.3756518 34.5069196,35.4097828 34.5069196,35.443959 C34.5069196,40.3385699 30.6730818,44.306436 25.9438031,44.306436 C23.3864716,44.306436 21.0909711,43.1462135 19.5219099,41.3066192 L19.5219099,64.0518597 L34.696604,64.0518597 L34.696604,72.0049903 L19.5219099,72.0049903 L19.5219099,126.496804 L28.0576753,126.496804 L28.0576753,134.449934 L19.5219099,134.449934 L19.5219099,161.562653 L10.9861444,161.562653 L10.9861444,43.9683159 C10.2391948,44.1885372 9.4505884,44.306436 8.63537546,44.306436 C3.90609681,44.306436 0.0722589741,40.3385699 0.0722589741,35.443959 C0.0722589741,35.4097828 0.0724458888,35.3756518 0.0722589741,35.3415671 L0.0722589741,10.9254385 L17.1984919,10.9069757 L17.1984919,32.8235129 Z M50.2042198,178.354715 L64.4304955,178.354715 L64.4304955,185.817853 L50.2042198,185.817853 L50.2042198,178.354715 Z M57.3173576,170.891576 L71.5436334,170.891576 L71.5436334,178.354715 L57.3173576,178.354715 L57.3173576,170.891576 Z M71.6849209,153.166622 L143.764718,153.166622 L143.764718,162.495545 L71.6849209,162.495545 L71.6849209,153.166622 Z M10.9861444,195.173783 L152.300483,195.173783 L152.300483,202.379908 L10.9861444,202.379908 L10.9861444,195.173783 Z M77.600597,10.9069757 L77.600065,35.3415671 C77.6004194,35.3756518 77.600597,35.4097828 77.600597,35.443959 C77.600597,40.3385699 73.9561654,44.306436 69.460531,44.306436 C64.9648967,44.306436 61.320465,40.3385699 61.320465,35.443959 C61.320465,35.4097828 61.3206427,35.3756518 61.320465,35.3415671 L61.320465,10.9254385 L77.600597,10.9069757 Z M143.764718,153.166622 L152.300483,153.166622 L152.300483,173.690253 L143.764718,173.690253 L143.764718,153.166622 Z M144.713136,182.086284 L157.042575,182.086284 L157.042575,189.549423 L144.713136,189.549423 L144.713136,182.086284 Z" style="mix-blend-mode:multiply"/>
      <polygon fill="#D2D2D2" points="77.516 146.636 71.488 146.636 71.488 120.843 113.423 19.763 127.805 25.422 77.516 146.636" style="mix-blend-mode:multiply"/>
      <polygon fill="#D2D2D2" points="135.032 46.526 135.032 146.636 93.499 146.636 135.032 46.526" style="mix-blend-mode:multiply"/>
      <rect width="80.616" height="6.848" x="71.685" y="146.636" fill="#F7DB00"/>
      <g transform="translate(8.14 .323)">
        <path fill="#F7DB00" d="M35.8502141,24.7571715 L35.8502141,0.322580112 L18.0199493,0.341042895 L18.0199493,24.7571715 C18.0201439,24.7912562 18.0199493,24.8253872 18.0199493,24.8595633 C18.0199493,29.7541742 22.01139,33.7220404 26.9350817,33.7220404 C31.8587734,33.7220404 35.8502141,29.7541742 35.8502141,24.8595633 C35.8502141,24.8253872 35.8500195,24.7912562 35.8496314,24.7571715 L35.8502141,24.7571715 Z"/>
        <path fill="#FAFAFA" d="M18.0199601,24.7571715 L18.0199601,0.322580112 L0.189695254,0.341042895 L0.189695254,24.7571715 C0.189889852,24.7912562 0.189695254,24.8253872 0.189695254,24.8595633 C0.189695254,29.7541742 4.181136,33.7220404 9.10482769,33.7220404 C14.0285194,33.7220404 18.0199601,29.7541742 18.0199601,24.8595633 C18.0199601,24.8253872 18.0197655,24.7912562 18.0193774,24.7571715 L18.0199601,24.7571715 Z"/>
        <path fill="#DDDDDC" d="M71.2262082,0.322580112 L53.3959434,0.341042895 L53.3959434,24.7571715 C53.396138,24.7912562 53.3959434,24.8253872 53.3959434,24.8595633 C53.3959434,29.7541742 57.3873841,33.7220404 62.3110758,33.7220404 C67.2347675,33.7220404 71.2262082,29.7541742 71.2262082,24.8595633 C71.2262082,24.8253872 71.2260136,24.7912562 71.2256255,24.7571715 L71.2262082,0.322580112 Z"/>
        <path fill="#F7C200" d="M89.0564912,0.322580112 L71.2262263,0.341042895 L71.2262263,24.7571715 C71.2264209,24.7912562 71.2262263,24.8253872 71.2262263,24.8595633 C71.2262263,29.7541742 75.2176671,33.7220404 80.1413588,33.7220404 C85.0650504,33.7220404 89.0564912,29.7541742 89.0564912,24.8595633 L89.0564912,0.322580112 Z"/>
        <path fill="#F8F8F8" d="M106.697079,24.7571715 L106.697079,0.322580112 L88.866814,0.341042895 L88.866814,24.7571715 C88.8670086,24.7912562 88.866814,24.8253872 88.866814,24.8595633 C88.866814,29.7541742 92.8582548,33.7220404 97.7819465,33.7220404 C102.705638,33.7220404 106.697079,29.7541742 106.697079,24.8595633 C106.697079,24.8253872 106.696884,24.7912562 106.696496,24.7571715 L106.697079,24.7571715 Z"/>
        <path fill="#F7DB00" d="M124.432485,24.7571715 L124.432485,0.322580112 L106.60222,0.341042895 L106.60222,24.7571715 C106.602415,24.7912562 106.60222,24.8253872 106.60222,24.8595633 C106.60222,29.7541742 110.593661,33.7220404 115.517353,33.7220404 C120.441045,33.7220404 124.432485,29.7541742 124.432485,24.8595633 C124.432485,24.8253872 124.432291,24.7912562 124.431903,24.7571715 L124.432485,24.7571715 Z"/>
        <path fill="#FAFAFA" d="M142.262768,24.7571715 L142.262768,0.322580112 L124.432503,0.341042895 L124.432503,24.7571715 C124.432698,24.7912562 124.432503,24.8253872 124.432503,24.8595633 C124.432503,29.7541742 128.423944,33.7220404 133.347636,33.7220404 C138.271327,33.7220404 142.262768,29.7541742 142.262768,24.8595633 C142.262768,24.8253872 142.262574,24.7912562 142.262185,24.7571715 L142.262768,24.7571715 Z"/>
        <path fill="#F7DB00" d="M159.998175,24.7571715 L159.998175,0.322580112 L142.16791,0.341042895 L142.16791,24.7571715 C142.168104,24.7912562 142.16791,24.8253872 142.16791,24.8595633 C142.16791,29.7541742 146.159351,33.7220404 151.083042,33.7220404 C156.006734,33.7220404 159.998175,29.7541742 159.998175,24.8595633 C159.998175,24.8253872 159.99798,24.7912562 159.997592,24.7571715 L159.998175,24.7571715 Z"/>
        <rect width="3.509" height="18.888" x="156.489" y=".553" fill="#CDCDCD" style="mix-blend-mode:hard-light"/>
        <g style="mix-blend-mode:overlay">
          <mask id="图层_2-e" fill="#fff">
            <use xlink:href="#图层_2-d"/>
          </mask>
          <use fill="#F7DB00" opacity="0" xlink:href="#图层_2-d"/>
          <rect width="159.998" height="14.762" y="19.605" fill="#2E2E2E" mask="url(#图层_2-e)" style="mix-blend-mode:luminosity"/>
        </g>
      </g>
    </g>
    <g fill-rule="nonzero" transform="translate(248.955 92.145)">
      <rect width="5.623" height="41.994" x="40.678" y="77.53" fill="#44384E"/>
      <ellipse cx="42.152" cy="41.05" fill="#2A9842" rx="42.152" ry="41.05"/>
      <path fill="#187B40" d="M60.3774458,4.11632114 C66.7758263,10.9516801 70.6924108,20.0529039 70.6924108,30.0227093 C70.6924108,51.24631 53.0096136,68.4668829 31.2163416,68.4668829 C20.4748178,68.4668829 10.7415237,64.2750329 3.64513802,57.5152028 C10.1210747,72.0922666 25.0118513,82.2886585 42.345646,82.2886585 C65.6124844,82.2886585 84.4974016,63.8973888 84.4974016,41.2387403 C84.4974016,24.8489845 74.6477733,10.7250936 60.3774458,4.11632114 Z"/>
      <path fill="#187B40" d="M48.8603607 25.1888643C48.8603607 25.1888643 58.0507619 25.0000422 55.1811852 37.3112412 55.1811852 37.3112412 65.5349283 34.5166746 68.5983953 41.6163844 68.5983953 41.6163844 73.7558779 36.9335971 70.4985205 31.7221079 70.4985205 31.7221079 65.8839309 28.7387192 60.9203387 31.3444638 60.9203387 31.3444638 60.532558 23.1495859 48.8603607 25.1888643zM20.3197056 17.1828084C20.3197056 17.1828084 12.6416489 20.7326634 14.3866618 29.1163633 14.3866618 29.1163633 4.4206993 27.7946088.581670961 35.0831408.581670961 35.0831408 1.35723224 27.2281426 4.61458962 23.9048742 4.61458962 23.9048742 6.32082444 23.1495859 8.06583733 24.6601625 8.06583733 24.622398 11.3231947 15.1057657 20.3197056 17.1828084zM20.3197056 29.4562431L18.6134708 29.5317719C18.6134708 29.5317719 18.6910269 37.839943 21.2891572 40.7100385 21.2891572 40.7100385 18.8073611 43.126961 15.8214501 39.5015772L14.1927714 40.7100385C14.1927714 40.7100385 17.527685 45.2795326 22.6076114 42.5604948 22.6076114 42.5604948 25.2057416 45.8082344 25.6710784 45.8082344L27.1058668 44.4109511C27.1058668 44.4109511 22.4912772 39.4638128 22.1422746 37.0468903 22.1422746 37.0468903 26.0588591 36.6692462 26.9507545 31.1556417L25.3220758 30.9668196C25.3220758 30.9668196 24.9342952 35.4607849 21.211601 35.3474917 21.172823 35.4230205 20.3972617 31.8731656 20.3197056 29.4562431zM55.2975194 51.5106609C55.2975194 51.5106609 54.3280678 63.1798649 51.2646007 64.463855L48.0072433 64.8414991C48.0072433 64.8414991 50.6829297 64.0862108 52.2340523 58.7614284 52.2340523 58.7614284 46.3010085 57.5529672 47.5419065 53.0590019L49.3644756 53.1345307C49.3644756 53.1345307 49.2869194 57.0620298 52.8932794 56.7599145 52.8932794 56.7599145 54.0566213 51.6239542 53.5525065 51.3596033L55.2975194 51.5106609z"/>
      <path fill="#42A642" d="M37.1106073 47.8097483C36.1799338 48.4517434 35.2492602 48.4895078 34.7063673 48.5272722 33.9308061 48.5650366 32.8450203 48.602801 32.4960177 47.960806 32.1857932 47.4321042 32.5347958 46.6768159 32.8837983 45.9970565 33.0776887 45.6194123 33.5042474 44.7885952 34.512477 44.1088357 35.5594848 43.4290763 36.5677144 43.3913119 36.9942731 43.3535475 37.7698344 43.3157831 38.8168421 43.2780186 39.1658447 43.8444849 39.5536253 44.4487155 38.8943983 45.4683547 38.3515054 46.3747006 37.9637247 46.9411668 37.6922783 47.3943398 37.1106073 47.8097483zM22.1034965 24.622398C21.6769378 25.8308593 20.8238204 26.5106187 20.3197056 26.8504985 19.6217004 27.3792003 18.6134708 28.1344886 17.8379095 27.7946088 17.1399043 27.4924935 16.9847921 26.5483832 16.8296798 25.6798016 16.7521237 25.2266287 16.5970114 24.1314607 17.1011263 22.8097062 17.6052411 21.4879517 18.5359146 20.7704278 18.9236953 20.4683125 19.6217004 19.9396107 20.591152 19.1843224 21.3279352 19.4864377 22.1034965 19.8263174 22.2198307 21.1858363 22.2973868 22.432062 22.3361649 23.2251147 22.374943 23.8293453 22.1034965 24.622398zM26.2527494 5.8534842C25.5547442 5.28701798 25.3608539 4.5317297 25.2832978 4.11632114 25.1281855 3.51209052 24.9342952 2.64350899 25.43841 2.19033602 25.8649687 1.77492747 26.5629739 1.88822071 27.222201 1.96374954 27.5712036 2.00151395 28.3855429 2.11480719 29.0835481 2.75680223 29.8203313 3.39879728 30.0142216 4.19184997 30.0917777 4.5317297 30.24689 5.13596033 30.4407803 5.96677744 30.0142216 6.41995041 29.5488848 6.91088779 28.5794332 6.68430131 27.6875377 6.45771482 27.1058668 6.30665717 26.6793081 6.19336392 26.2527494 5.8534842zM72.4762017 20.0529039C71.5843063 20.6193701 70.6924108 20.5816057 70.188296 20.5816057 69.4515127 20.5438413 68.4432831 20.5060769 68.0942805 19.8640819 67.784056 19.2976156 68.1718366 18.6178562 68.5208392 17.9758611 68.7147295 17.6359814 69.1412882 16.8429287 70.1107398 16.2764625 71.1189695 15.7099963 72.049643 15.7099963 72.4762017 15.7099963 73.212985 15.7477607 74.2212146 15.7477607 74.5314391 16.3519913 74.8804417 16.9939864 74.2599927 17.9380967 73.7170998 18.7689138 73.3293192 19.2598512 73.0578727 19.6752598 72.4762017 20.0529039zM68.0167244 14.954708C67.784056 15.6722319 67.2411631 16.049876 66.9697166 16.2764625 66.5431579 16.5785778 65.9227089 17.0317508 65.4573721 16.8051643 65.0308134 16.6163422 64.9144792 16.049876 64.7981451 15.5211742 64.7205889 15.2568233 64.6042547 14.5770639 64.9144792 13.8217756 65.2247038 13.0664873 65.7675967 12.6510787 66.000265 12.4622567 66.4268237 12.1601414 67.0084947 11.7069684 67.4738315 11.8957905 67.9779463 12.0846125 68.0555024 12.9154296 68.1330586 13.6329535 68.1330586 14.1238909 68.1718366 14.501535 68.0167244 14.954708zM9.46184763 39.5015772C8.84139861 39.2749907 8.53117409 38.8218178 8.37606184 38.5574669 8.14339345 38.1798227 7.79439088 37.6511209 7.9882812 37.2734768 8.18217152 36.9335971 8.64750829 36.8580682 9.11284506 36.7825394 9.34551344 36.744775 9.9271844 36.6692462 10.5864115 36.9335971 11.2456386 37.197948 11.5946412 37.6888853 11.7109753 37.8777074 11.9824218 38.2553516 12.3314244 38.7462889 12.1375341 39.1239331 11.9436437 39.5393416 11.2068605 39.577106 10.5864115 39.577106 10.1598528 39.6148705 9.84962827 39.6526349 9.46184763 39.5015772zM5.54526316 52.794651C4.65336769 53.3611172 3.76147221 53.3611172 3.25735738 53.3233528 2.52057416 53.2855884 1.5123445 53.247824 1.12456386 52.6435934.814339345 52.0771271 1.16334192 51.3973677 1.5123445 50.7176082 1.70623482 50.3777285 2.13279352 49.5469114 3.10224513 48.9804452 4.11047479 48.3762146 5.04114833 48.413979 5.46770703 48.413979 6.20449025 48.413979 7.21271992 48.4517434 7.52294443 49.0182096 7.87194701 49.6602046 7.25149798 50.604315 6.70860508 51.4351321 6.39838057 52.0015983 6.08815606 52.4547713 5.54526316 52.794651zM12.5253147 55.3626312C12.2150902 56.2312127 11.517085 56.7221501 11.1680825 56.986501 10.6251896 57.3641451 9.84962827 57.8928469 9.22917925 57.5907316 8.68628635 57.3641451 8.56995216 56.6466213 8.45361797 56.0046262 8.37606184 55.6647465 8.25972765 54.8339294 8.64750829 53.889819 9.03528893 52.9457087 9.73329408 52.4170069 10.0435186 52.2281848 10.5864115 51.8505407 11.3231947 51.3218389 11.9048657 51.5861898 12.5253147 51.8505407 12.6028708 52.8701798 12.680427 53.7765258 12.680427 54.342992 12.719205 54.796165 12.5253147 55.3626312z"/>
      <path fill="#2A9842" d="M51.3421568,71.488036 C51.6911594,72.3566175 51.4972691,73.1496702 51.3809349,73.5650788 C51.2258226,74.2070738 50.9931542,75.0756554 50.3339272,75.2644774 C49.7910343,75.4155351 49.2093633,74.9623621 48.6664704,74.5469536 C48.395024,74.3203671 47.7357969,73.7916653 47.3867943,72.8475549 C47.0377917,71.8656802 47.231682,71.0348631 47.3092382,70.6949833 C47.4643504,70.0529883 47.6970188,69.1844068 48.2786898,69.0333491 C48.9379169,68.844527 49.6747001,69.5620509 50.3339272,70.2040459 C50.7992639,70.6194545 51.1482665,70.9593342 51.3421568,71.488036 Z"/>
      <path fill="#42A642" d="M58.0119838 45.4683547C57.9344277 46.2614074 57.4690909 46.7901092 57.1976445 47.0922245 56.8098639 47.507633 56.305749 48.1118637 55.7240781 47.9985704 55.2199632 47.9230416 54.9485168 47.3565754 54.7158484 46.8278736 54.5995142 46.5635227 54.2892897 45.8837632 54.4056239 45.0151817 54.5219581 44.1466002 54.9872948 43.580134 55.2199632 43.3157831 55.6077439 42.9003745 56.1118587 42.2961439 56.6547516 42.4094371 57.2364226 42.5227304 57.507869 43.3535475 57.7793155 44.1088357 57.9344277 44.5997731 58.08954 44.9774173 58.0119838 45.4683547zM49.5971439 48.5272722C48.9766949 48.2251569 48.7052485 47.6964551 48.5501362 47.4321042 48.3174678 47.0166956 48.0072433 46.4502294 48.2786898 46.0348209 48.5113581 45.6949411 49.015473 45.6571767 49.5195878 45.6194123 49.7910343 45.6194123 50.4114833 45.5816479 51.0319323 45.9215276 51.6911594 46.2991718 52.0013839 46.8278736 52.1177181 47.0544601 52.3503865 47.4698686 52.660611 48.0363348 52.4279426 48.413979 52.1564962 48.8293875 51.419713 48.7916231 50.7604859 48.7538587 50.3339272 48.7160943 49.9849246 48.7160943 49.5971439 48.5272722z"/>
      <path fill="#2A9842" d="M79.6501436 24.6979269C79.2235849 24.8489845 78.8358043 24.7734557 78.6031359 24.7356913 78.2929114 24.6601625 77.8275746 24.5468692 77.7500185 24.2447539 77.6724623 23.980403 77.9051307 23.7160521 78.099021 23.4517012 78.2153552 23.3006435 78.4868017 22.9985282 78.9521384 22.8474706 79.4562533 22.6964129 79.8440339 22.7719417 80.0379242 22.8097062 80.3481487 22.885235 80.7747075 22.9985282 80.8910416 23.2628791 81.0073758 23.5649944 80.6195952 23.9426386 80.3093707 24.2447539 80.0767023 24.433576 79.92159 24.5846336 79.6501436 24.6979269zM73.2905411 56.7599145C72.8252043 56.7599145 72.4762017 56.4955636 72.3210895 56.3822704 72.049643 56.1934483 71.7006405 55.9290974 71.7394185 55.5892177 71.7781966 55.3248668 72.0884211 55.1360447 72.3986456 54.984987 72.5537579 54.9094582 72.9415385 54.7206361 73.4456533 54.7584005 73.9497682 54.796165 74.2987708 55.0227514 74.453883 55.1360447 74.7253295 55.3248668 75.074332 55.5892177 75.035554 55.891333 74.9967759 56.1934483 74.5314391 56.3822704 74.1048804 56.5710924 73.7946559 56.6843857 73.6007656 56.7599145 73.2905411 56.7599145zM71.2740818 60.3097694C71.0026353 59.9321253 71.0026353 59.5544811 71.0026353 59.3278947 71.0026353 59.0257793 71.0026353 58.5726064 71.2740818 58.3837843 71.5067501 58.2327266 71.8557527 58.3837843 72.1659772 58.534842 72.3210895 58.6103708 72.7088701 58.7614284 72.9803166 59.176837 73.251763 59.5922456 73.2905411 60.0076541 73.2905411 60.1964762 73.2905411 60.5363559 73.2905411 60.9517645 73.0578727 61.1028221 72.7864263 61.2538798 72.3210895 61.0272933 71.9333088 60.8007068 71.6230843 60.6496492 71.429194 60.5363559 71.2740818 60.3097694z"/>
    </g>
    <rect width="44.983" height="5.891" x="132.776" y="206.231" fill="#FFF" fill-rule="nonzero"/>
    <g fill-rule="nonzero" transform="translate(90.283 94.033)">
      <rect width="12.492" height="13.58" x="15.751" y="28.532" fill="#E09378"/>
      <path fill="#F0C5AA" d="M11.800875,21.1035905 L11.8996271,21.1035905 L11.8996271,14.5264625 C11.8996271,8.09128695 17.3309921,2.83904805 23.9967583,2.83904805 L26.3668085,3.02831792 C33.0325747,3.02831792 36.0938895,8.09128695 36.0938895,14.5264625 L36.0938895,24.3211783 C35.9457614,25.4567975 35.4026249,28.9582901 32.34131,32.0339255 C29.082491,35.2988308 25.0830313,35.9139579 23.9473822,36.0085928 L23.9473822,36.0085928 C22.7623571,35.9139579 19.404786,35.3934657 16.2940951,32.8383225 C12.9859001,30.0939094 12.1465073,26.6870517 11.8996271,25.5987499 L11.7021229,25.5987499 C10.4183457,25.5987499 9.38144871,24.6050831 9.38144871,23.374829 C9.4802008,22.0972573 10.5170978,21.1035905 11.800875,21.1035905 Z"/>
      <path fill="#792A52" d="M16.6397275,9.13227124 C16.6397275,9.13227124 17.0347358,21.4348128 13.6771647,25.2675277 C13.6771647,25.2675277 14.3190533,21.4821303 11.800875,21.150908 C11.800875,21.150908 10.7146019,16.3718438 11.4058666,9.22690617 C11.4058666,9.22690617 9.97396126,8.51714416 8.83831221,10.6937477 C8.83831221,10.6937477 6.27075782,5.67809611 11.7021229,2.74441312 C11.7021229,2.74441312 19.404786,-2.12928604 31.3044131,1.41952403 C33.7732154,2.17660351 35.4026249,4.49515942 35.1557446,6.95566773 L35.1557446,7.05030267 C35.1557446,7.05030267 38.2170595,6.8610328 39.1552044,4.96833409 C39.1552044,4.96833409 39.3527085,8.42250922 34.8594884,9.60544591 C34.8101123,9.60544591 24.8361511,11.6874145 16.6397275,9.13227124 Z"/>
      <rect width="5.382" height="1" x="17.578" y="16.987" fill="#792A52"/>
      <rect width="4.493" height="1" x="31.354" y="16.987" fill="#792A52"/>
      <path fill="#44384E" d="M18.4172651 20.7250508C18.4172651 20.7250508 20.5404351 17.4128281 22.5154769 20.7250508 22.5154769 20.7250508 20.7379393 20.1572412 18.4172651 20.7250508zM31.5019173 20.6777333C31.5019173 20.6777333 33.6250872 17.3655106 35.6001291 20.6777333 35.6001291 20.6777333 33.8225914 20.1099237 31.5019173 20.6777333z"/>
      <path fill="#FFF" d="M28.1443461,26.6397342 L28.2430982,30.1885443 C28.2430982,30.1885443 20.2441788,30.7563539 19.8985465,26.9709565 L28.1443461,26.6397342 Z"/>
      <g transform="translate(0 38.8)">
        <path fill="#752E6F" d="M46.4134831,10.220573 L42.0683911,3.21758779 C40.4389816,0.567809611 36.9332823,-0.37853974 34.3163519,1.08830175 C31.6994214,2.55514325 30.9094047,5.96200091 32.5388142,8.6117791 L36.8839063,15.6147643 L46.4134831,10.220573 Z"/>
        <polygon fill="#8C3B75" points="4.641 .899 35.995 .899 47.105 35.393 17.726 36.292"/>
        <path fill="#752E6F" d="M15.0103179 10.3625254L10.6652259 3.3595402C9.03581639.709762013 5.53011714-.236587338 2.91318671 1.23025416.296256275 2.69709565-.493760459 6.10395331 1.13564905 8.7537315L5.48074109 15.7567167 15.0103179 10.3625254zM15.7015826.899031884C16.0965909 1.8926987 16.9359837 3.45417513 18.5653932 4.77906422 19.2072818 5.2522389 22.3673488 7.71274721 25.2805355 6.52981052 26.909945 5.86736598 27.6505857 4.35320702 27.7987138 4.02198474 28.4406024 2.64977818 28.2924743 1.41952403 28.1937222.946349351 24.0461343.899031884 19.8985465.899031884 15.7015826.899031884z"/>
      </g>
      <path fill="#EAAC8B" d="M42.6115276,60.7083109 C42.6115276,60.7083109 45.3765861,67.7112961 49.9685584,64.4937083 C50.9560793,63.7839463 51.69672,62.7902794 52.1411044,61.7019777 L61.6706813,37.2861644 C61.6706813,37.2861644 64.7319961,36.4817675 65.9663973,32.791005 L67.2501745,31.9392906 C67.6945589,31.6553858 67.9908151,31.1348937 67.9908151,30.6144015 C67.9414391,29.8100046 67.5464307,28.7690203 65.670141,29.14756 C65.670141,29.14756 64.6826201,28.8163377 66.80579,27.9646233 C67.5464307,27.6807185 68.0401912,26.9709565 67.892063,26.213877 C67.7439349,25.5514325 67.2501745,24.9363054 65.7688931,25.2675277 L63.4482189,26.5450993 C63.4482189,26.5450993 63.0532106,26.3558294 63.3494668,25.9772897 L67.9908151,23.7060512 C68.3364475,23.5167814 68.6327037,23.1855591 68.6820798,22.8070194 C68.7808319,22.1918923 68.7808319,21.3401779 67.842687,21.0562731 C67.4476786,20.9143207 67.0032942,21.0089556 66.6082859,21.1982255 L57.4737174,25.8826548 C57.3255892,25.9772897 57.1774611,26.0719246 57.1280851,26.2611945 L53.2273774,33.8319893 L42.6115276,60.7083109 Z"/>
      <g transform="translate(50.364 44.952)">
        <path fill="#FFF" d="M3.99945971,0.18926987 L16.2447191,0.18926987 L16.2940951,6.81371533 C16.2940951,8.13860442 15.7509586,9.46349351 14.6646856,10.3152079 C14.3190533,10.5991127 13.8746689,10.8830175 13.3809084,11.0249699 L7.20890269,10.930335 L7.20890269,10.930335 C5.33261295,10.0786206 4.14758785,8.32787429 4.09821181,6.34054065 L3.99945971,0.18926987 Z"/>
        <polygon fill="#DDDDDC" points="7.209 10.978 13.43 10.978 13.43 12.397 7.209 12.303"/>
        <path fill="#DDDDDC" d="M11.3564905,0.18926987 L3.95008367,0.18926987 L4.04883576,6.43517559 C4.09821181,8.42250922 5.28323691,10.220573 7.15952665,11.0249699 L7.15952665,11.0249699 L11.3071145,11.0722874 L11.3071145,0.18926987 L11.3564905,0.18926987 Z"/>
        <polygon fill="#C2C0BF" points="11.356 10.978 7.16 10.978 7.16 12.303 11.356 12.35"/>
        <path fill="#C1BFBE" d="M3.99945971,1.41952403 C3.99945971,1.41952403 1.92566579,0.946349351 0.740640688,2.12928604 C0.395008367,2.46050831 0.197504183,2.93368299 0.197504183,3.40685766 C0.0987520917,5.01565156 0.395008367,9.0376363 4.14758785,7.47615987 L3.99945971,1.41952403 Z"/>
      </g>
      <path fill="#E8A480" d="M41.8215108,48.7369916 C41.8215108,48.7369916 41.3771264,46.8916103 43.5496724,46.7969754 L46.0184747,46.2291658 C46.0184747,46.2291658 47.8453884,45.5194038 48.9316614,47.8852772 L41.8215108,48.7369916 Z"/>
      <path fill="#F0C5AA" d="M6.17200573,53.9892305 L16.3434712,70.4083917 C16.3434712,70.4083917 17.5778723,72.3010904 20.8366913,71.2127887 L46.314731,59.099517 C46.314731,59.099517 49.4747979,58.8156122 50.8079512,57.6326755 L56.5849485,58.389755 C57.2762132,58.4843899 58.0168539,58.2004851 58.3624862,57.6326755 C58.6587425,57.1121833 58.6587425,56.4497388 57.2762132,55.7399768 L52.782993,55.2668021 C52.782993,55.2668021 51.7460961,54.5570401 54.8567869,52.8062938 C54.8567869,52.8062938 56.0911881,51.1501824 54.2642744,50.7243252 C54.2642744,50.7243252 56.5355725,48.6423566 53.7705139,47.6960073 L50.1660626,47.8852772 C50.1660626,47.8852772 44.8334496,44.7150068 41.4265025,49.0682139 C41.4265025,49.0682139 40.1921013,51.4340872 40.3896055,52.0965318 L21.1823237,60.9448982 L14.3190533,49.5413885 L6.17200573,53.9892305 Z"/>
      <path fill="#3D3244" d="M47.0553717,74.1464717 L64.4357398,74.2884241 C64.4357398,74.2884241 67.7439349,74.6196463 68.2870714,77.8372341 C68.5339516,79.3040756 68.0895672,80.7709171 67.1514224,81.9065363 L49.7216782,104.003794 L37.9208032,104.003794 L52.6348649,84.8875368 L47.0553717,74.1464717 Z"/>
      <path fill="#44384E" d="M17.6766244,74.7142813 L51.0054554,74.1464717 C51.0054554,74.1464717 55.0542911,73.9572018 56.7824527,78.9728534 C57.1774611,80.15579 57.7205976,81.3387267 58.2637341,82.4743459 L68.1389433,102.58427 L58.115606,103.246714 L48.7341573,83.2787429 L26.909945,83.799235 C25.0336552,83.799235 23.1573655,83.2314254 21.6760841,82.1431237 C20.8366913,81.5279966 20.0466746,80.6762822 19.6022902,79.6352979 L17.6766244,74.7142813 Z"/>
      <g transform="translate(57.276 102.206)">
        <polygon fill="#8C3B75" points=".395 .189 11.998 .189 17.232 10.457 .543 10.363"/>
        <ellipse cx="6.419" cy="5.536" fill="#E6C42C" rx="2.716" ry="2.602"/>
      </g>
      <g transform="translate(37.032 103.152)">
        <polygon fill="#8C3B75" points=".296 .142 11.949 .142 17.183 10.41 .444 10.315"/>
        <ellipse cx="5.826" cy="5.347" fill="#E6C42C" rx="2.716" ry="2.602"/>
      </g>
      <path fill="#E5A481" d="M54.0173942,26.308512 L56.2393162,24.8889879 C56.7824527,24.5104482 57.5230934,24.5577657 58.0662299,24.9836229 C58.6093664,25.4094801 59.0043748,26.0246072 58.2637341,26.7816866 L56.6343246,27.9173059 L56.6837006,31.2768461 C56.6837006,31.5134334 56.6343246,31.7500207 56.4861965,31.9392906 C56.0911881,32.5544177 55.1530432,33.595402 54.0173942,32.0339255 C53.869266,31.8446557 53.7705139,31.6080683 53.7705139,31.371481 L53.3755056,27.5860836 C53.3261295,27.0655914 53.5730097,26.5924168 54.0173942,26.308512 Z"/>
    </g>
    <g fill-rule="nonzero" transform="translate(93.245 146.556)">
      <g transform="translate(72.089 35.488)">
        <polygon fill="#DDDDDC" points="2.913 2.319 .148 27.539 5.53 27.681 8.591 .237"/>
        <polyline fill="#FFF" points="37.378 30.189 42.957 30.047 39.55 .994 34.761 1.42"/>
      </g>
      <rect width="38.02" height="4.59" x="74.212" y="33.075" fill="#FFF"/>
      <polygon fill="#DDDDDC" points="28.342 30.851 50.759 30.567 52.585 57.396 47.796 57.254 45.821 36.009 36.094 36.151 34.267 59.005 28.589 58.721 31.502 35.725 28.836 35.677"/>
      <polygon fill="#FFF" points=".395 1.609 2.37 10.315 4.246 10.173 9.48 33.501 7.16 63.453 12.097 63.595 14.714 36.009 23.799 36.009 26.564 63.311 31.798 63.311 28.885 35.867 29.329 30.851 22.713 30.993 14.072 30.993 11.159 17.271 7.011 .142"/>
    </g>
    <g fill-rule="nonzero" transform="translate(166.322 98.765)">
      <ellipse cx="32.341" cy="11.64" fill="#813826" rx="3.95" ry="3.975"/>
      <ellipse cx="7.999" cy="12.019" fill="#813826" rx="3.802" ry="3.785"/>
      <rect width="11.11" height="8.659" x="15.307" y="32.46" fill="#E09378"/>
      <path fill="#EDBA9A" d="M33.0819507,23.1855591 C32.8844465,23.1855591 32.7363184,23.2328766 32.5881903,23.2328766 L32.5881903,16.2772088 C32.5881903,9.88935072 27.1568252,4.68442929 20.491059,4.68442929 C13.8252928,4.68442929 8.39392779,9.88935072 8.39392779,16.2772088 L8.39392779,25.8826548 C8.59143198,27.2548613 9.23332057,30.1885443 11.6527468,32.9329574 C12.5415156,33.9266242 15.7015826,37.4281168 20.491059,37.3807994 C24.4905187,37.3334819 27.2062013,34.7783387 28.4899785,33.5480845 C31.1562849,31.0402587 32.1438058,28.2012107 32.5388142,26.8290041 C32.6869424,26.8763216 32.8844465,26.923639 33.0819507,26.923639 C34.2175998,26.923639 35.1063686,26.1192421 35.1063686,25.0782578 C35.1063686,23.9899561 34.2175998,23.1855591 33.0819507,23.1855591 Z"/>
      <rect width="1.383" height="14.763" x="7.406" y="11.12" fill="#A35835"/>
      <path fill="#A35835" d="M27.7987138,13.7693831 L27.7987138,15.6147643 C27.7987138,15.6147643 30.5143963,16.1352564 29.9712598,18.8796696 L30.0700119,27.2075438 L30.6131484,27.0655914 C30.6131484,27.0655914 29.9218838,22.8070194 32.9338226,23.1382416 L33.1807028,12.0186368 L29.5762515,11.0722874 L27.7987138,13.7693831 Z"/>
      <path fill="#813826" d="M28.9343629,1.8926987 C28.1937222,1.8926987 27.5024575,2.0346511 26.8111929,2.27123844 C25.7249199,0.946349351 23.9967583,0.0473174676 22.0710925,0.0473174676 C20.8860674,0.0473174676 19.7504183,0.37853974 18.8122735,0.946349351 C17.8741286,0.425857208 16.8372316,0.0946349351 15.7015826,0.0946349351 C12.7390198,0.0946349351 10.2702175,2.12928604 9.77645708,4.82638169 L9.4802008,4.82638169 C6.96202247,4.82638169 4.88822854,6.81371533 4.88822854,9.22690617 C4.88822854,11.640097 6.96202247,13.6274307 9.4802008,13.6274307 C11.2083624,13.6274307 12.7390198,12.6810813 13.5290366,11.3088747 C14.2203012,11.5454621 14.9609419,11.6874145 15.7509586,11.6874145 C16.9359837,11.6874145 18.0716328,11.3561922 19.0097777,10.7883826 C19.9479225,11.3088747 20.9848195,11.640097 22.1204685,11.640097 C22.8611092,11.640097 23.5523739,11.4981446 24.2436385,11.2615573 C25.3299115,12.5864464 27.0580731,13.4854783 28.9837389,13.4854783 C32.34131,13.4854783 35.0076165,10.8830175 35.0076165,7.71274721 C34.9582405,4.49515942 32.2425579,1.8926987 28.9343629,1.8926987 Z"/>
      <rect width="5.333" height="1.088" x="9.826" y="17.981" fill="#964A2C"/>
      <rect width="5.333" height="1.088" x="23.454" y="17.981" fill="#964A2C"/>
      <path fill="#44384E" d="M10.3689696 22.9016543C10.3689696 22.9016543 12.4921396 19.5894316 14.4671814 22.9016543 14.4671814 22.9016543 12.6896438 22.3338447 10.3689696 22.9016543zM24.2930146 22.9962892C24.2930146 22.9962892 26.4161845 19.6840665 28.3912264 22.9962892 28.3418503 22.9962892 26.5643127 22.4284796 24.2930146 22.9962892z"/>
      <path fill="#FFF" d="M16.7384795,28.9109727 L17.1334879,32.4124653 C17.1334879,32.4124653 25.1324073,31.8919731 24.9349032,28.1065757 L16.7384795,28.9109727 Z"/>
      <path fill="#E3B527" d="M20.5404351,41.8286413 L12.9859001,41.8286413 L12.9859001,38.658371 L19.2072818,38.658371 C19.9479225,38.658371 20.5404351,39.2261806 20.5404351,39.9359426 L20.5404351,41.8286413 L20.5404351,41.8286413 Z"/>
      <path fill="#E3B527" d="M27.946842,41.7813239 L20.3923069,41.7813239 L20.3923069,39.7939902 C20.3923069,39.1788631 20.9354434,38.658371 21.577332,38.658371 L27.946842,38.658371 L27.946842,41.7813239 Z"/>
      <path fill="#DB7619" d="M33.8719675,73.7206145 L6.71514224,73.7206145 L6.71514224,46.9862453 C6.71514224,44.0052448 9.23332057,41.6393714 12.2946354,41.6393714 L28.2430982,41.6393714 C31.3537891,41.6393714 33.8225914,44.0525623 33.8225914,46.9862453 L33.8225914,73.7206145 L33.8719675,73.7206145 Z"/>
      <path fill="#E3B527" d="M11.1096103 54.1311829L0 54.1311829 0 47.1281977C0 44.7623243 1.97504183 42.8696256 4.44384413 42.8696256L6.66576619 42.8696256C9.13456848 42.8696256 11.1096103 44.7623243 11.1096103 47.1281977L11.1096103 54.1311829zM40.5377336 53.9892305L29.4281233 53.9892305 29.4281233 46.9862453C29.4281233 44.6203719 31.4031652 42.7276732 33.8719675 42.7276732L36.0938895 42.7276732C38.5626918 42.7276732 40.5377336 44.6203719 40.5377336 46.9862453L40.5377336 53.9892305z"/>
      <path fill="#E8A480" d="M0.987520917,54.0365479 L0.543136504,62.742962 C0.493760459,63.4054065 0.691264642,64.0205336 1.08627301,64.5883432 C1.53065742,65.1561528 2.22192206,65.8185974 3.45632321,66.2444546 C3.60445135,66.291772 3.80195553,66.3390895 3.95008367,66.3390895 L23.4536218,66.1025022 C23.4536218,66.1025022 26.5643127,65.7239624 27.2555773,62.9795493 C27.2555773,62.9795493 28.5393545,56.5443737 28.2924743,53.941913 C28.2430982,53.4214209 27.8974659,52.9955637 27.4037054,52.8062938 L24.4411427,51.6706746 C24.2436385,51.5760396 24.0461343,51.5760396 23.7992541,51.5760396 C23.1573655,51.6233571 22.0217164,51.9072619 22.7623571,53.3741034 L16.4422233,58.9102471 L10.0233373,58.6263423 L9.92458522,54.1311829 L0.987520917,54.0365479 Z"/>
      <g transform="translate(4.444 51.103)">
        <path fill="#FFF" d="M12.936524,1.79806377 L10.9121061,1.79806377 C9.03581639,1.79806377 7.50515897,3.26490526 7.50515897,5.06296903 L7.50515897,5.20492143 C7.50515897,7.0029852 9.03581639,8.46982669 10.9121061,8.46982669 L12.936524,8.46982669 C14.8128138,8.46982669 16.3434712,7.0029852 16.3434712,5.20492143 L16.3434712,5.06296903 C16.3434712,3.31222273 14.8128138,1.79806377 12.936524,1.79806377 Z M12.887148,7.47615987 L10.9614822,7.47615987 C9.62832894,7.47615987 8.54205593,6.43517559 8.54205593,5.15760396 C8.54205593,3.88003234 9.62832894,2.83904805 10.9614822,2.83904805 L12.887148,2.83904805 C14.2203012,2.83904805 15.3065742,3.88003234 15.3065742,5.15760396 C15.3065742,6.43517559 14.2203012,7.47615987 12.887148,7.47615987 Z"/>
        <path fill="#FFF" d="M0.345632321,0.141952403 L12.3440115,0.141952403 L12.3440115,6.81371533 C12.3440115,8.28055682 11.7021229,9.74739832 10.5170978,10.6937477 C10.1220894,10.9776525 9.72708103,11.2615573 9.23332057,11.4035097 L3.06131484,11.4035097 C3.06131484,11.4035097 3.0119388,11.4035097 2.96256275,11.3561922 C1.1850251,10.6464302 0.0493760459,8.99031884 0.0493760459,7.1449376 L0.0493760459,0.0946349351 L0.345632321,0.141952403 Z"/>
        <rect width="6.419" height="1.467" x="3.012" y="11.309" fill="#DDDDDC"/>
        <path fill="#DDDDDC" d="M5.82637341,0.141952403 L0.345632321,0.141952403 L0.148128138,0.0946349351 L0.148128138,7.1449376 C0.148128138,8.99031884 1.28377719,10.6464302 3.06131484,11.3561922 C3.11069089,11.3561922 3.16006693,11.4035097 3.16006693,11.4035097 L5.87574946,11.4035097 L5.87574946,0.141952403 L5.82637341,0.141952403 Z"/>
      </g>
      <path fill="#EDBA9A" d="M18.0716328,60.6609934 L14.6646856,60.9922157 C14.3190533,61.0395331 14.022797,61.1814855 13.8252928,61.4180729 C13.4796605,61.7966126 13.1340282,62.3644222 13.5290366,62.8849144 C13.7759168,63.2161367 14.2696773,63.4054065 14.7140617,63.3580891 L19.9479225,62.7902794 C19.9479225,62.7902794 21.7748362,64.8249306 26.0705522,63.6419939 L33.2300789,66.6229943 C33.2300789,66.6229943 38.1676834,67.6166611 39.2045804,64.1151685 L39.0564523,54.0365479 L30.4156442,54.0838654 L30.4650203,56.6863261 C30.4650203,56.6863261 29.033115,56.3551039 28.8849868,56.3551039 C28.8849868,56.3551039 24.9349032,50.7243252 20.3923069,54.3204528 L18.1703849,54.0838654 C17.4791202,54.1311829 16.8866077,54.4150877 16.7384795,54.8882624 C16.6397275,55.1721672 16.7384795,55.456072 16.7878556,55.6926593 L16.7878556,55.6926593 C16.9359837,56.165834 17.3803681,56.4970563 17.8741286,56.5443737 L18.9110256,56.6863261 L17.9728807,56.7809611 C17.7753765,56.8282785 17.3309921,56.9702309 16.9853598,57.3960881 C16.8372316,57.5380405 16.5903514,57.8692628 16.6397275,58.3424375 C16.6397275,58.6736598 16.8866077,59.099517 17.182864,59.2887868 C17.4791202,59.4780567 17.7260005,59.3361043 18.1210088,59.5726917 C18.318513,59.6673266 18.4172651,59.809279 18.5160172,59.9039139 C18.318513,60.0931838 18.1703849,60.3770886 18.0716328,60.6609934 Z"/>
      <path fill="#3D3244" d="M31.255037,81.9538538 L9.33207267,81.9538538 C7.90016734,81.9538538 6.71514224,80.8182346 6.71514224,79.446028 L6.71514224,73.673297 L33.8225914,73.673297 L33.8225914,79.446028 C33.8225914,80.8182346 32.6869424,81.9538538 31.255037,81.9538538 Z"/>
      <path fill="#44384E" d="M12.8377719 109.634572L11.0108582 109.634572C8.98644035 109.634572 7.30765479 108.025778 7.30765479 106.085762L7.30765479 76.0391704C7.30765479 74.0991542 8.98644035 72.4903603 11.0108582 72.4903603L12.8377719 72.4903603C14.8621898 72.4903603 16.5409754 74.0991542 16.5409754 76.0391704L16.5409754 106.085762C16.5409754 108.073096 14.8621898 109.634572 12.8377719 109.634572zM29.6750036 109.445302L27.8480899 109.445302C25.823672 109.445302 24.1448864 107.836509 24.1448864 105.896492L24.1448864 75.8499005C24.1448864 73.9098843 25.823672 72.3010904 27.8480899 72.3010904L29.6750036 72.3010904C31.6994214 72.3010904 33.378207 73.9098843 33.378207 75.8499005L33.378207 105.896492C33.378207 107.883826 31.6994214 109.445302 29.6750036 109.445302z"/>
      <path fill="#DB7619" d="M34.6126081 113.278017L23.3548697 113.278017 23.3548697 105.801857C23.3548697 104.713556 24.2930146 103.814524 25.4286636 103.814524L32.5388142 103.814524C33.6744633 103.814524 34.6126081 104.713556 34.6126081 105.801857L34.6126081 113.278017 34.6126081 113.278017zM17.7260005 113.278017L6.46826201 113.278017 6.46826201 105.896492C6.46826201 104.760873 7.45578292 103.814524 8.64080802 103.814524L15.5534544 103.814524C16.7384795 103.814524 17.7260005 104.760873 17.7260005 105.896492L17.7260005 113.278017z"/>
      <path fill="#E3B527" d="M13.3315324 110.533604L11.2577385 110.533604C10.1714654 110.533604 9.28269662 109.68189 9.28269662 108.640906L9.28269662 103.909159 15.3065742 103.909159 15.3065742 108.640906C15.3065742 109.68189 14.4671814 110.533604 13.3315324 110.533604zM30.2675161 110.533604L28.1443461 110.533604C27.0580731 110.533604 26.1693043 109.68189 26.1693043 108.640906L26.1693043 103.909159 32.2425579 103.909159 32.2425579 108.640906C32.2425579 109.68189 31.3537891 110.533604 30.2675161 110.533604z"/>
      <g fill="#FFF" transform="translate(7.9 105.518)">
        <path d="M0.395008367,3.97466727 L0.296256275,3.73807994 C0.197504183,3.5014926 0.296256275,3.21758779 0.543136504,3.07563539 L7.20890269,0.37853974 C7.45578292,0.283904805 7.7520392,0.37853974 7.90016734,0.615127078 L7.99891943,0.851714416 C8.09767152,1.08830175 7.99891943,1.37220656 7.7520392,1.51415896 L1.08627301,4.21125461 C0.790016734,4.35320702 0.493760459,4.21125461 0.395008367,3.97466727 Z"/>
        <path d="M0.296256275,0.993666819 L0.395008367,0.757079481 C0.493760459,0.520492143 0.790016734,0.37853974 1.03689696,0.473174676 L7.85079129,2.88636552 C8.09767152,2.98100046 8.24579966,3.26490526 8.14704757,3.5014926 L8.04829547,3.73807994 C7.94954338,3.97466727 7.65328711,4.11661968 7.40640688,4.02198474 L0.59251255,1.6087939 C0.345632321,1.51415896 0.197504183,1.23025416 0.296256275,0.993666819 Z"/>
      </g>
      <g fill="#FFF" transform="translate(25.182 105.518)">
        <path d="M0.197504183,3.69076247 L0.0987520917,3.45417513 C7.50718931e-14,3.21758779 0.0987520917,2.93368299 0.345632321,2.79173059 L7.01139851,0.0946349351 C7.25827874,-1.30034872e-14 7.55453502,0.0946349351 7.70266315,0.331222273 L7.80141524,0.567809611 C7.90016734,0.804396948 7.80141524,1.08830175 7.55453502,1.23025416 L0.888768825,3.92734981 C0.59251255,4.02198474 0.296256275,3.92734981 0.197504183,3.69076247 Z"/>
        <path d="M0.0987520917,0.709762013 L0.197504183,0.473174676 C0.296256275,0.236587338 0.59251255,0.0946349351 0.839392779,0.18926987 L7.65328711,2.60246072 C7.90016734,2.69709565 8.04829547,2.98100046 7.94954338,3.21758779 L7.85079129,3.45417513 C7.7520392,3.69076247 7.45578292,3.83271487 7.20890269,3.73807994 L0.395008367,1.32488909 C0.148128138,1.23025416 3.51940699e-14,0.946349351 0.0987520917,0.709762013 Z"/>
      </g>
    </g>
    <g fill-rule="nonzero" transform="translate(153.978 159.331)">
      <rect width="3.407" height="31.892" x="31.107" y="7.05" fill="#954980"/>
      <path fill="#752E6F" d="M43.3521683,8.09128695 L22.1204685,8.09128695 C21.1823237,8.09128695 20.441683,7.38152494 20.441683,6.48249306 L20.441683,3.73807994 L45.0803299,3.73807994 L45.0803299,6.38785812 C45.0803299,7.33420747 44.2903131,8.09128695 43.3521683,8.09128695 Z"/>
      <rect width="5.629" height="13.864" x="30.169" y="34.305" fill="#752E6F"/>
      <polygon fill="#752E6F" points="30.564 46.087 22.713 49.447 22.713 50.724 46.117 50.772 35.551 46.466"/>
      <rect width="22.565" height="3.407" x="23.404" y="50.677" fill="#672F56"/>
      <path fill="#FFF" d="M65.5220128,4.92101663 L0.0987520917,4.92101663 L0.0987520917,0.946349351 C0.0987520917,0.473174676 0.493760459,0.141952403 0.938144871,0.141952403 L64.4357398,0.141952403 C65.0282524,0.141952403 65.5220128,0.615127078 65.5220128,1.18293669 L65.5220128,4.92101663 Z"/>
    </g>
    <g fill-rule="nonzero" transform="translate(222.61 151.288)">
      <path fill="#DDDDDC" d="M6.46826201,33.6900369 C6.5670141,33.6427194 7.01139851,33.6427194 7.55453502,33.595402 C9.13456848,33.5480845 11.850251,33.5480845 11.850251,33.5480845 L14.1709252,61.7492952 L8.69018407,61.6073428 L6.46826201,33.6900369 Z"/>
      <polygon fill="#FFF" points="37.921 7.571 32.539 8.139 27.651 29.1 .346 29.195 .741 34.116 12.542 34.021 9.579 61.891 15.307 61.56 17.874 34.211 26.91 34.116 29.28 61.465 34.711 61.465 32.292 31.608"/>
      <polygon fill="#DDDDDC" points="40.686 .095 38.612 10.41 20.837 10.599 19.602 .379"/>
    </g>
    <g fill-rule="nonzero" transform="translate(249.274 148.448)">
      <path fill="#DB7619" d="M9.82583312,0.331222273 L9.28269662,0.331222273 C5.23386086,0.331222273 1.87628974,3.5014926 1.87628974,7.42884241 L1.87628974,36.9549422 C1.87628974,40.8349745 5.18448481,44.0525623 9.28269662,44.0525623 L9.82583312,44.0525623 C13.8746689,44.0525623 17.23224,40.882292 17.23224,36.9549422 L17.23224,7.42884241 C17.23224,3.54881007 13.8746689,0.331222273 9.82583312,0.331222273 Z M15.3065742,38.658371 C15.3065742,41.497419 12.887148,43.815975 9.92458522,43.815975 L9.4802008,43.815975 C6.51763805,43.815975 4.09821181,41.497419 4.09821181,38.658371 L4.09821181,7.52347734 C4.09821181,4.68442929 6.51763805,2.36587338 9.4802008,2.36587338 L9.92458522,2.36587338 C12.887148,2.36587338 15.3065742,4.68442929 15.3065742,7.52347734 L15.3065742,38.658371 Z"/>
      <path fill="#DF9821" d="M16.7384795,45.5194038 L2.3700502,45.5194038 L2.3700502,38.3271487 L19.2566579,38.3271487 L19.2566579,43.1062129 C19.2072818,44.431102 18.1210088,45.5194038 16.7384795,45.5194038 Z"/>
      <rect width="15.109" height="2.65" x="4.148" y="39.179" fill="#DB7619"/>
      <path fill="#E3CC2D" d="M20.5404351,40.4091173 L1.58003347,40.4091173 L1.58003347,34.4471164 C1.58003347,33.0275924 2.76505857,31.8919731 4.24633994,31.8919731 L17.7260005,31.8919731 C19.2566579,31.8919731 20.5404351,33.0749098 20.5404351,34.5890688 L20.5404351,40.4091173 Z"/>
      <path fill="#DB7619" d="M3.70320344,45.7086737 L2.51817834,45.7086737 C1.1850251,45.7086737 0.0987520917,44.6676894 0.0987520917,43.3901177 L0.0987520917,34.1158941 C0.0987520917,32.8383225 1.1850251,31.7973382 2.51817834,31.7973382 L3.70320344,31.7973382 C5.03635668,31.7973382 6.12262969,32.8383225 6.12262969,34.1158941 L6.12262969,43.3901177 C6.12262969,44.6676894 5.03635668,45.7086737 3.70320344,45.7086737 Z"/>
      <path fill="#C5622C" d="M3.11069089,40.9769269 L2.66630648,40.9769269 C2.17254602,40.9769269 1.77753765,40.5983872 1.77753765,40.1252125 L1.77753765,33.2168622 L3.99945971,33.2168622 L3.99945971,40.1252125 C3.99945971,40.5983872 3.60445135,40.9769269 3.11069089,40.9769269 Z"/>
      <path fill="#E3CC2D" d="M3.95008367,35.5354181 L3.95008367,7.47615987 C3.95008367,4.63711182 6.36950991,2.31855591 9.33207267,2.31855591 L9.72708103,2.31855591 L9.72708103,0.331222273 L9.18394453,0.331222273 C5.13510877,0.331222273 1.77753765,3.5014926 1.77753765,7.42884241 L1.77753765,35.5354181 L3.95008367,35.5354181 Z"/>
      <rect width="3.308" height="2.65" x="1.234" y="28.249" fill="#954980"/>
      <rect width="3.604" height="5.158" x="12.542" y="37.523" fill="#E0DAC1"/>
      <rect width="2.864" height="5.11" x="13.282" y="37.523" fill="#FFF"/>
      <rect width="1.629" height="3.833" x="13.727" y="38.138" fill="#E0E0DE"/>
      <polygon fill="#FFF" points="14.023 2.934 11.356 3.028 9.233 13.296 11.949 13.249"/>
    </g>
    <g transform="translate(200.885 99.238)">
      <path fill="#E8A480" fill-rule="nonzero" d="M33.0325747,38.2325138 C31.6006693,36.8603072 29.2799952,36.8603072 27.8480899,38.2325138 L20.1948028,45.5667213 L21.8735883,34.1222273 C22.1204685,32.1822111 20.7379393,30.4314648 18.7135214,30.1948775 L18.2197609,30.14756 C16.195343,29.9109727 14.3684293,31.2358618 14.1215491,33.1758779 L11.1096103,54.8409449 C10.6652259,56.0711991 10.9614822,57.4434056 11.9983791,58.4370724 C13.4302845,59.809279 15.7509586,59.809279 17.182864,58.4370724 L17.3309921,58.29512 C17.7260005,58.0585327 18.0716328,57.7273104 18.318513,57.3487707 L33.1313268,43.1535304 C34.46448,41.8286413 34.46448,39.6047203 33.0325747,38.2325138 Z"/>
      <path fill="#DB7619" fill-rule="nonzero" d="M20.5404351,10.9776525 L20.6391872,30.7563539 C20.6391872,30.7563539 22.8611092,38.1378788 28.6381066,38.2798313 L48.6354052,38.0432439 L46.4628591,7.99665202 L21.0341955,8.23323935 L20.5404351,10.9776525 Z"/>
      <rect width="7.752" height="12.776" x="32.884" y="27.066" fill="#E09378" fill-rule="nonzero"/>
      <path fill="#FAD1B8" fill-rule="nonzero" d="M38.0195553,32.6963701 L33.7238393,32.6963701 C28.9343629,32.6963701 25.0336552,28.9582901 25.0336552,24.3684958 L25.0336552,10.3625254 C25.0336552,5.77273104 28.9343629,2.0346511 33.7238393,2.0346511 L38.0195553,2.0346511 C42.8090318,2.0346511 46.7097394,5.77273104 46.7097394,10.3625254 L46.7097394,24.3684958 C46.7591154,28.9109727 42.8090318,32.6963701 38.0195553,32.6963701 Z"/>
      <path fill="#DF9821" fill-rule="nonzero" d="M30.9587807,6.76639786 C30.9587807,6.76639786 28.4406024,12.444494 20.6391872,10.9776525 C20.6391872,10.9776525 19.3060339,0.946349351 30.9587807,0.425857208 L43.5002964,0.567809611 C43.5002964,0.567809611 49.8698063,1.32488909 51.2029595,7.71274721 L51.2029595,50.8189602 C51.2029595,50.8189602 49.1291656,54.4150877 47.2034998,50.8189602 L46.4134831,14.3845101 C46.4134831,14.3845101 34.5138561,17.1289233 30.9587807,6.76639786 Z"/>
      <polygon fill="#AD3D23" fill-rule="nonzero" points="27.651 53.374 26.712 71.165 46.808 71.118 44.883 52.191"/>
      <path fill="#D45824" fill-rule="nonzero" d="M42.8090318,37.0968946 L32.8844465,37.0968946 C32.8844465,37.0968946 28.4406024,36.5764024 27.5024575,39.8886251 L24.4411427,48.6423566 C24.1942625,49.3994361 24.0955104,50.1565156 24.1942625,50.9135951 C24.3917667,51.9545794 24.9349032,53.1375161 26.6630648,53.3741034 L38.2170595,53.8945955 L42.6609036,54.1785004 L45.179082,38.3271487 L42.8090318,37.0968946 Z"/>
      <path fill="#FAD1B8" fill-rule="nonzero" d="M45.5740903,36.8603072 C43.4015443,36.4817675 41.2783743,37.948609 40.932742,40.0305776 L37.7726751,57.7273104 L21.0341955,51.717992 C20.2935548,51.2921348 19.4541621,51.0555475 18.5160172,51.0555475 C15.7509586,51.0555475 13.4796605,53.232151 13.4796605,55.8819292 C13.4796605,58.5317074 15.7509586,60.7083109 18.5160172,60.7083109 C19.4541621,60.7083109 20.3429309,60.4717235 21.1329476,59.9985489 L39.4514606,66.5756769 C40.7846139,67.0488515 42.2658952,66.8122642 43.3027922,66.0078672 C44.142185,65.4400576 44.7840736,64.5410257 44.9322017,63.5000415 L48.8822854,41.2608317 C49.2772938,39.2261806 47.7960124,37.1915295 45.5740903,36.8603072 Z"/>
      <g fill-rule="nonzero" transform="translate(21.725 27.917)">
        <ellipse cx="3.308" cy="4.117" fill="#CBBAAD" rx="2.864" ry="2.555"/>
        <path fill="#FFF" d="M2.41942625,0.425857208 L11.5539947,0.37853974 L11.6527468,4.68442929 C11.6527468,5.58346117 11.4058666,6.43517559 10.813354,7.1449376 C10.2702175,7.80738215 9.5789529,8.46982669 8.73956012,8.56446163 L5.18448481,8.6117791 C5.18448481,8.6117791 3.60445135,7.90201708 2.81443461,6.52981052 C2.61693043,6.19858825 2.51817834,5.82004851 2.51817834,5.44150877 L2.41942625,0.425857208 Z"/>
        <rect width="4.148" height="1.136" x="4.987" y="8.423" fill="#DDDDDC"/>
        <path fill="#DDDDDC" d="M6.36950991,0.425857208 L2.41942625,0.425857208 L2.51817834,5.3941913 C2.51817834,5.77273104 2.61693043,6.15127078 2.81443461,6.48249306 C3.60445135,7.85469961 5.18448481,8.56446163 5.18448481,8.56446163 L6.36950991,8.56446163 L6.36950991,0.425857208 Z"/>
      </g>
      <g transform="translate(13.725 28.682)">
        <path fill="#F9D1B7" d="M6.02061484,7.60664548 C6.07834431,7.0573862 6.57095075,6.65897983 7.11909837,6.71659247 L12.6162248,7.29436374 C13.1651711,7.35206031 13.5637834,7.84026591 13.5056514,8.39335452 C13.447922,8.9426138 12.9553155,9.34102017 12.4071679,9.28340753 L6.91004144,8.70563626 C6.36109522,8.64793969 5.96248288,8.15973409 6.02061484,7.60664548 Z M6.51574705,4.77598026 C6.51574705,4.22369551 6.96251473,3.77598026 7.51531603,3.77598026 L10.1756283,3.77598026 C10.727675,3.77598026 11.1751973,4.21984508 11.1751973,4.77598026 C11.1751973,5.32826501 10.7284296,5.77598026 10.1756283,5.77598026 L7.51531603,5.77598026 C6.96326932,5.77598026 6.51574705,5.33211544 6.51574705,4.77598026 Z M5.07588619,2.43758191 C5.07588619,1.88529716 5.52901698,1.43758191 6.0742508,1.43758191 L10.3782214,1.43758191 C10.9296029,1.43758191 11.376586,1.88144673 11.376586,2.43758191 C11.376586,2.98986666 10.9234552,3.43758191 10.3782214,3.43758191 L6.0742508,3.43758191 C5.52286925,3.43758191 5.07588619,2.99371709 5.07588619,2.43758191 Z"/>
        <rect width="4.782" height="2" x="1.381" y=".764" fill="#E8A480" rx="1" transform="rotate(-9 3.772 1.764)"/>
        <ellipse cx="4.656" cy="5.305" fill="#F9D1B7" rx="4.638" ry="4.3"/>
      </g>
      <rect width="4.987" height="1" x="25.725" y="16.656" fill="#DF9821" fill-rule="nonzero"/>
      <rect width="4.987" height="1" x="38.661" y="16.656" fill="#DF9821" fill-rule="nonzero"/>
      <path fill="#44384E" fill-rule="nonzero" d="M29.9218838 20.441146C29.9218838 20.2991936 29.8725077 20.2045586 29.8725077 20.0626062L29.8725077 19.9679713 29.8231317 19.9679713C29.5762515 19.2108918 28.8356108 18.6430822 27.946842 18.6430822 27.0580731 18.6430822 26.3174324 19.2108918 26.0705522 19.9679713L25.0336552 19.9679713 25.0336552 20.441146 29.8231317 20.441146 29.8231317 20.441146 29.9218838 20.441146zM39.4020846 20.4884635C39.4020846 20.346511 39.4514606 20.2518761 39.4514606 20.1099237L39.4514606 20.0152888 39.5008367 20.0152888C39.7477169 19.2582093 40.4883576 18.6903997 41.3771264 18.6903997 42.2658952 18.6903997 43.0065359 19.2582093 43.2534162 20.0152888L44.2903131 20.0152888 44.2903131 20.4884635 39.5008367 20.4884635 39.5008367 20.4884635 39.4020846 20.4884635z"/>
      <path fill="#FFF" fill-rule="nonzero" d="M33.9707195,26.5450993 L39.0564523,26.6397342 C39.0564523,26.6397342 39.0070762,28.5797504 36.5382739,29.14756 C36.3407697,29.1948775 36.1432656,29.1948775 35.9457614,29.1948775 L33.8719675,29.2421949 C33.8719675,29.2895124 34.2175998,27.4914486 33.9707195,26.5450993 Z"/>
      <path fill="#E8A480" fill-rule="nonzero" d="M17.5284963,72.3957254 L14.1215491,72.3957254 C14.1215491,72.3957254 9.62832894,72.0171856 8.69018407,76.7016149 L3.85133158,108.688223 L11.4552426,108.877493 L17.5284963,72.3957254 Z"/>
      <path fill="#AD3D23" fill-rule="nonzero" d="M12.8377719,103.625254 C12.8377719,103.625254 15.10907,105.94381 14.1709252,109.11408 C13.4302845,111.527271 11.0108582,113.088747 8.44330384,113.088747 L1.48128138,113.088747 C0.839392779,113.088747 0.345632321,112.615573 0.345632321,112.000446 L0.345632321,111.811176 C0.444384413,109.634572 2.3700502,107.931143 4.64134831,107.836509 L10.813354,107.599921 C10.813354,107.552604 12.8377719,105.896492 12.8377719,103.625254 Z"/>
      <path fill="#FAD1B8" fill-rule="nonzero" d="M26.2680564,81.3387267 L23.7498781,81.6226315 L19.9479225,108.92481 L10.3689696,109.019445 L14.7634377,76.9382022 C14.7634377,76.9382022 15.2571982,72.3484079 18.9604016,73.1528048 C22.663605,73.9572018 26.2680564,81.3387267 26.2680564,81.3387267 Z"/>
      <path fill="#D45824" fill-rule="nonzero" d="M46.8578675 71.0708363L14.1709252 71.2127887 25.2805355 81.4806791 42.3152713 81.4806791C42.3152713 81.4806791 45.1297059 80.8182346 46.4134831 78.3104088 46.8084915 77.5533293 46.9566196 76.6542974 46.9566196 75.802583L46.8578675 71.0708363zM20.3923069 104.051111C20.3923069 104.051111 22.663605 106.369667 21.7254602 109.539937 20.9848195 111.953128 18.5653932 113.514605 15.9978389 113.514605L9.03581639 113.514605C8.39392779 113.514605 7.90016734 113.04143 7.90016734 112.426303L7.90016734 112.237033C7.99891943 110.06043 9.92458522 108.357001 12.1958833 108.262366L18.3678891 108.025778C18.3678891 107.978461 20.3923069 106.275032 20.3923069 104.051111z"/>
    </g>
    <g fill-rule="nonzero" transform="translate(.199 144.19)">
      <polygon fill="#FFF" points="52.832 10.883 47.006 35.867 49.623 68.043 43.846 68.043 41.525 38.753 31.453 38.753 29.082 68.184 23.157 68.279 26.071 38.848 11.307 38.942 11.406 33.501 41.871 33.028 46.759 11.545"/>
      <polygon fill="#FFF" points="57.424 .473 54.807 11.924 21.725 10.978 24.342 .284"/>
      <polygon fill="#DDDDDC" points="57.523 .379 54.561 .473 51.746 11.829 54.807 11.829"/>
      <polygon fill="#DDDDDC" points="24.491 14.905 19.602 34.069 22.861 66.86 16.64 67.664 14.023 33.737 18.615 15.378"/>
      <polygon fill="#F4F3F3" points="29.231 15.851 22.022 15.851 .247 15.851 .247 10.978 29.231 10.978"/>
    </g>
    <path fill="#176CA2" fill-rule="nonzero" d="M264.737843 210.725431C264.582731 208.83721 262.954052 207.326634 260.937593 207.326634 258.921134 207.326634 257.292455 208.83721 257.137343 210.725431L264.737843 210.725431zM192.145307 232.402205C191.912639 229.871989 189.741067 227.90824 187.104159 227.90824 184.467251 227.90824 182.295679 229.871989 182.063011 232.402205L192.145307 232.402205zM348.73113 227.870475C347.218786 227.870475 345.861553 228.663528 344.93088 229.871989 344.581877 229.720931 344.232875 229.645403 343.845094 229.645403 342.100081 229.645403 340.665293 231.193744 340.510181 233.195257L343.72876 233.195257 347.218786 233.195257 353.811057 233.195257C353.53961 230.211869 351.368039 227.870475 348.73113 227.870475zM32.8837983 231.193744C32.7286861 229.305523 31.1000074 227.794946 29.0835481 227.794946 27.0670887 227.794946 25.43841 229.305523 25.2832978 231.193744L32.8837983 231.193744z"/>
    <path fill="#FFF" fill-rule="nonzero" d="M269.972882 51.5484253C270.01166 51.3218389 270.01166 51.057488 270.01166 50.8309015 270.01166 46.5257583 266.444078 43.0514322 262.023379 43.0514322 260.472256 43.0514322 259.037468 43.4668407 257.835348 44.222129 257.99046 43.3535475 258.106794 42.4472015 258.106794 41.5030912 258.106794 33.3082133 251.281855 26.6616764 242.867015 26.6616764 234.452175 26.6616764 227.627236 33.3082133 227.627236 41.5030912 227.627236 42.1450862 227.666014 42.7870813 227.74357 43.3913119 226.425116 41.57862 224.292323 40.4079232 221.849305 40.4079232 217.855164 40.4079232 214.597807 43.580134 214.597807 47.4698686 214.597807 47.8852772 214.636585 48.3006857 214.714141 48.7160943 214.210026 48.4517434 213.667133 48.3384501 213.046684 48.3384501 211.146559 48.3384501 209.595436 49.7734979 209.440324 51.5861898L269.972882 51.5861898 269.972882 51.5484253zM328.890983 36.5559529C328.619537 34.4789101 326.796967 32.8928047 324.586618 32.8928047 324.198837 32.8928047 323.849835 32.9305692 323.500832 33.0438624 323.384498 27.0015561 318.304571 22.0921823 312.061303 22.0921823 305.740479 22.0921823 300.621774 27.077085 300.621774 33.2326845 300.621774 34.4033813 300.815665 35.4985493 301.125889 36.5559529L328.890983 36.5559529z"/>
  </g>
</svg>
