<?xml version="1.0" encoding="UTF-8"?>
<svg xmlns="http://www.w3.org/2000/svg" width="45" height="65" viewBox="0 0 45 65">
  <path fill="#FFF" fill-rule="evenodd" d="M43.4931985,16.0605515 L14.8177875,0.717980011 C10.8906672,-1.43048213 3.14628879,2.71997112 0.921682143,6.3720127 C-0.0713803332,8.00376354 0.00117957772,9.18241288 0.00117957772,9.84903568 L0.35460069,44.4988531 C0.378787327,45.2346489 1.27122492,46.2268605 2.03426758,46.7137799 C3.62508558,47.7269996 27.7155419,63.3387969 28.4002423,63.7809917 C28.7674138,64.0176439 29.2005874,64.1289062 29.6291069,64.1289062 C29.9936694,64.1289062 30.3595011,64.0454595 30.6907805,63.8746131 C31.4146873,63.5056905 31.8661242,62.7881944 31.8661242,62.0089185 L31.8661242,25.6148435 C31.8661242,24.8579664 31.4401432,24.1567206 30.7469809,23.778282 L4.68281024,8.67580301 C4.97742182,8.0817204 6.13838053,6.82365015 8.26821501,5.66395931 C10.5143287,4.44387932 12.1953354,4.90437392 12.5814049,5.05904328 C12.5814049,5.05904328 37.5949729,18.9550573 38.360695,19.3673869 C39.1231031,19.7803754 39.1368534,19.8421553 39.1368534,20.5488179 L39.1368534,55.0833469 C39.1368534,56.8059376 40.8217384,57.5112826 42.0585007,57.5112826 C43.2939232,57.5112826 44.6116367,56.2546031 44.6116367,55.0833469 L44.6116367,17.8977718 C44.6123418,17.140236 44.1837518,16.439722 43.4931985,16.0605515 L43.4931985,16.0605515 Z" transform="translate(0 .393)"/>
</svg>
