<?xml version="1.0" encoding="UTF-8"?>
<svg xmlns="http://www.w3.org/2000/svg" width="11" height="18" viewBox="0 0 11 18">
  <path fill="#8D9AA5" d="M230.320566,1081 L236.720566,1081 C236.456566,1081.536 236.184566,1082.064 236.384566,1083.4 C236.584566,1084.736 237.256566,1086.864 236.920566,1087.992 C236.584566,1089.112 235.256566,1089.224 234.584566,1090.488 C233.920566,1091.752 233.920566,1094.176 234.384566,1095.32 C234.856566,1096.464 235.784566,1096.336 236.256566,1096.4 C236.720566,1096.464 236.720566,1096.736 236.720566,1097 L230.320566,1097 C230.320566,1096.736 230.320566,1096.464 230.784566,1096.4 C231.256566,1096.336 232.184566,1096.464 232.656566,1095.32 C233.120566,1094.176 233.120566,1091.752 232.456566,1090.488 C231.784566,1089.224 230.456566,1089.112 230.120566,1087.992 C229.784566,1086.864 230.456566,1084.736 230.656566,1083.4 C230.856566,1082.064 230.584566,1081.536 230.320566,1081 L230.320566,1081 Z M231.920566,1082.6 C231.920566,1083.552 231.784566,1084.336 231.632566,1085 C233.395548,1084.43615 234.447708,1084.15422 234.789043,1084.15422 C235.130379,1084.15422 235.312887,1084.43615 235.336566,1085 C235.224566,1084.336 235.120566,1083.552 235.120566,1082.6 L231.920566,1082.6 Z" transform="rotate(15 4221.228 -316.916)"/>
</svg>
