<?xml version="1.0" encoding="UTF-8"?>
<svg xmlns="http://www.w3.org/2000/svg" width="12" height="9" viewBox="0 0 12 9">
  <path fill="#5ACD91" d="M6.73036972,7.73902992 L4.12253635,10.3404242 L2.94740156,9.16850896 C1.58875257,7.81629906 1.59197212,7.81951861 1.11225956,7.81629906 C0.883671698,7.81629906 0.809622109,7.82917725 0.658303382,7.90000729 C0.432935067,8.00625236 0.239762224,8.1929861 0.127078066,8.41835442 C0.00151571903,8.66304002 -0.0178015652,9.02684887 0.0820044033,9.29729085 C0.149614898,9.48080505 0.23332313,9.57095238 1.81412089,11.1549697 C3.70399519,13.0480635 3.6363847,12.9965508 4.12253635,12.9965508 C4.61834665,12.9997703 4.38010014,13.2090409 7.79925945,9.78666205 C11.1701255,6.41257641 10.99627,6.6089688 11.0220264,6.14213443 C11.031685,5.9296443 11.0220264,5.84915562 10.960855,5.6913978 C10.8642685,5.43061446 10.6002657,5.16339203 10.3427019,5.07002516 C10.0980163,4.97665828 9.7599638,4.97665828 9.5152782,5.07002516 C9.35108128,5.13119656 9.14503025,5.32758894 6.73036972,7.73902992 Z" transform="translate(.402 -4.663)"/>
</svg>
