<?xml version="1.0" encoding="UTF-8"?>
<svg xmlns="http://www.w3.org/2000/svg" width="33" height="33" viewBox="0 0 33 33">
  <path fill="#37474F" d="M1202.3762,193.149608 C1193.5442,193.149608 1186.3762,200.495568 1186.3762,209.54684 C1186.3762,216.794416 1190.9682,222.943378 1197.3202,225.12421 C1198.1202,225.255388 1198.3762,224.747073 1198.3762,224.304348 L1198.3762,221.533216 C1193.9442,222.51705 1193.0002,219.335987 1193.0002,219.335987 C1192.2642,217.433908 1191.2242,216.925594 1191.2242,216.925594 C1189.7682,215.908966 1191.3362,215.94176 1191.3362,215.94176 C1192.9362,216.056541 1193.7842,217.630675 1193.7842,217.630675 C1195.1762,220.123054 1197.5282,219.385179 1198.4402,218.991645 C1198.5842,217.925825 1199.0002,217.204347 1199.4482,216.794416 C1195.8962,216.384485 1192.1682,214.974324 1192.1682,208.726978 C1192.1682,206.906886 1192.7762,205.447532 1193.8162,204.283329 C1193.6562,203.873398 1193.0962,202.168086 1193.9762,199.954459 C1193.9762,199.954459 1195.3202,199.511734 1198.3762,201.626977 C1199.6402,201.266238 1201.0162,201.085868 1202.3762,201.085868 C1203.7362,201.085868 1205.1122,201.266238 1206.3762,201.626977 C1209.4322,199.511734 1210.7762,199.954459 1210.7762,199.954459 C1211.6562,202.168086 1211.0962,203.873398 1210.9362,204.283329 C1211.9762,205.447532 1212.5842,206.906886 1212.5842,208.726978 C1212.5842,214.990721 1208.8402,216.368088 1205.2722,216.778019 C1205.8482,217.286333 1206.3762,218.286564 1206.3762,219.811507 L1206.3762,224.304348 C1206.3762,224.747073 1206.6322,225.271785 1207.4482,225.12421 C1213.8002,222.926981 1218.3762,216.794416 1218.3762,209.54684 C1218.3762,200.495568 1211.2082,193.149608 1202.3762,193.149608 Z" transform="translate(-1186 -193)"/>
</svg>
