<?xml version="1.0" encoding="UTF-8"?>
<svg width="24px" height="24px" viewBox="0 0 24 24" version="1.1" xmlns="http://www.w3.org/2000/svg" xmlns:xlink="http://www.w3.org/1999/xlink">
    <!-- Generator: Sketch 42 (36781) - http://www.bohemiancoding.com/sketch -->
    <title>g+</title>
    <desc>Created with Sketch.</desc>
    <defs></defs>
    <g id="VfastOnline-Unified" stroke="none" stroke-width="1" fill="none" fill-rule="evenodd">
        <g id="欢迎页" transform="translate(-1260.000000, -3553.000000)">
            <g id="底栏" transform="translate(0.000000, 3415.000000)">
                <g id="reference" transform="translate(1176.000000, 138.000000)">
                    <g id="g+" transform="translate(84.000000, 0.000000)">
                        <path d="M12,1 C5.92530612,1 1,5.92530612 1,12 C1,18.0746939 5.92530612,23 12,23 C18.0746939,23 23,18.0746939 23,12 C23,5.92530612 18.0746939,1 12,1 L12,1 L12,1 L12,1 Z" id="Path-Copy" fill="#FFFFFF"></path>
                        <path d="M12,0 C5.38125,0 0,5.38125 0,12 C0,18.61875 5.38125,24 12,24 C18.61875,24 24,18.61875 24,12 C24,5.38125 18.61875,0 12,0 L12,0 Z M15.3375,12.20625 C15.35625,15.88125 12.91875,18.35625 9.2625,18.35625 C5.7,18.35625 2.79375,15.50625 2.79375,12 C2.79375,8.49375 5.7,5.64375 9.2625,5.64375 C10.81875,5.64375 12.3375,6.20625 13.5,7.2 L11.85,9.05625 C11.1375,8.4375 10.2,8.1 9.24375,8.1 C7.05,8.1 5.2875,9.84375 5.2875,12 C5.2875,14.1375 7.06875,15.9 9.24375,15.9 C11.1,15.9 12.3,15.01875 12.69375,13.425 L9.28125,13.425 L9.28125,10.96875 L15.3375,10.96875 L15.3375,12.20625 L15.3375,12.20625 Z M20.23125,12.45 L20.23125,14.325 L18.73125,14.325 L18.73125,12.45 L16.85625,12.45 L16.85625,10.95 L18.73125,10.95 L18.73125,9.075 L20.23125,9.075 L20.23125,10.95 L22.10625,10.95 L22.10625,12.45 L20.23125,12.45 L20.23125,12.45 Z" id="Shape" fill="#2D3339"></path>
                    </g>
                </g>
            </g>
        </g>
    </g>
</svg>