<?xml version="1.0" encoding="UTF-8"?>
<svg width="23" height="16" viewBox="0 0 23 16" version="1.1" xmlns="http://www.w3.org/2000/svg" xmlns:xlink="http://www.w3.org/1999/xlink">
  <path fill="#FFF" d="M11.2994057,9 C9.63940568,9 8.29940568,10.34 8.29940568,12 C8.29940568,13.66 9.63940568,15 11.2994057,15 C12.9594057,15 14.2994057,13.66 14.2994057,12 C14.2994057,10.34 12.9594057,9 11.2994057,9 L11.2994057,9 Z M11.2994057,17 C8.53940568,17 6.29940568,14.76 6.29940568,12 C6.29940568,9.24 8.53940568,7 11.2994057,7 C14.0594057,7 16.2994057,9.24 16.2994057,12 C16.2994057,14.76 14.0594057,17 11.2994057,17 L11.2994057,17 Z M11.2994057,4.5 C6.29940568,4.5 2.02940568,7.61 0.299405679,12 C2.02940568,16.39 6.29940568,19.5 11.2994057,19.5 C16.2994057,19.5 20.5694057,16.39 22.2994057,12 C20.5694057,7.61 16.2994057,4.5 11.2994057,4.5 Z" transform="translate(.321 -4)"/>
</svg>
