<?xml version="1.0" encoding="UTF-8"?>
<svg xmlns="http://www.w3.org/2000/svg" width="20" height="21" viewBox="0 0 20 21">
  <path fill="#D7BAA5" d="M18.2,2.5 L18,2.5 L15,2.5 L15,0.5 L5,0.5 L5,2.5 L2.5,2.5 L1.8,2.5 L0,2.5 L0,9.5 C0,10.5 1,11.5 2,11.5 L5.2,11.5 C5.6,13.4 6.6,15.1 9,15.4 L9,17.5 C6,17.7 6,18.8 6,20.1 L6,20.5 L14,20.5 L14,20.2 C14,18.9 14,17.8 11,17.6 L11,15.5 C13.5,15.2 14.5,13.5 14.8,11.6 L18,11.6 C19,11.6 20,10.6 20,9.6 L20,2.5 L18.2,2.5 L18.2,2.5 Z M2,9.5 L2,4.5 L5,4.5 L5,6.5 L5,9.5 L2,9.5 L2,9.5 Z M18,9.5 L15,9.5 L15,4.5 L16,4.5 L18,4.5 L18,9.5 Z" transform="translate(0 -.332)"/>
</svg>
