<?xml version="1.0" encoding="UTF-8"?>
<svg xmlns="http://www.w3.org/2000/svg" width="14" height="8" viewBox="0 0 14 8">
  <path fill="#5A646E" fill-rule="evenodd" d="M302.508197,3.83169398 L305.306011,3.83169398 L305.306011,2.50273222 L302.508197,2.50273222 C300.577705,2.50273222 299.010929,4.06950817 299.010929,5.99999998 C299.010929,7.93049178 300.577705,9.49726773 302.508197,9.49726773 L305.306011,9.49726773 L305.306011,8.16830598 L302.508197,8.16830598 C301.312131,8.16830598 300.339891,7.19606553 300.339891,5.99999996 C300.339891,4.80393442 301.312131,3.83169398 302.508197,3.83169398 Z M303.20765,6 C303.20765,6.38629753 303.524528,6.69945355 303.91634,6.69945355 L308.094588,6.69945355 C308.485987,6.69945355 308.803279,6.38899072 308.803279,6 L308.803279,6 C308.803279,5.61370247 308.486401,5.30054645 308.094588,5.30054645 L303.91634,5.30054645 C303.524942,5.30054645 303.20765,5.61100928 303.20765,6 L303.20765,6 Z M306.704918,2.50273224 L306.704918,3.83169399 L309.502732,3.83169399 C310.698798,3.83169399 311.671038,4.80393443 311.671038,6.00000001 C311.671038,7.19606558 310.698798,8.16830602 309.502732,8.16830602 L306.704918,8.16830602 L306.704918,9.49726778 L309.502732,9.49726778 C311.433224,9.49726778 313,7.93049183 313,6.00000002 C313,4.06950822 311.433224,2.50273227 309.502732,2.50273227 L306.704918,2.50273224 Z" transform="translate(-299 -2.179)"/>
</svg>
