<?xml version="1.0" encoding="UTF-8"?>
<svg xmlns="http://www.w3.org/2000/svg" width="12" height="11" viewBox="0 0 12 11">
  <path fill="#5A646E" fill-rule="evenodd" d="M269.540006,2.043 C269.540006,1.62878644 269.87763,1.293 270.289128,1.293 L275.790883,1.293 C276.204612,1.293 276.540006,1.62589862 276.540006,2.043 C276.540006,2.45721356 276.202381,2.793 275.790883,2.793 L270.289128,2.793 C269.875399,2.793 269.540006,2.46010138 269.540006,2.043 Z M269.540006,6 C269.540006,5.58578644 269.87763,5.25 270.289128,5.25 L275.790883,5.25 C276.204612,5.25 276.540006,5.58289862 276.540006,6 C276.540006,6.41421356 276.202381,6.75 275.790883,6.75 L270.289128,6.75 C269.875399,6.75 269.540006,6.41710138 269.540006,6 Z M269.540006,9.957 C269.540006,9.54278644 269.87763,9.207 270.289128,9.207 L275.790883,9.207 C276.204612,9.207 276.540006,9.53989862 276.540006,9.957 C276.540006,10.3712136 276.202381,10.707 275.790883,10.707 L270.289128,10.707 C269.875399,10.707 269.540006,10.3741014 269.540006,9.957 Z M265.267387,2.029 C265.267387,1.357 265.813387,0.839 266.485387,0.839 C267.157387,0.839 267.703387,1.357 267.703387,2.029 L267.703387,2.057 C267.703387,2.729 267.157387,3.247 266.485387,3.247 C265.813387,3.247 265.267387,2.729 265.267387,2.057 L265.267387,2.029 Z M265.267387,5.986 C265.267387,5.314 265.813387,4.796 266.485387,4.796 C267.157387,4.796 267.703387,5.314 267.703387,5.986 L267.703387,6.014 C267.703387,6.686 267.157387,7.204 266.485387,7.204 C265.813387,7.204 265.267387,6.686 265.267387,6.014 L265.267387,5.986 Z M265.267387,9.943 C265.267387,9.271 265.813387,8.753 266.485387,8.753 C267.157387,8.753 267.703387,9.271 267.703387,9.943 L267.703387,9.971 C267.703387,10.643 267.157387,11.161 266.485387,11.161 C265.813387,11.161 265.267387,10.643 265.267387,9.971 L265.267387,9.943 Z" transform="translate(-265 -.179)"/>
</svg>
