<?xml version="1.0" encoding="UTF-8"?>
<svg width="24px" height="24px" viewBox="0 0 24 24" version="1.1" xmlns="http://www.w3.org/2000/svg" xmlns:xlink="http://www.w3.org/1999/xlink">
    <!-- Generator: Sketch 42 (36781) - http://www.bohemiancoding.com/sketch -->
    <title>linkedin</title>
    <desc>Created with Sketch.</desc>
    <defs></defs>
    <g id="VfastOnline-Unified" stroke="none" stroke-width="1" fill="none" fill-rule="evenodd">
        <g id="欢迎页" transform="translate(-1232.000000, -3553.000000)">
            <g id="底栏" transform="translate(0.000000, 3415.000000)">
                <g id="reference" transform="translate(1176.000000, 138.000000)">
                    <g id="linkedin" transform="translate(56.000000, 0.000000)">
                        <path d="M12,1 C5.92530612,1 1,5.92530612 1,12 C1,18.0746939 5.92530612,23 12,23 C18.0746939,23 23,18.0746939 23,12 C23,5.92530612 18.0746939,1 12,1 L12,1 L12,1 L12,1 Z" id="Path-Copy-3" fill="#FFFFFF"></path>
                        <path d="M17.8061538,5.6 L6.19384615,5.6 C5.61846154,5.6 5.2,6.01846154 5.2,6.59384615 L5.2,18.2061538 C5.2,18.7292308 5.67076923,19.2 6.19384615,19.2 L17.8061538,19.2 C18.3815385,19.2 18.8,18.7815385 18.8,18.2061538 L18.8,6.59384615 C18.8,6.01846154 18.3292308,5.6 17.8061538,5.6 L17.8061538,5.6 Z M9.2,17.2 L7.2,17.2 L7.2,10.8 L9.2,10.8 L9.2,17.2 L9.2,17.2 Z M8,9.6 C7.35,9.6 6.8,9.05 6.8,8.4 C6.8,7.75 7.35,7.2 8,7.2 C8.65,7.2 9.2,7.75 9.2,8.4 C9.2,9.05 8.65,9.6 8,9.6 L8,9.6 Z M16.8,16.8 L14.6666667,16.8 L14.6666667,13.7032258 C14.6666667,12.8774194 14.4533333,12.0516129 13.6,12.0516129 C12.7466667,12.0516129 12.5333333,12.8774194 12.5333333,13.7032258 L12.5333333,16.8 L10.4,16.8 L10.4,10.6064516 L12.5333333,10.6064516 L12.5333333,11.3290323 L12.64,11.3290323 C12.9066667,10.8129032 13.6,10.4 14.4,10.4 C16.3733333,10.4 16.8,11.6387097 16.8,13.1870968 L16.8,16.8 L16.8,16.8 Z M0,12 C0,5.36 5.36,0 12,0 C18.64,0 24,5.36 24,12 C24,18.64 18.64,24 12,24 C5.36,24 0,18.64 0,12 Z" id="Shape" fill="#B0BEC5"></path>
                    </g>
                </g>
            </g>
        </g>
    </g>
</svg>