<svg width="17" height="22" viewBox="0 0 17 22">
  <path fill="#5A646E" d="M1098.12844,568.139999 C1099.22844,568.139999 1100.12844,567.239999 1100.12844,566.139999 C1100.12844,565.039999 1099.22844,564.139999 1098.12844,564.139999 C1097.02844,564.139999 1096.12844,565.039999 1096.12844,566.139999 C1096.12844,567.239999 1097.02844,568.139999 1098.12844,568.139999 Z M1104.12844,559.139999 L1103.12844,559.139999 L1103.12844,557.139999 C1103.12844,554.379999 1100.88844,552.139999 1098.12844,552.139999 C1095.36844,552.139999 1093.12844,554.379999 1093.12844,557.139999 L1095.02844,557.139999 C1095.02844,555.429999 1096.41844,554.039999 1098.12844,554.039999 C1099.83844,554.039999 1101.22844,555.429999 1101.22844,557.139999 L1101.22844,559.139999 L1092.12844,559.139999 C1091.02844,559.139999 1090.12844,560.039999 1090.12844,561.139999 L1090.12844,571.139999 C1090.12844,572.239999 1091.02844,573.139999 1092.12844,573.139999 L1104.12844,573.139999 C1105.22844,573.139999 1106.12844,572.239999 1106.12844,571.139999 L1106.12844,561.139999 C1106.12844,560.039999 1105.22844,559.139999 1104.12844,559.139999 Z M1104.12844,571.139999 L1092.12844,571.139999 L1092.12844,561.139999 L1104.12844,561.139999 L1104.12844,571.139999 Z" transform="translate(-1090 -552)"/>
</svg>
