<?xml version="1.0" encoding="UTF-8"?>
<svg width="36px" height="25px" viewBox="0 0 36 25" version="1.1" xmlns="http://www.w3.org/2000/svg" xmlns:xlink="http://www.w3.org/1999/xlink">
    <!-- Generator: Sketch 42 (36781) - http://www.bohemiancoding.com/sketch -->
    <title>Shape</title>
    <desc>Created with Sketch.</desc>
    <defs></defs>
    <g id="VfastOnline-Unified" stroke="none" stroke-width="1" fill="none" fill-rule="evenodd">
        <g id="SignUp2" transform="translate(-532.000000, -526.000000)" fill="#2FA59A">
            <path d="M548.5,535.038347 L548.5,538.038347 L547,538.038347 L547,541.038347 L544,541.038347 L544,538.038347 L540.745,538.038347 C540.13,539.793347 538.465,541.038347 536.5,541.038347 C534.01,541.038347 532,539.028347 532,536.538347 C532,534.048347 534.01,532.038347 536.5,532.038347 C538.465,532.038347 540.13,533.283347 540.745,535.038347 L548.5,535.038347 L548.5,535.038347 Z M536.5,535.038347 C535.675,535.038347 535,535.713347 535,536.538347 C535,537.363347 535.675,538.038347 536.5,538.038347 C537.325,538.038347 538,537.363347 538,536.538347 C538,535.713347 537.325,535.038347 536.5,535.038347 L536.5,535.038347 Z M556,541.038347 C560.005,541.038347 568,543.048347 568,547.038347 L568,550.038347 L544,550.038347 L544,547.038347 C544,543.048347 551.995,541.038347 556,541.038347 L556,541.038347 Z M556,538.038347 C552.685,538.038347 550,535.353347 550,532.038347 C550,528.723347 552.685,526.038347 556,526.038347 C559.315,526.038347 562,528.723347 562,532.038347 C562,535.353347 559.315,538.038347 556,538.038347 Z" id="Shape"></path>
        </g>
    </g>
</svg>