<?xml version="1.0" encoding="UTF-8"?>
<svg xmlns="http://www.w3.org/2000/svg" width="21" height="20" viewBox="0 0 21 20">
  <path fill="#5A646E" d="M53.7734392,40.25 L53.7734392,37 L46.7734392,37 L46.7734392,33 L53.7734392,33 L53.7734392,29.75 L59.0234392,35 L53.7734392,40.25 L53.7734392,40.25 Z M49.7734392,25 C50.8734392,25 51.7734392,25.9 51.7734392,27 L51.7734392,31 L49.7734392,31 L49.7734392,27 L40.7734392,27 L40.7734392,43 L49.7734392,43 L49.7734392,39 L51.7734392,39 L51.7734392,43 C51.7734392,44.1 50.8734392,45 49.7734392,45 L40.7734392,45 C39.6734392,45 38.7734392,44.1 38.7734392,43 L38.7734392,27 C38.7734392,25.9 39.6734392,25 40.7734392,25 L49.7734392,25 Z" transform="translate(-38 -25)"/>
</svg>
