<?xml version="1.0" encoding="UTF-8"?>
<svg xmlns="http://www.w3.org/2000/svg" width="134" height="34" viewBox="0 0 134 34">
  <g fill="none" fill-rule="evenodd" transform="translate(-.5 .072)">
    <path fill="#4DB6AC" fill-rule="nonzero" d="M22.1244,2.88448 C19.341,1.29495 16.6157,0 15.4998,0 C12.9998,0 2.42097,6.5 1.210379,8.25 C0.653723,9.0547 0.3530336,12.2381 0.30831006,15.6126 L6.92782,19.5317 C7.09981,19.1416 7.57271,19.0804 8.12916,19.4293 C8.83091,19.8694 9.3998,20.795 9.3998,21.4968 C9.3998,22.1985 8.83091,22.4107 8.12916,21.9707 C7.704,21.7041 7.32761,21.2592 7.09695,20.7939 L0.303,16.7716 C0.3174958,20.3669 0.619956,23.8965 1.210379,24.75 C2.42097,26.5 12.9998,33 15.4998,33 C16.7326,33 19.93,31.5409 22.9998,29.792 L22.9998,21.9758 C22.531,22.0827 22.1998,21.8323 22.1998,21.2968 C22.1998,20.595 22.7687,19.6694 23.4704,19.2293 C24.1722,18.7893 24.7411,19.0015 24.7411,19.7032 C24.7411,20.2161 24.4373,20.8485 23.9998,21.3235 L23.9998,29.2093 C26.7707,27.5575 29.2409,25.7691 29.7892,24.75 C29.9405,24.4688 30.0729,24.0273 30.1864,23.4668 C30.9809,19.543 30.8485,9.78125 29.7892,8.25 C29.1834,7.37415 26.2308,5.30848 23.119,3.46336 L16.7233,7.17699 C17.0147,7.52288 16.9483,7.93695 16.5017,8.21434 C15.9185,8.57661 14.9075,8.56857 14.2437,8.19639 C13.5799,7.8242 13.5146,7.22881 14.0979,6.86653 C14.4983,6.61782 15.1003,6.54365 15.6531,6.64201 L22.1244,2.88448 Z M5.51421,11.2577 C5.36391,11.3481 5.18793,11.4 4.99981,11.4 C4.44752,11.4 3.99981,10.9523 3.99981,10.4 C3.99981,9.84772 4.44752,9.4 4.99981,9.4 C5.54642,9.4 5.99061,9.83857 5.99967,10.383 L15.487,16 L15.4998,16 L25.1001,10.4256 C25.0999,10.4171 25.0998,10.4086 25.0998,10.4 C25.0998,9.84772 25.5475,9.4 26.0998,9.4 C26.6521,9.4 27.0998,9.84772 27.0998,10.4 C27.0998,10.9523 26.6521,11.4 26.0998,11.4 C25.9269,11.4 25.7642,11.3561 25.6222,11.2788 L16.0006,16.8656 L15.9998,16.8642 L15.9998,27.9338 C16.2987,28.1067 16.4998,28.4299 16.4998,28.8 C16.4998,29.3523 16.0521,29.8 15.4998,29.8 C14.9475,29.8 14.4998,29.3523 14.4998,28.8 C14.4998,28.4299 14.7009,28.1067 14.9998,27.9338 L14.9998,16.8737 L5.51421,11.2577 Z" transform="translate(.197 .53)"/>
    <g transform="translate(47.948 4.03)">
      <path fill="#576366" d="M0.155362342,16.6971671 L0.155362342,14.2419772 C2.32488133,14.2419772 4.08959019,12.4769392 4.08959019,10.3077494 L4.08959019,5.17653418 L6.54478006,5.17653418 L6.54478006,10.3077494 C6.54478006,13.8309139 3.6785269,16.6971671 0.155362342,16.6971671"/>
      <path fill="#576366" d="M10.8330687 16.6521772L8.3778788 16.6521772 8.3778788 14.0077468C8.3778788 11.8355949 6.61086614 10.0682532 4.43838513 10.0682532L.15200538 10.0682532.15200538 7.61306329 4.43838513 7.61306329C7.96451171 7.61306329 10.8330687 10.4816203 10.8330687 14.0077468L10.8330687 16.6521772zM16.0618332 16.6153494C13.6365927 16.6153494 11.6638839 14.5866911 11.6638839 12.0933241L11.6638839 3.30565316 14.1190737 3.30565316 14.1190737 12.0933241C14.1190737 13.2330456 14.9905674 14.1601595 16.0618332 14.1601595 17.1330991 14.1601595 18.0045927 13.2330456 18.0045927 12.0933241L18.0045927 3.30565316 20.4597826 3.30565316 20.4597826 12.0933241C20.4597826 14.5866911 18.4867446 16.6153494 16.0618332 16.6153494M20.5214256 25.4539013L4.07264082 25.4539013C1.95775475 25.4539013.237147152 23.6549646.237147152 21.4436481.237147152 19.2326608 1.95775475 17.4337241 4.07264082 17.4337241L20.5214256 17.4337241 20.5214256 19.8889139 4.07264082 19.8889139C3.32456487 19.8889139 2.69233703 20.6011165 2.69233703 21.4436481 2.69233703 22.2865089 3.32456487 22.9987114 4.07264082 22.9987114L20.5214256 22.9987114 20.5214256 25.4539013zM3.20953956 3.38227089L3.20756487 3.38227089 4.26533703 1.25125823 2.0428307.145106329.334071203 3.64687848C.311691456 3.68768861.291286392 3.72981519.272856013 3.77292911L.268577532 3.78115696.268577532 3.78115696C.193539557 3.95854937.152071203 4.15338481.152071203 4.35809367.152071203 4.89191646.435438291 5.35827089.859337025 5.61827089 1.08412184 5.75649873 1.34774209 5.83746076 1.63110918 5.83746076 1.64295728 5.83746076 1.65414715 5.83581519 1.66566614 5.83581519L1.66566614 5.83746076 1.98885601 5.83746076 2.0122231 5.83746076 10.8857927 5.83746076 10.8857927 3.38227089 3.20953956 3.38227089z"/>
      <polygon fill="#576366" points="66.825 19.167 75.34 19.167 75.34 16.712 66.825 16.712"/>
      <polygon fill="#576366" points="77.534 14.585 86.493 14.585 86.493 12.13 77.534 12.13"/>
      <polygon fill="#576366" points="66.088 4.957 76.93 4.957 76.93 2.502 66.088 2.502"/>
      <polygon fill="#576366" points="77.437 6.343 86.471 6.343 86.471 3.888 77.437 3.888"/>
      <polygon fill="#576366" points="77.437 11.162 86.471 11.162 86.471 8.707 77.437 8.707"/>
      <polygon fill="#576366" points="69.939 17.939 72.394 17.939 72.394 4.19 69.939 4.19"/>
      <path fill="#576366" d="M75.3400332,8.72892405 L67.3336788,8.72892405 C66.6557041,8.72892405 66.1060839,8.1793038 66.1060839,7.50132911 C66.1060839,6.82335443 66.6557041,6.27373418 67.3336788,6.27373418 L75.3400332,6.27373418 C76.0180079,6.27373418 76.5676282,6.82335443 76.5676282,7.50132911 C76.5676282,8.1793038 76.0180079,8.72892405 75.3400332,8.72892405"/>
      <polygon fill="#576366" points="66.106 14.418 68.561 14.418 68.561 7.501 66.106 7.501"/>
      <polygon fill="#576366" points="74.112 14.418 76.567 14.418 76.567 7.501 74.112 7.501"/>
      <path fill="#576366" d="M75.3400332,25.980319 L67.3336788,25.980319 C66.6557041,25.980319 66.1060839,25.4306987 66.1060839,24.7527241 C66.1060839,24.0747494 66.6557041,23.5251291 67.3336788,23.5251291 L75.3400332,23.5251291 C76.0180079,23.5251291 76.5676282,24.0747494 76.5676282,24.7527241 C76.5676282,25.4306987 76.0180079,25.980319 75.3400332,25.980319"/>
      <polygon fill="#576366" points="74.112 24.753 76.567 24.753 76.567 13.736 74.112 13.736"/>
      <polygon fill="#576366" points="66.106 24.753 68.561 24.753 68.561 13.736 66.106 13.736"/>
      <path fill="#576366" d="M85.3025092,25.980319 L78.7765092,25.980319 C78.0985345,25.980319 77.5489142,25.4306987 77.5489142,24.7527241 C77.5489142,24.0747494 78.0985345,23.5251291 78.7765092,23.5251291 L85.3025092,23.5251291 C85.9804839,23.5251291 86.5301041,24.0747494 86.5301041,24.7527241 C86.5301041,25.4306987 85.9804839,25.980319 85.3025092,25.980319"/>
      <polygon fill="#576366" points="84.023 24.753 86.478 24.753 86.478 13.736 84.023 13.736"/>
      <polygon fill="#576366" points="77.534 24.753 79.989 24.753 79.989 13.736 77.534 13.736"/>
      <polygon fill="#576366" points="80.726 9.346 83.181 9.346 83.181 2.527 80.726 2.527"/>
      <polygon fill="#576366" points="77.452 6.077 79.907 6.077 79.907 2.527 77.452 2.527"/>
      <path fill="#5A646E" d="M41.0806509,5.54570127 L41.0089041,5.64970127 C40.9318915,5.76127089 40.8045244,5.82808101 40.6686003,5.82808101 L36.4562712,5.82808101 L36.4562712,4.88056203 C36.4562712,4.65248608 36.6418915,4.46719494 36.8696383,4.46719494 L42.2108282,4.46719494 L41.0806509,5.54570127 Z M42.9454104,7.15967595 L45.4002712,4.81671392 L46.0114358,4.20127089 L48.1756889,2.02187848 L45.0543725,2.02187848 C45.0023725,2.01595443 44.9493851,2.01200506 44.8957396,2.01200506 C44.8585497,2.01200506 44.822018,2.01463797 44.7858155,2.0176 L44.7831826,2.01200506 L36.8696383,2.01200506 C35.2879168,2.01200506 34.0010813,3.29884051 34.0010813,4.88056203 L34.0010813,8.28327089 L40.6686003,8.28327089 C41.5637902,8.28327089 42.4043472,7.86595443 42.9454104,7.15967595 L42.9454104,7.15967595 Z"/>
      <polygon fill="#5A646E" points="33.135 22.099 53.526 22.099 53.526 19.643 33.135 19.643"/>
      <polygon fill="#5A646E" points="33.135 25.536 53.526 25.536 53.526 23.081 33.135 23.081"/>
      <polygon fill="#5A646E" points="33.12 11.796 53.526 11.796 53.526 9.341 33.12 9.341"/>
      <polygon fill="#5A646E" points="34.001 15.188 44.141 15.188 44.141 12.733 34.001 12.733"/>
      <path fill="#5A646E" d="M51.4621218,18.661319 L35.2285775,18.661319 C34.5506028,18.661319 34.0009826,18.1116987 34.0009826,17.4337241 L34.0009826,14.0422051 C34.0009826,13.3642304 34.5506028,12.8146101 35.2285775,12.8146101 C35.9065522,12.8146101 36.4561725,13.3642304 36.4561725,14.0422051 L36.4561725,16.2061291 L50.2345269,16.2061291 L50.2345269,10.650357 C50.2345269,9.97238228 50.7841472,9.42276203 51.4621218,9.42276203 C52.1400965,9.42276203 52.6897168,9.97238228 52.6897168,10.650357 L52.6897168,17.4337241 C52.6897168,18.1116987 52.1400965,18.661319 51.4621218,18.661319"/>
      <path fill="#5A646E" d="M44.1414104 24.7173772C43.4634358 24.7173772 42.9138155 24.167757 42.9138155 23.4897823L42.9138155 13.9602886C42.9138155 13.2823139 43.4634358 12.7326937 44.1414104 12.7326937 44.8193851 12.7326937 45.3690054 13.2823139 45.3690054 13.9602886L45.3690054 23.4897823C45.3690054 24.167757 44.8193851 24.7173772 44.1414104 24.7173772M49.7004737 2.01193924L47.1771573 4.46712911 50.2346256 4.46712911 50.2346256 5.4146481C50.2346256 5.64272405 50.0490054 5.8283443 49.8209294 5.8283443L45.8050813 5.8283443 43.2353598 8.28353418 49.8209294 8.28353418C51.4029801 8.28353418 52.6898155 6.99636962 52.6898155 5.4146481L52.6898155 2.01193924 49.7004737 2.01193924z"/>
    </g>
  </g>
</svg>
