<?xml version="1.0" encoding="UTF-8"?>
<svg width="186px" height="113px" viewBox="0 0 186 113" version="1.1" xmlns="http://www.w3.org/2000/svg" xmlns:xlink="http://www.w3.org/1999/xlink">
    <!-- Generator: Sketch 42 (36781) - http://www.bohemiancoding.com/sketch -->
    <title>MacBook</title>
    <desc>Created with Sketch.</desc>
    <defs>
        <rect id="path-1" x="0" y="0" width="142" height="92"></rect>
        <circle id="path-3" cx="104.57057" cy="51.0130039" r="6.5"></circle>
        <filter x="-50%" y="-50%" width="200%" height="200%" filterUnits="objectBoundingBox" id="filter-4">
            <feOffset dx="0" dy="-2" in="SourceAlpha" result="shadowOffsetInner1"></feOffset>
            <feComposite in="shadowOffsetInner1" in2="SourceAlpha" operator="arithmetic" k2="-1" k3="1" result="shadowInnerInner1"></feComposite>
            <feColorMatrix values="0 0 0 0 0.501960784   0 0 0 0 0.870588235   0 0 0 0 0.917647059  0 0 0 1 0" type="matrix" in="shadowInnerInner1"></feColorMatrix>
        </filter>
        <circle id="path-5" cx="49" cy="74.9241456" r="5"></circle>
        <filter x="-50%" y="-50%" width="200%" height="200%" filterUnits="objectBoundingBox" id="filter-6">
            <feOffset dx="0" dy="-1.5" in="SourceAlpha" result="shadowOffsetInner1"></feOffset>
            <feComposite in="shadowOffsetInner1" in2="SourceAlpha" operator="arithmetic" k2="-1" k3="1" result="shadowInnerInner1"></feComposite>
            <feColorMatrix values="0 0 0 0 1   0 0 0 0 0.439215686   0 0 0 0 0.262745098  0 0 0 1 0" type="matrix" in="shadowInnerInner1"></feColorMatrix>
        </filter>
        <circle id="path-7" cx="70.5" cy="-3.5" r="1.5"></circle>
    </defs>
    <g id="VfastOnline-Unified" stroke="none" stroke-width="1" fill="none" fill-rule="evenodd">
        <g id="学习路线" transform="translate(-210.000000, -619.000000)">
            <g id="计算机文学" transform="translate(123.000000, 582.000000)">
                <g id="MacBook" transform="translate(87.000000, 37.000000)">
                    <rect id="Rectangle-10" fill="#2B414E" x="15" y="0" width="156" height="107" rx="4"></rect>
                    <path d="M0,106.692154 L186,106.692154 L184.947287,109.850292 C184.424115,111.419809 182.665262,112.692154 180.992897,112.692154 L5.00710258,112.692154 C3.34632568,112.692154 1.57585144,111.419709 1.05271265,109.850292 L0,106.692154 Z" id="Rectangle-9" fill="#EDEEF3"></path>
                    <g id="display" transform="translate(22.000000, 8.000000)">
                        <mask id="mask-2" fill="white">
                            <use xlink:href="#path-1"></use>
                        </mask>
                        <use id="Rectangle-11" fill="#324E5C" xlink:href="#path-1"></use>
                        <g id="grid" mask="url(#mask-2)" stroke="#476474">
                            <g transform="translate(0.000000, -1.000000)" id="Path-2">
                                <path d="M-39.5368209,46.5 L54.4631791,46.5 L-39.5368209,46.5 Z" transform="translate(7.463179, 47.000000) rotate(-270.000000) translate(-7.463179, -47.000000) "></path>
                                <path d="M-31.1938734,46.5 L62.8061266,46.5 L-31.1938734,46.5 Z" transform="translate(15.806127, 47.000000) rotate(-270.000000) translate(-15.806127, -47.000000) "></path>
                                <path d="M-22.850926,46.5 L71.149074,46.5 L-22.850926,46.5 Z" transform="translate(24.149074, 47.000000) rotate(-270.000000) translate(-24.149074, -47.000000) "></path>
                                <path d="M-14.5079785,46.5 L79.4920215,46.5 L-14.5079785,46.5 Z" transform="translate(32.492022, 47.000000) rotate(-270.000000) translate(-32.492022, -47.000000) "></path>
                                <path d="M-6.16503103,46.5 L87.834969,46.5 L-6.16503103,46.5 Z" transform="translate(40.834969, 47.000000) rotate(-270.000000) translate(-40.834969, -47.000000) "></path>
                                <path d="M2.17791643,46.5 L96.1779164,46.5 L2.17791643,46.5 Z" transform="translate(49.177916, 47.000000) rotate(-270.000000) translate(-49.177916, -47.000000) "></path>
                                <path d="M10.5208639,46.5 L104.520864,46.5 L10.5208639,46.5 Z" transform="translate(57.520864, 47.000000) rotate(-270.000000) translate(-57.520864, -47.000000) "></path>
                                <path d="M18.8638114,46.5 L112.863811,46.5 L18.8638114,46.5 Z" transform="translate(65.863811, 47.000000) rotate(-270.000000) translate(-65.863811, -47.000000) "></path>
                                <path d="M27.2067588,46.5 L121.206759,46.5 L27.2067588,46.5 Z" transform="translate(74.206759, 47.000000) rotate(-270.000000) translate(-74.206759, -47.000000) "></path>
                                <path d="M35.5497063,46.5 L129.549706,46.5 L35.5497063,46.5 Z" transform="translate(82.549706, 47.000000) rotate(-270.000000) translate(-82.549706, -47.000000) "></path>
                                <path d="M43.8926538,46.5 L137.892654,46.5 L43.8926538,46.5 Z" transform="translate(90.892654, 47.000000) rotate(-270.000000) translate(-90.892654, -47.000000) "></path>
                                <path d="M52.2356012,46.5 L146.235601,46.5 L52.2356012,46.5 Z" transform="translate(99.235601, 47.000000) rotate(-270.000000) translate(-99.235601, -47.000000) "></path>
                                <path d="M60.5785487,46.5 L154.578549,46.5 L60.5785487,46.5 Z" transform="translate(107.578549, 47.000000) rotate(-270.000000) translate(-107.578549, -47.000000) "></path>
                                <path d="M68.9214962,46.5 L162.921496,46.5 L68.9214962,46.5 Z" transform="translate(115.921496, 47.000000) rotate(-270.000000) translate(-115.921496, -47.000000) "></path>
                                <path d="M77.2644436,46.5 L171.264444,46.5 L77.2644436,46.5 Z" transform="translate(124.264444, 47.000000) rotate(-270.000000) translate(-124.264444, -47.000000) "></path>
                                <path d="M85.6073911,46.5 L179.607391,46.5 L85.6073911,46.5 Z" transform="translate(132.607391, 47.000000) rotate(-270.000000) translate(-132.607391, -47.000000) "></path>
                                <path d="M0,8 L142,8 L0,8 Z"></path>
                                <path d="M0,16.3262183 L142,16.3262183 L0,16.3262183 Z"></path>
                                <path d="M0,24.6524366 L142,24.6524366 L0,24.6524366 Z"></path>
                                <path d="M0,32.9786548 L142,32.9786548 L0,32.9786548 Z"></path>
                                <path d="M0,41.3048731 L142,41.3048731 L0,41.3048731 Z"></path>
                                <path d="M0,49.6310914 L142,49.6310914 L0,49.6310914 Z"></path>
                                <path d="M0,57.9573097 L142,57.9573097 L0,57.9573097 Z"></path>
                                <path d="M0,66.283528 L142,66.283528 L0,66.283528 Z"></path>
                                <path d="M0,74.6097462 L142,74.6097462 L0,74.6097462 Z"></path>
                                <path d="M0,82.9359645 L142,82.9359645 L0,82.9359645 Z"></path>
                                <path d="M0,91.2621828 L142,91.2621828 L0,91.2621828 Z"></path>
                            </g>
                        </g>
                        <circle id="Oval-6" fill="#EDEEF3" mask="url(#mask-2)" cx="33.5" cy="29.5" r="3.5"></circle>
                        <circle id="Oval-6" fill="#EDEEF3" mask="url(#mask-2)" cx="75.5" cy="7.76218281" r="3.5"></circle>
                        <g id="Oval-6" mask="url(#mask-2)">
                            <use fill="#B2EBF2" fill-rule="evenodd" xlink:href="#path-3"></use>
                            <use fill="black" fill-opacity="1" filter="url(#filter-4)" xlink:href="#path-3"></use>
                        </g>
                        <g id="Oval-6" mask="url(#mask-2)">
                            <use fill="#FF8A65" fill-rule="evenodd" xlink:href="#path-5"></use>
                            <use fill="black" fill-opacity="1" filter="url(#filter-6)" xlink:href="#path-5"></use>
                        </g>
                        <circle id="Oval-5" fill="#FFD54F" mask="url(#mask-2)" cx="68.9482039" cy="40.2913681" r="19"></circle>
                        <circle id="Oval-5" stroke="#FFD54F" stroke-width="3" stroke-dasharray="1,6" mask="url(#mask-2)" transform="translate(69.000000, 40.343164) rotate(-45.000000) translate(-69.000000, -40.343164) " cx="69" cy="40.3431642" r="23.0382329"></circle>
                        <mask id="mask-8" fill="white">
                            <use xlink:href="#path-7"></use>
                        </mask>
                        <use id="Oval-4" fill="#2B3C46" xlink:href="#path-7"></use>
                    </g>
                </g>
            </g>
        </g>
    </g>
</svg>