<?xml version="1.0" encoding="UTF-8"?>
<svg width="320px" height="158px" viewBox="0 0 320 158" version="1.1" xmlns="http://www.w3.org/2000/svg" xmlns:xlink="http://www.w3.org/1999/xlink">
    <!-- Generator: Sketch 42 (36781) - http://www.bohemiancoding.com/sketch -->
    <title>map</title>
    <desc>Created with Sketch.</desc>
    <defs></defs>
    <g id="VfastOnline-Unified" stroke="none" stroke-width="1" fill="none" fill-rule="evenodd">
        <g id="学习路线" transform="translate(-970.000000, -324.000000)">
            <g id="map" transform="translate(970.000000, 324.000000)">
                <path d="M304.365131,103.103688 C302.462849,103.103688 301.448299,100.694131 302.843306,99.4259429 C309.81834,92.5777274 314.256998,82.9394983 314.256998,72.4135375 C314.256998,55.4198177 303.096943,41.0892927 287.751868,36.2701781 C288.512781,35.0019901 288.893237,33.6069832 288.893237,31.9583388 C288.893237,27.266043 285.088673,23.4614789 280.396377,23.4614789 L52.3761663,23.4614789 C47.6838706,23.4614789 43.8793064,27.266043 43.8793064,31.9583388 L43.8793064,32.9728892 L39.5674671,32.9728892 C31.83152,32.9728892 25.4905797,39.3138295 25.4905797,47.0497765 C25.4905797,54.0248108 30.5633319,59.8584758 37.2847286,60.8730263 L7.9895847,60.8730263 C3.93138295,60.8730263 0.760912828,64.6775904 0.760912828,69.2430674 C0.760912828,74.0621819 4.18502055,77.9935649 8.37004111,77.9935649 L25.3637609,77.9935649 C23.4614789,81.6713102 22.066472,88.0122505 21.8128344,90.2949889 C21.5591968,92.5777274 21.8128344,95.1141035 21.8128344,95.1141035 C21.8128344,95.1141035 22.700566,100.82095 23.5882977,103.484145 C16.9937198,105.132789 12.1746053,111.093273 12.1746053,118.195126 L12.1746053,118.702401 C12.1746053,127.072442 19.0228207,133.920658 27.3928618,133.920658 L32.9728892,133.920658 C36.0165405,147.617089 48.1911458,157.762593 62.9021271,157.762593 C70.764893,157.762593 77.9935649,154.718942 83.4467735,149.899827 C86.6172436,146.982995 90.8022642,145.207531 95.1141035,145.207531 L249.833045,145.207531 C257.949449,145.207531 264.924483,140.642054 268.348591,133.920658 L304.365131,133.920658 C312.735172,133.920658 319.583388,127.072442 319.583388,118.702401 L319.583388,118.195126 C319.583388,109.951904 312.735172,103.103688 304.365131,103.103688 Z" id="Shape" fill="#ADD8BF"></path>
                <path d="M253.891247,129.355181 C275.957719,129.355181 275.957719,108.556897 275.957719,108.556897 C275.957719,108.556897 292.190526,109.190991 295.107359,89.9145325 C298.024191,70.764893 284.074123,64.931228 284.074123,64.931228 C284.074123,64.931228 284.074123,47.430233 270.758148,47.430233 L253.764428,47.430233 C253.764428,47.430233 251.988965,39.3138295 247.423488,35.2556277 C244.126199,32.465614 217.113794,34.1142585 217.113794,34.1142585 C217.113794,34.1142585 217.113794,29.4219627 211.280129,29.4219627 L168.795829,29.4219627 L126.945623,29.4219627 C117.687851,29.4219627 115.912387,35.2556277 115.912387,35.2556277 L88.3927069,35.2556277 C78.1203837,35.2556277 78.1203837,45.7815885 78.1203837,45.7815885 L37.9188226,48.698421 C37.9188226,48.698421 37.9188226,45.7815885 37.9188226,57.3220997 C37.9188226,68.9894298 48.4447834,70.130799 48.4447834,70.130799 L74.5694572,70.130799 C74.5694572,70.130799 82.6858607,70.130799 82.6858607,77.1058333 C82.6858607,84.0808675 75.7108264,84.0808675 75.0767324,84.0808675 L69.8771614,84.0808675 C69.8771614,84.0808675 67.0871477,84.0808675 64.4239528,87.1245188 C61.6339391,90.1681701 61.6339391,97.2700232 61.6339391,97.2700232 L61.6339391,106.527796 C61.6339391,106.527796 48.8252398,125.804254 68.1016981,140.388417 C87.3781564,154.972579 109.31781,135.82294 109.31781,135.82294 L138.612954,135.82294 C151.421653,135.82294 151.421653,129.355181 151.421653,129.355181 L253.891247,129.355181 L253.891247,129.355181 Z" id="Path-2-Copy-2" fill="#91CEB1"></path>
                <path d="M253.891247,120.477864 C275.957719,120.477864 275.957719,99.6795805 275.957719,99.6795805 C275.957719,99.6795805 292.190526,100.313675 295.107359,81.0372162 C298.024191,61.8875767 284.074123,56.0539117 284.074123,56.0539117 C284.074123,56.0539117 284.074123,38.5529166 270.758148,38.5529166 L253.764428,38.5529166 C253.764428,38.5529166 251.988965,30.4365131 247.423488,26.3783114 C244.126199,23.5882977 217.113794,25.2369421 217.113794,25.2369421 C217.113794,25.2369421 217.113794,20.5446464 211.280129,20.5446464 L168.795829,20.5446464 L126.945623,20.5446464 C117.687851,20.5446464 115.912387,26.3783114 115.912387,26.3783114 L88.3927069,26.3783114 C78.1203837,26.3783114 78.1203837,36.9042722 78.1203837,36.9042722 L37.9188226,39.8211047 C37.9188226,39.8211047 37.9188226,36.9042722 37.9188226,48.4447834 C37.9188226,59.9852946 48.4447834,61.2534827 48.4447834,61.2534827 L74.5694572,61.2534827 C74.5694572,61.2534827 82.6858607,61.2534827 82.6858607,68.2285169 C82.6858607,75.2035512 75.7108264,75.2035512 75.0767324,75.2035512 L69.8771614,75.2035512 C69.8771614,75.2035512 67.0871477,75.2035512 64.4239528,78.2472025 C61.6339391,81.2908538 61.6339391,88.3927069 61.6339391,88.3927069 L61.6339391,97.6504796 C61.6339391,97.6504796 48.8252398,116.926938 68.1016981,131.5111 C87.3781564,146.222082 109.31781,126.945623 109.31781,126.945623 L138.612954,126.945623 C151.421653,126.945623 151.421653,120.477864 151.421653,120.477864 L253.891247,120.477864 L253.891247,120.477864 Z" id="Path-2-Copy-2_1_" fill="#F6D8B3"></path>
                <path d="M253.891247,115.912387 C275.957719,115.912387 275.957719,95.1141035 275.957719,95.1141035 C275.957719,95.1141035 292.190526,95.7481975 295.107359,76.4717392 C298.024191,57.3220997 284.074123,51.4884347 284.074123,51.4884347 C284.074123,51.4884347 284.074123,33.9874397 270.758148,33.9874397 L253.764428,33.9874397 C253.764428,33.9874397 251.988965,25.8710362 247.423488,21.8128344 C244.126199,19.0228207 217.113794,20.6714652 217.113794,20.6714652 C217.113794,20.6714652 217.113794,15.9791694 211.280129,15.9791694 L168.795829,15.9791694 L126.945623,15.9791694 C117.687851,15.9791694 115.912387,21.8128344 115.912387,21.8128344 L88.3927069,21.8128344 C78.1203837,21.8128344 78.1203837,32.3387952 78.1203837,32.3387952 L48.4447834,32.3387952 C48.4447834,32.3387952 37.9188226,32.3387952 37.9188226,44.0061252 C37.9188226,55.6734553 48.4447834,56.8148245 48.4447834,56.8148245 L74.5694572,56.8148245 C74.5694572,56.8148245 82.6858607,56.8148245 82.6858607,63.7898588 C82.6858607,70.764893 80.0226658,70.130799 75.0767324,70.764893 C70.130799,71.398987 68.1016981,72.0330811 65.3116844,74.696276 C62.5216707,77.4862897 61.6339391,81.164035 61.6339391,83.8272299 L61.6339391,92.9581838 C61.6339391,92.9581838 48.8252398,112.234642 68.1016981,126.818805 C87.3781564,141.402967 109.31781,122.253328 109.31781,122.253328 L138.612954,122.253328 C151.421653,122.253328 151.421653,115.785569 151.421653,115.785569 L253.891247,115.785569 L253.891247,115.912387 Z" id="Path-2-Copy" fill="#6CA874"></path>
                <path d="M253.891247,114.136924 C275.957719,114.136924 275.957719,93.3386403 275.957719,93.3386403 C275.957719,93.3386403 292.190526,93.9727343 295.107359,74.696276 C298.024191,55.5466365 284.074123,49.7129714 284.074123,49.7129714 C284.074123,49.7129714 284.074123,32.2119764 270.758148,32.2119764 L253.764428,32.2119764 C253.764428,32.2119764 251.988965,24.0955729 247.423488,20.0373711 C244.126199,17.2473574 217.113794,18.8960019 217.113794,18.8960019 C217.113794,18.8960019 217.113794,14.2037061 211.280129,14.2037061 L168.795829,14.2037061 L126.945623,14.2037061 C117.687851,14.2037061 115.912387,20.0373711 115.912387,20.0373711 L88.3927069,20.0373711 C78.1203837,20.0373711 78.1203837,30.5633319 78.1203837,30.5633319 L48.4447834,30.5633319 C48.4447834,30.5633319 37.9188226,30.5633319 37.9188226,42.230662 C37.9188226,53.897992 48.4447834,55.0393612 48.4447834,55.0393612 L74.5694572,55.0393612 C74.5694572,55.0393612 82.6858607,55.0393612 82.6858607,62.0143955 C82.6858607,68.9894298 80.0226658,68.3553357 75.0767324,68.9894298 C70.130799,69.6235238 68.1016981,70.2576178 65.3116844,72.9208127 C62.5216707,75.7108264 61.6339391,79.3885717 61.6339391,82.0517666 L61.6339391,91.1827206 C61.6339391,91.1827206 48.8252398,110.459179 68.1016981,125.043341 C87.3781564,139.627504 109.31781,120.477864 109.31781,120.477864 L138.612954,120.477864 C151.421653,120.477864 151.421653,114.010105 151.421653,114.010105 L253.891247,114.010105 L253.891247,114.136924 Z" id="Path-2" fill="#8BC485"></path>
                <g id="Rectangle-5" transform="translate(101.455044, 65.945778)">
                    <path d="M11.2868736,2.40955729 C15.2182566,-2.53637609 18.2619079,1.77546327 23.4614789,2.40955729 C28.7878687,3.04365131 36.1433593,1.77546327 36.6506346,6.72139665 C37.665185,16.4864446 45.7815885,15.4718942 36.6506346,20.9251028 C27.5196806,26.3783114 25.4905797,18.1350891 19.4032771,16.9937198 C13.3159745,15.8523506 5.19957099,18.0082703 2.15591968,13.9500685 C-0.887731633,9.89186677 6.21412143,8.87731633 11.2868736,2.40955729 Z" id="path-1_2_" fill="#82B3F9"></path>
                    <path d="M10.5259608,3.80456414 C14.4573437,-1.14136924 17.500995,3.17047012 22.700566,3.80456414 C28.0269558,4.43865816 35.3824465,3.17047012 35.8897217,8.1164035 C36.9042722,17.8814515 45.0206757,16.866901 35.8897217,22.3201096 C26.7587678,27.7733182 24.7296669,19.5300959 18.6423643,18.3887267 C12.5550617,17.2473574 4.43865816,19.4032771 1.39500685,15.3450754 C-1.64864446,11.2868736 5.4532086,10.2723232 10.5259608,3.80456414 Z" id="path-1" fill="#9CC0FD"></path>
                </g>
                <path d="M81.0372162,96.6359292 C84.7149615,71.9062623 95.7481975,51.7420723 128.721087,55.4198177 C161.693976,59.097563 155.353036,93.9727343 172.727212,93.9727343 C190.101388,93.9727343 190.101388,78.3740213 193.779134,64.6775904 C197.456879,50.9811595 197.456879,39.8211047 209.377847,44.5134004 C223.074277,49.966609 203.924638,68.3553357 215.845606,77.4862897 C227.766573,86.6172436 250.720777,72.0330811 250.720777,72.0330811" id="Path-5" stroke="#6BA673" stroke-width="3" stroke-dasharray="8"></path>
                <ellipse id="Oval" fill="#6CA874" cx="59.731657" cy="48.9520586" rx="6.46775904" ry="2.40955729"></ellipse>
                <ellipse id="Oval" fill="#6CA874" cx="129.101543" cy="36.7774534" rx="5.3263898" ry="1.64864446"></ellipse>
                <g id="tree" transform="translate(50.727522, 11.413692)">
                    <path d="M9.00413513,28.2805934 L9.00413513,28.2805934 C9.63822916,28.2805934 10.1455044,28.7878687 10.1455044,29.4219627 L10.1455044,37.031091 C10.1455044,37.665185 9.63822916,38.1724602 9.00413513,38.1724602 L9.00413513,38.1724602 C8.37004111,38.1724602 7.86276589,37.665185 7.86276589,37.031091 L7.86276589,29.4219627 C7.86276589,28.7878687 8.37004111,28.2805934 9.00413513,28.2805934 Z" id="Rectangle" fill="#AB8B72"></path>
                    <path d="M17.1205386,29.6756003 C17.6278139,31.9583388 15.598713,33.099708 13.5696121,33.099708 C12.9355181,33.099708 12.3014241,32.9728892 11.7941488,32.5924328 C11.1600548,33.4801644 10.1455044,34.1142585 8.87731633,34.1142585 C7.73594709,34.1142585 6.59457784,33.4801644 5.96048382,32.5924328 C5.4532086,32.8460704 4.81911458,33.099708 4.18502055,33.099708 C2.28273848,33.099708 0.380456414,31.4510636 0.634094023,29.6756003 C0.887731633,27.7733182 7.48230948,13.3159745 8.75049752,13.3159745 C10.1455044,13.3159745 16.6132634,27.3928618 17.1205386,29.6756003 Z" id="Combined-Shape-Copy-4" fill="#547C63"></path>
                    <path d="M16.6132634,21.8128344 C17.1205386,23.8419353 15.2182566,25.1101233 13.3159745,25.1101233 C12.6818805,25.1101233 12.1746053,24.9833045 11.66733,24.6028481 C11.033236,25.4905797 10.1455044,25.997855 9.00413513,25.997855 C7.86276589,25.997855 6.97503426,25.4905797 6.34094023,24.6028481 C5.83366502,24.8564857 5.3263898,25.1101233 4.69229577,25.1101233 C2.91683251,25.1101233 1.39500685,23.7151165 1.39500685,21.8128344 C1.39500685,20.1641899 7.73594709,6.59457784 9.00413513,6.59457784 C10.2723232,6.59457784 16.1059882,19.7837335 16.6132634,21.8128344 Z" id="Combined-Shape-Copy-3" fill="#6CA874"></path>
                    <path d="M15.9791694,14.0768873 C16.4864446,15.9791694 14.5841625,17.1205386 12.9355181,17.1205386 C12.4282429,17.1205386 11.9209676,16.9937198 11.4136924,16.7400822 C10.9064172,17.500995 10.0186856,18.0082703 9.00413513,18.0082703 C7.9895847,18.0082703 7.10185306,17.500995 6.59457784,16.7400822 C6.08730263,16.9937198 5.58002741,17.1205386 5.07275219,17.1205386 C3.42410773,17.1205386 2.02910088,15.7255318 2.02910088,14.0768873 C2.02910088,12.5550617 7.86276589,0 9.00413513,0 C10.0186856,0 15.4718942,12.1746053 15.9791694,14.0768873 Z" id="Combined-Shape-Copy-2" fill="#A1D09A"></path>
                </g>
                <ellipse id="Oval" fill="#6CA874" cx="102.089138" cy="103.103688" rx="7.86276589" ry="2.40955729"></ellipse>
                <g id="tree-copy" transform="translate(91.309539, 53.263898)">
                    <path d="M10.7795984,37.031091 L10.7795984,37.031091 C11.5405112,37.031091 12.1746053,37.665185 12.1746053,38.4260978 L12.1746053,48.3179646 C12.1746053,49.0788774 11.5405112,49.7129714 10.7795984,49.7129714 L10.7795984,49.7129714 C10.0186856,49.7129714 9.38459155,49.0788774 9.38459155,48.3179646 L9.38459155,38.4260978 C9.38459155,37.665185 10.0186856,37.031091 10.7795984,37.031091 Z" id="Rectangle_1_" fill="#AB8B72"></path>
                    <path d="M21.432378,38.933373 C22.066472,41.8502055 19.4032771,43.49885 16.866901,43.49885 C15.9791694,43.49885 15.2182566,43.2452124 14.5841625,42.864756 C13.8232497,44.0061252 12.4282429,44.8938569 10.7795984,44.8938569 C9.25777274,44.8938569 7.86276589,44.132944 6.97503426,42.864756 C6.34094023,43.2452124 5.4532086,43.49885 4.69229577,43.49885 C2.15591968,43.49885 -0.126818805,41.4697491 0.126818805,38.933373 C0.507275219,36.5238158 9.13095394,17.6278139 10.7795984,17.6278139 C12.4282429,17.6278139 20.6714652,36.0165405 21.432378,38.933373 Z" id="Combined-Shape-Copy-4_1_" fill="#547C63"></path>
                    <path d="M20.798284,28.7878687 C21.432378,31.4510636 18.8960019,32.9728892 16.6132634,32.9728892 C15.8523506,32.9728892 15.0914378,32.7192516 14.4573437,32.3387952 C13.6964309,33.4801644 12.4282429,34.1142585 11.033236,34.1142585 C9.63822916,34.1142585 8.37004111,33.3533456 7.60912828,32.3387952 C6.97503426,32.7192516 6.21412143,32.9728892 5.4532086,32.9728892 C3.17047012,32.9728892 1.26818805,31.0706071 1.26818805,28.7878687 C1.26818805,26.631949 9.51141035,9.00413513 11.1600548,9.00413513 C12.4282429,9.00413513 20.1641899,25.997855 20.798284,28.7878687 Z" id="Combined-Shape-Copy-3_1_" fill="#6CA874"></path>
                    <path d="M19.9105523,18.6423643 C20.5446464,21.1787404 18.1350891,22.5737472 15.9791694,22.5737472 C15.2182566,22.5737472 14.5841625,22.3201096 13.9500685,22.066472 C13.1891557,23.0810225 12.0477864,23.7151165 10.7795984,23.7151165 C9.51141035,23.7151165 8.24322231,23.0810225 7.60912828,22.066472 C6.97503426,22.4469284 6.34094023,22.5737472 5.58002741,22.5737472 C3.42410773,22.5737472 1.64864446,20.798284 1.64864446,18.6423643 C1.64864446,16.6132634 9.25777274,0.380456414 10.7795984,0.380456414 C12.3014241,0.380456414 19.2764583,16.1059882 19.9105523,18.6423643 Z" id="Combined-Shape-Copy-2_1_" fill="#A1D09A"></path>
                </g>
                <ellipse id="Oval" fill="#6CA874" cx="244.887112" cy="111.727367" rx="5.4532086" ry="1.64864446"></ellipse>
                <ellipse id="Oval" fill="#6CA874" cx="143.17843" cy="117.307394" rx="5.4532086" ry="1.64864446"></ellipse>
                <g id="tree-copy_1_" transform="translate(238.419353, 82.432223)">
                    <path d="M6.46775904,21.6860156 L6.46775904,21.6860156 C6.97503426,21.6860156 7.35549067,22.066472 7.35549067,22.5737472 L7.35549067,28.4074123 C7.35549067,28.9146875 6.97503426,29.2951439 6.46775904,29.2951439 L6.46775904,29.2951439 C5.96048382,29.2951439 5.58002741,28.9146875 5.58002741,28.4074123 L5.58002741,22.5737472 C5.58002741,22.066472 5.96048382,21.6860156 6.46775904,21.6860156 Z" id="Rectangle_7_" fill="#AB8B72"></path>
                    <path d="M12.6818805,22.8273848 C13.0623369,24.6028481 11.5405112,25.4905797 10.0186856,25.4905797 C9.51141035,25.4905797 9.00413513,25.3637609 8.62367872,25.1101233 C8.1164035,25.8710362 7.35549067,26.2514926 6.46775904,26.2514926 C5.58002741,26.2514926 4.69229577,25.7442174 4.31183936,25.1101233 C3.93138295,25.3637609 3.42410773,25.4905797 2.91683251,25.4905797 C1.39500685,25.4905797 -2.19740892e-13,24.2223917 0.253637609,22.8273848 C0.380456414,21.432378 5.58002741,10.2723232 6.46775904,10.2723232 C7.35549067,10.2723232 12.3014241,21.0519216 12.6818805,22.8273848 Z" id="Combined-Shape-Copy-4_7_" fill="#547C63"></path>
                    <path d="M12.3014241,16.866901 C12.6818805,18.5155455 11.1600548,19.4032771 9.76504796,19.4032771 C9.25777274,19.4032771 8.87731633,19.2764583 8.49685991,19.0228207 C7.9895847,19.6569147 7.35549067,20.1641899 6.46775904,20.1641899 C5.58002741,20.1641899 4.81911458,19.7837335 4.43865816,19.0228207 C4.05820175,19.2764583 3.67774534,19.4032771 3.17047012,19.4032771 C1.77546327,19.4032771 0.634094023,18.2619079 0.634094023,16.866901 C0.634094023,15.598713 5.58002741,5.19957099 6.46775904,5.19957099 C7.35549067,5.19957099 11.9209676,15.2182566 12.3014241,16.866901 Z" id="Combined-Shape-Copy-3_7_" fill="#6CA874"></path>
                    <path d="M11.7941488,10.9064172 C12.1746053,12.4282429 10.7795984,13.1891557 9.51141035,13.1891557 C9.13095394,13.1891557 8.62367872,13.0623369 8.37004111,12.8086993 C7.9895847,13.4427933 7.22867187,13.8232497 6.46775904,13.8232497 C5.70684621,13.8232497 4.94593338,13.4427933 4.56547697,12.8086993 C4.18502055,13.0623369 3.80456414,13.1891557 3.42410773,13.1891557 C2.15591968,13.1891557 1.14136924,12.1746053 1.14136924,10.9064172 C1.14136924,9.76504796 5.70684621,0.126818805 6.46775904,0.126818805 C7.22867187,0.126818805 11.5405112,9.38459155 11.7941488,10.9064172 Z" id="Combined-Shape-Copy-2_7_" fill="#A1D09A"></path>
                </g>
                <ellipse id="Oval" fill="#6CA874" cx="177.16587" cy="37.5383662" rx="4.94593338" ry="1.52182566"></ellipse>
                <ellipse id="Oval" fill="#6CA874" cx="218.381982" cy="30.1828755" rx="6.46775904" ry="2.02910088"></ellipse>
                <ellipse id="Oval" fill="#6CA874" cx="168.034916" cy="74.3158196" rx="6.46775904" ry="2.02910088"></ellipse>
                <ellipse id="Oval" fill="#6CA874" cx="182.745898" cy="35.2556277" rx="3.17047012" ry="1.01455044"></ellipse>
                <g id="tree-copy-2" transform="translate(121.746053, 3.804564)">
                    <path d="M7.22867187,24.7296669 L7.22867187,24.7296669 C7.73594709,24.7296669 8.24322231,25.1101233 8.24322231,25.7442174 L8.24322231,32.3387952 C8.24322231,32.8460704 7.86276589,33.3533456 7.22867187,33.3533456 L7.22867187,33.3533456 C6.72139665,33.3533456 6.21412143,32.9728892 6.21412143,32.3387952 L6.21412143,25.7442174 C6.34094023,25.2369421 6.72139665,24.7296669 7.22867187,24.7296669 Z" id="Rectangle_2_" fill="#AB8B72"></path>
                    <path d="M14.3305249,25.997855 C14.8378001,27.900137 12.9355181,29.0415063 11.2868736,29.0415063 C10.7795984,29.0415063 10.1455044,28.9146875 9.76504796,28.6610499 C9.25777274,29.4219627 8.24322231,29.9292379 7.22867187,29.9292379 C6.21412143,29.9292379 5.3263898,29.4219627 4.69229577,28.6610499 C4.18502055,28.9146875 3.67774534,29.0415063 3.17047012,29.0415063 C1.52182566,29.0415063 -0.126818805,27.6464994 0.126818805,25.997855 C0.380456414,24.3492105 6.08730263,11.7941488 7.22867187,11.7941488 C8.37004111,11.7941488 13.8232497,23.9687541 14.3305249,25.997855 Z" id="Combined-Shape-Copy-4_2_" fill="#547C63"></path>
                    <path d="M13.8232497,19.2764583 C14.2037061,21.0519216 12.5550617,22.066472 11.033236,22.066472 C10.5259608,22.066472 10.0186856,21.9396532 9.63822916,21.6860156 C9.13095394,22.4469284 8.24322231,22.9542036 7.35549067,22.9542036 C6.46775904,22.9542036 5.58002741,22.4469284 5.07275219,21.6860156 C4.69229577,21.9396532 4.18502055,22.066472 3.67774534,22.066472 C2.15591968,22.066472 0.887731633,20.798284 0.887731633,19.2764583 C0.760912828,17.7546327 6.34094023,6.08730263 7.35549067,6.08730263 C8.37004111,6.08730263 13.4427933,17.3741762 13.8232497,19.2764583 Z" id="Combined-Shape-Copy-3_2_" fill="#6CA874"></path>
                    <path d="M13.3159745,12.4282429 C13.6964309,14.0768873 12.1746053,14.964619 10.7795984,14.964619 C10.2723232,14.964619 9.89186677,14.8378001 9.51141035,14.5841625 C9.00413513,15.2182566 8.24322231,15.7255318 7.35549067,15.7255318 C6.46775904,15.7255318 5.58002741,15.3450754 5.07275219,14.7109813 C4.69229577,14.964619 4.18502055,15.0914378 3.80456414,15.0914378 C2.40955729,15.0914378 1.26818805,13.9500685 1.26818805,12.5550617 C1.26818805,11.1600548 6.34094023,0.380456414 7.35549067,0.380456414 C8.37004111,0.380456414 12.9355181,10.7795984 13.3159745,12.4282429 Z" id="Combined-Shape-Copy-2_2_" fill="#A1D09A"></path>
                </g>
                <g id="tree-copy-2_4_" transform="translate(177.546327, 11.413692)">
                    <path d="M5.19957099,17.7546327 L5.19957099,17.7546327 C5.58002741,17.7546327 5.83366502,18.0082703 5.83366502,18.3887267 L5.83366502,23.0810225 C5.83366502,23.4614789 5.58002741,23.7151165 5.19957099,23.7151165 L5.19957099,23.7151165 C4.81911458,23.7151165 4.56547697,23.4614789 4.56547697,23.0810225 L4.56547697,18.3887267 C4.56547697,18.1350891 4.81911458,17.7546327 5.19957099,17.7546327 Z" id="Rectangle_6_" fill="#AB8B72"></path>
                    <path d="M10.2723232,18.6423643 C10.6527796,20.0373711 9.25777274,20.798284 8.1164035,20.798284 C7.73594709,20.798284 7.35549067,20.6714652 6.97503426,20.5446464 C6.59457784,21.0519216 5.96048382,21.432378 5.19957099,21.432378 C4.43865816,21.432378 3.80456414,21.0519216 3.42410773,20.5446464 C3.04365131,20.798284 2.6631949,20.798284 2.28273848,20.798284 C1.14136924,20.798284 -6.42402798e-14,19.7837335 0.126818805,18.6423643 C0.253637609,17.500995 4.43865816,8.49685991 5.19957099,8.49685991 C5.96048382,8.49685991 9.89186677,17.2473574 10.2723232,18.6423643 Z" id="Combined-Shape-Copy-4_6_" fill="#547C63"></path>
                    <path d="M10.0186856,13.8232497 C10.2723232,15.0914378 9.13095394,15.8523506 7.9895847,15.8523506 C7.60912828,15.8523506 7.22867187,15.7255318 6.97503426,15.598713 C6.59457784,16.1059882 5.96048382,16.4864446 5.3263898,16.4864446 C4.69229577,16.4864446 4.05820175,16.1059882 3.67774534,15.598713 C3.42410773,15.7255318 3.04365131,15.8523506 2.6631949,15.8523506 C1.52182566,15.8523506 0.634094023,14.964619 0.634094023,13.8232497 C0.634094023,12.8086993 4.56547697,4.31183936 5.3263898,4.31183936 C6.08730263,4.31183936 9.63822916,12.5550617 10.0186856,13.8232497 Z" id="Combined-Shape-Copy-3_6_" fill="#6CA874"></path>
                    <path d="M9.51141035,9.00413513 C9.76504796,10.1455044 8.62367872,10.9064172 7.60912828,10.9064172 C7.22867187,10.9064172 6.97503426,10.7795984 6.72139665,10.6527796 C6.34094023,11.1600548 5.83366502,11.4136924 5.19957099,11.4136924 C4.56547697,11.4136924 4.05820175,11.033236 3.67774534,10.6527796 C3.42410773,10.7795984 3.04365131,10.9064172 2.7900137,10.9064172 C1.77546327,10.9064172 0.887731633,10.0186856 0.887731633,9.00413513 C0.887731633,7.9895847 4.56547697,0.253637609 5.19957099,0.253637609 C5.96048382,0.253637609 9.25777274,7.73594709 9.51141035,9.00413513 Z" id="Combined-Shape-Copy-2_6_" fill="#A1D09A"></path>
                </g>
                <g id="tree-copy-2_3_" transform="translate(169.744474, 5.072752)">
                    <path d="M7.42139588,24.4760293 L7.42139588,24.4760293 C7.9286711,24.4760293 8.43594632,24.8564857 8.43594632,25.4905797 L8.43594632,32.0851576 C8.43594632,32.5924328 8.0554899,33.099708 7.42139588,33.099708 L7.42139588,33.099708 C6.91412066,33.099708 6.40684544,32.7192516 6.40684544,32.0851576 L6.40684544,25.3637609 C6.40684544,24.8564857 6.78730186,24.4760293 7.42139588,24.4760293 Z" id="Rectangle_5_" fill="#AB8B72"></path>
                    <path d="M14.3964301,25.6173985 C14.9037054,27.5196806 13.0014233,28.6610499 11.3527788,28.6610499 C10.8455036,28.6610499 10.2114096,28.5342311 9.83095317,28.2805934 C9.32367795,29.0415063 8.30912751,29.5487815 7.29457707,29.5487815 C6.28002664,29.5487815 5.392295,29.0415063 4.75820098,28.2805934 C4.25092576,28.5342311 3.74365054,28.6610499 3.23637532,28.6610499 C1.58773086,28.6610499 -0.0609135982,27.266043 0.192724011,25.6173985 C0.446361621,23.9687541 6.15320783,11.4136924 7.29457707,11.4136924 C8.43594632,11.5405112 13.8891549,23.7151165 14.3964301,25.6173985 Z" id="Combined-Shape-Copy-4_5_" fill="#547C63"></path>
                    <path d="M14.0159737,18.8960019 C14.3964301,20.6714652 12.7477857,21.6860156 11.22596,21.6860156 C10.7186848,21.6860156 10.2114096,21.5591968 9.83095317,21.3055592 C9.32367795,22.066472 8.43594632,22.5737472 7.54821468,22.5737472 C6.53366425,22.5737472 5.77275142,22.066472 5.2654762,21.3055592 C4.88501978,21.5591968 4.37774457,21.6860156 3.87046935,21.6860156 C2.34864369,21.6860156 1.08045564,20.4178276 1.08045564,18.8960019 C1.08045564,17.500995 6.53366425,5.70684621 7.67503349,5.70684621 C8.81640273,5.70684621 13.5086985,17.1205386 14.0159737,18.8960019 Z" id="Combined-Shape-Copy-3_5_" fill="#6CA874"></path>
                    <path d="M13.3818797,12.1746053 C13.7623361,13.8232497 12.2405105,14.7109813 10.8455036,14.7109813 C10.3382284,14.7109813 9.95777197,14.5841625 9.57731556,14.3305249 C9.07004034,14.964619 8.30912751,15.4718942 7.42139588,15.4718942 C6.53366425,15.4718942 5.77275142,14.964619 5.2654762,14.3305249 C4.88501978,14.5841625 4.37774457,14.7109813 3.99728815,14.7109813 C2.6022813,14.7109813 1.46091206,13.5696121 1.46091206,12.1746053 C1.46091206,10.7795984 6.53366425,0 7.54821468,0 C8.56276512,0 13.0014233,10.5259608 13.3818797,12.1746053 Z" id="Combined-Shape-Copy-2_5_" fill="#A1D09A"></path>
                </g>
                <g id="tree-copy-2_2_" transform="translate(211.594680, 0.000000)">
                    <path d="M6.66048305,22.8273848 L6.66048305,22.8273848 C7.16775827,22.8273848 7.54821468,23.2078413 7.54821468,23.7151165 L7.54821468,29.6756003 C7.54821468,30.1828755 7.16775827,30.5633319 6.66048305,30.5633319 L6.66048305,30.5633319 C6.15320783,30.5633319 5.77275142,30.1828755 5.77275142,29.6756003 L5.77275142,23.7151165 C5.77275142,23.2078413 6.15320783,22.8273848 6.66048305,22.8273848 Z" id="Rectangle_4_" fill="#AB8B72"></path>
                    <path d="M13.1282421,23.8419353 C13.5086985,25.6173985 11.860054,26.631949 10.3382284,26.631949 C9.83095317,26.631949 9.32367795,26.5051302 8.94322154,26.2514926 C8.43594632,27.0124054 7.54821468,27.3928618 6.66048305,27.3928618 C5.77275142,27.3928618 4.88501978,26.8855866 4.37774457,26.2514926 C3.99728815,26.5051302 3.49001293,26.631949 2.98273771,26.631949 C1.46091206,26.631949 0.0659052064,25.3637609 0.192724011,23.8419353 C0.446361621,22.3201096 5.64593261,10.9064172 6.66048305,10.9064172 C7.67503349,10.9064172 12.6209669,22.066472 13.1282421,23.8419353 Z" id="Combined-Shape-Copy-4_4_" fill="#547C63"></path>
                    <path d="M12.7477857,17.7546327 C13.1282421,19.4032771 11.6064164,20.2910088 10.2114096,20.2910088 C9.70413436,20.2910088 9.32367795,20.1641899 8.94322154,19.9105523 C8.43594632,20.5446464 7.67503349,21.0519216 6.78730186,21.0519216 C5.89957022,21.0519216 5.13865739,20.6714652 4.63138218,19.9105523 C4.25092576,20.1641899 3.87046935,20.2910088 3.36319413,20.2910088 C1.96818728,20.2910088 0.826818035,19.1496395 0.826818035,17.7546327 C0.826818035,16.4864446 5.89957022,5.70684621 6.78730186,5.70684621 C7.67503349,5.70684621 12.3673293,16.1059882 12.7477857,17.7546327 Z" id="Combined-Shape-Copy-3_4_" fill="#6CA874"></path>
                    <path d="M12.2405105,11.5405112 C12.6209669,13.0623369 11.22596,13.9500685 9.83095317,13.9500685 C9.45049675,13.9500685 8.94322154,13.8232497 8.68958393,13.5696121 C8.30912751,14.2037061 7.54821468,14.5841625 6.78730186,14.5841625 C6.02638903,14.5841625 5.2654762,14.2037061 4.88501978,13.5696121 C4.37774457,13.8232497 3.99728815,13.9500685 3.49001293,13.9500685 C2.22182489,13.9500685 1.08045564,12.9355181 1.08045564,11.5405112 C1.08045564,10.2723232 5.77275142,0.507275219 6.53366425,0.507275219 C7.29457707,0.507275219 11.860054,10.0186856 12.2405105,11.5405112 Z" id="Combined-Shape-Copy-2_4_" fill="#A1D09A"></path>
                </g>
                <g id="tree-copy-2_1_" transform="translate(159.791694, 39.313829)">
                    <path d="M7.9895847,26.631949 L7.9895847,26.631949 C8.49685991,26.631949 9.00413513,27.1392242 9.00413513,27.6464994 L9.00413513,34.7483525 C9.00413513,35.2556277 8.49685991,35.7629029 7.9895847,35.7629029 L7.9895847,35.7629029 C7.48230948,35.7629029 6.97503426,35.2556277 6.97503426,34.7483525 L6.97503426,27.6464994 C6.97503426,27.1392242 7.48230948,26.631949 7.9895847,26.631949 Z" id="Rectangle_3_" fill="#AB8B72"></path>
                    <path d="M15.4718942,27.900137 C15.9791694,29.9292379 14.0768873,31.0706071 12.1746053,31.0706071 C11.5405112,31.0706071 11.033236,30.9437883 10.5259608,30.5633319 C9.89186677,31.4510636 9.00413513,31.9583388 7.86276589,31.9583388 C6.72139665,31.9583388 5.83366502,31.4510636 5.19957099,30.5633319 C4.69229577,30.8169695 4.18502055,31.0706071 3.55092653,31.0706071 C1.77546327,31.0706071 0.126818805,29.5487815 0.253637609,27.900137 C0.380456414,26.2514926 6.59457784,12.8086993 7.86276589,12.8086993 C9.13095394,12.8086993 15.0914378,25.8710362 15.4718942,27.900137 Z" id="Combined-Shape-Copy-4_3_" fill="#547C63"></path>
                    <path d="M15.0914378,20.6714652 C15.598713,22.5737472 13.6964309,23.7151165 12.0477864,23.7151165 C11.5405112,23.7151165 11.033236,23.5882977 10.5259608,23.3346601 C10.0186856,24.0955729 9.13095394,24.6028481 7.9895847,24.6028481 C6.84821545,24.6028481 6.08730263,24.0955729 5.4532086,23.3346601 C4.94593338,23.5882977 4.43865816,23.7151165 3.93138295,23.7151165 C2.28273848,23.7151165 0.887731633,22.3201096 0.887731633,20.6714652 C0.887731633,19.1496395 6.72139665,6.59457784 7.86276589,6.59457784 C9.00413513,6.59457784 14.5841625,18.7691831 15.0914378,20.6714652 Z" id="Combined-Shape-Copy-3_3_" fill="#6CA874"></path>
                    <path d="M14.4573437,13.5696121 C14.8378001,15.3450754 13.1891557,16.3596258 11.66733,16.3596258 C11.1600548,16.3596258 10.6527796,16.232807 10.2723232,15.9791694 C9.76504796,16.7400822 8.87731633,17.1205386 7.9895847,17.1205386 C7.10185306,17.1205386 6.21412143,16.6132634 5.70684621,15.9791694 C5.3263898,16.232807 4.81911458,16.3596258 4.31183936,16.3596258 C2.7900137,16.3596258 1.52182566,15.0914378 1.52182566,13.5696121 C1.52182566,12.1746053 6.97503426,0.507275219 7.9895847,0.507275219 C9.00413513,0.507275219 14.0768873,11.7941488 14.4573437,13.5696121 Z" id="Combined-Shape-Copy-2_3_" fill="#A1D09A"></path>
                </g>
                <g id="tree-copy-2_5_" transform="translate(136.639605, 87.504975)">
                    <path d="M6.41200674,22.066472 L6.41200674,22.066472 C6.91928196,22.066472 7.29973838,22.4469284 7.29973838,22.9542036 L7.29973838,28.9146875 C7.29973838,29.4219627 6.91928196,29.8024191 6.41200674,29.8024191 L6.41200674,29.8024191 C5.90473152,29.8024191 5.52427511,29.4219627 5.52427511,28.9146875 L5.52427511,22.9542036 C5.65109391,22.4469284 6.03155033,22.066472 6.41200674,22.066472 Z" id="Rectangle_8_" fill="#AB8B72"></path>
                    <path d="M12.752947,23.2078413 C13.1334034,24.9833045 11.4847589,25.8710362 10.0897521,25.8710362 C9.58247686,25.8710362 9.07520164,25.7442174 8.69474523,25.4905797 C8.18747001,26.2514926 7.42655718,26.631949 6.41200674,26.631949 C5.39745631,26.631949 4.63654348,26.1246738 4.12926826,25.4905797 C3.74881184,25.7442174 3.24153663,25.8710362 2.73426141,25.8710362 C1.21243575,25.8710362 -0.182571101,24.6028481 0.0710665084,23.2078413 C0.324704118,21.8128344 5.39745631,10.5259608 6.41200674,10.5259608 C7.42655718,10.5259608 12.3724906,21.432378 12.752947,23.2078413 Z" id="Combined-Shape-Copy-4_8_" fill="#547C63"></path>
                    <path d="M12.3724906,17.1205386 C12.752947,18.7691831 11.2311213,19.6569147 9.83611447,19.6569147 C9.32883925,19.6569147 8.94838284,19.5300959 8.56792642,19.2764583 C8.0606512,19.9105523 7.29973838,20.4178276 6.53882555,20.4178276 C5.65109391,20.4178276 4.89018109,20.0373711 4.50972467,19.2764583 C4.12926826,19.5300959 3.74881184,19.6569147 3.24153663,19.6569147 C1.84652977,19.6569147 0.705160532,18.5155455 0.705160532,17.1205386 C0.705160532,15.8523506 5.65109391,5.3263898 6.53882555,5.3263898 C7.42655718,5.3263898 11.9920341,15.4718942 12.3724906,17.1205386 Z" id="Combined-Shape-Copy-3_8_" fill="#6CA874"></path>
                    <path d="M11.8652153,11.1600548 C12.2456718,12.6818805 10.8506649,13.4427933 9.58247686,13.4427933 C9.20202045,13.4427933 8.69474523,13.3159745 8.44110762,13.0623369 C8.0606512,13.6964309 7.29973838,14.0768873 6.53882555,14.0768873 C5.77791272,14.0768873 5.01699989,13.6964309 4.63654348,13.0623369 C4.25608706,13.3159745 3.87563065,13.4427933 3.49517424,13.4427933 C2.22698619,13.4427933 1.21243575,12.4282429 1.21243575,11.1600548 C1.21243575,10.0186856 5.77791272,0.253637609 6.66564435,0.253637609 C7.55337599,0.253637609 11.4847589,9.63822916 11.8652153,11.1600548 Z" id="Combined-Shape-Copy-2_8_" fill="#A1D09A"></path>
                </g>
                <g id="图层_4" transform="translate(30.436513, 43.118394)">
                    <g id="图层_12" transform="translate(94.921380, 88.773163)">
                        <ellipse id="Oval" fill="#91CEB1" cx="5.64593261" cy="6.08730263" rx="5.58002741" ry="5.58002741"></ellipse>
                        <path d="M5.64593261,0.507275219 C2.4754625,0.507275219 0.0659052064,3.04365131 0.0659052064,6.08730263 L11.3527788,6.08730263 C11.22596,2.91683251 8.68958393,0.507275219 5.64593261,0.507275219 Z" id="Shape" fill="#915446"></path>
                        <path d="M5.64593261,0.507275219 L5.64593261,0.507275219 C2.4754625,0.507275219 0.0659052064,3.04365131 0.0659052064,6.08730263 L5.64593261,6.08730263 L5.64593261,0.507275219 Z" id="Shape" fill="#916D67"></path>
                    </g>
                    <g id="图层_13" transform="translate(0.000000, 68.482155)">
                        <ellipse id="Oval" fill="#91CEB1" cx="5.4532086" cy="5.4532086" rx="4.69229577" ry="4.69229577"></ellipse>
                        <path d="M5.4532086,0.760912828 C2.91683251,0.760912828 0.760912828,2.7900137 0.760912828,5.4532086 L10.0186856,5.4532086 C10.0186856,2.91683251 7.9895847,0.760912828 5.4532086,0.760912828 Z" id="Shape" fill="#915446"></path>
                        <path d="M5.4532086,0.760912828 L5.4532086,0.760912828 C2.91683251,0.760912828 0.760912828,2.7900137 0.760912828,5.4532086 L5.4532086,5.4532086 L5.4532086,0.760912828 Z" id="Shape" fill="#916D67"></path>
                    </g>
                    <g id="图层_2" transform="translate(16.486445, 0.000000)">
                        <g id="图层_5">
                            <g id="图层_6" transform="translate(242.223917, 0.000000)">
                                <g id="图层_7">
                                    <ellipse id="Oval" fill="#91CEB1" cx="2.7900137" cy="2.6631949" rx="2.15591968" ry="2.15591968"></ellipse>
                                    <path d="M2.7900137,0.507275219 C1.52182566,0.507275219 0.634094023,1.52182566 0.634094023,2.6631949 L5.07275219,2.6631949 C4.94593338,1.52182566 3.93138295,0.507275219 2.7900137,0.507275219 Z" id="Shape" fill="#915446"></path>
                                    <path d="M2.7900137,0.507275219 L2.7900137,0.507275219 C1.52182566,0.507275219 0.634094023,1.52182566 0.634094023,2.6631949 L2.7900137,2.6631949 L2.7900137,0.507275219 Z" id="Shape" fill="#916D67"></path>
                                </g>
                                <g id="图层_15" transform="translate(11.413692, 15.218257)">
                                    <ellipse id="Oval" fill="#91CEB1" cx="3.67774534" cy="3.42410773" rx="3.29728892" ry="3.29728892"></ellipse>
                                    <path d="M3.67774534,0.126818805 C1.77546327,0.126818805 0.380456414,1.64864446 0.380456414,3.42410773 L7.10185306,3.42410773 C6.97503426,1.64864446 5.4532086,0.126818805 3.67774534,0.126818805 Z" id="Shape" fill="#915446"></path>
                                    <path d="M3.67774534,0.126818805 L3.67774534,0.126818805 C1.77546327,0.126818805 0.380456414,1.64864446 0.380456414,3.42410773 L3.67774534,3.42410773 L3.67774534,0.126818805 Z" id="Shape" fill="#916D67"></path>
                                </g>
                            </g>
                            <g id="图层_9" transform="translate(139.307961, 86.236787)">
                                <ellipse id="Oval" fill="#91CEB1" cx="2.98273771" cy="3.67774534" rx="2.91683251" ry="2.91683251"></ellipse>
                                <path d="M2.98273771,0.760912828 C1.33409325,0.760912828 0.0659052064,2.02910088 0.0659052064,3.67774534 L5.89957022,3.67774534 C5.89957022,2.15591968 4.50456337,0.760912828 2.98273771,0.760912828 Z" id="Shape" fill="#915446"></path>
                                <path d="M2.98273771,0.760912828 L2.98273771,0.760912828 C1.33409325,0.760912828 0.0659052064,2.02910088 0.0659052064,3.67774534 L2.98273771,3.67774534 L2.98273771,0.760912828 Z" id="Shape" fill="#916D67"></path>
                            </g>
                            <g id="图层_10" transform="translate(0.000000, 29.168325)">
                                <ellipse id="Oval" fill="#91CEB1" cx="3.04365131" cy="3.55092653" rx="2.91683251" ry="2.91683251"></ellipse>
                                <path d="M3.04365131,0.634094023 C1.39500685,0.634094023 0.126818805,1.90228207 0.126818805,3.55092653 L5.96048382,3.55092653 C5.96048382,2.02910088 4.69229577,0.634094023 3.04365131,0.634094023 Z" id="Shape" fill="#915446"></path>
                                <path d="M3.04365131,0.634094023 L3.04365131,0.634094023 C1.39500685,0.634094023 0.126818805,1.90228207 0.126818805,3.55092653 L3.04365131,3.55092653 L3.04365131,0.634094023 Z" id="Shape" fill="#916D67"></path>
                            </g>
                            <g id="图层_11" transform="translate(255.981261, 68.482155)">
                                <ellipse id="Oval" fill="#91CEB1" cx="4.25092576" cy="5.07275219" rx="4.18502055" ry="4.18502055"></ellipse>
                                <path d="M4.25092576,0.887731633 C1.96818728,0.887731633 0.0659052064,2.7900137 0.0659052064,5.07275219 L8.56276512,5.07275219 C8.43594632,2.7900137 6.53366425,0.887731633 4.25092576,0.887731633 Z" id="Shape" fill="#915446"></path>
                                <path d="M4.25092576,0.887731633 L4.25092576,0.887731633 C1.96818728,0.887731633 0.0659052064,2.7900137 0.0659052064,5.07275219 L4.25092576,5.07275219 L4.25092576,0.887731633 Z" id="Shape" fill="#916D67"></path>
                            </g>
                        </g>
                    </g>
                </g>
                <g id="图层_17" transform="translate(218.128344, 24.095573)">
                    <g id="Group" fill="#E0CE9B">
                        <polygon id="Shape" points="17.500995 0.380456414 34.7483525 20.1641899 0.126818805 19.9105523"></polygon>
                        <polygon id="Shape" points="17.7546327 0.380456414 34.8751713 20.1641899 0.253637609 19.9105523"></polygon>
                        <polygon id="Shape" points="17.8814515 0.380456414 35.1288089 20.1641899 0.380456414 19.9105523"></polygon>
                        <polygon id="Shape" points="18.0082703 0.380456414 35.2556277 20.1641899 0.507275219 19.9105523"></polygon>
                        <polygon id="Shape" points="18.1350891 0.380456414 35.3824465 20.1641899 0.760912828 19.9105523"></polygon>
                        <polygon id="Shape" points="18.2619079 0.380456414 35.5092653 20.1641899 0.887731633 19.9105523"></polygon>
                        <polygon id="Shape" points="18.3887267 0.380456414 35.6360841 20.1641899 1.01455044 19.9105523"></polygon>
                        <polygon id="Shape" points="18.5155455 0.380456414 35.7629029 20.1641899 1.14136924 19.9105523"></polygon>
                        <polygon id="Shape" points="18.7691831 0.380456414 35.8897217 20.1641899 1.26818805 19.9105523"></polygon>
                        <polygon id="Shape" points="18.8960019 0.380456414 36.1433593 20.1641899 1.39500685 19.9105523"></polygon>
                        <polygon id="Shape" points="19.0228207 0.380456414 36.2701781 20.1641899 1.52182566 19.9105523"></polygon>
                        <polygon id="Shape" points="19.1496395 0.380456414 36.3969969 20.1641899 1.77546327 19.9105523"></polygon>
                        <polygon id="Shape" points="19.2764583 0.380456414 36.5238158 20.1641899 1.90228207 19.9105523"></polygon>
                        <polygon id="Shape" points="19.4032771 0.380456414 36.6506346 20.1641899 2.02910088 19.9105523"></polygon>
                        <polygon id="Shape" points="19.5300959 0.380456414 36.7774534 20.1641899 2.15591968 19.9105523"></polygon>
                        <polygon id="Shape" points="19.7837335 0.380456414 36.9042722 20.1641899 2.28273848 19.9105523"></polygon>
                        <polygon id="Shape" points="19.9105523 0.380456414 37.031091 20.1641899 2.40955729 19.9105523"></polygon>
                        <polygon id="Shape" points="20.0373711 0.380456414 37.2847286 20.1641899 2.53637609 19.9105523"></polygon>
                        <polygon id="Shape" points="20.1641899 0.380456414 37.4115474 20.1641899 2.7900137 19.9105523"></polygon>
                        <polygon id="Shape" points="20.2910088 0.380456414 37.5383662 20.1641899 2.91683251 19.9105523"></polygon>
                        <polygon id="Shape" points="20.4178276 0.380456414 37.665185 20.1641899 3.04365131 19.9105523"></polygon>
                        <polygon id="Shape" points="20.5446464 0.380456414 37.7920038 20.1641899 3.17047012 19.9105523"></polygon>
                        <polygon id="Shape" points="20.6714652 0.380456414 37.9188226 20.1641899 3.29728892 19.9105523"></polygon>
                        <polygon id="Shape" points="20.9251028 0.380456414 38.0456414 20.1641899 3.42410773 19.9105523"></polygon>
                        <polygon id="Shape" points="21.0519216 0.380456414 38.299279 20.1641899 3.55092653 19.9105523"></polygon>
                        <polygon id="Shape" points="21.1787404 0.380456414 38.4260978 20.1641899 3.67774534 19.9105523"></polygon>
                        <polygon id="Shape" points="21.3055592 0.380456414 38.5529166 20.1641899 3.93138295 19.9105523"></polygon>
                        <polygon id="Shape" points="21.432378 0.380456414 38.6797354 20.1641899 4.05820175 19.9105523"></polygon>
                        <polygon id="Shape" points="21.5591968 0.380456414 38.8065542 20.1641899 4.18502055 19.9105523"></polygon>
                        <polygon id="Shape" points="21.6860156 0.380456414 38.933373 20.1641899 4.31183936 19.9105523"></polygon>
                        <polygon id="Shape" points="21.9396532 0.380456414 39.0601918 20.1641899 4.43865816 19.9105523"></polygon>
                        <polygon id="Shape" points="22.066472 0.380456414 39.3138295 20.1641899 4.56547697 19.9105523"></polygon>
                        <polygon id="Shape" points="22.1932908 0.380456414 39.4406483 20.1641899 4.69229577 19.9105523"></polygon>
                        <polygon id="Shape" points="22.3201096 0.380456414 39.5674671 20.1641899 4.94593338 19.9105523"></polygon>
                        <polygon id="Shape" points="22.4469284 0.380456414 39.6942859 20.1641899 5.07275219 19.9105523"></polygon>
                        <polygon id="Shape" points="22.5737472 0.380456414 39.8211047 20.1641899 5.19957099 19.9105523"></polygon>
                        <polygon id="Shape" points="22.700566 0.380456414 39.9479235 20.1641899 5.3263898 19.9105523"></polygon>
                        <polygon id="Shape" points="22.9542036 0.380456414 40.0747423 20.1641899 5.4532086 19.9105523"></polygon>
                        <polygon id="Shape" points="23.0810225 0.380456414 40.2015611 20.1641899 5.58002741 19.9105523"></polygon>
                        <polygon id="Shape" points="23.2078413 0.380456414 40.4551987 20.1641899 5.70684621 19.9105523"></polygon>
                        <polygon id="Shape" points="23.3346601 0.380456414 40.5820175 20.1641899 5.96048382 19.9105523"></polygon>
                        <polygon id="Shape" points="23.4614789 0.380456414 40.7088363 20.1641899 6.08730263 19.9105523"></polygon>
                        <polygon id="Shape" points="23.5882977 0.380456414 40.8356551 20.1641899 6.21412143 19.9105523"></polygon>
                        <polygon id="Shape" points="23.7151165 0.380456414 40.9624739 20.1641899 6.34094023 19.9105523"></polygon>
                        <polygon id="Shape" points="23.8419353 0.380456414 41.0892927 20.1641899 6.46775904 19.9105523"></polygon>
                        <polygon id="Shape" points="24.0955729 0.380456414 41.2161115 20.1641899 6.59457784 19.9105523"></polygon>
                        <polygon id="Shape" points="24.2223917 0.380456414 41.4697491 20.1641899 6.72139665 19.9105523"></polygon>
                        <polygon id="Shape" points="24.3492105 0.380456414 41.5965679 20.1641899 6.84821545 19.9105523"></polygon>
                        <polygon id="Shape" points="24.4760293 0.380456414 41.7233867 20.1641899 7.10185306 19.9105523"></polygon>
                        <polygon id="Shape" points="24.6028481 0.380456414 41.8502055 20.1641899 7.22867187 19.9105523"></polygon>
                        <polygon id="Shape" points="24.7296669 0.380456414 41.9770244 20.1641899 7.35549067 19.9105523"></polygon>
                        <polygon id="Shape" points="24.8564857 0.380456414 42.1038432 20.1641899 7.48230948 19.9105523"></polygon>
                        <polygon id="Shape" points="25.1101233 0.380456414 42.230662 20.1641899 7.60912828 19.9105523"></polygon>
                        <polygon id="Shape" points="25.2369421 0.380456414 42.4842996 20.1641899 7.73594709 19.9105523"></polygon>
                        <polygon id="Shape" points="25.3637609 0.380456414 42.6111184 20.1641899 7.86276589 19.9105523"></polygon>
                        <polygon id="Shape" points="25.4905797 0.380456414 42.7379372 20.1641899 8.1164035 19.9105523"></polygon>
                        <polygon id="Shape" points="25.6173985 0.380456414 42.864756 20.1641899 8.24322231 19.9105523"></polygon>
                        <polygon id="Shape" points="25.7442174 0.380456414 42.9915748 20.1641899 8.37004111 19.9105523"></polygon>
                        <polygon id="Shape" points="25.8710362 0.380456414 43.1183936 20.1641899 8.49685991 19.9105523"></polygon>
                        <polygon id="Shape" points="26.1246738 0.380456414 43.2452124 20.1641899 8.62367872 19.9105523"></polygon>
                        <polygon id="Shape" points="26.2514926 0.380456414 43.3720312 20.1641899 8.75049752 19.9105523"></polygon>
                        <polygon id="Shape" points="26.3783114 0.380456414 43.6256688 20.1641899 8.87731633 19.9105523"></polygon>
                        <polygon id="Shape" points="26.5051302 0.380456414 43.7524876 20.1641899 9.13095394 19.9105523"></polygon>
                        <polygon id="Shape" points="26.631949 0.380456414 43.8793064 20.1641899 9.25777274 19.9105523"></polygon>
                        <polygon id="Shape" points="26.7587678 0.380456414 44.0061252 20.1641899 9.38459155 19.9105523"></polygon>
                        <polygon id="Shape" points="26.8855866 0.380456414 44.132944 20.1641899 9.51141035 19.9105523"></polygon>
                        <polygon id="Shape" points="27.0124054 0.380456414 44.2597628 20.1641899 9.63822916 19.9105523"></polygon>
                        <polygon id="Shape" points="27.266043 0.380456414 44.3865816 20.1641899 9.76504796 19.9105523"></polygon>
                        <polygon id="Shape" points="27.3928618 0.380456414 44.6402193 20.1641899 9.89186677 19.9105523"></polygon>
                        <polygon id="Shape" points="27.5196806 0.380456414 44.7670381 20.1641899 10.0186856 19.9105523"></polygon>
                        <polygon id="Shape" points="27.6464994 0.380456414 44.8938569 20.1641899 10.2723232 19.9105523"></polygon>
                        <polygon id="Shape" points="27.7733182 0.380456414 45.0206757 20.1641899 10.399142 19.9105523"></polygon>
                        <polygon id="Shape" points="27.900137 0.380456414 45.1474945 20.1641899 10.5259608 19.9105523"></polygon>
                        <polygon id="Shape" points="28.0269558 0.380456414 45.2743133 20.1641899 10.6527796 19.9105523"></polygon>
                        <polygon id="Shape" points="28.2805934 0.380456414 45.4011321 20.1641899 10.7795984 19.9105523"></polygon>
                        <polygon id="Shape" points="28.4074123 0.380456414 45.6547697 20.1641899 10.9064172 19.9105523"></polygon>
                        <polygon id="Shape" points="28.5342311 0.380456414 45.7815885 20.1641899 11.033236 19.9105523"></polygon>
                        <polygon id="Shape" points="28.6610499 0.380456414 45.9084073 20.1641899 11.2868736 19.9105523"></polygon>
                        <polygon id="Shape" points="28.7878687 0.380456414 46.0352261 20.1641899 11.4136924 19.9105523"></polygon>
                        <polygon id="Shape" points="28.9146875 0.380456414 46.1620449 20.1641899 11.5405112 19.9105523"></polygon>
                        <polygon id="Shape" points="29.0415063 0.380456414 46.2888637 20.1641899 11.66733 19.9105523"></polygon>
                        <polygon id="Shape" points="29.2951439 0.380456414 46.4156825 20.1641899 11.7941488 19.9105523"></polygon>
                        <polygon id="Shape" points="29.4219627 0.380456414 46.5425013 20.1641899 11.9209676 19.9105523"></polygon>
                        <polygon id="Shape" points="29.5487815 0.380456414 46.7961389 20.1641899 12.0477864 19.9105523"></polygon>
                        <polygon id="Shape" points="29.6756003 0.380456414 46.9229577 20.1641899 12.3014241 19.9105523"></polygon>
                        <polygon id="Shape" points="29.8024191 0.380456414 47.0497765 20.1641899 12.4282429 19.9105523"></polygon>
                        <polygon id="Shape" points="29.9292379 0.380456414 47.1765953 20.1641899 12.5550617 19.9105523"></polygon>
                        <polygon id="Shape" points="30.0560567 0.380456414 47.3034142 20.1641899 12.6818805 19.9105523"></polygon>
                        <polygon id="Shape" points="30.1828755 0.380456414 47.430233 20.1641899 12.8086993 19.9105523"></polygon>
                        <polygon id="Shape" points="30.4365131 0.380456414 47.5570518 20.1641899 12.9355181 19.9105523"></polygon>
                        <polygon id="Shape" points="30.5633319 0.380456414 47.8106894 20.1641899 13.0623369 19.9105523"></polygon>
                        <polygon id="Shape" points="30.6901507 0.380456414 47.9375082 20.1641899 13.1891557 19.9105523"></polygon>
                        <polygon id="Shape" points="30.8169695 0.380456414 48.064327 20.1641899 13.4427933 19.9105523"></polygon>
                        <polygon id="Shape" points="30.9437883 0.380456414 48.1911458 20.1641899 13.5696121 19.9105523"></polygon>
                        <polygon id="Shape" points="31.0706071 0.380456414 48.3179646 20.1641899 13.6964309 19.9105523"></polygon>
                        <polygon id="Shape" points="31.197426 0.380456414 48.4447834 20.1641899 13.8232497 19.9105523"></polygon>
                        <polygon id="Shape" points="31.4510636 0.380456414 48.5716022 20.1641899 13.9500685 19.9105523"></polygon>
                        <polygon id="Shape" points="31.5778824 0.380456414 48.8252398 20.1641899 14.0768873 19.9105523"></polygon>
                        <polygon id="Shape" points="31.7047012 0.380456414 48.9520586 20.1641899 14.2037061 19.9105523"></polygon>
                        <polygon id="Shape" points="31.83152 0.380456414 49.0788774 20.1641899 14.4573437 19.9105523"></polygon>
                        <polygon id="Shape" points="31.9583388 0.380456414 49.2056962 20.1641899 14.5841625 19.9105523"></polygon>
                        <polygon id="Shape" points="32.0851576 0.380456414 49.332515 20.1641899 14.7109813 19.9105523"></polygon>
                        <polygon id="Shape" points="32.2119764 0.380456414 49.4593338 20.1641899 14.8378001 19.9105523"></polygon>
                        <polygon id="Shape" points="32.465614 0.380456414 49.5861526 20.1641899 14.964619 19.9105523"></polygon>
                        <polygon id="Shape" points="32.5924328 0.380456414 49.7129714 20.1641899 15.0914378 19.9105523"></polygon>
                        <polygon id="Shape" points="32.7192516 0.380456414 49.966609 20.1641899 15.2182566 19.9105523"></polygon>
                        <polygon id="Shape" points="32.8460704 0.380456414 50.0934279 20.1641899 15.4718942 19.9105523"></polygon>
                        <polygon id="Shape" points="32.9728892 0.380456414 50.2202467 20.1641899 15.598713 19.9105523"></polygon>
                        <polygon id="Shape" points="33.099708 0.380456414 50.3470655 20.1641899 15.7255318 19.9105523"></polygon>
                        <polygon id="Shape" points="33.2265268 0.380456414 50.4738843 20.1641899 15.8523506 19.9105523"></polygon>
                        <polygon id="Shape" points="33.3533456 0.380456414 50.6007031 20.1641899 15.9791694 19.9105523"></polygon>
                        <polygon id="Shape" points="33.6069832 0.380456414 50.7275219 20.1641899 16.1059882 19.9105523"></polygon>
                        <polygon id="Shape" points="33.733802 0.380456414 50.9811595 20.1641899 16.232807 19.9105523"></polygon>
                        <polygon id="Shape" points="33.8606209 0.380456414 51.1079783 20.1641899 16.3596258 19.9105523"></polygon>
                        <polygon id="Shape" points="33.9874397 0.380456414 51.2347971 20.1641899 16.6132634 19.9105523"></polygon>
                        <polygon id="Shape" points="34.1142585 0.380456414 51.3616159 20.1641899 16.7400822 19.9105523"></polygon>
                        <polygon id="Shape" points="34.2410773 0.380456414 51.4884347 20.1641899 16.866901 19.9105523"></polygon>
                        <polygon id="Shape" points="34.3678961 0.380456414 51.6152535 20.1641899 16.9937198 19.9105523"></polygon>
                        <polygon id="Shape" points="34.6215337 0.380456414 51.7420723 20.1641899 17.1205386 19.9105523"></polygon>
                        <polygon id="Shape" points="34.7483525 0.380456414 51.9957099 20.1641899 17.2473574 19.9105523"></polygon>
                        <polygon id="Shape" points="34.8751713 0.380456414 52.1225287 20.1641899 17.3741762 19.9105523"></polygon>
                        <polygon id="Shape" points="35.0019901 0.380456414 52.2493475 20.1641899 17.6278139 19.9105523"></polygon>
                        <polygon id="Shape" points="35.1288089 0.380456414 52.3761663 20.1641899 17.7546327 19.9105523"></polygon>
                        <polygon id="Shape" points="35.2556277 0.380456414 52.5029851 20.1641899 17.8814515 19.9105523"></polygon>
                        <polygon id="Shape" points="35.3824465 0.380456414 52.6298039 20.1641899 18.0082703 19.9105523"></polygon>
                        <polygon id="Shape" points="35.6360841 0.380456414 52.7566228 20.1641899 18.1350891 19.9105523"></polygon>
                        <polygon id="Shape" points="35.7629029 0.380456414 52.8834416 20.1641899 18.2619079 19.9105523"></polygon>
                        <polygon id="Shape" points="35.8897217 0.380456414 53.1370792 20.1641899 18.3887267 19.9105523"></polygon>
                        <polygon id="Shape" points="36.0165405 0.380456414 53.263898 20.1641899 18.6423643 19.9105523"></polygon>
                        <polygon id="Shape" points="36.1433593 0.380456414 53.3907168 20.1641899 18.7691831 19.9105523"></polygon>
                    </g>
                    <polygon id="Shape" fill="#DBC197" points="17.6278139 0.380456414 34.7483525 20.1641899 0.126818805 19.9105523"></polygon>
                    <g id="图层_16" transform="translate(14.893552, 0.000000)" fill="#C4AE7E">
                        <path d="M2.73426141,0.380456414 L5.01699989,20.0373711 L0.0710665084,19.9105523 C0.0710665084,19.9105523 0.705160532,17.500995 2.6074426,16.6132634 L2.73426141,0.380456414 Z" id="Shape"></path>
                    </g>
                </g>
                <g id="图层_19" transform="translate(57.068462, 12.681880)" fill="#AAD88D">
                    <path d="M206.587833,53.3907168 C206.334195,53.1370792 205.700101,53.5175356 205.066007,54.2784484 C204.81237,54.532086 204.685551,54.7857236 204.558732,55.0393612 C204.431913,54.7857236 204.305094,54.532086 204.178276,54.2784484 C203.671,53.5175356 203.036906,53.1370792 202.65645,53.3907168 C202.402812,53.6443544 202.529631,54.4052672 203.163725,55.0393612 C203.671,55.6734553 204.305094,56.1807305 204.558732,55.9270929 C204.81237,56.0539117 205.446464,55.6734553 205.953739,55.0393612 C206.587833,54.4052672 206.84147,53.6443544 206.587833,53.3907168 Z" id="Shape"></path>
                    <path d="M202.022356,69.6235238 C201.768718,69.3698862 201.134624,69.7503426 200.50053,70.5112554 C200.246893,70.764893 200.120074,71.0185306 199.993255,71.2721682 C199.866436,71.0185306 199.739617,70.764893 199.612799,70.5112554 C199.105523,69.7503426 198.471429,69.3698862 198.090973,69.6235238 C197.837335,69.8771614 197.964154,70.6380742 198.598248,71.2721682 C199.105523,71.9062623 199.739617,72.4135375 199.993255,72.1598999 C200.246893,72.2867187 200.880987,71.9062623 201.388262,71.2721682 C202.149175,70.6380742 202.275993,69.8771614 202.022356,69.6235238 Z" id="Shape"></path>
                    <path d="M191.76585,30.6413114 C191.512212,30.3876738 190.878118,30.7681302 190.244024,31.5290431 C189.990386,31.7826807 189.863568,32.0363183 189.736749,32.2899559 C189.60993,32.0363183 189.483111,31.7826807 189.356292,31.5290431 C188.849017,30.7681302 188.214923,30.3876738 187.834467,30.6413114 C187.580829,30.894949 187.707648,31.6558619 188.341742,32.2899559 C188.849017,32.9240499 189.483111,33.4313251 189.736749,33.1776875 C189.990386,33.3045063 190.62448,32.9240499 191.131756,32.2899559 C191.76585,31.5290431 192.019487,30.894949 191.76585,30.6413114 Z" id="Shape"></path>
                    <path d="M215.718787,18.8960019 C215.465149,18.6423643 214.831055,19.0228207 214.196961,19.7837335 C213.943324,20.0373711 213.816505,20.2910088 213.689686,20.5446464 C213.562867,20.2910088 213.436048,20.0373711 213.309229,19.7837335 C212.801954,19.0228207 212.16786,18.6423643 211.787404,18.8960019 C211.533766,19.1496395 211.660585,19.9105523 212.294679,20.5446464 C212.801954,21.1787404 213.436048,21.6860156 213.689686,21.432378 C213.943324,21.5591968 214.577418,21.1787404 215.084693,20.5446464 C215.718787,19.7837335 215.972424,19.1496395 215.718787,18.8960019 Z" id="Shape"></path>
                    <path d="M172.98085,52.6298039 C172.727212,52.3761663 172.093118,52.7566228 171.459024,53.5175356 C171.205386,53.7711732 171.078568,54.0248108 170.951749,54.2784484 C170.82493,54.0248108 170.698111,53.7711732 170.571292,53.5175356 C170.064017,52.7566228 169.429923,52.3761663 169.049467,52.6298039 C168.795829,52.8834416 168.922648,53.6443544 169.556742,54.2784484 C170.064017,54.9125424 170.698111,55.4198177 170.951749,55.16618 C171.205386,55.2929988 171.83948,54.9125424 172.346756,54.2784484 C173.107668,53.6443544 173.234487,52.8834416 172.98085,52.6298039 Z" id="Shape"></path>
                    <path d="M137.344765,0.380456414 C137.091128,0.126818805 136.457034,0.507275219 135.82294,1.26818805 C135.569302,1.52182566 135.442483,1.77546327 135.315665,2.02910088 C135.188846,1.77546327 135.062027,1.52182566 134.935208,1.26818805 C134.427933,0.507275219 133.793839,0.126818805 133.413383,0.380456414 C133.159745,0.634094023 133.286564,1.39500685 133.920658,2.02910088 C134.427933,2.6631949 135.062027,3.17047012 135.315665,2.91683251 C135.569302,3.04365131 136.203396,2.6631949 136.710671,2.02910088 C137.471584,1.39500685 137.598403,0.634094023 137.344765,0.380456414 Z" id="Shape"></path>
                    <path d="M107.795984,8.87731633 C107.542346,8.62367872 106.908252,9.00413513 106.274158,9.76504796 C106.020521,10.0186856 105.893702,10.2723232 105.766883,10.5259608 C105.640064,10.2723232 105.513246,10.0186856 105.386427,9.76504796 C104.879151,9.00413513 104.245057,8.62367872 103.864601,8.87731633 C103.610963,9.13095394 103.737782,9.89186677 104.371876,10.5259608 C104.879151,11.1600548 105.513246,11.66733 105.766883,11.4136924 C106.020521,11.5405112 106.654615,11.1600548 107.16189,10.5259608 C107.795984,9.89186677 108.049622,9.13095394 107.795984,8.87731633 Z" id="Shape"></path>
                    <path d="M91.9436334,73.3012691 C91.6899958,73.0476315 91.0559018,73.4280879 90.4218077,74.1890007 C90.1681701,74.4426384 90.0413513,74.696276 89.9145325,74.9499136 C89.7877137,74.696276 89.6608949,74.4426384 89.5340761,74.1890007 C89.0268009,73.4280879 88.3927069,73.0476315 88.0122505,73.3012691 C87.7586128,73.5549067 87.8854317,74.3158196 88.5195257,74.9499136 C89.0268009,75.5840076 89.6608949,76.0912828 89.9145325,75.8376452 C90.1681701,75.964464 90.8022642,75.5840076 91.3095394,74.9499136 C91.9436334,74.3158196 92.197271,73.5549067 91.9436334,73.3012691 Z" id="Shape"></path>
                    <path d="M80.1494846,100.82095 C79.895847,100.567312 79.2617529,100.947769 78.6276589,101.708681 C78.3740213,101.962319 78.2472025,102.215957 78.1203837,102.469594 C77.9935649,102.215957 77.8667461,101.962319 77.7399273,101.708681 C77.2326521,100.947769 76.598558,100.567312 76.2181016,100.82095 C75.964464,101.074587 76.0912828,101.8355 76.7253768,102.469594 C77.2326521,103.103688 77.8667461,103.610963 78.1203837,103.357326 C78.3740213,103.484145 79.0081153,103.103688 79.5153905,102.469594 C80.1494846,101.8355 80.4031222,101.074587 80.1494846,100.82095 Z" id="Shape"></path>
                    <path d="M38.8065542,108.556897 C38.5529166,108.303259 37.9188226,108.683716 37.2847286,109.444628 C37.031091,109.698266 36.9042722,109.951904 36.7774534,110.205541 C36.6506346,109.951904 36.5238158,109.698266 36.3969969,109.444628 C35.8897217,108.683716 35.2556277,108.303259 34.8751713,108.556897 C34.6215337,108.810534 34.7483525,109.571447 35.3824465,110.205541 C35.8897217,110.839635 36.5238158,111.346911 36.7774534,111.093273 C37.031091,111.220092 37.665185,110.839635 38.1724602,110.205541 C38.8065542,109.444628 39.0601918,108.683716 38.8065542,108.556897 Z" id="Shape"></path>
                    <path d="M4.69229577,35.2556277 C4.43865816,35.0019901 3.80456414,35.3824465 3.17047012,36.1433593 C2.91683251,36.3969969 2.7900137,36.6506346 2.6631949,36.9042722 C2.53637609,36.6506346 2.40955729,36.3969969 2.28273848,36.1433593 C1.77546327,35.3824465 1.14136924,35.0019901 0.760912828,35.2556277 C0.507275219,35.5092653 0.634094023,36.2701781 1.26818805,36.9042722 C1.77546327,37.5383662 2.40955729,38.0456414 2.6631949,37.7920038 C2.91683251,37.9188226 3.55092653,37.5383662 4.05820175,36.9042722 C4.69229577,36.2701781 4.94593338,35.5092653 4.69229577,35.2556277 Z" id="Shape"></path>
                    <path d="M145.841625,17.500995 C145.587988,17.2473574 144.953894,17.6278139 144.3198,18.3887267 C144.066162,18.6423643 143.939343,18.8960019 143.812525,19.1496395 C143.685706,18.8960019 143.558887,18.6423643 143.432068,18.3887267 C142.924793,17.6278139 142.290699,17.2473574 141.910242,17.500995 C141.656605,17.7546327 141.783424,18.5155455 142.417518,19.1496395 C142.924793,19.7837335 143.558887,20.2910088 143.812525,20.0373711 C144.066162,20.1641899 144.700256,19.7837335 145.207531,19.1496395 C145.841625,18.5155455 146.095263,17.7546327 145.841625,17.500995 Z" id="Shape"></path>
                    <path d="M67.4676041,47.9375082 C67.2139665,47.6838706 66.5798725,48.064327 65.9457784,48.8252398 C65.6921408,49.0788774 65.565322,49.332515 65.4385032,49.5861526 C65.3116844,49.332515 65.1848656,49.0788774 65.0580468,48.8252398 C64.5507716,48.064327 63.9166776,47.6838706 63.5362212,47.9375082 C63.2825835,48.1911458 63.4094023,48.9520586 64.0434964,49.5861526 C64.5507716,50.2202467 65.1848656,50.7275219 65.4385032,50.4738843 C65.6921408,50.6007031 66.3262349,50.2202467 66.8335101,49.5861526 C67.5944229,48.9520586 67.7212417,48.1911458 67.4676041,47.9375082 Z" id="Shape"></path>
                    <path d="M89.6608949,39.6942859 C89.4072573,39.4406483 88.7731633,39.8211047 88.1390693,40.5820175 C87.8854317,40.8356551 87.7586128,41.0892927 87.631794,41.3429303 C87.5049752,41.0892927 87.3781564,40.8356551 87.2513376,40.5820175 C86.7440624,39.8211047 86.1099684,39.4406483 85.729512,39.6942859 C85.4758744,39.9479235 85.6026932,40.7088363 86.2367872,41.3429303 C86.7440624,41.9770244 87.3781564,42.4842996 87.631794,42.230662 C87.8854317,42.3574808 88.5195257,41.9770244 89.0268009,41.3429303 C89.6608949,40.7088363 89.9145325,39.9479235 89.6608949,39.6942859 Z" id="Shape"></path>
                    <path d="M164.230352,80.6567598 C163.976714,80.4031222 163.34262,80.7835786 162.708526,81.5444914 C162.454889,81.798129 162.32807,82.0517666 162.201251,82.3054042 C162.074432,82.0517666 161.947614,81.798129 161.820795,81.5444914 C161.31352,80.7835786 160.679426,80.4031222 160.298969,80.6567598 C160.045332,80.9103974 160.17215,81.6713102 160.806244,82.3054042 C161.31352,82.9394983 161.947614,83.4467735 162.201251,83.1931359 C162.454889,83.3199547 163.088983,82.9394983 163.596258,82.3054042 C164.230352,81.6713102 164.48399,80.9103974 164.230352,80.6567598 Z" id="Shape"></path>
                    <path d="M42.6111184,14.7109813 C42.3574808,14.4573437 41.7233867,14.8378001 41.0892927,15.598713 C40.8356551,15.8523506 40.7088363,16.1059882 40.5820175,16.3596258 C40.4551987,16.1059882 40.3283799,15.8523506 40.2015611,15.598713 C39.6942859,14.8378001 39.0601918,14.4573437 38.6797354,14.7109813 C38.4260978,14.964619 38.5529166,15.7255318 39.1870107,16.3596258 C39.6942859,16.9937198 40.3283799,17.500995 40.5820175,17.2473574 C40.8356551,17.3741762 41.4697491,16.9937198 41.9770244,16.3596258 C42.6111184,15.598713 42.864756,14.964619 42.6111184,14.7109813 Z" id="Shape"></path>
                </g>
                <g id="图层_20" transform="translate(81.164035, 28.975601)" fill="#9BCE7A">
                    <path d="M16.4864446,0.0659052064 C7.86276589,0.0659052064 2.28273848,6.40684544 0.507275219,10.7186848 L32.7192516,10.7186848 C31.0706071,5.392295 25.1101233,0.0659052064 16.4864446,0.0659052064 Z" id="Shape"></path>
                </g>
                <path d="M97.7772984,29.0415063 C97.7772984,29.0415063 97.6504796,29.0415063 97.7772984,29.0415063 C89.1536197,29.0415063 83.5735923,35.3824465 81.6713102,39.6942859 L97.7772984,39.6942859 L97.7772984,29.0415063 Z" id="Shape" fill="#AAD88D"></path>
                <path d="M103.547172,38.2040878 C103.293534,37.9504502 102.65944,38.3309066 102.025346,39.0918194 C101.771708,39.345457 101.64489,39.5990946 101.518071,39.8527322 C101.391252,39.5990946 101.264433,39.345457 101.137614,39.0918194 C100.630339,38.3309066 99.9962452,37.9504502 99.6157888,38.2040878 C99.3621512,38.4577254 99.48897,39.2186382 100.123064,39.8527322 C100.630339,40.4868263 101.264433,40.9941015 101.518071,40.7404639 C101.771708,40.8672827 102.405803,40.4868263 102.913078,39.8527322 C103.547172,39.0918194 103.800809,38.3309066 103.547172,38.2040878 Z" id="Shape" fill="#AAD88D"></path>
                <g id="图层_22" transform="translate(168.669010, 86.236787)">
                    <path d="M1.64864446,11.5405112 L6.34094023,14.2037061 C6.84821545,14.4573437 7.60912828,14.4573437 8.1164035,14.2037061 L12.8086993,11.5405112 C13.3159745,11.2868736 13.6964309,10.5259608 13.6964309,10.0186856 L13.6964309,4.69229577 C13.6964309,4.18502055 13.3159745,3.42410773 12.8086993,3.17047012 L8.1164035,0.507275219 C7.60912828,0.253637609 6.84821545,0.253637609 6.34094023,0.507275219 L1.64864446,3.17047012 C1.14136924,3.42410773 0.760912828,4.18502055 0.760912828,4.69229577 L0.760912828,10.0186856 C0.760912828,10.5259608 1.14136924,11.2868736 1.64864446,11.5405112 L1.64864446,11.5405112 Z" id="Shape" fill="#FFFFFF"></path>
                    <path d="M2.7900137,10.6527796 L6.46775904,12.8086993 C6.84821545,13.0623369 7.48230948,13.0623369 7.86276589,12.8086993 L11.5405112,10.6527796 C11.9209676,10.399142 12.3014241,9.89186677 12.3014241,9.38459155 L12.3014241,5.07275219 C12.3014241,4.56547697 11.9209676,4.05820175 11.5405112,3.80456414 L7.86276589,1.64864446 C7.48230948,1.39500685 6.84821545,1.39500685 6.46775904,1.64864446 L2.7900137,3.80456414 C2.40955729,4.05820175 2.02910088,4.56547697 2.02910088,5.07275219 L2.02910088,9.38459155 C2.02910088,9.89186677 2.40955729,10.5259608 2.7900137,10.6527796 L2.7900137,10.6527796 Z" id="Shape" fill="#42A5F5"></path>
                </g>
                <g id="图层_22_x5F_复制" transform="translate(198.912799, 36.584729)">
                    <path d="M0.953636839,11.22596 L5.64593261,13.8891549 C6.15320783,14.1427925 6.91412066,14.1427925 7.42139588,13.8891549 L12.1136917,11.22596 C12.6209669,10.9723224 13.0014233,10.2114096 13.0014233,9.70413436 L13.0014233,4.37774457 C13.0014233,3.87046935 12.6209669,3.10955652 12.1136917,2.85591891 L7.42139588,0.192724011 C6.91412066,-0.0609135982 6.15320783,-0.0609135982 5.64593261,0.192724011 L0.953636839,2.85591891 C0.446361621,3.10955652 0.0659052064,3.87046935 0.0659052064,4.37774457 L0.0659052064,9.70413436 C0.0659052064,10.3382284 0.446361621,10.9723224 0.953636839,11.22596 L0.953636839,11.22596 Z" id="Shape" fill="#FFFFFF"></path>
                    <path d="M2.15841548,10.4650472 L5.83616082,12.6209669 C6.21661723,12.8746045 6.85071126,12.8746045 7.23116767,12.6209669 L10.908913,10.4650472 C11.2893694,10.2114096 11.6698258,9.70413436 11.6698258,9.19685914 L11.6698258,4.88501978 C11.6698258,4.37774457 11.2893694,3.87046935 10.908913,3.61683174 L7.23116767,1.46091206 C6.85071126,1.20727445 6.21661723,1.20727445 5.83616082,1.46091206 L2.15841548,3.61683174 C1.77795907,3.87046935 1.39750266,4.37774457 1.39750266,4.88501978 L1.39750266,9.19685914 C1.52432146,9.70413436 1.77795907,10.2114096 2.15841548,10.4650472 L2.15841548,10.4650472 Z" id="Shape" fill="#EF5350"></path>
                </g>
                <g id="Group" transform="translate(253.637609, 61.948490)">
                    <path d="M9.76504796,2.6022813 C9.63822916,2.6022813 9.51141035,2.4754625 9.51141035,2.34864369 C9.51141035,2.34864369 9.51141035,2.22182489 9.63822916,2.22182489 L9.76504796,2.09500608 L10.9064172,2.09500608 C11.033236,2.09500608 11.1600548,2.22182489 11.1600548,2.34864369 C11.1600548,2.4754625 11.033236,2.6022813 10.9064172,2.6022813 L9.76504796,2.6022813 L9.76504796,2.6022813 L9.76504796,2.6022813 Z M6.84821545,0.69999923 C6.46775904,0.69999923 6.08730263,0.953636839 6.08730263,1.33409325 L6.08730263,1.84136847 L5.3263898,1.84136847 L5.3263898,1.08045564 C5.3263898,0.573180425 5.83366502,0.0659052064 6.34094023,0.0659052064 L9.63822916,0.0659052064 C10.1455044,0.0659052064 10.6527796,0.573180425 10.6527796,1.08045564 L10.6527796,1.84136847 L9.89186677,1.84136847 L9.89186677,1.33409325 C9.89186677,0.953636839 9.51141035,0.69999923 9.13095394,0.69999923 L6.84821545,0.69999923 L6.84821545,0.69999923 Z M6.21412143,2.6022813 L5.07275219,2.6022813 C4.94593338,2.6022813 4.81911458,2.4754625 4.81911458,2.34864369 C4.81911458,2.34864369 4.81911458,2.22182489 4.94593338,2.22182489 L5.07275219,2.09500608 L6.21412143,2.09500608 C6.34094023,2.09500608 6.46775904,2.22182489 6.46775904,2.34864369 C6.46775904,2.6022813 6.34094023,2.6022813 6.21412143,2.6022813 L6.21412143,2.6022813 Z M15.6621224,7.29457707 L4.62888637,7.29457707 L0.443865816,7.29457707 L0.443865816,3.87046935 C0.443865816,3.36319413 0.951141035,2.85591891 1.45841625,2.85591891 L3.10706071,2.85591891 L4.24842996,2.85591891 L4.75570518,2.85591891 C4.88252398,2.98273771 5.13616159,3.10955652 5.3897992,3.10955652 L10.5893702,3.10955652 C10.8430078,3.10955652 11.0966454,2.98273771 11.2234642,2.85591891 L14.5207531,2.85591891 C15.0280284,2.85591891 15.5353036,3.36319413 15.5353036,3.87046935 L15.5353036,7.29457707 L15.6621224,7.29457707 Z M11.9209676,8.56276512 L11.9209676,7.9286711 L11.4136924,7.9286711 L11.4136924,8.81640273 C11.4136924,9.19685914 11.66733,9.57731556 12.0477864,9.57731556 L13.0623369,9.57731556 C13.4427933,9.57731556 13.6964309,9.19685914 13.6964309,8.81640273 L13.6964309,7.9286711 L13.1891557,7.9286711 L13.1891557,8.56276512 C13.1891557,8.81640273 13.0623369,9.07004034 12.8086993,9.07004034 L12.1746053,9.07004034 C12.0477864,8.94322154 11.9209676,8.81640273 11.9209676,8.56276512 L11.9209676,8.56276512 Z M1.45841625,13.5086985 C0.951141035,13.5086985 0.443865816,13.0014233 0.443865816,12.4941481 L0.443865816,7.54821468 L15.6621224,7.54821468 L15.6621224,12.4941481 C15.6621224,13.0014233 15.1548472,13.5086985 14.6475719,13.5086985 L1.45841625,13.5086985 L1.45841625,13.5086985 Z M3.93138295,8.94322154 C3.67774534,8.94322154 3.55092653,8.68958393 3.55092653,8.43594632 L3.55092653,7.80185229 L3.04365131,7.80185229 L3.04365131,8.68958393 C3.04365131,9.07004034 3.29728892,9.45049675 3.67774534,9.45049675 L4.69229577,9.45049675 C5.07275219,9.45049675 5.3263898,9.07004034 5.3263898,8.68958393 L5.3263898,7.80185229 L4.81911458,7.80185229 L4.81911458,8.43594632 C4.81911458,8.68958393 4.69229577,8.94322154 4.43865816,8.94322154 L3.93138295,8.94322154 L3.93138295,8.94322154 L3.93138295,8.94322154 Z" id="Shape" fill="#916D67"></path>
                    <g transform="translate(3.479860, 2.729100)" id="Rectangle-path" fill="#DBC197">
                        <rect x="0.0621495612" y="0.126818805" width="1.27710499" height="4.43865816"></rect>
                        <rect x="8.43219067" y="0.126818805" width="1.27710499" height="4.43865816"></rect>
                    </g>
                </g>
                <g id="Group" transform="translate(76.091283, 100.186856)" fill="#FFFFFF">
                    <path d="M0.126818805,9.89186677 C1.85670923e-13,10.9064172 0.253637609,12.3014241 1.39500685,12.4282429 C2.53637609,12.5550617 2.91683251,11.5405112 2.91683251,10.1455044 L2.91683251,10.0186856 L0.253637609,9.51141035 C0.126818805,9.51141035 0.126818805,9.76504796 0.126818805,9.89186677 Z" id="Shape"></path>
                    <path d="M2.7900137,2.7900137 C1.01455044,2.7900137 0.380456414,4.56547697 0.253637609,5.70684621 C0.126818805,6.46775904 0.253637609,7.86276589 0.253637609,9.00413513 L3.04365131,9.51141035 C3.17047012,8.49685991 3.80456414,7.60912828 4.18502055,6.84821545 C4.56547697,5.96048382 4.56547697,2.7900137 2.7900137,2.7900137 Z" id="Shape"></path>
                    <path d="M8.37004111,1.01455044 C6.72139665,1.11022302e-14 5.4532086,2.7900137 5.58002741,3.80456414 C5.70684621,4.69229577 5.83366502,5.83366502 5.58002741,6.84821545 L8.37004111,7.9895847 C8.75049752,6.97503426 9.38459155,5.83366502 9.63822916,5.07275219 C9.89186677,3.93138295 10.0186856,2.02910088 8.37004111,1.01455044 Z" id="Shape"></path>
                    <path d="M5.3263898,7.35549067 C4.81911458,8.49685991 4.81911458,9.63822916 5.83366502,10.1455044 C6.84821545,10.7795984 7.60912828,9.63822916 7.9895847,8.62367872 C7.9895847,8.49685991 8.1164035,8.37004111 8.1164035,8.24322231 L5.4532086,7.10185306 C5.4532086,7.35549067 5.4532086,7.35549067 5.3263898,7.35549067 Z" id="Shape"></path>
                </g>
            </g>
        </g>
    </g>
</svg>