<svg width="23" height="25" viewBox="0 0 23 25">
  <path fill="#FFF" fill-rule="evenodd" d="M154,691.500016 C154,690.119295 155.109662,689 156.5,689 C157.880712,689 159,690.122765 159,691.500016 L159,711.499984 C159,712.880705 157.890338,714 156.5,714 C155.119288,714 154,712.877235 154,711.499984 L154,691.500016 Z M172,691.500016 C172,690.119295 173.109662,689 174.5,689 C175.880712,689 177,690.122765 177,691.500016 L177,711.499984 C177,712.880705 175.890338,714 174.5,714 C173.119288,714 172,712.877235 172,711.499984 L172,691.500016 Z" transform="translate(-154 -689)"/>
</svg>
