<?xml version="1.0" encoding="UTF-8"?>
<svg xmlns="http://www.w3.org/2000/svg" width="23" height="22" viewBox="0 0 23 22">
  <path fill="#5A646E" d="M45.8841535,27.0950012 C50.2947249,27.0950012 53.8698678,30.6701441 53.8698678,35.0807155 C53.8698678,37.0587155 53.1450106,38.8770012 51.9410106,40.2775726 L52.2850106,40.6092869 L53.255582,40.6092869 L59.3984392,46.7521441 L57.555582,48.5950012 L51.4127249,42.4521441 L51.4127249,41.4815726 L51.0810106,41.1375726 C49.6804392,42.3415726 47.8621535,43.0664298 45.8841535,43.0664298 C41.473582,43.0664298 37.8984392,39.4912869 37.8984392,35.0807155 C37.8984392,30.6701441 41.473582,27.0950012 45.8841535,27.0950012 L45.8841535,27.0950012 Z M45.8841535,40.6092869 C47.8621535,40.6092869 49.5698678,39.5650012 50.5772963,38.0047155 C49.5698678,36.6164298 47.8621535,35.6950012 45.8841535,35.6950012 C43.9061535,35.6950012 42.1984392,36.6164298 41.1910106,38.0047155 C42.1984392,39.5650012 43.9061535,40.6092869 45.8841535,40.6092869 L45.8841535,40.6092869 Z M45.8841535,29.5521441 C44.6924392,29.5521441 43.7341535,30.5104298 43.7341535,31.7021441 C43.7341535,32.8938584 44.6924392,33.8521441 45.8841535,33.8521441 C47.0758678,33.8521441 48.0341535,32.8938584 48.0341535,31.7021441 C48.0341535,30.5104298 47.0758678,29.5521441 45.8841535,29.5521441 Z" transform="translate(-37 -27)"/>
</svg>
