<?xml version="1.0" encoding="UTF-8"?>
<svg xmlns="http://www.w3.org/2000/svg" width="31" height="47" viewBox="0 0 31 47">
  <g fill="#FFCA28" fill-rule="evenodd">
    <path d="M9.48158801 41.8657269L9.48158801 42.5142254C9.48158801 45.0433694 11.4270834 46.9888648 14.0859271 46.9888648 16.7447709 46.9888648 18.6902663 45.0433694 18.6902663 42.5142254L18.6902663 41.8657269C18.6902663 39.3365829 16.7447709 37.3910875 14.0859271 37.3910875 11.4270834 37.3910875 9.48158801 39.3365829 9.48158801 41.8657269L9.48158801 41.8657269zM14.4750262 31.6437698C15.9665727 31.6437698 17.0041702 30.4764726 17.2635696 29.049776L17.522969 27.0799619C24.721302 25.8478148 30.6226381 22.1513735 30.6226381 13.9802928L30.6226381 13.8505931C30.6226381 5.74436227 24.4619026.686074225 15.3829241.686074225 9.41673817.686074225 5.07179843 2.82611917 1.63475655 6.06861151.726858699 6.84680967.337759619 7.88440722.337759619 8.85715492.337759619 10.8026503 1.95900579 12.4238965 3.96935104 12.4238965 4.87724889 12.4238965 5.7202969 12.0347974 6.36879537 11.5159986 8.96278924 9.18140415 11.7513327 7.94925707 15.1883745 7.94925707 19.8575635 7.94925707 22.6461069 10.4784011 22.6461069 14.1099925L22.6461069 14.2396922C22.6461069 18.3252326 19.2739149 20.659827 13.1780293 21.2434757 11.4270834 21.4380252 10.3894859 22.7350221 10.6488853 24.485968L11.2973837 29.049776C11.4919333 30.5413224 12.5943807 31.6437698 14.0859271 31.6437698L14.4750262 31.6437698z"/>
  </g>
</svg>
