<?xml version="1.0" encoding="UTF-8"?>
<svg xmlns="http://www.w3.org/2000/svg" width="8" height="13" viewBox="0 0 8 13">
  <path fill="#D4D9DD" fill-rule="evenodd" d="M2.91889251,16.3105974 C2.91889251,15.6425032 3.43281114,15.1285846 4.1351666,15.1285846 C4.83752206,15.1285846 5.35144069,15.6425032 5.35144069,16.3105974 L5.35144069,16.4819036 C5.35144069,17.1499979 4.83752206,17.6639165 4.1351666,17.6639165 C3.43281114,17.6639165 2.91889251,17.1499979 2.91889251,16.4819036 L2.91889251,16.3105974 Z M4.23795032,13.6103833 L4.1351666,13.6103833 C3.74116232,13.6103833 3.44994176,13.3191627 3.3985499,12.9251584 L3.22724369,11.719591 C3.1587212,11.2570642 3.43281114,10.9144518 3.89533791,10.8630599 C5.50561628,10.7088844 6.39640857,10.092182 6.39640857,9.01295288 L6.39640857,8.97869164 C6.39640857,8.01937687 5.65979187,7.35128265 4.42638716,7.35128265 C3.51846424,7.35128265 2.78184754,7.67676445 2.0966227,8.2934668 C1.92531649,8.43051177 1.70261842,8.53329549 1.46278973,8.53329549 C0.931740475,8.53329549 0.50347495,8.10502997 0.50347495,7.59111134 C0.50347495,7.33415203 0.606258676,7.06006209 0.84608737,6.85449464 C1.75401028,5.99796359 2.90176189,5.4326531 4.47777902,5.4326531 C6.87606596,5.4326531 8.50347495,6.76884153 8.50347495,8.91016916 L8.50347495,8.9444304 C8.50347495,11.1028886 6.94458844,12.079334 5.04308951,12.4048158 L4.97456703,12.9251584 C4.90604454,13.3020321 4.63195461,13.6103833 4.23795032,13.6103833 Z" transform="translate(-.5 -5.31)"/>
</svg>
