<?xml version="1.0" encoding="UTF-8"?>
<svg width="24px" height="24px" viewBox="0 0 24 24" version="1.1" xmlns="http://www.w3.org/2000/svg" xmlns:xlink="http://www.w3.org/1999/xlink">
    <!-- Generator: Sketch 42 (36781) - http://www.bohemiancoding.com/sketch -->
    <title>Combined Shape</title>
    <desc>Created with Sketch.</desc>
    <defs></defs>
    <g id="VfastOnline-Unified" stroke="none" stroke-width="1" fill="none" fill-rule="evenodd">
        <g id="主控板" transform="translate(-917.000000, -776.000000)" fill="#B4BEC8">
            <g id="日常" transform="translate(875.000000, 545.000000)">
                <g id="内容" transform="translate(0.000000, 103.000000)">
                    <g id="？" transform="translate(42.000000, 128.000000)">
                        <path d="M12,24 C5.372583,24 0,18.627417 0,12 C0,5.372583 5.372583,0 12,0 C18.627417,0 24,5.372583 24,12 C24,18.627417 18.627417,24 12,24 Z M10.5233258,16.8916854 L10.5233258,17.0642697 C10.5233258,17.7373483 11.0410787,18.2551011 11.7486742,18.2551011 C12.4562697,18.2551011 12.9740225,17.7373483 12.9740225,17.0642697 L12.9740225,16.8916854 C12.9740225,16.2186067 12.4562697,15.7008539 11.7486742,15.7008539 C11.0410787,15.7008539 10.5233258,16.2186067 10.5233258,16.8916854 Z M11.8522247,14.1713258 C12.2491685,14.1713258 12.5253034,13.8606742 12.5943371,13.4809888 L12.6633708,12.956764 C14.5790562,12.6288539 16.149573,11.6451236 16.149573,9.4705618 L16.149573,9.43604494 C16.149573,7.27874157 14.5100225,5.93258427 12.0938427,5.93258427 C10.5060674,5.93258427 9.34975281,6.50211236 8.43505618,7.36503371 C8.1934382,7.57213483 8.08988764,7.84826966 8.08988764,8.10714607 C8.08988764,8.62489888 8.52134831,9.05635955 9.05635955,9.05635955 C9.29797753,9.05635955 9.52233708,8.95280899 9.69492135,8.81474157 C10.3852584,8.1934382 11.1273708,7.86552809 12.0420674,7.86552809 C13.2846742,7.86552809 14.0267865,8.53860674 14.0267865,9.50507865 L14.0267865,9.53959551 C14.0267865,10.6268764 13.1293483,11.2481798 11.5070562,11.4035056 C11.0410787,11.4552809 10.7649438,11.8004494 10.8339775,12.266427 L11.0065618,13.4809888 C11.0583371,13.8779326 11.3517303,14.1713258 11.7486742,14.1713258 L11.8522247,14.1713258 Z" id="Combined-Shape"></path>
                    </g>
                </g>
            </g>
        </g>
    </g>
</svg>