<?xml version="1.0" encoding="UTF-8"?>
<svg xmlns="http://www.w3.org/2000/svg" width="23" height="20" viewBox="0 0 23 20">
  <path fill="#FFF" d="M11.1294057,8.5 L14.2994057,11.66 L14.2994057,11.5 C14.2994057,9.84 12.9594057,8.5 11.2994057,8.5 L11.1294057,8.5 L11.1294057,8.5 Z M6.82940568,9.3 L8.37940568,10.85 C8.32940568,11.06 8.29940568,11.27 8.29940568,11.5 C8.29940568,13.16 9.63940568,14.5 11.2994057,14.5 C11.5194057,14.5 11.7394057,14.47 11.9494057,14.42 L13.4994057,15.97 C12.8294057,16.3 12.0894057,16.5 11.2994057,16.5 C8.53940568,16.5 6.29940568,14.26 6.29940568,11.5 C6.29940568,10.71 6.49940568,9.97 6.82940568,9.3 L6.82940568,9.3 Z M1.29940568,3.77 L3.57940568,6.05 L4.02940568,6.5 C2.37940568,7.8 1.07940568,9.5 0.299405679,11.5 C2.02940568,15.89 6.29940568,19 11.2994057,19 C12.8494057,19 14.3294057,18.7 15.6794057,18.16 L16.1094057,18.58 L19.0294057,21.5 L20.2994057,20.23 L2.56940568,2.5 L1.29940568,3.77 Z M11.2994057,6.5 C14.0594057,6.5 16.2994057,8.74 16.2994057,11.5 C16.2994057,12.14 16.1694057,12.76 15.9394057,13.32 L18.8694057,16.25 C20.3694057,15 21.5694057,13.36 22.2994057,11.5 C20.5694057,7.11 16.2994057,4 11.2994057,4 C9.89940568,4 8.55940568,4.25 7.29940568,4.7 L9.46940568,6.85 C10.0394057,6.63 10.6494057,6.5 11.2994057,6.5 Z" transform="translate(.321 -2)"/>
</svg>
