<?xml version="1.0" encoding="UTF-8"?>
<svg width="34px" height="24px" viewBox="0 0 34 24" version="1.1" xmlns="http://www.w3.org/2000/svg" xmlns:xlink="http://www.w3.org/1999/xlink">
    <!-- Generator: Sketch 42 (36781) - http://www.bohemiancoding.com/sketch -->
    <title>Shape</title>
    <desc>Created with Sketch.</desc>
    <defs></defs>
    <g id="VfastOnline-Unified" stroke="none" stroke-width="1" fill="none" fill-rule="evenodd">
        <g id="Login" transform="translate(-873.000000, -182.000000)" fill="#2FA59A">
            <g id="SignUpButton" transform="translate(850.000000, 154.000000)">
                <path d="M44.5,43 C40.495,43 32.5,44.995 32.5,49 L32.5,52 L56.5,52 L56.5,49 C56.5,44.995 48.505,43 44.5,43 L44.5,43 Z M31,37 L31,32.5 L28,32.5 L28,37 L23.5,37 L23.5,40 L28,40 L28,44.5 L31,44.5 L31,40 L35.5,40 L35.5,37 L31,37 Z M44.5,40 C47.815,40 50.5,37.315 50.5,34 C50.5,30.685 47.815,28 44.5,28 C41.185,28 38.5,30.685 38.5,34 C38.5,37.315 41.185,40 44.5,40 Z" id="Shape"></path>
            </g>
        </g>
    </g>
</svg>