<?xml version="1.0" encoding="UTF-8"?>
<svg width="30px" height="30px" viewBox="0 0 34 31" version="1.1" xmlns="http://www.w3.org/2000/svg" xmlns:xlink="http://www.w3.org/1999/xlink">
    <!-- Generator: Sketch 42 (36781) - http://www.bohemiancoding.com/sketch -->
    <title>search</title>
    <desc>Created with Sketch.</desc>
    <defs></defs>
    <g id="VfastOnline-Unified" stroke="none" stroke-width="1" fill="none" fill-rule="evenodd">
        <g id="企业个人中心" transform="translate(-1077.000000, -21.000000)" fill="#8C96A5">
            <g id="nav">
                <path d="M1102.04972,44.3036884 L1101.46425,43.7460696 C1103.51342,41.391679 1104.7471,38.3351017 1104.7471,35.0100414 C1104.7471,27.5957763 1098.66232,21.5858845 1091.15566,21.5858845 C1083.649,21.5858845 1077.56422,27.5957763 1077.56422,35.0100414 C1077.56422,42.4243064 1083.649,48.4341982 1091.15566,48.4341982 C1094.52216,48.4341982 1097.61682,47.2156978 1100.00055,45.191748 L1100.56512,45.7700194 L1100.56512,47.4015707 L1106.44864,53.1920291 L1109.56422,50.1147993 L1103.70161,44.3036884 L1102.04972,44.3036884 Z M1081.22346,35.0477484 C1081.22346,29.5987055 1085.67689,25.2000806 1091.19384,25.2000806 C1096.71078,25.2000806 1101.16422,29.5987055 1101.16422,35.0477484 C1101.16422,40.4967912 1096.71078,44.8954162 1091.19384,44.8954162 C1085.67689,44.8954162 1081.22346,40.4967912 1081.22346,35.0477484 Z" id="search" transform="translate(1093.564221, 37.388957) rotate(-6.000000) translate(-1093.564221, -37.388957) "></path>
            </g>
        </g>
    </g>
</svg>