<?xml version="1.0" encoding="UTF-8"?>
<svg width="18" height="15" viewBox="0 0 18 15" version="1.1" xmlns="http://www.w3.org/2000/svg" xmlns:xlink="http://www.w3.org/1999/xlink">
  <path fill="#FFF" d="M10.1614411,2.5 C6.29588555,2.5 3.16144111,5.63444444 3.16144111,9.5 L0.828107776,9.5 L3.93921889,12.6111111 L7.05033,9.5 L4.71699667,9.5 C4.71699667,6.49 7.15144111,4.05555556 10.1614411,4.05555556 C13.1714411,4.05555556 15.6058856,6.49 15.6058856,9.5 C15.6058856,12.51 13.1714411,14.9444444 10.1614411,14.9444444 C8.99477444,14.9444444 7.89810778,14.5555556 7.00366333,13.9333333 L5.88366333,15.0533333 C7.08144111,15.9555556 8.55921889,16.5 10.1614411,16.5 C14.0269967,16.5 17.1614411,13.3655556 17.1614411,9.5 C17.1614411,5.63444444 14.0269967,2.5 10.1614411,2.5 L10.1614411,2.5 Z M11.7169967,9.5 C11.7169967,8.64444444 11.0169967,7.94444444 10.1614411,7.94444444 C9.30588555,7.94444444 8.60588555,8.64444444 8.60588555,9.5 C8.60588555,10.3555556 9.30588555,11.0555556 10.1614411,11.0555556 C11.0169967,11.0555556 11.7169967,10.3555556 11.7169967,9.5 Z" transform="translate(0 -2)"/>
</svg>
