<?xml version="1.0" encoding="UTF-8"?>
<svg width="23" height="21" viewBox="0 0 23 21" version="1.1" xmlns="http://www.w3.org/2000/svg" xmlns:xlink="http://www.w3.org/1999/xlink">
  <path fill="#8C96A5" d="M22,9 C22,7.89 21.1,7 20,7 L13.68,7 L14.64,2.43 C14.66,2.33 14.67,2.22 14.67,2.11 C14.67,1.7 14.5,1.32 14.23,1.05 L13.17,0 L6.59,6.58 C6.22,6.95 6,7.45 6,8 L6,18 C6,19.1 6.9,20 8,20 L17,20 C17.83,20 18.54,19.5 18.84,18.78 L21.86,11.73 C21.95,11.5 22,11.26 22,11 L22,9.08 L22,9 Z M0,20 L4,20 L4,8 L0,8 L0,20 Z" transform="translate(.5 .494)"/>
</svg>