<?xml version="1.0" encoding="UTF-8"?>
<svg width="23" height="21" viewBox="0 0 23 21" version="1.1" xmlns="http://www.w3.org/2000/svg" xmlns:xlink="http://www.w3.org/1999/xlink">
  <path fill="#8C96A5" d="M18,12 L22,12 L22,-9.09494702e-13 L18,-9.09494702e-13 L18,12 Z M14,-9.09494702e-13 L5,-9.09494702e-13 C4.17,-9.09494702e-13 3.46,0.5 3.16,1.22 L0.14,8.27 C0.05,8.5 0,8.74 0,9 L0,10.91 L0,11 C0,12.1 0.9,13 2,13 L8.31,13 L7.36,17.57 C7.34,17.67 7.33,17.77 7.33,17.88 C7.33,18.3 7.5,18.67 7.77,18.94 L8.83,20 L15.41,13.41 C15.78,13.05 16,12.55 16,12 L16,2 C16,0.89 15.1,-9.09494702e-13 14,-9.09494702e-13 Z" transform="translate(.5 .494)"/>
</svg>
