<?xml version="1.0" encoding="UTF-8"?>
<svg width="24px" height="25px" viewBox="0 0 24 25" version="1.1" xmlns="http://www.w3.org/2000/svg" xmlns:xlink="http://www.w3.org/1999/xlink">
    <!-- Generator: Sketch 42 (36781) - http://www.bohemiancoding.com/sketch -->
    <title>twitter</title>
    <desc>Created with Sketch.</desc>
    <defs></defs>
    <g id="VfastOnline-Unified" stroke="none" stroke-width="1" fill="none" fill-rule="evenodd">
        <g id="欢迎页" transform="translate(-1288.000000, -3553.000000)">
            <g id="底栏" transform="translate(0.000000, 3415.000000)">
                <g id="reference" transform="translate(1176.000000, 138.000000)">
                    <g id="twitter" transform="translate(112.000000, 0.000000)">
                        <path d="M12,1 C5.92530612,1 1,5.92530612 1,12 C1,18.0746939 5.92530612,23 12,23 C18.0746939,23 23,18.0746939 23,12 C23,5.92530612 18.0746939,1 12,1 L12,1 L12,1 L12,1 Z" id="Path-Copy-2" fill="#FFFFFF"></path>
                        <path d="M12.0000199,0 C18.6276673,0 24,5.41923016 24,12.0468776 C24,18.6745648 18.6276673,24.0468975 12.0000199,24.0468975 C5.37237252,24.0468975 0,18.6745648 0,12.0468776 C0,5.41919032 5.37237252,0 12.0000199,0 L12.0000199,0 Z M20.0063021,11.0156508 C20.0063021,11.0156508 18.4786473,10.9242465 17.9255199,10.7175309 C17.8973893,10.5871982 17.8673861,10.4643961 17.8364664,10.3514357 C17.4155445,8.8012684 15.9703686,7.55204994 14.4581736,7.70298256 C13.9191513,7.26982825 14.3676858,6.6206347 14.3878473,6.44483884 C12.960522,6.62246756 12.1809558,9.11154092 11.6077067,10.6289158 C11.1577378,10.1924942 10.7574157,9.84795504 10.3997676,9.65626105 C9.39567516,9.11767704 8.19427063,8.55518607 6.30988403,7.85530975 C6.25222841,8.47872363 6.27238995,13.0218832 9.84428931,14.322661 C8.14693485,16.0795438 5.46851835,15.9487727 3.93193821,14.4806462 C7.94539915,19.9566155 16.6716395,17.7188043 17.9715009,12.4453269 C18.9473831,12.4528178 20.0063021,11.0156508 20.0063021,11.0156508 L20.0063021,11.0156508 Z" id="Shape" fill="#2D3339"></path>
                    </g>
                </g>
            </g>
        </g>
    </g>
</svg>