<?xml version="1.0" encoding="UTF-8"?>
<svg xmlns="http://www.w3.org/2000/svg" xmlns:xlink="http://www.w3.org/1999/xlink" width="351" height="172" viewBox="0 0 351 172">
  <defs>
    <path id="van-a" d="M0.540982898,33.360612 C0.540982898,33.360612 20.7376778,0.450819082 48.5594942,1.0819658 L184.236564,0.450819082 C203.770225,0.450819082 209.271601,9.57165571 210.98333,12.4568978 L222.704626,33.360612 L0.540982898,33.360612 Z"/>
    <path id="van-c" d="M0,0.735601715 L8.91244665,0.735601715 C9.46780937,0.735601715 10.3502841,0.868415449 10.8086932,1.17476227 C10.8086932,1.17476227 14.4262106,0.735601715 14.4262106,19.6753693 C14.4262106,38.6151368 10.7872443,38.1937779 10.7872443,38.1937779 C10.3071849,38.426488 9.46609095,38.6151368 8.91244665,38.6151368 L0,38.6151368 L0,0.735601715 Z"/>
    <polygon id="van-e" points="41.475 .736 247.95 .736 247.95 84.999 210.983 84.999 196.557 88.195 39.672 88.195 0 77.375 21.279 22.118"/>
    <path id="van-g" d="M49.590099,5.24379253 L45.9835463,8.85034518 L53.1966516,8.85034518 L34.2622502,29.5880229 L26.1475067,29.5880229 L1.80327633,47.2365694 C-0.901638163,59.3420823 1.80327633,85.4895891 1.80327633,85.4895891 L9.01638163,85.4895891 L9.01638163,88.1945036 L10.819658,88.1945036 C10.819658,88.1945036 7.21310531,66.5551876 28.8524212,66.5551876 C50.4917371,66.5551876 54.999928,88.1945036 54.999928,88.1945036 L61.3113951,88.1945036 L68.5245004,29.5880229 L38.770441,29.5880229 L56.8032043,8.85034518 L78.4425202,8.85034518 L78.4425202,88.1945036 L171.311251,88.1945036 L174.016166,70.2605171 L78.4425202,70.2605171 L78.4425202,8.85034518 L179.425994,8.85034518 L179.425994,88.1945036 L255.1636,88.1945036 C285.819298,64.7519113 255.1636,6.2786353 253.360324,6.2786353 L252.458686,6.2786353 L256.065238,0.735601715 L49.590099,0.735601715 L51.3933753,5.24379253 L49.590099,5.24379253 Z"/>
    <filter id="van-i" width="150%" height="123.5%" x="-12.5%" y="-7.4%" filterUnits="objectBoundingBox">
      <feOffset dx="2.5" dy="1.5" in="SourceAlpha" result="shadowOffsetOuter1"/>
      <feColorMatrix in="shadowOffsetOuter1" result="shadowMatrixOuter1" values="0 0 0 0 0.560784314   0 0 0 0 0.466666667   0 0 0 0 0.525490196  0 0 0 1 0"/>
      <feMerge>
        <feMergeNode in="shadowMatrixOuter1"/>
        <feMergeNode in="SourceGraphic"/>
      </feMerge>
    </filter>
    <rect id="van-j" width="9.016" height="16.229" x=".712" y=".745" rx="4"/>
    <filter id="van-l" width="150%" height="123.5%" x="-37.5%" y="-7.4%" filterUnits="objectBoundingBox">
      <feOffset dx="-2.5" dy="1.5" in="SourceAlpha" result="shadowOffsetOuter1"/>
      <feColorMatrix in="shadowOffsetOuter1" result="shadowMatrixOuter1" values="0 0 0 0 0.560784314   0 0 0 0 0.466666667   0 0 0 0 0.525490196  0 0 0 1 0"/>
      <feMerge>
        <feMergeNode in="shadowMatrixOuter1"/>
        <feMergeNode in="SourceGraphic"/>
      </feMerge>
    </filter>
    <rect id="van-m" width="9.016" height="16.229" x=".712" y=".745" rx="4"/>
    <path id="van-o" d="M19.0374759,31.4683392 C12.1240901,31.4683392 6.51968354,25.8639327 6.51968354,18.9505468 C6.51968354,12.037161 12.1240901,6.43275443 19.0374759,6.43275443 C25.9508618,6.43275443 31.5552684,12.037161 31.5552684,18.9505468 C31.5552684,25.8639327 25.9508618,31.4683392 19.0374759,31.4683392 Z M19.0374759,29.729757 C24.9906693,29.729757 29.8166861,24.9037402 29.8166861,18.9505468 C29.8166861,12.9973535 24.9906693,8.17133671 19.0374759,8.17133671 C13.0842826,8.17133671 8.25826582,12.9973535 8.25826582,18.9505468 C8.25826582,24.9037402 13.0842826,29.729757 19.0374759,29.729757 Z"/>
    <circle id="van-q" cx="19.037" cy="18.951" r="8.688"/>
    <path id="van-s" d="M19.0374759,31.4683392 C12.1240901,31.4683392 6.51968354,25.8639327 6.51968354,18.9505468 C6.51968354,12.037161 12.1240901,6.43275443 19.0374759,6.43275443 C25.9508618,6.43275443 31.5552684,12.037161 31.5552684,18.9505468 C31.5552684,25.8639327 25.9508618,31.4683392 19.0374759,31.4683392 Z M19.0374759,29.729757 C24.9906693,29.729757 29.8166861,24.9037402 29.8166861,18.9505468 C29.8166861,12.9973535 24.9906693,8.17133671 19.0374759,8.17133671 C13.0842826,8.17133671 8.25826582,12.9973535 8.25826582,18.9505468 C8.25826582,24.9037402 13.0842826,29.729757 19.0374759,29.729757 Z"/>
    <circle id="van-u" cx="19.037" cy="18.951" r="8.688"/>
    <path id="van-w" d="M5.11466721,16.6059322 L5.11466721,16.6059322 C2.77040799,16.6059322 0.786804027,14.6223283 0.786804027,12.278069 L0.786804027,4.52398084 C0.786804027,2.17972162 2.77040799,0.19611766 5.11466721,0.19611766 L5.11466721,0.19611766 C7.45892644,0.19611766 9.4425304,2.17972162 9.4425304,4.52398084 L9.4425304,12.278069 C9.4425304,14.7124921 7.45892644,16.6059322 5.11466721,16.6059322 Z"/>
    <rect id="van-z" width="40.574" height="81.663"/>
    <filter id="van-y" width="109.9%" height="104.9%" x="-7.4%" y="-1.2%" filterUnits="objectBoundingBox">
      <feOffset dx="-2" dy="2" in="SourceAlpha" result="shadowOffsetOuter1"/>
      <feColorMatrix in="shadowOffsetOuter1" values="0 0 0 0 0.305882353   0 0 0 0 0.203921569   0 0 0 0 0.180392157  0 0 0 1 0"/>
    </filter>
    <rect id="van-B" width="19.836" height="11.721" x="10.82" y="51.393" rx="2"/>
    <filter id="van-A" width="115.1%" height="125.6%" x="-7.6%" y="-12.8%" filterUnits="objectBoundingBox">
      <feOffset dx="3" dy="2" in="SourceAlpha" result="shadowOffsetInner1"/>
      <feComposite in="shadowOffsetInner1" in2="SourceAlpha" k2="-1" k3="1" operator="arithmetic" result="shadowInnerInner1"/>
      <feColorMatrix in="shadowInnerInner1" values="0 0 0 0 0.305882353   0 0 0 0 0.203921569   0 0 0 0 0.180392157  0 0 0 1 0"/>
    </filter>
    <rect id="van-D" width="40.574" height="82.049"/>
    <filter id="van-C" width="109.9%" height="104.9%" x="-7.4%" y="-1.2%" filterUnits="objectBoundingBox">
      <feOffset dx="-2" dy="2" in="SourceAlpha" result="shadowOffsetOuter1"/>
      <feColorMatrix in="shadowOffsetOuter1" values="0 0 0 0 0.305882353   0 0 0 0 0.203921569   0 0 0 0 0.180392157  0 0 0 1 0"/>
    </filter>
    <rect id="van-F" width="19.836" height="11.721" x="10.82" y="51.393" rx="2"/>
    <filter id="van-E" width="115.1%" height="125.6%" x="-7.6%" y="-12.8%" filterUnits="objectBoundingBox">
      <feOffset dx="3" dy="2" in="SourceAlpha" result="shadowOffsetInner1"/>
      <feComposite in="shadowOffsetInner1" in2="SourceAlpha" k2="-1" k3="1" operator="arithmetic" result="shadowInnerInner1"/>
      <feColorMatrix in="shadowInnerInner1" values="0 0 0 0 0.305882353   0 0 0 0 0.203921569   0 0 0 0 0.180392157  0 0 0 1 0"/>
    </filter>
  </defs>
  <g fill="none" fill-rule="evenodd" transform="translate(.36 -.574)">
    <g fill-rule="nonzero" transform="translate(0 119.016)">
      <path fill="#F4F3F0" d="M5.95081188,16.680306 C5.68032043,16.8606337 5.31966516,17.0409613 5.04917371,17.2212889 C-2.79507831,21.6393159 -0.811474347,33.5409397 8.11474347,34.9835607 L8.38523492,34.9835607 C10.7294941,35.344216 13.0737534,34.6229055 14.9671935,33.2704482 C17.1311251,31.7376633 21.9098074,29.3934041 28.8524212,31.8278272 C29.8442232,32.1884824 30.926189,32.3688101 32.0081548,32.3688101 C36.4261818,32.4589739 48.7786246,33.4507759 55.5409109,40.754045 C55.9015661,41.2048641 56.3523852,41.5655193 56.8032043,41.9261746 C58.6064806,43.3687957 63.6556543,47.2458398 67.3523708,49.3196075 C68.9753195,50.3114095 70.8687596,50.6720648 72.7621998,50.581901 C76.098261,50.4015733 82.3195643,49.6802628 88.36054,47.2458398 C90.0736525,46.5245292 91.8769288,46.3442016 93.6802052,46.7048569 C99.9015085,47.8769865 114.327719,50.4015733 117.393289,50.0409181 C117.393289,50.0409181 118.385091,52.2950135 134.885069,44.0901062 C136.32769,43.3687957 137.860475,43.0081404 139.39326,43.0983042 C142.909649,43.188468 150.212918,44.0901062 162.926016,48.4179694 C164.458801,48.9589523 166.171913,49.0491161 167.704698,48.7786246 C171.76207,47.9671503 179.966977,46.3442016 185.647298,44.5409253 C185.647298,44.5409253 188.442376,42.8278128 193.401386,49.1392799 C195.294826,51.4835391 198.270232,52.8359964 201.245638,52.7458326 C206.294812,52.4753411 214.77021,51.6638668 226.040688,48.9589523 C226.311179,48.8687885 226.491507,48.8687885 226.671834,48.7786246 C227.212817,48.598297 228.655438,48.2376417 230.999697,48.6884608 C233.073465,49.1392799 235.237397,48.7786246 237.130837,47.7868227 C240.016079,46.2540378 244.884925,44.5409253 250.835737,45.4425634 C250.835737,45.4425634 275.72095,49.1392799 280.860288,44.5409253 C280.860288,44.5409253 292.852075,38.3196219 295.827481,34.8032331 C298.802887,31.3770081 296.368464,34.8933969 296.368464,34.8933969 C296.368464,34.8933969 298.261904,34.352414 304.934027,35.9753627 C306.376648,36.336018 307.909433,36.336018 309.442218,35.9753627 C311.606149,35.4343798 314.761883,34.4425778 318.00778,32.1884824 C319.450401,31.2868443 320.983186,30.6556976 322.696299,30.4753699 C325.311049,30.2950423 329.368421,30.3852061 334.056939,32.2786462 C334.868414,32.6393015 335.679888,32.8196291 336.581526,32.909793 C337.84382,32.9999568 339.73726,33.1802844 341.811028,32.909793 C348.212659,32.2786462 352.179867,25.3360324 349.474952,19.4753843 C348.392986,17.1311251 346.860201,14.6065382 344.966761,12.8032619 C342.171683,10.1885112 338.114311,9.64752835 334.597922,11.1803132 C331.802844,12.4426067 327.114326,13.9753915 322.425807,12.7130981 C322.065152,12.6229343 321.79466,12.4426067 321.434005,12.3524428 C319.270074,11.270477 309.442218,7.12294149 300.966819,9.64752835 C298.62256,10.3688389 296.097973,10.0081836 293.843877,8.92621782 C291.77011,7.93441584 289.065195,6.94261386 286.089789,6.94261386 L285.548806,6.94261386 C279.057012,7.21310531 82.4097281,0.631146714 82.4097281,0.631146714 C82.4097281,0.631146714 56.8933681,-0.360655265 48.6884608,8.836054 C48.6884608,8.836054 44.0901062,13.8852277 37.6884752,10.5491665 C37.1474923,10.2786751 36.5163456,10.0081836 35.9753627,9.82785598 C33.6311035,9.19670927 27.6802916,8.20490729 24.073739,12.5327705 C21.098333,16.1393231 15.5983402,15.9589955 12.1721152,15.5081764 C9.9180198,15.3278488 7.84425202,15.688504 5.95081188,16.680306 Z"/>
      <path fill="#DAD7CB" d="M63.835982,19.0245652 C61.3113951,18.66391 54.999928,17.7622718 49.8605904,18.1229271 C45.5327272,18.4835823 43.8196147,22.7212817 47.2458398,24.9753771 C51.9343582,28.0409469 60.4999208,32.3688101 73.3933465,34.1720864 C73.8441656,34.2622502 74.2949847,34.2622502 74.8359676,34.1720864 C76.8195715,33.9917588 82.7703834,33.6311035 86.5572637,34.5327417 C86.5572637,34.5327417 89.7129972,35.9753627 106.934286,30.926189 C107.02445,30.926189 107.204778,30.8360252 107.294941,30.8360252 C109.008054,30.4753699 121.90148,27.7704554 129.655568,30.2048785 C130.467042,30.4753699 131.36868,30.5655337 132.270319,30.4753699 C134.524414,30.2048785 139.753915,29.5737318 150.03259,27.4098002 C150.303082,27.3196363 150.663737,27.3196363 150.934229,27.3196363 C153.999798,27.1393087 172.303053,26.3278344 187.270247,30.3852061 C187.901393,30.5655337 188.442376,30.6556976 189.073523,30.5655337 C194.753843,30.2950423 223.876756,29.1229127 225.950524,30.2950423 C225.950524,30.2950423 241.278372,38.9507687 264.540637,33.0901206 C264.540637,33.0901206 272.475053,31.4671719 279.417667,27.7704554 C280.048814,27.4098002 280.770124,27.2294725 281.581598,27.1393087 C284.286513,26.8688173 291.319291,25.9671791 298.261904,24.524558 C304.122552,23.2622646 302.40944,16.4098146 296.368464,16.9507975 C296.188137,16.9507975 296.007809,16.9507975 295.827481,17.0409613 L294.475024,17.0409613 L286.360281,16.0491593 L285.819298,16.0491593 L112.975262,9.9180198 C112.524443,9.9180198 111.98346,9.9180198 111.532641,10.0081836 L65.9999136,18.9344014 C65.3687668,19.1147291 64.5572925,19.1147291 63.835982,19.0245652 Z"/>
      <g fill="#E2DAC9" transform="translate(9.918 9.016)">
        <path d="M3.78688029 2.07376778C3.78688029 2.07376778-2.70491449 3.51638884 3.51638884 7.39343294 3.51638884 7.39343294 5.59015661 12.6229343 8.20490729 9.10654545 8.20490729 9.10654545 10.4590027 9.82785598 10.4590027 5.95081188 10.3688389 5.95081188 7.03277767-3.96720792 3.78688029 2.07376778zM18.1229271 13.4344086C16.2294869 14.245883 14.7868659 15.8688317 16.7704698 19.4753843 16.7704698 19.4753843 20.0163672 22.6311179 22.9917732 19.5655481L26.8688173 19.2950567C26.8688173 19.2950567 30.2048785 18.3032547 25.0655409 14.5163744 23.081937 12.9835896 20.3770225 12.5327705 18.1229271 13.4344086z"/>
      </g>
      <g fill="#E2DAC9" transform="translate(311.065 5.41)">
        <path d="M11.270477 21.8196436C11.270477 21.1884968 10.0081836 20.6475139 8.2950711 20.3770225 7.48359676 20.106531 6.49179478 19.9262034 5.40982898 19.9262034 2.43442304 19.9262034.0901638163 21.2786607.0901638163 22.9016093.0901638163 24.524558 2.43442304 25.8770153 5.40982898 25.8770153 8.38523492 25.8770153 10.7294941 24.524558 10.7294941 22.9016093L10.7294941 22.6311179C10.9999856 22.3606264 11.270477 22.090135 11.270477 21.8196436zM10.1885112 5.04917371C10.3688389 6.13113951 10.2786751 8.11474347 9.01638163 9.01638163 8.2950711 9.55736453 7.48359676 9.46720071 5.95081188 9.3770369 4.14753555 9.28687308 3.24589739 9.19670927 2.43442304 8.56556255.721310531 7.21310531.270491449 3.69671647 2.07376778 1.89344014 3.51638884.450819082 5.59015661.721310531 5.95081188.721310531 8.20490729 1.0819658 9.82785598 3.06556976 10.1885112 5.04917371zM18.7540738 7.30326912C18.8442376 7.66392439 18.9344014 8.20490729 18.7540738 8.74589018 18.3032547 9.82785598 16.680306 10.0081836 16.0491593 10.0983474 15.5983402 10.1885112 13.7049001 10.3688389 13.1639172 9.3770369 12.8934257 8.92621782 13.254081 8.65572637 13.3442448 7.30326912 13.5245724 5.68032043 13.1639172 5.22950135 13.5245724 4.77868227 14.1557192 3.96720792 15.8688317 4.50819082 16.0491593 4.50819082 17.4016166 4.9590099 18.4835823 6.04097569 18.7540738 7.30326912z"/>
      </g>
    </g>
    <g fill-rule="nonzero" transform="translate(170.41)">
      <polygon fill="#FFF" points="2.137 2.902 1.662 5.861 25.207 5.861 24.816 2.902"/>
      <path fill="#928D7B" d="M26.0573429,3.8770441 C26.0573429,3.8770441 31.8019043,0.735601715 13.5245724,0.735601715 C-4.7527594,0.735601715 0.811474347,3.8770441 0.811474347,3.8770441 L26.0573429,3.8770441 Z"/>
    </g>
    <g transform="translate(78.443 4.508)">
      <mask id="van-b" fill="#fff">
        <use xlink:href="#van-a"/>
      </mask>
      <use fill="#FC964A" fill-rule="nonzero" xlink:href="#van-a"/>
      <path fill="#FFF" fill-rule="nonzero" d="M0.360655265,31.3770081 L0.360655265,34.352414 L223.516101,34.0819226 L223.516101,31.3770081 L0.360655265,31.3770081 Z" mask="url(#van-b)"/>
      <rect width="190.246" height="8.372" x="18.844" y=".005" fill="#BCBCBC" mask="url(#van-b)" style="mix-blend-mode:overlay"/>
      <path fill="#4E342E" stroke="#FFF" stroke-width="2" d="M73.423543,25.0798321 C71.2158375,25.0798321 70.2282943,23.4828608 71.2808381,21.5440681 C71.2808381,21.5440681 76.6392439,9.75198335 82.950711,9.75198335 L116.311323,9.75198335 L116.311323,25.0798321 L73.423543,25.0798321 Z M154.682508,25.0798321 L116.311323,25.0798321 L116.311323,9.75198335 L146.967021,9.75198335 C155.983402,9.75198335 157.687223,21.2119687 157.687223,21.2119687 C158.297208,23.3364561 156.894855,25.0798321 154.682508,25.0798321 Z" mask="url(#van-b)"/>
    </g>
    <g transform="translate(36.967 37.869)">
      <g transform="translate(265.983 35.164)">
        <mask id="van-d" fill="#fff">
          <use xlink:href="#van-c"/>
        </mask>
        <use fill="#FFF" xlink:href="#van-c"/>
        <polygon fill="#D8D8D8" points="-.902 27.785 6.311 27.785 6.311 15.162 8.115 15.162 8.115 27.785 15.328 27.785 15.328 39.506 -.902 39.506" mask="url(#van-d)"/>
      </g>
      <g transform="translate(2.705)">
        <g transform="translate(5.41 7.213)">
          <mask id="van-f" fill="#fff">
            <use xlink:href="#van-e"/>
          </mask>
          <use fill="#4E342E" fill-rule="nonzero" xlink:href="#van-e"/>
          <polygon fill="#707070" points="247.055 81.088 247.055 -13.691 176.721 -13.691 96.475 80.08" mask="url(#van-f)" style="mix-blend-mode:overlay"/>
        </g>
        <path fill="#646464" d="M52.2950135,95.4076089 L204.671863,95.4076089 L219.999712,91.8010562 L251.557048,92.7026944 L256.966877,80.9813982 L205.57625,89.9977799 L57.7048425,89.9977799 L55.9015661,86.3912272 C55.9015661,86.3912272 56.8046883,62.0469968 31.5761117,62.0469968 C6.34753507,62.0469968 8.11474347,86.3912272 8.11474347,86.3912272 L9.9180198,86.3912272 C9.9180198,86.3912272 12.6417103,68.358464 31.5761117,68.358464 C50.5105131,68.358464 52.2950135,87.2928654 52.2950135,87.2928654 L52.2950135,95.4076089 Z" style="mix-blend-mode:overlay"/>
        <mask id="van-h" fill="#fff">
          <use xlink:href="#van-g"/>
        </mask>
        <use fill="#FC964A" fill-rule="nonzero" xlink:href="#van-g"/>
        <rect width="238.483" height="13.525" x="21.188" y="77.375" fill="#E27726" mask="url(#van-h)"/>
        <path fill="#BCBCBC" d="M265.983258,71.9650166 L238.032475,71.9650166 C232.622646,64.7519113 226.311179,63.8502731 226.311179,63.8502731 L205.573501,63.8502731 L205.573501,61.1453587 L227.212817,61.1453587 C227.212817,61.1453587 234.425922,62.0469968 240.73739,69.2601021 L265.983258,69.2601021 L265.983258,71.9650166 Z" mask="url(#van-h)" style="mix-blend-mode:overlay"/>
        <path fill="#BCBCBC" fill-rule="nonzero" d="M18.7070686,62.7898511 C22.944768,61.7980491 43.0512991,57.8308412 51.2562063,72.4373794 L63.6086492,72.4373794 L63.6086492,69.6423011 L52.3381721,69.6423011 C50.5348958,67.2980419 46.3873603,62.6996873 39.8955655,60.6259195 C35.5677023,59.1832984 31.3300029,59.1832984 29.7070542,59.1832984 C28.8054161,59.1832984 27.0923036,59.1832984 25.0185358,59.5439537 C21.952966,59.9947728 17.8054305,61.2570662 17.8955943,62.1587044 C17.8955943,62.4291958 18.1660858,62.9701787 18.7070686,62.7898511 Z" mask="url(#van-h)" style="mix-blend-mode:overlay"/>
        <polygon fill="#BCBCBC" fill-rule="nonzero" points="18.033 31.391 18.033 34.096 265.983 33.826 265.983 31.391" mask="url(#van-h)" style="mix-blend-mode:overlay"/>
        <polygon fill="#E27726" fill-rule="nonzero" points="7.332 47.787 277.705 47.981 277.705 45.818 7.332 45.623" mask="url(#van-h)"/>
        <polygon fill="#E27726" fill-rule="nonzero" points="256.065 4.136 47.787 4.136 47.787 .736 256.065 .736" mask="url(#van-h)"/>
        <polygon fill="#4E342E" fill-rule="nonzero" points="268.723 46.802 220.721 46.802 220.721 33.992 268.723 33.992" mask="url(#van-h)"/>
        <path fill="#4E342E" stroke="#FFF" stroke-width="2" d="M218.196436,28.6863848 L245.554309,28.6863848 C248.86953,28.6863848 251.088175,26.042059 250.334561,22.8154307 C250.334561,22.8154307 248.852133,8.85034518 239.835751,8.85034518 C230.81937,8.85034518 218.196436,8.85034518 218.196436,8.85034518 L218.196436,28.6863848 Z" mask="url(#van-h)"/>
      </g>
      <g filter="url(#van-i)" transform="translate(0 68.358)">
        <mask id="van-k" fill="#fff">
          <use xlink:href="#van-j"/>
        </mask>
        <use fill="#FFF" xlink:href="#van-j"/>
        <rect width="9.918" height="9.016" y="8.115" fill="#D8D8D8" mask="url(#van-k)"/>
      </g>
      <g filter="url(#van-l)" transform="translate(261.926 68.358)">
        <mask id="van-n" fill="#fff">
          <use xlink:href="#van-m"/>
        </mask>
        <use fill="#FFF" xlink:href="#van-m"/>
        <rect width="9.918" height="9.016" y="8.115" fill="#D8D8D8" mask="url(#van-n)"/>
      </g>
      <g transform="translate(13.902 70.038)">
        <circle cx="19.037" cy="18.951" r="18.429" fill="#655A6D" fill-rule="nonzero"/>
        <mask id="van-p" fill="#fff">
          <use xlink:href="#van-o"/>
        </mask>
        <use fill="#FFF8EB" fill-rule="nonzero" xlink:href="#van-o"/>
        <polygon fill="#BED6D2" points="10.144 9.1 30.138 29.094 36.223 15.185 20.575 3.015" mask="url(#van-p)"/>
        <mask id="van-r" fill="#fff">
          <use xlink:href="#van-q"/>
        </mask>
        <use fill="#FFF8EB" fill-rule="nonzero" xlink:href="#van-q"/>
        <path fill="#BED6D2" d="M10.143951,14.3155517 C11.8199634,9.8461855 26.6086271,6.49193145 18.7850069,9.96909601 C10.9613866,13.4462606 11.8825333,18.6620074 11.8825333,18.6620074 L28.4197506,18.6620074 L28.399065,29.0935011 L10.143951,29.0935011 C10.143951,29.0935011 7.90815323,20.2776792 10.143951,14.3155517 Z" mask="url(#van-r)"/>
      </g>
      <g transform="rotate(45 34.552 295.762)">
        <circle cx="19.037" cy="18.951" r="18.429" fill="#655A6D" fill-rule="nonzero"/>
        <mask id="van-t" fill="#fff">
          <use xlink:href="#van-s"/>
        </mask>
        <use fill="#FFF8EB" fill-rule="nonzero" xlink:href="#van-s"/>
        <polygon fill="#BED6D2" points="10.144 9.1 30.138 29.094 36.223 15.185 20.575 3.015" mask="url(#van-t)"/>
        <mask id="van-v" fill="#fff">
          <use xlink:href="#van-u"/>
        </mask>
        <use fill="#FFF8EB" fill-rule="nonzero" xlink:href="#van-u"/>
        <path fill="#BED6D2" d="M10.143951,14.3155517 C11.8199634,9.8461855 26.6086271,6.49193145 18.7850069,9.96909601 C10.9613866,13.4462606 11.8825333,18.6620074 11.8825333,18.6620074 L28.4197506,18.6620074 L28.399065,29.0935011 L10.143951,29.0935011 C10.143951,29.0935011 7.90815323,20.2776792 10.143951,14.3155517 Z" mask="url(#van-v)"/>
      </g>
      <path fill="#BCBCBC" fill-rule="nonzero" d="M17.0302639,59.9306729 L9.29757048,59.9306729 C8.70921338,59.9306729 8.20490729,59.3195072 8.20490729,58.6064806 L8.20490729,58.6064806 C8.20490729,57.893454 8.70921338,57.2822883 9.29757048,57.2822883 L17.0302639,57.2822883 C17.618621,57.2822883 18.1229271,57.893454 18.1229271,58.6064806 L18.1229271,58.6064806 C18.1229271,59.4213682 17.618621,59.9306729 17.0302639,59.9306729 Z" style="mix-blend-mode:overlay"/>
      <g transform="translate(45.984 20.738)">
        <path stroke="#FFF" stroke-linecap="round" stroke-linejoin="round" d="M12.6229343 15.1618123L14.4262106 25.0798321M0 4.34215437L9.01638163 6.14543069"/>
        <g transform="translate(7.213)">
          <mask id="van-x" fill="#fff">
            <use xlink:href="#van-w"/>
          </mask>
          <use fill="#FFF" fill-rule="nonzero" xlink:href="#van-w"/>
          <rect width="9.968" height="9.418" x=".122" y="8.843" fill="#8B7676" mask="url(#van-x)"/>
        </g>
        <path stroke="#FFF" stroke-linecap="round" stroke-linejoin="round" d="M3.60655265,25.9814703 L9.9180198,10.6536215"/>
      </g>
    </g>
    <g transform="translate(118.115 44.014)">
      <use fill="#000" filter="url(#van-y)" xlink:href="#van-z"/>
      <use fill="#FC964A" xlink:href="#van-z"/>
      <rect width="34.262" height="27.951" x="3.607" y="4.508" fill="#FFD180"/>
      <polygon fill="#FFAB40" points="9.016 15.328 12.623 15.328 12.623 32.459 8.905 32.459"/>
      <polygon fill="#FFAB40" points="16.229 19.836 16.229 9.016 18.033 9.016 18.033 19.836 18.934 19.836 18.934 32.459 15.328 32.459 15.328 19.836"/>
      <polygon fill="#FFAB40" points="27.587 10.82 30.656 10.82 30.656 18.033 32.588 18.033 32.588 32.459 27.587 32.459"/>
      <polygon fill="#FFAB40" points="22.541 25.697 22.541 18.934 24.344 18.934 24.344 32.459 20.738 32.459 20.738 25.697"/>
      <rect width="34.262" height="27.951" x="3.607" y="4.508" stroke="#795548" stroke-width="3" rx="2"/>
      <path fill="#795548" d="M3.60655265,38.5786806 L37.8688029,38.5786806 L37.8688029,68.4167932 L3.60655265,68.4167932 L3.60655265,38.5786806 Z M10.819658,53.3950198 L10.819658,61.113027 C10.819658,62.2143836 11.7118541,63.1146714 12.8124339,63.1146714 L28.6629216,63.1146714 C29.7518399,63.1146714 30.6556976,62.2185047 30.6556976,61.113027 L30.6556976,53.3950198 C30.6556976,52.2936631 29.7635014,51.3933753 28.6629216,51.3933753 L12.8124339,51.3933753 C11.7235157,51.3933753 10.819658,52.2895421 10.819658,53.3950198 Z"/>
      <use fill="#000" filter="url(#van-A)" transform="matrix(-1 0 0 1 41.475 0)" xlink:href="#van-B"/>
      <rect width="8.115" height="3.607" x="16.229" y="42.377" fill="#FFF" rx="1.803"/>
    </g>
    <g transform="matrix(-1 0 0 1 259.487 44.014)">
      <use fill="#000" filter="url(#van-C)" xlink:href="#van-D"/>
      <use fill="#FC964A" xlink:href="#van-D"/>
      <rect width="34.262" height="27.951" x="3.607" y="4.508" fill="#FFD180"/>
      <polygon fill="#FFAB40" points="9.016 15.328 12.623 15.328 12.623 32.459 8.905 32.459"/>
      <polygon fill="#FFAB40" points="16.229 19.836 16.229 9.016 18.033 9.016 18.033 19.836 18.934 19.836 18.934 32.459 15.328 32.459 15.328 19.836"/>
      <polygon fill="#FFAB40" points="27.587 10.82 30.656 10.82 30.656 18.033 32.588 18.033 32.588 32.459 27.587 32.459"/>
      <polygon fill="#FFAB40" points="22.541 25.697 22.541 18.934 24.344 18.934 24.344 32.459 20.738 32.459 20.738 25.697"/>
      <rect width="34.262" height="27.951" x="3.607" y="4.508" stroke="#795548" stroke-width="3" rx="2"/>
      <path fill="#795548" d="M3.60655265,38.5786806 L37.8688029,38.5786806 L37.8688029,68.4167932 L3.60655265,68.4167932 L3.60655265,38.5786806 Z M10.819658,53.3950198 L10.819658,61.113027 C10.819658,62.2143836 11.7118541,63.1146714 12.8124339,63.1146714 L28.6629216,63.1146714 C29.7518399,63.1146714 30.6556976,62.2185047 30.6556976,61.113027 L30.6556976,53.3950198 C30.6556976,52.2936631 29.7635014,51.3933753 28.6629216,51.3933753 L12.8124339,51.3933753 C11.7235157,51.3933753 10.819658,52.2895421 10.819658,53.3950198 Z"/>
      <use fill="#000" filter="url(#van-E)" transform="matrix(-1 0 0 1 41.475 0)" xlink:href="#van-F"/>
      <rect width="8.115" height="3.607" x="16.229" y="42.377" fill="#FFF" rx="1.803"/>
    </g>
  </g>
</svg>
