<?xml version="1.0" encoding="UTF-8"?>
<svg width="17px" height="24px" viewBox="0 0 17 24" version="1.1" xmlns="http://www.w3.org/2000/svg" xmlns:xlink="http://www.w3.org/1999/xlink">
    <!-- Generator: Sketch 42 (36781) - http://www.bohemiancoding.com/sketch -->
    <title>videoCourse</title>
    <desc>Created with Sketch.</desc>
    <defs></defs>
    <g id="VfastOnline-Unified" stroke="none" stroke-width="1" fill="none" fill-rule="evenodd">
        <g id="主控板" transform="translate(-173.000000, -632.000000)" fill="#B4BEC8">
            <g id="正在进行路线" transform="translate(120.000000, 200.000000)">
                <g id="cell4" transform="translate(0.000000, 416.000000)">
                    <g id="videoCourseDark" transform="translate(53.000000, 16.000000)">
                        <g id="video">
                            <path d="M16.3099494,5.97436697 L5.55667032,0.22090266 C4.08400018,-0.584770643 1.1798583,0.971649326 0.345630804,2.34116492 C-0.026767625,2.95307148 0.000442341645,3.39506499 0.000442341645,3.64504854 L0.132975259,16.6387301 C0.142045247,16.9146535 0.476709345,17.2867328 0.762850343,17.4693276 C1.35940709,17.849285 10.3933282,23.703709 10.6500909,23.869532 C10.7877802,23.9582766 10.9502203,24 11.1109151,24 C11.247626,24 11.3848129,23.9687075 11.5090427,23.9046401 C11.7805077,23.7662941 11.9497966,23.497233 11.9497966,23.2050046 L11.9497966,9.55722647 C11.9497966,9.27339757 11.7900537,9.01043038 11.5301178,8.86851591 L1.75605384,3.20508629 C1.86653318,2.98230531 2.3018927,2.51052896 3.10058063,2.0756449 C3.94287326,1.6181149 4.57325077,1.79080038 4.71802683,1.84880139 C4.71802683,1.84880139 14.0981148,7.05980664 14.3852606,7.21443026 C14.6711636,7.36930093 14.67632,7.39246839 14.67632,7.65746686 L14.67632,20.6079152 C14.67632,21.2538868 15.3081519,21.5183911 15.7719378,21.5183911 C16.2352212,21.5183911 16.7293638,21.0471363 16.7293638,20.6079152 L16.7293638,6.66332459 C16.7296282,6.37924864 16.5689069,6.11655591 16.3099494,5.97436697 L16.3099494,5.97436697 Z" id="Shape"></path>
                        </g>
                    </g>
                </g>
            </g>
        </g>
    </g>
</svg>