<?xml version="1.0" encoding="UTF-8"?>
<svg width="24px" height="24px" viewBox="0 0 24 24" version="1.1" xmlns="http://www.w3.org/2000/svg" xmlns:xlink="http://www.w3.org/1999/xlink">
    <!-- Generator: Sketch 42 (36781) - http://www.bohemiancoding.com/sketch -->
    <title>wechat</title>
    <desc>Created with Sketch.</desc>
    <defs></defs>
    <g id="VfastOnline-Unified" stroke="none" stroke-width="1" fill="none" fill-rule="evenodd">
        <g id="欢迎页" transform="translate(-1176.000000, -3553.000000)">
            <g id="底栏" transform="translate(0.000000, 3415.000000)">
                <g id="reference" transform="translate(1176.000000, 138.000000)">
                    <g id="wechat">
                        <path d="M12,1 C5.92530612,1 1,5.92530612 1,12 C1,18.0746939 5.92530612,23 12,23 C18.0746939,23 23,18.0746939 23,12 C23,5.92530612 18.0746939,1 12,1 L12,1 L12,1 L12,1 Z" id="Path" fill="#FFFFFF"></path>
                        <path d="M13.5820408,11.9902041 C13.3077551,11.9902041 13.0359184,12.244898 13.0359184,12.5559184 C13.0359184,12.8106122 13.3102041,13.0653061 13.5820408,13.0653061 C13.9934694,13.0653061 14.2873469,12.8106122 14.2873469,12.5559184 C14.2873469,12.244898 13.9934694,11.9902041 13.5820408,11.9902041 L13.5820408,11.9902041 L13.5820408,11.9902041 L13.5820408,11.9902041 Z M11.7844898,9.35020408 C12.2155102,9.35020408 12.4873469,9.07591837 12.4873469,8.6644898 C12.4873469,8.23346939 12.2130612,7.98122449 11.7844898,7.98122449 C11.3730612,7.98122449 10.9836735,8.23591837 10.9836735,8.6644898 C10.9836735,9.07591837 11.3755102,9.35020408 11.7844898,9.35020408 L11.7844898,9.35020408 L11.7844898,9.35020408 L11.7844898,9.35020408 Z M12,0 C5.37306122,0 0,5.37306122 0,12 C0,18.6269388 5.37306122,24 12,24 C18.6269388,24 24,18.6269388 24,12 C24,5.37306122 18.6269388,0 12,0 L12,0 L12,0 L12,0 Z M9.7322449,15.0391837 C9.00979592,15.0391837 8.48081633,14.9216327 7.79755102,14.7257143 L5.82367347,15.722449 L6.39183673,14.04 C5.00326531,13.0628571 4.18285714,11.8310204 4.18285714,10.324898 C4.18285714,7.66530612 6.68571429,5.63265306 9.73469388,5.63265306 C12.4334694,5.63265306 14.8383673,7.23673469 15.3061224,9.5044898 C15.1102041,9.46530612 14.9338776,9.44571429 14.7771429,9.44571429 C12.117551,9.44571429 10.0653061,11.4391837 10.0653061,13.8440816 C10.0653061,14.2555102 10.1240816,14.6253061 10.2220408,15.0171429 C10.0653061,15.0391837 9.88897959,15.0391837 9.7322449,15.0391837 L9.7322449,15.0391837 L9.7322449,15.0391837 L9.7322449,15.0391837 Z M17.884898,16.9567347 L18.2767347,18.364898 L16.7902041,17.524898 C16.2220408,17.642449 15.6759184,17.8187755 15.1077551,17.8187755 C12.4873469,17.8187755 10.4155102,16.0212245 10.4155102,13.7902041 C10.4155102,11.5616327 12.4873469,9.76163265 15.1077551,9.76163265 C17.5910204,9.76163265 19.8195918,11.5591837 19.8195918,13.7902041 C19.8195918,15.0391837 18.9795918,16.1534694 17.884898,16.9567347 L17.884898,16.9567347 L17.884898,16.9567347 L17.884898,16.9567347 Z M7.91265306,7.98122449 C7.50122449,7.98122449 7.07265306,8.23591837 7.07265306,8.6644898 C7.07265306,9.07591837 7.50367347,9.35020408 7.91265306,9.35020408 C8.3044898,9.35020408 8.6155102,9.07591837 8.6155102,8.6644898 C8.61795918,8.23591837 8.3044898,7.98122449 7.91265306,7.98122449 L7.91265306,7.98122449 L7.91265306,7.98122449 L7.91265306,7.98122449 Z M16.6530612,11.9902041 C16.3591837,11.9902041 16.1069388,12.244898 16.1069388,12.5559184 C16.1069388,12.8106122 16.3616327,13.0653061 16.6530612,13.0653061 C17.044898,13.0653061 17.3387755,12.8106122 17.3387755,12.5559184 C17.3363265,12.244898 17.044898,11.9902041 16.6530612,11.9902041 L16.6530612,11.9902041 L16.6530612,11.9902041 L16.6530612,11.9902041 Z" id="Shape" fill="#B0BEC5"></path>
                    </g>
                </g>
            </g>
        </g>
    </g>
</svg>