<?xml version="1.0" encoding="UTF-8"?>
<svg width="24px" height="24px" viewBox="0 0 24 24" version="1.1" xmlns="http://www.w3.org/2000/svg" xmlns:xlink="http://www.w3.org/1999/xlink">
    <!-- Generator: Sketch 42 (36781) - http://www.bohemiancoding.com/sketch -->
    <title>weibo</title>
    <desc>Created with Sketch.</desc>
    <defs></defs>
    <g id="VfastOnline-Unified" stroke="none" stroke-width="1" fill="none" fill-rule="evenodd">
        <g id="欢迎页" transform="translate(-1316.000000, -3553.000000)">
            <g id="底栏" transform="translate(0.000000, 3415.000000)">
                <g id="weibo" transform="translate(1316.000000, 138.000000)">
                    <path d="M12,1 C5.92530612,1 1,5.92530612 1,12 C1,18.0746939 5.92530612,23 12,23 C18.0746939,23 23,18.0746939 23,12 C23,5.92530612 18.0746939,1 12,1 L12,1 L12,1 L12,1 Z" id="Path-Copy-5" fill="#FFFFFF"></path>
                    <path d="M10.7412245,11.52 C8.34122449,11.64 6.39673469,12.9232653 6.39673469,14.52 C6.39673469,16.1412245 8.34122449,17.3412245 10.7412245,17.2212245 C13.1412245,17.1012245 15.0979592,15.602449 15.0979592,14.0057143 C15.0955102,12.3844898 13.1387755,11.4 10.7412245,11.52 L10.7412245,11.52 Z M12.36,15.5387755 C11.6155102,16.4987755 10.1755102,16.9542857 8.76,16.2 C8.09877551,15.84 8.09877551,15.12 8.09877551,15.12 C8.09877551,15.12 7.82204082,12.84 10.2220408,12.5755102 C12.6955102,12.3012245 13.1044898,14.6155102 12.36,15.5387755 L12.36,15.5387755 Z" id="Shape" fill="#2D3339"></path>
                    <path d="M12,0 C5.3755102,0 0,5.3755102 0,12 C0,18.6244898 5.3755102,24 12,24 C18.6244898,24 24,18.6244898 24,12 C24,5.3755102 18.6244898,0 12,0 L12,0 Z M17.2555102,15.0587755 C16.2612245,17.16 12.9844898,18.1787755 10.56,18 C8.2555102,17.8212245 5.28,17.04 4.98122449,14.2555102 C4.98122449,14.2555102 4.83673469,12.9942857 6.03673469,11.3387755 C6.0244898,11.3387755 7.8,8.88 9.84,8.18204082 C11.88,7.48653061 12.12,8.66204082 12.12,9.35755102 C12,9.95755102 11.8187755,10.2930612 12.5632653,10.0530612 C12.5632653,10.0530612 14.5787755,9.12979592 15.4065306,9.93306122 C16.0677551,10.5942857 15.5265306,11.517551 15.5265306,11.517551 C15.5265306,11.517551 15.2497959,11.8187755 15.8277551,11.9387755 C16.44,12.12 18.24,12.96 17.2555102,15.0587755 L17.2555102,15.0587755 Z M14.88,8.6644898 C14.6032653,8.6644898 14.3755102,8.46122449 14.3755102,8.16 C14.3755102,7.8955102 14.5787755,7.6555102 14.88,7.6555102 C16.2,7.6555102 17.28,8.7355102 17.28,10.0555102 C17.3044898,10.2 17.28,10.2587755 17.28,10.3567347 L17.28,10.3934694 L17.28,10.4302041 C17.2555102,10.6702041 17.04,10.8489796 16.8,10.8489796 C16.5355102,10.8489796 16.2955102,10.6457143 16.2955102,10.3444898 L16.2955102,10.2857143 L16.2955102,10.1069388 C16.2955102,9.30122449 15.6612245,8.6644898 14.88,8.6644898 L14.88,8.6644898 Z M19.1755102,10.7632653 C19.1755102,10.8244898 19.1755102,10.8465306 19.1510204,10.9077551 C19.0897959,11.1722449 18.8497959,11.3632653 18.5755102,11.3632653 C18.24,11.3632653 17.9755102,11.0987755 17.9755102,10.7632653 L17.9755102,10.7044898 C18,10.5257143 18.0342857,10.3077551 18.0342857,10.1412245 C18.0342857,8.40244898 16.6310204,6.99673469 14.9142857,6.99673469 C14.5910204,6.99673469 14.3142857,6.7322449 14.3142857,6.39673469 C14.3142857,6.06122449 14.5910204,5.79673469 14.9142857,5.79673469 C17.3142857,5.79673469 19.2342857,7.74122449 19.2342857,10.1167347 C19.2244898,10.3567347 19.2,10.56 19.1755102,10.7632653 L19.1755102,10.7632653 Z" id="Shape" fill="#2D3339"></path>
                </g>
            </g>
        </g>
    </g>
</svg>