<?xml version="1.0" encoding="UTF-8"?>
<svg xmlns="http://www.w3.org/2000/svg" xmlns:xlink="http://www.w3.org/1999/xlink" width="41" height="43" viewBox="0 0 41 43">
  <defs>
    <path id="万维网-b" d="M370.625,4.73384666 C370.625,2.52469356 372.421425,0.733821131 374.625026,0.733821131 L406.624974,0.733821131 C408.834128,0.733821131 410.625,2.53024589 410.625,4.73384666 L410.625,36.7337956 C410.625,38.9429487 408.828575,40.7338211 406.624974,40.7338211 L374.625026,40.7338211 C372.415872,40.7338211 370.625,38.9373964 370.625,36.7337956 L370.625,4.73384666 Z M399.475,28.8188211 C399.085,27.6188211 397.96,26.7338211 396.625,26.7338211 L395.125,26.7338211 L395.125,22.2338211 C395.125,21.4088211 394.45,20.7338211 393.625,20.7338211 L384.625,20.7338211 L384.625,17.7338211 L387.625,17.7338211 C388.45,17.7338211 389.125,17.0588211 389.125,16.2338211 L389.125,13.2338211 L392.125,13.2338211 C393.775,13.2338211 395.125,11.8838211 395.125,10.2338211 L395.125,9.61882113 C399.52,11.3888211 402.625,15.6938211 402.625,20.7338211 C402.625,23.8538211 401.425,26.6888211 399.475,28.8188211 Z M389.125,32.6288211 C383.2,31.8938211 378.625,26.8538211 378.625,20.7338211 C378.625,19.8038211 378.745,18.9038211 378.94,18.0488211 L386.125,25.2338211 L386.125,26.7338211 C386.125,28.3838211 387.475,29.7338211 389.125,29.7338211 L389.125,32.6288211 Z M390.625,5.73382113 C382.345,5.73382113 375.625,12.4538211 375.625,20.7338211 C375.625,29.0138211 382.345,35.7338211 390.625,35.7338211 C398.905,35.7338211 405.625,29.0138211 405.625,20.7338211 C405.625,12.4538211 398.905,5.73382113 390.625,5.73382113 Z"/>
    <filter id="万维网-a" width="200%" height="200%" x="-50%" y="-50%" filterUnits="objectBoundingBox">
      <feOffset dy="2" in="SourceAlpha" result="shadowOffsetOuter1"/>
      <feColorMatrix in="shadowOffsetOuter1" values="0 0 0 0 0.858823529   0 0 0 0 0.88627451   0 0 0 0 0.909803922  0 0 0 0.1 0"/>
    </filter>
  </defs>
  <g fill="none" fill-rule="evenodd" transform="translate(-370.462)">
    <use fill="#000" filter="url(#万维网-a)" xlink:href="#万维网-b"/>
    <use fill="#42A5F5" xlink:href="#万维网-b"/>
  </g>
</svg>
