<?xml version="1.0" encoding="UTF-8"?>
<svg xmlns="http://www.w3.org/2000/svg" xmlns:xlink="http://www.w3.org/1999/xlink" width="33" height="33" viewBox="0 0 33 33">
  <defs>
    <path id="地球-b" d="M404.980806,19.7030519 C413.812806,19.7030519 420.980806,26.8710519 420.980806,35.7030519 C420.980806,44.5350519 413.812806,51.7030519 404.980806,51.7030519 C396.148806,51.7030519 388.980806,44.5350519 388.980806,35.7030519 C388.980806,26.8710519 396.148806,19.7030519 404.980806,19.7030519 Z M414.420806,44.3270519 C416.500806,42.0550519 417.780806,39.0310519 417.780806,35.7030519 C417.780806,30.3270519 414.468806,25.7350519 409.780806,23.8470519 L409.780806,24.5030519 C409.780806,26.2630519 408.340806,27.7030519 406.580806,27.7030519 L403.380806,27.7030519 L403.380806,30.9030519 C403.380806,31.7830519 402.660806,32.5030519 401.780806,32.5030519 L398.580806,32.5030519 L398.580806,35.7030519 L408.180806,35.7030519 C409.060806,35.7030519 409.780806,36.4230519 409.780806,37.3030519 L409.780806,42.1030519 L411.380806,42.1030519 C412.804806,42.1030519 414.004806,43.0470519 414.420806,44.3270519 Z M403.380806,48.3910519 L403.380806,45.3030519 C401.620806,45.3030519 400.180806,43.8630519 400.180806,42.1030519 L400.180806,40.5030519 L392.516806,32.8390519 C392.308806,33.7510519 392.180806,34.7110519 392.180806,35.7030519 C392.180806,42.2310519 397.060806,47.6070519 403.380806,48.3910519 Z"/>
    <filter id="地球-a" width="106.2%" height="112.5%" x="-3.1%" y="-3.1%" filterUnits="objectBoundingBox">
      <feOffset dy="2" in="SourceAlpha" result="shadowOffsetOuter1"/>
      <feColorMatrix in="shadowOffsetOuter1" values="0 0 0 0 0.858823529   0 0 0 0 0.88627451   0 0 0 0 0.909803922  0 0 0 0.1 0"/>
    </filter>
  </defs>
  <g fill="none" fill-rule="evenodd" transform="translate(-388.605 -19.5)">
    <use fill="#000" filter="url(#地球-a)" xlink:href="#地球-b"/>
    <use fill="#BAC3CA" xlink:href="#地球-b"/>
  </g>
</svg>
