<?xml version="1.0" encoding="UTF-8"?>
<svg xmlns="http://www.w3.org/2000/svg" width="9" height="11" viewBox="0 0 9 11">
  <path fill="#5A646E" fill-rule="evenodd" d="M73.7198468,10.154 C76.2818468,10.154 77.9338468,8.684 77.9338468,5.758 L77.9338468,0.984 C77.9338468,0.508 77.5558468,0.13 77.0798468,0.13 C76.5898468,0.13 76.2118468,0.508 76.2118468,0.984 L76.2118468,5.842 C76.2118468,7.648 75.2738468,8.558 73.7478468,8.558 C72.2078468,8.558 71.2698468,7.592 71.2698468,5.772 L71.2698468,0.984 C71.2698468,0.508 70.8918468,0.13 70.4158468,0.13 C69.9258468,0.13 69.5478468,0.508 69.5478468,0.984 L69.5478468,5.842 C69.5478468,8.684 71.1718468,10.154 73.7198468,10.154 Z" transform="translate(-69 .821)"/>
</svg>
