<?xml version="1.0" encoding="UTF-8"?>
<svg xmlns="http://www.w3.org/2000/svg" width="14" height="8" viewBox="0 0 14 8">
  <path fill="#B4BEC8" fill-rule="evenodd" d="M2.47042182,0.82542182 L7,5.355 L11.5295782,0.82542182 L11.5295782,0.82542182 C11.9838381,0.371161931 12.7203389,0.371161931 13.1745988,0.82542182 C13.1755676,0.826390615 13.1765346,0.827361121 13.1775,0.828333333 L13.1775,0.828333333 L13.1775,0.828333333 C13.6322236,1.2862819 13.6309171,2.02574956 13.1745782,2.48208849 L8.41421356,7.2424531 L8.41421356,7.2424531 C7.63316498,8.02350169 6.36683502,8.02350169 5.58578644,7.2424531 L0.82542182,2.48208849 L0.82542182,2.48208849 C0.369082896,2.02574956 0.36777642,1.2862819 0.8225,0.828333333 L0.8225,0.828333333 L0.8225,0.828333333 C1.2751519,0.372471132 2.0116481,0.369868672 2.46751031,0.822520576 C2.46848252,0.823485942 2.46945302,0.824453025 2.47042182,0.82542182 Z" opacity=".99"/>
</svg>
