<?xml version="1.0" encoding="UTF-8"?>
<svg width="145" height="124" viewBox="0 0 145 124" version="1.1" xmlns="http://www.w3.org/2000/svg" xmlns:xlink="http://www.w3.org/1999/xlink">
  <g fill="none" fill-rule="evenodd" transform="translate(0 .5)">
    <path fill="#38B097" d="M65.4697777,99.9852397 C65.4697777,112.093023 55.653579,121.909222 43.5457958,121.909222 L26.352937,121.909222 C14.2451538,121.909222 4.43009317,112.093023 4.43009317,99.9852397 L4.43009317,98.4345648 C4.43009317,86.3279197 14.2451538,76.5117209 26.352937,76.5117209 L43.5457958,76.5117209 C55.653579,76.5117209 65.4697777,86.3279197 65.4697777,98.4345648 L65.4697777,99.9852397"/>
    <path fill="#DBA07C" d="M45.1306139,81.0328629 C45.1363045,87.8319321 34.9598939,94.5792172 34.9598939,94.5792172 C34.9598939,94.5792172 24.7738094,87.8461584 24.7681189,81.0476584 C24.7635664,74.2485892 29.1384613,72.4503754 34.9411151,72.446392 C40.7426308,72.4418396 45.1260615,74.2343628 45.1306139,81.0328629"/>
    <path fill="#F1AD85" d="M43.6300159,79.2215609 C43.6300159,84.0152802 39.7433702,87.9007877 34.95022,87.9007877 C30.1565007,87.9007877 26.269855,84.0152802 26.269855,79.2215609 L26.269855,65.6706541 C26.269855,60.8769348 30.1565007,56.9908582 34.95022,56.9908582 C39.7433702,56.9908582 43.6300159,60.8769348 43.6300159,65.6706541 L43.6300159,79.2215609"/>
    <polyline fill="#BDBEBA" points="30.37 86.589 34.96 94.579 25.228 88.681 30.37 86.589"/>
    <polyline fill="#F5F4F0" points="26.27 73.764 20.578 77.282 23.425 95.6 30.37 86.589 26.27 73.764"/>
    <polyline fill="#BDBEBA" points="39.54 86.589 34.95 94.579 44.682 88.681 39.54 86.589"/>
    <polyline fill="#F5F4F0" points="43.64 73.764 49.332 77.282 46.487 95.6 39.54 86.589 43.64 73.764"/>
    <path fill="#DBA07C" d="M34.95022,56.9908582 C30.1565007,56.9908582 26.269855,60.8769348 26.269855,65.6706541 L26.269855,73.0228447 C28.7714208,73.9043109 31.7504237,74.4187367 34.95022,74.4187367 C38.1500162,74.4187367 41.127312,73.9043109 43.6300159,73.0228447 L43.6300159,65.6706541 C43.6300159,60.8769348 39.7433702,56.9908582 34.95022,56.9908582"/>
    <path fill="#F1AD85" d="M73.5145083,39.8418168 C73.5145083,43.5668508 70.4945334,46.5868257 66.7694993,46.5868257 C63.0450344,46.5868257 60.0250595,43.5668508 60.0250595,39.8418168 C60.0250595,36.1162137 63.0450344,33.0968078 66.7694993,33.0968078 C70.4945334,33.0968078 73.5145083,36.1162137 73.5145083,39.8418168"/>
    <path fill="#F1AD85" d="M64.4574289,39.8418168 C64.4574289,57.640719 50.0290394,72.0691086 32.2301371,72.0691086 C14.4318039,72.0691086 0.002845275,57.640719 0.002845275,39.8418168 C0.002845275,22.0429145 14.4318039,7.61452495 32.2301371,7.61452495 C50.0290394,7.61452495 64.4574289,22.0429145 64.4574289,39.8418168"/>
    <path stroke="#F6C3A0" stroke-linecap="round" stroke-linejoin="round" stroke-width="6" d="M27.57356,11.4175195 C18.6319988,12.871455 11.070965,18.4368129 6.90092998,26.1156411"/>
    <path fill="#49291D" d="M0.002845275,41.644583 L0.002845275,51.2855128 C0.002845275,69.083846 14.432942,83.5128046 32.2301371,83.5128046 C50.0301775,83.5128046 64.4574289,69.083846 64.4574289,51.2855128 L64.4574289,41.644583 L0.002845275,41.644583"/>
    <path fill="#49291D" d="M61.2587707,45.6769067 C61.2587707,46.5600801 61.97578,47.2759513 62.8595224,47.2759513 C63.7415577,47.2759513 64.4574289,46.5600801 64.4574289,45.6769067 L64.4574289,35.2370237 C64.4574289,34.3538503 63.7415577,33.6374101 62.8595224,33.6374101 C61.97578,33.6374101 61.2587707,34.3538503 61.2587707,35.2370237 L61.2587707,45.6769067"/>
    <path fill="#FFF" d="M46.6465764,45.948346 C46.6465764,54.7402457 39.5191626,61.8687977 30.7278319,61.8687977 C21.934794,61.8687977 14.8073802,54.7402457 14.8073802,45.948346 L46.6465764,45.948346"/>
    <path fill="#181B1A" d="M15.064024 31.7777384C13.0700552 31.7777384 11.45337 33.3949927 11.45337 35.3889614 11.45337 37.382361 13.0700552 38.9990463 15.064024 38.9990463 17.0579927 38.9990463 18.6741089 37.382361 18.6741089 35.3889614 18.6741089 33.3949927 17.0579927 31.7777384 15.064024 31.7777384M44.5217251 31.7777384C42.5266182 31.7777384 40.910502 33.3949927 40.910502 35.3889614 40.910502 37.382361 42.5266182 38.9990463 44.5217251 38.9990463 46.5145557 38.9990463 48.13181 37.382361 48.13181 35.3889614 48.13181 33.3949927 46.5145557 31.7777384 44.5217251 31.7777384"/>
    <polygon fill="#59171E" points="77.555 98.435 144.486 98.435 144.486 34.16 77.555 34.16"/>
    <path fill="#131615" d="M141.991858,101.496081 C141.991858,113.602726 132.176228,123.420063 120.068445,123.420063 L102.875586,123.420063 C90.7678027,123.420063 80.952173,113.602726 80.952173,101.496081 L80.952173,99.9454058 C80.952173,87.8376226 90.7678027,78.022562 102.875586,78.022562 L120.068445,78.022562 C132.176228,78.022562 141.991858,87.8376226 141.991858,99.9454058 L141.991858,101.496081"/>
    <path fill="#494C4A" d="M142.00267,101.496081 C142.00267,113.603864 132.187609,123.420063 120.079826,123.420063 L102.886967,123.420063 C90.7786148,123.420063 80.9635541,113.603864 80.9635541,101.496081 L80.9635541,99.9454058 C80.9635541,87.8376226 90.7786148,78.022562 102.886967,78.022562 L120.079826,78.022562 C132.187609,78.022562 142.00267,87.8376226 142.00267,99.9454058 L142.00267,101.496081"/>
    <path fill="#494C4A" d="M142.00267,101.496081 C142.00267,113.603864 132.187609,123.420063 120.079826,123.420063 L102.886967,123.420063 C90.7786148,123.420063 80.9635541,113.603864 80.9635541,101.496081 L80.9635541,99.9454058 C80.9635541,87.8376226 90.7786148,78.022562 102.886967,78.022562 L120.079826,78.022562 C132.187609,78.022562 142.00267,87.8376226 142.00267,99.9454058 L142.00267,101.496081"/>
    <path fill="#3A3D3B" d="M120.079826,78.022562 L111.493924,78.022562 L111.493924,123.420063 L120.079826,123.420063 C132.187609,123.420063 142.00267,113.603864 142.00267,101.496081 L142.00267,99.9454058 C142.00267,87.8376226 132.187609,78.022562 120.079826,78.022562"/>
    <path fill="#F5F4F0" d="M121.664075,82.5437039 C121.669196,89.341635 111.493924,115.795864 111.493924,115.795864 C111.493924,115.795864 101.30727,89.3569995 101.30158,82.5584994 C101.297027,75.7588612 105.672491,73.9600783 111.474007,73.9572331 C117.276661,73.9515425 121.659522,75.7440658 121.664075,82.5437039"/>
    <path fill="#DBA07C" d="M121.653263,82.5437039 C121.658384,89.341635 111.483112,92.7525506 111.483112,92.7525506 C111.483112,92.7525506 101.295889,89.3569995 101.290768,82.5584994 C101.285077,75.7588612 105.66111,73.9600783 111.463195,73.9572331 C117.26528,73.9515425 121.648141,75.7440658 121.653263,82.5437039"/>
    <path fill="#F1AD85" d="M120.152096,80.7312638 C120.152096,85.5261212 116.266019,89.4116287 111.4723,89.4116287 C106.678581,89.4116287 102.791935,85.5261212 102.791935,80.7312638 L102.791935,67.1814952 C102.791935,62.3872068 106.678581,58.5016993 111.4723,58.5016993 C116.266019,58.5016993 120.152096,62.3872068 120.152096,67.1814952 L120.152096,80.7312638"/>
    <polyline fill="#BDBEBA" points="111.477 88.099 111.483 92.753 101.751 90.191 111.477 88.099"/>
    <polyline fill="#959995" points="111.477 88.099 111.472 92.753 121.204 90.191 111.477 88.099"/>
    <polyline fill="#38B097" points="108.653 110.219 111.494 115.796 114.318 110.235 112.896 89.885 110.071 89.885 108.653 110.219"/>
    <polyline fill="#131615" points="105.917 99.349 103.133 99.807 97.334 103.524 111.494 115.796 105.917 99.349"/>
    <polyline fill="#120908" points="109.602 110.219 94.399 93.398 99.936 81.713 109.602 110.219"/>
    <polyline fill="#131615" points="117.061 99.349 119.845 99.807 125.643 103.524 111.483 115.796 117.061 99.349"/>
    <polyline fill="#120908" points="113.374 110.219 128.579 93.398 123.042 81.713 113.374 110.219"/>
    <polyline fill="#BDBEBA" points="108.977 84.702 111.494 88.433 101.988 86.192 108.977 84.702"/>
    <polyline fill="#1B5668" points="107.261 84.197 111.494 88.433 102.507 85.208 107.261 84.197"/>
    <polyline fill="#959995" points="114 84.702 111.484 88.433 120.99 86.192 114 84.702"/>
    <polyline fill="#1B5668" points="115.717 84.197 111.483 88.433 120.47 85.208 115.717 84.197"/>
    <path fill="#2B7767" d="M115.19961,88.4334232 C115.19961,90.479745 113.540815,92.1391094 111.493924,92.1391094 C109.447033,92.1391094 107.788238,90.479745 107.788238,88.4334232 C107.788238,86.3859633 109.447033,88.0988189 111.493924,88.0988189 C113.540815,88.0988189 115.19961,86.3859633 115.19961,88.4334232"/>
    <path fill="#DBA07C" d="M111.4723,58.5016993 C106.678581,58.5016993 102.791935,62.3872068 102.791935,67.1814952 L102.791935,74.5336858 C105.29407,75.415152 108.273073,75.9284396 111.4723,75.9284396 C114.671527,75.9284396 117.649961,75.415152 120.152096,74.5336858 L120.152096,67.1814952 C120.152096,62.3872068 116.266019,58.5016993 111.4723,58.5016993"/>
    <path fill="#F1AD85" d="M140.980647,41.3515197 C140.980647,59.150422 126.551119,73.5788115 108.752786,73.5788115 C90.9538837,73.5788115 76.5260632,59.150422 76.5260632,41.3515197 C76.5260632,23.5531864 90.9538837,9.12479692 108.752786,9.12479692 C126.551119,9.12479692 140.980647,23.5531864 140.980647,41.3515197"/>
    <path fill="#FFF" d="M123.169225,48.8414216 C123.169225,57.6333213 116.041811,64.7618733 107.249343,64.7618733 C98.4574429,64.7618733 91.3300291,57.6333213 91.3300291,48.8414216 L123.169225,48.8414216"/>
    <path fill="#181B1A" d="M91.5861038 37.8222406C89.5921351 37.8222406 87.9760189 39.4383568 87.9760189 41.4328945 87.9760189 43.4268633 89.5921351 45.0429795 91.5861038 45.0429795 93.5800725 45.0429795 95.1967578 43.4268633 95.1967578 41.4328945 95.1967578 39.4383568 93.5800725 37.8222406 91.5861038 37.8222406M121.043236 37.8222406C119.049267 37.8222406 117.432582 39.4383568 117.432582 41.4328945 117.432582 43.4268633 119.049267 45.0429795 121.043236 45.0429795 123.037205 45.0429795 124.65389 43.4268633 124.65389 41.4328945 124.65389 39.4383568 123.037205 37.8222406 121.043236 37.8222406"/>
    <polyline fill="#F5F4F0" points="102.792 75.274 97.1 78.793 91.677 97.11 111.477 88.099 102.792 75.274"/>
    <polyline fill="#EAEAE5" points="120.163 75.274 125.855 78.793 131.28 97.11 111.477 88.099 120.163 75.274"/>
    <path fill="#7F1E28" d="M116.338289,24.6508935 C116.338289,24.6508935 118.545653,29.9818008 128.1587,35.157356 C131.998683,37.2247328 144.486026,35.157356 144.486026,35.157356 C144.486026,15.9682524 128.929769,0.41199582 109.739527,0.41199582 C90.5509928,0.41199582 74.9947362,15.9682524 74.9947362,35.157356 C74.9947362,35.157356 87.0609785,35.8476197 99.7042424,32.2363967 C106.886855,30.1855225 116.338289,24.6508935 116.338289,24.6508935"/>
    <polyline fill="#7F1E28" points="132.134 95.787 144.486 98.435 144.486 35.157 132.134 35.157 132.134 95.787"/>
  </g>
</svg>
