<?xml version="1.0" encoding="UTF-8"?>
<svg xmlns="http://www.w3.org/2000/svg" width="20" height="21" viewBox="0 0 20 21">
  <path fill="#B4BEC8" d="M238,21.8581624 C232.48,21.8581624 228,26.3381624 228,31.8581624 C228,36.2781624 230.87,40.0281624 234.84,41.3581624 C235.34,41.4381624 235.5,41.1281624 235.5,40.8581624 L235.5,39.1681624 C232.73,39.7681624 232.14,37.8281624 232.14,37.8281624 C231.68,36.6681624 231.03,36.3581624 231.03,36.3581624 C230.12,35.7381624 231.1,35.7581624 231.1,35.7581624 C232.1,35.8281624 232.63,36.7881624 232.63,36.7881624 C233.5,38.3081624 234.97,37.8581624 235.54,37.6181624 C235.63,36.9681624 235.89,36.5281624 236.17,36.2781624 C233.95,36.0281624 231.62,35.1681624 231.62,31.3581624 C231.62,30.2481624 232,29.3581624 232.65,28.6481624 C232.55,28.3981624 232.2,27.3581624 232.75,26.0081624 C232.75,26.0081624 233.59,25.7381624 235.5,27.0281624 C236.29,26.8081624 237.15,26.6981624 238,26.6981624 C238.85,26.6981624 239.71,26.8081624 240.5,27.0281624 C242.41,25.7381624 243.25,26.0081624 243.25,26.0081624 C243.8,27.3581624 243.45,28.3981624 243.35,28.6481624 C244,29.3581624 244.38,30.2481624 244.38,31.3581624 C244.38,35.1781624 242.04,36.0181624 239.81,36.2681624 C240.17,36.5781624 240.5,37.1881624 240.5,38.1181624 L240.5,40.8581624 C240.5,41.1281624 240.66,41.4481624 241.17,41.3581624 C245.14,40.0181624 248,36.2781624 248,31.8581624 C248,26.3381624 243.52,21.8581624 238,21.8581624 Z" transform="translate(-228 -21)"/>
</svg>
