<?xml version="1.0" encoding="UTF-8"?>
<svg xmlns="http://www.w3.org/2000/svg" width="12" height="9" viewBox="0 0 12 9">
  <path fill="#5ACD91" d="M6.7120617,7.92886832 L4.10422833,10.5302626 L2.92909354,9.35834735 C1.57044455,8.00613745 1.5736641,8.009357 1.09395154,8.00613745 C0.865363675,8.00613745 0.791314085,8.01901564 0.639995359,8.08984569 C0.414627043,8.19609075 0.221454201,8.3828245 0.108770043,8.60819281 C-0.0167923046,8.85287841 -0.0361095888,9.21668727 0.0636963797,9.48712924 C0.131306874,9.67064344 0.215015106,9.76079077 1.79581286,11.3448081 C3.68568717,13.2379019 3.61807668,13.1863892 4.10422833,13.1863892 C4.60003862,13.1896087 4.36179212,13.3988793 7.78095142,9.97650044 C11.1518175,6.6024148 10.977962,6.79880719 11.0037183,6.33197282 C11.013377,6.1194827 11.0037183,6.03899401 10.9425469,5.88123619 C10.8459605,5.62045285 10.5819576,5.35323042 10.3243938,5.25986355 C10.0797082,5.16649667 9.74165577,5.16649667 9.49697017,5.25986355 C9.33277326,5.32103495 9.12672223,5.51742734 6.7120617,7.92886832 Z" transform="translate(.5 -4.31)"/>
</svg>
