<?xml version="1.0" standalone="no"?><!DOCTYPE svg PUBLIC "-//W3C//DTD SVG 1.1//EN" "http://www.w3.org/Graphics/SVG/1.1/DTD/svg11.dtd"><svg t="1507874503668" class="icon" style="" viewBox="0 0 1024 1024" version="1.1" xmlns="http://www.w3.org/2000/svg" p-id="1259" xmlns:xlink="http://www.w3.org/1999/xlink" width="25" height="25"><defs><style type="text/css"></style></defs><path d="M512.250198 275.745205 222.786551 82.22777c-12.839423-8.646937-30.034037-4.838192-38.35147 8.538467-8.308223 13.367449-4.652973 31.248701 8.208962 39.894615l243.209184 163.912164L179.268408 294.573015c-61.249993 0-110.916159 48.632627-110.916159 108.637256l0 434.55721c0 59.995419 49.665143 108.635209 110.916159 108.635209l665.4683 0c61.254086 0 110.911042-48.63979 110.911042-108.635209l0-434.55721c0-60.004629-49.655933-108.637256-110.911042-108.637256L588.149842 294.573015l243.210207-163.912164c12.860912-8.645914 16.517185-26.527167 8.198729-39.894615-8.308223-13.376659-25.501814-17.185404-38.341237-8.538467C801.217543 82.22777 534.751678 262.422781 512.250198 275.745205zM817.01125 837.767482 706.101231 837.767482c-15.32708 0-27.732621-12.149714-27.732621-27.169803 0-15.008832 12.405541-27.149337 27.732621-27.149337L817.01125 783.448342c15.328104 0 27.724435 12.140505 27.724435 27.149337C844.735685 825.617767 832.339354 837.767482 817.01125 837.767482zM817.01125 756.279562 706.101231 756.279562c-15.32708 0-27.732621-12.139481-27.732621-27.149337 0-15.020088 12.405541-27.16878 27.732621-27.16878L817.01125 701.961446c15.328104 0 27.724435 12.148691 27.724435 27.16878C844.735685 744.140081 832.339354 756.279562 817.01125 756.279562zM761.556241 566.165644c-45.959751 0-83.187631-36.491099-83.187631-81.477686s37.227879-81.477686 83.187631-81.477686c45.946448 0 83.179444 36.492122 83.179444 81.477686S807.502689 566.165644 761.556241 566.165644zM567.456544 837.767482 234.723418 837.767482c-30.630624 0-55.456033-24.326035-55.456033-54.31914L179.267385 457.528388c0-30.002314 24.825408-54.318116 55.456033-54.318116l332.733127 0c30.621415 0 55.45501 24.315802 55.45501 54.318116l0 325.919954C622.912577 813.440423 598.077959 837.767482 567.456544 837.767482z" fill="#ffffff" p-id="1260"></path></svg>