<?xml version="1.0" encoding="UTF-8"?>
<svg width="16px" height="22px" viewBox="0 0 16 22" version="1.1" xmlns="http://www.w3.org/2000/svg" xmlns:xlink="http://www.w3.org/1999/xlink">
    <!-- Generator: Sketch 42 (36781) - http://www.bohemiancoding.com/sketch -->
    <title>Shape</title>
    <desc>Created with Sketch.</desc>
    <defs></defs>
    <g id="VfastOnline-Unified" stroke="none" stroke-width="1" fill="none" fill-rule="evenodd">
        <g id="SignUp2" transform="translate(-251.000000, -610.000000)" fill="#FFFFFF">
            <path d="M259,626.538347 C260.1,626.538347 261,625.638347 261,624.538347 C261,623.428347 260.1,622.538347 259,622.538347 C257.9,622.538347 257,623.438347 257,624.538347 C257,625.638347 257.9,626.538347 259,626.538347 L259,626.538347 Z M265,617.538347 C266.1,617.538347 267,618.438347 267,619.538347 L267,629.538347 C267,630.638347 266.1,631.538347 265,631.538347 L253,631.538347 C251.9,631.538347 251,630.638347 251,629.538347 L251,619.538347 C251,618.428347 251.9,617.538347 253,617.538347 L254,617.538347 L254,615.538347 C254,612.778347 256.24,610.538347 259,610.538347 C261.76,610.538347 264,612.778347 264,615.538347 L264,617.538347 L265,617.538347 L265,617.538347 Z M259,612.538347 C257.34,612.538347 256,613.878347 256,615.538347 L256,617.538347 L262,617.538347 L262,615.538347 C262,613.878347 260.66,612.538347 259,612.538347 Z" id="Shape"></path>
        </g>
    </g>
</svg>