<svg width="26" height="26" viewBox="0 0 26 26" version="1.1" xmlns="http://www.w3.org/2000/svg" xmlns:xlink="http://www.w3.org/1999/xlink">
  <path fill="#7C828C" fill-rule="evenodd" d="M93,307 C85.8202983,307 80,301.179702 80,294 C80,286.820298 85.8202983,281 93,281 C100.179702,281 106,286.820298 106,294 C106,301.179702 100.179702,307 93,307 Z M103.40287,286.202554 L99.7299213,288.937738 L93.0005095,293.94902 L99.7299213,298.960301 L103.451762,301.731894 C105.052996,299.570963 106,296.896074 106,294 C106,291.074571 105.033701,288.374834 103.40287,286.202554 Z M94.8352941,288.035294 C95.764432,288.035294 96.5176471,287.282079 96.5176471,286.352941 C96.5176471,285.423803 95.764432,284.670588 94.8352941,284.670588 C93.9061562,284.670588 93.1529412,285.423803 93.1529412,286.352941 C93.1529412,287.282079 93.9061562,288.035294 94.8352941,288.035294 Z" transform="translate(-80 -281)"/>
</svg>
