<?xml version="1.0" encoding="UTF-8"?>
<svg xmlns="http://www.w3.org/2000/svg" width="23" height="15" viewBox="0 0 23 15">
  <path fill="#5A646E" d="M52.8984392,37.2850037 C52.6084392,37.2850037 52.2784392,37.2850037 51.9284392,37.3350037 C53.0884392,38.1750037 53.8984392,39.2850037 53.8984392,40.7850037 L53.8984392,43.2850037 L59.8984392,43.2850037 L59.8984392,40.7850037 C59.8984392,38.4550037 55.2284392,37.2850037 52.8984392,37.2850037 L52.8984392,37.2850037 Z M44.8984392,37.2850037 C42.5684392,37.2850037 37.8984392,38.4550037 37.8984392,40.7850037 L37.8984392,43.2850037 L51.8984392,43.2850037 L51.8984392,40.7850037 C51.8984392,38.4550037 47.2284392,37.2850037 44.8984392,37.2850037 L44.8984392,37.2850037 Z M44.8984392,35.2850037 C46.5584392,35.2850037 47.8984392,33.9450037 47.8984392,32.2850037 C47.8984392,30.6250037 46.5584392,29.2850037 44.8984392,29.2850037 C43.2384392,29.2850037 41.8984392,30.6250037 41.8984392,32.2850037 C41.8984392,33.9450037 43.2384392,35.2850037 44.8984392,35.2850037 L44.8984392,35.2850037 Z M52.8984392,35.2850037 C54.5584392,35.2850037 55.8984392,33.9450037 55.8984392,32.2850037 C55.8984392,30.6250037 54.5584392,29.2850037 52.8984392,29.2850037 C51.2384392,29.2850037 49.8984392,30.6250037 49.8984392,32.2850037 C49.8984392,33.9450037 51.2384392,35.2850037 52.8984392,35.2850037 Z" transform="translate(-37 -29)"/>
</svg>
