<svg xmlns:xlink="http://www.w3.org/1999/xlink" width="176" height="113" viewBox="0 0 176 113">
  <defs>
    <path id="金币-a" d="M55,110 C85.3757,110 110,85.3757 110,55 C110,24.6243 85.3757,0 55,0 C24.6243,0 0,24.6243 0,55 C0,85.3757 24.6243,110 55,110 Z"/>
  </defs>
  <g fill="none" fill-rule="evenodd" transform="translate(-.5 -.075)">
    <g transform="translate(41 3)">
      <mask id="金币-b" fill="#fff">
        <use xlink:href="#金币-a"/>
      </mask>
      <use fill="#FFF59D" fill-rule="nonzero" xlink:href="#金币-a"/>
      <rect width="65.5" height="129" x="45.63" y="-33.655" fill="#FFE082" mask="url(#金币-b)" transform="rotate(-35 78.38 30.845)"/>
    </g>
    <path fill="#FFCA28" fill-rule="nonzero" d="M96,101.922533 C120.257776,101.922533 139.922533,82.2577759 139.922533,58 C139.922533,33.7422241 120.257776,14.0774674 96,14.0774674 C71.7422241,14.0774674 52.0774674,33.7422241 52.0774674,58 C52.0774674,82.2577759 71.7422241,101.922533 96,101.922533 Z"/>
    <g fill="#37474F" transform="translate(70.5 52)">
      <circle cx="7" cy="6.575" r="6.5"/>
      <circle cx="43.896" cy="6.575" r="6.5"/>
    </g>
    <path stroke="#37474F" stroke-linecap="round" stroke-linejoin="round" stroke-width="5" d="M85.2444117,74.1007811 C85.2444117,74.1007811 88.4760186,79.1007811 96,79.1007811 C103.523981,79.1007811 106.755588,74.1007811 106.755588,74.1007811 L85.2444117,74.1007811 Z"/>
    <ellipse cx="96" cy="77.667" fill="#FF8A65" rx="6.409" ry="2.566"/>
    <path fill="#EF6C00" fill-rule="nonzero" d="M154.5,48.0749969 C154.5,48.6272769 154.05228,49.0749969 153.5,49.0749969 C152.947715,49.0749969 152.5,48.6272769 152.5,48.0749969 C152.5,47.5227119 152.947715,47.0749969 153.5,47.0749969 C154.05228,47.0749969 154.5,47.5227119 154.5,48.0749969 Z"/>
    <path fill="#FFE84C" fill-rule="nonzero" d="M176.5 38.5749969C176.5 39.4034269 175.82843 40.0749969 175 40.0749969 174.171573 40.0749969 173.5 39.4034269 173.5 38.5749969 173.5 37.7465699 174.171573 37.0749969 175 37.0749969 175.82843 37.0749969 176.5 37.7465699 176.5 38.5749969zM3.5 49.5749969C3.5 50.4034269 2.82843 51.0749969 2 51.0749969 1.171573 51.0749969.5 50.4034269.5 49.5749969.5 48.7465699 1.171573 48.0749969 2 48.0749969 2.82843 48.0749969 3.5 48.7465699 3.5 49.5749969zM158.5 30.0749969C158.5 30.6272769 158.05228 31.0749969 157.5 31.0749969 156.947715 31.0749969 156.5 30.6272769 156.5 30.0749969 156.5 29.5227119 156.947715 29.0749969 157.5 29.0749969 158.05228 29.0749969 158.5 29.5227119 158.5 30.0749969z"/>
    <path fill="#EF6C00" fill-rule="nonzero" d="M133.5 4.07499695C133.5 4.62727695 133.05228 5.07499695 132.5 5.07499695 131.947715 5.07499695 131.5 4.62727695 131.5 4.07499695 131.5 3.52271195 131.947715 3.07499695 132.5 3.07499695 133.05228 3.07499695 133.5 3.52271195 133.5 4.07499695zM41.165 25.0749969C41.165 25.6272769 40.71728 26.0749969 40.165 26.0749969 39.612715 26.0749969 39.165 25.6272769 39.165 25.0749969 39.165 24.5227119 39.612715 24.0749969 40.165 24.0749969 40.71728 24.0749969 41.165 24.5227119 41.165 25.0749969zM34.265 3.88499695C33.712715 3.88499695 33.265 4.33271195 33.265 4.88499695 33.265 5.43728195 33.712715 5.88499695 34.265 5.88499695L34.265 3.88499695zM41.19833 5.88499695C41.75062 5.88499695 42.19833 5.43728195 42.19833 4.88499695 42.19833 4.33271195 41.75062 3.88499695 41.19833 3.88499695L41.19833 5.88499695zM34.265 5.88499695L41.19833 5.88499695 41.19833 3.88499695 34.265 3.88499695 34.265 5.88499695z"/>
    <path fill="#EF6C00" fill-rule="nonzero" d="M38.499 1.03699695C38.499.484711948 38.051285.0369969482 37.499.0369969482 36.946715.0369969482 36.499.484711948 36.499 1.03699695L38.499 1.03699695zM36.499 8.96080695C36.499 9.51308695 36.946715 9.96080695 37.499 9.96080695 38.051285 9.96080695 38.499 9.51308695 38.499 8.96080695L36.499 8.96080695zM36.499 1.03699695L36.499 8.96080695 38.499 8.96080695 38.499 1.03699695 36.499 1.03699695zM30.043 46.0039969C29.766858 46.0039969 29.543 46.2278549 29.543 46.5039969 29.543 46.7801389 29.766858 47.0039969 30.043 47.0039969L30.043 46.0039969zM33.01443 47.0039969C33.29057 47.0039969 33.51443 46.7801389 33.51443 46.5039969 33.51443 46.2278549 33.29057 46.0039969 33.01443 46.0039969L33.01443 47.0039969zM30.043 47.0039969L33.01443 47.0039969 33.01443 46.0039969 30.043 46.0039969 30.043 47.0039969z"/>
    <path fill="#EF6C00" fill-rule="nonzero" d="M31.929,45.0609969 C31.929,44.7848549 31.705142,44.5609969 31.429,44.5609969 C31.152858,44.5609969 30.929,44.7848549 30.929,45.0609969 L31.929,45.0609969 Z M30.929,48.0324269 C30.929,48.3085669 31.152858,48.5324269 31.429,48.5324269 C31.705142,48.5324269 31.929,48.3085669 31.929,48.0324269 L30.929,48.0324269 Z M30.929,45.0609969 L30.929,48.0324269 L31.929,48.0324269 L31.929,45.0609969 L30.929,45.0609969 Z"/>
    <path fill="#FFE84C" fill-rule="nonzero" d="M18.52,37.4149969 C19.84548,37.4149969 20.92,36.3404769 20.92,35.0149969 L19.92,35.0149969 C19.92,35.7881969 19.2932,36.4149969 18.52,36.4149969 L18.52,37.4149969 Z M20.92,35.0149969 C20.92,33.6895139 19.84548,32.6149969 18.52,32.6149969 L18.52,33.6149969 C19.2932,33.6149969 19.92,34.2417969 19.92,35.0149969 L20.92,35.0149969 Z M18.52,32.6149969 C17.194517,32.6149969 16.12,33.6895139 16.12,35.0149969 L17.12,35.0149969 C17.12,34.2417969 17.7468,33.6149969 18.52,33.6149969 L18.52,32.6149969 Z M16.12,35.0149969 C16.12,36.3404769 17.194517,37.4149969 18.52,37.4149969 L18.52,36.4149969 C17.7468,36.4149969 17.12,35.7881969 17.12,35.0149969 L16.12,35.0149969 Z"/>
  </g>
</svg>
