<svg xmlns:xlink="http://www.w3.org/1999/xlink" width="45" height="48" viewBox="0 0 45 48">
  <defs>
    <circle id="锁-b" cx="22.5" cy="22.5" r="22.5"/>
    <filter id="锁-a" width="200%" height="200%" x="-50%" y="-50%" filterUnits="objectBoundingBox">
      <feOffset dy="2" in="SourceAlpha" result="shadowOffsetOuter1"/>
      <feColorMatrix in="shadowOffsetOuter1" values="0 0 0 0 0   0 0 0 0 0   0 0 0 0 0  0 0 0 0.1 0"/>
    </filter>
  </defs>
  <g fill="none" fill-rule="evenodd" transform="translate(0 .936)">
    <use fill="#000" filter="url(#锁-a)" xlink:href="#锁-b"/>
    <use fill="#5A646E" xlink:href="#锁-b"/>
    <path fill="#FFF" d="M22.5,28 C23.6,28 24.5,27.1 24.5,26 C24.5,24.89 23.6,24 22.5,24 C21.4,24 20.5,24.9 20.5,26 C20.5,27.1 21.4,28 22.5,28 L22.5,28 Z M28.5,19 C29.6,19 30.5,19.9 30.5,21 L30.5,31 C30.5,32.1 29.6,33 28.5,33 L16.5,33 C15.4,33 14.5,32.1 14.5,31 L14.5,21 C14.5,19.89 15.4,19 16.5,19 L17.5,19 L17.5,17 C17.5,14.24 19.74,12 22.5,12 C25.26,12 27.5,14.24 27.5,17 L27.5,19 L28.5,19 L28.5,19 Z M22.5,14 C20.84,14 19.5,15.34 19.5,17 L19.5,19 L25.5,19 L25.5,17 C25.5,15.34 24.16,14 22.5,14 Z"/>
  </g>
</svg>
