<?xml version="1.0" encoding="UTF-8"?>
<svg width="1040px" height="297px" viewBox="0 0 1040 297" version="1.1" xmlns="http://www.w3.org/2000/svg" xmlns:xlink="http://www.w3.org/1999/xlink">
    <!-- Generator: Sketch 42 (36781) - http://www.bohemiancoding.com/sketch -->
    <title>首页顶图</title>
    <desc>Created with Sketch.</desc>
    <defs>
        <path d="M965.4575,134 C988.96,134 1008,153.04 1008,176.5 C1008,199.96 988.96,219 965.4575,219 C941.9975,219 923,199.96 923,176.5 C923,153.04 941.9975,134 965.4575,134 Z M965.7175,202.875 C975.62,202.875 984.035,196.67 987.435,188 L944,188 C947.4,196.67 955.815,202.875 965.7175,202.875 Z M951.24,169.745 L955.745,174.25 L960.25,169.745 L951.24,160.735 L942.23,169.745 L946.735,174.25 L951.24,169.745 Z M970.75,169.745 L975.255,174.25 L979.76,169.745 L984.265,174.25 L988.77,169.745 L979.76,160.735 L970.75,169.745 Z" id="path-1"></path>
        <filter x="-50%" y="-50%" width="200%" height="200%" filterUnits="objectBoundingBox" id="filter-2">
            <feOffset dx="2" dy="2" in="SourceAlpha" result="shadowOffsetOuter1"></feOffset>
            <feGaussianBlur stdDeviation="0.5" in="shadowOffsetOuter1" result="shadowBlurOuter1"></feGaussianBlur>
            <feColorMatrix values="0 0 0 0 0   0 0 0 0 0   0 0 0 0 0  0 0 0 0.25 0" type="matrix" in="shadowBlurOuter1"></feColorMatrix>
        </filter>
        <path d="M1013.007,210.432756 C1013.33221,210.273595 1013.64426,210.096687 1013.9489,209.902462 C1014.58119,210.475479 1014.87857,211.0637 1014.86049,211.55874 C1014.88463,212.362761 1014.08781,213.40842 1012.39279,214.212324 C1010.73037,215.020879 1008.34854,215.539604 1005.70798,215.539604 C1004.59794,215.539604 1003.54131,215.442785 1002.56313,215.283741 C1003.26309,214.561216 1003.70688,213.705324 1003.72872,212.705671 C1003.71686,212.376637 1003.65504,212.079614 1003.5668,211.783723 C1004.26219,211.860375 1004.97891,211.892152 1005.70802,211.892152 C1008.52746,211.892152 1011.08704,211.347513 1013.007,210.432756 Z M1002.16408,212.212783 L1002.16392,212.212237 C1002.18324,212.268835 1002.20625,212.317185 1002.21227,212.364325 C1002.23917,212.490536 1002.25352,212.597948 1002.25352,212.705125 C1002.25352,212.793502 1002.24738,212.8843 1002.2293,212.972559 C1002.22197,213.026733 1002.20745,213.070354 1002.19419,213.112764 C1002.17975,213.158731 1002.16272,213.21181 1002.14463,213.256643 C1002.12182,213.311952 1002.09749,213.380471 1002.0661,213.439376 C1002.05768,213.464157 1002.03467,213.496053 1002.01775,213.526657 C1001.67679,214.152676 1000.94047,214.806877 999.785818,215.363283 C998.123634,216.170822 995.738078,216.685989 993.095028,216.685989 C990.456869,216.685989 988.07007,216.171916 986.402874,215.363283 C985.042844,214.713771 984.265271,213.905099 984.0271,213.196645 C984.016196,213.149428 983.999238,213.11894 983.991982,213.081143 C983.979795,213.04229 983.970213,212.996245 983.965443,212.959699 C983.948365,212.874723 983.936338,212.781502 983.942351,212.703834 C983.930244,212.207663 984.221694,211.617018 984.857591,211.046425 C985.156256,211.238734 985.466989,211.404775 985.79945,211.572224 C986.067768,211.703048 986.341177,211.820974 986.636114,211.931787 C986.665139,211.944685 986.698934,211.95301 986.734052,211.960086 C987.003693,212.073243 987.279307,212.161735 987.563421,212.255974 C987.583746,212.257147 987.60339,212.266528 987.617742,212.266528 C988.242975,212.459892 988.917558,212.617842 989.618841,212.735691 C990.712959,212.929093 991.877434,213.042251 993.102084,213.042251 C994.470894,213.042251 995.776563,212.903179 996.974754,212.664982 C997.273379,212.612058 997.557573,212.543655 997.840443,212.4776 C997.868265,212.469351 997.891156,212.464621 997.916613,212.45997 C998.169135,212.390474 998.425507,212.314918 998.669811,212.241904 C998.710863,212.225371 998.763981,212.219586 998.805233,212.19707 C999.022878,212.12863 999.230942,212.050767 999.438805,211.973102 C999.506435,211.945036 999.570498,211.929636 999.634601,211.904817 C999.898309,211.800062 1000.15199,211.691556 1000.39269,211.572459 C1000.5595,211.49108 1000.73004,211.396644 1000.88354,211.318979 L1000.88832,211.318979 C1001.04194,211.22814 1001.18806,211.136208 1001.33563,211.046658 C1001.58358,211.273168 1001.76495,211.492409 1001.91368,211.710474 C1001.93797,211.749484 1001.968,211.794239 1001.98985,211.830785 C1002.03475,211.89907 1002.06614,211.968685 1002.09633,212.04295 C1002.12058,212.097281 1002.14467,212.15599 1002.16408,212.212783 Z M983.461359,209.911609 L983.461199,209.911334 C983.526464,209.976141 983.593093,210.040948 983.664372,210.107005 C982.945971,210.82269 982.489113,211.678425 982.468547,212.706414 C982.47468,212.981041 982.521785,213.245073 982.584605,213.499766 C980.586072,213.334545 978.812399,212.885669 977.487246,212.24546 C975.793391,211.43921 974.986914,210.389957 975.022032,209.584918 C975.001547,209.089803 975.30374,208.507482 975.934867,207.934622 C976.233532,208.116182 976.543022,208.29903 976.876725,208.459249 C978.631035,209.299817 980.923664,209.826751 983.461359,209.911609 Z M1013.94886,204.701258 L1013.94866,204.701102 C1014.58095,205.271735 1014.87833,205.858705 1014.86025,206.357378 C1014.88459,207.141428 1014.11667,208.150501 1012.50388,208.956789 L1012.50388,208.959173 C1012.46644,208.969883 1012.43016,208.993412 1012.39267,209.014715 C1010.73025,209.81987 1008.34842,210.33973 1005.70786,210.33973 C1004.59782,210.33973 1003.54119,210.243224 1002.56301,210.078081 L1002.56301,210.068699 C1003.21831,209.399137 1003.63668,208.606921 1003.6995,207.688608 C1003.70692,207.686224 1003.70924,207.686224 1003.71169,207.686224 C1003.71642,207.621338 1003.7286,207.567124 1003.7286,207.497629 C1003.71674,207.180553 1003.65492,206.875087 1003.56668,206.582872 C1004.25337,206.655926 1004.97879,206.692472 1005.7079,206.692472 C1008.52754,206.692472 1011.08712,206.144277 1012.99493,205.224751 C1013.33221,205.063244 1013.64426,204.89216 1013.94886,204.701258 Z M1013.94886,199.502751 L1013.9491,199.502673 C1014.58139,200.064902 1014.87877,200.658948 1014.86069,201.155316 C1014.88487,201.938152 1014.11716,202.954261 1012.49947,203.754724 C1012.50424,203.754724 1012.50424,203.754724 1012.50424,203.754724 C1012.4668,203.777083 1012.43052,203.796001 1012.39303,203.813629 C1010.73061,204.613899 1008.34878,205.140949 1005.70822,205.137393 C1004.5789,205.139738 1003.49817,205.039518 1002.49939,204.867417 C1001.93228,204.300382 1001.22005,203.819454 1000.39554,203.431631 C999.422088,202.960046 998.284513,202.592393 997.028233,202.338913 C996.69946,201.928889 996.534853,201.510226 996.556702,201.15426 C996.532608,200.659025 996.834842,200.066348 997.467051,199.502751 C997.764554,199.684233 998.071558,199.864815 998.405262,200.025034 C1000.32402,200.94569 1002.88372,201.487947 1005.70802,201.487947 C1008.52746,201.487947 1011.08704,200.94577 1013.007,200.025034 C1013.33221,199.865675 1013.64426,199.684233 1013.94886,199.502751 Z M975.936109,202.7256 L975.935909,202.725367 C976.234614,202.918729 976.542861,203.092004 976.875322,203.252221 C978.715543,204.14583 981.157786,204.67167 983.847901,204.712907 C983.480402,205.052222 983.173237,205.422454 982.944728,205.82212 C982.902273,205.885598 982.869721,205.948215 982.840696,206.013022 C982.810429,206.067275 982.785252,206.128329 982.759796,206.185121 C982.72584,206.268964 982.693207,206.349014 982.665425,206.429181 C982.643817,206.488125 982.625617,206.548203 982.614793,206.605974 C982.58228,206.696928 982.557866,206.790073 982.543514,206.886657 C982.536378,206.940637 982.518177,206.992661 982.510921,207.0398 C982.490355,207.193179 982.475883,207.345228 982.473438,207.497316 C982.475923,207.781361 982.523028,208.043088 982.585848,208.297779 C980.587314,208.137523 978.811317,207.682589 977.488489,207.040035 C975.794634,206.233902 974.988157,205.188166 975.023275,204.381877 C975.002789,203.885589 975.304983,203.296195 975.936109,202.7256 Z M1002.1448,206.942201 L1002.14463,206.942005 C1002.181,207.03042 1002.21347,207.128216 1002.23287,207.219015 C1002.25107,207.315756 1002.25709,207.408782 1002.25709,207.494814 L1002.25464,207.494814 C1002.25697,207.590577 1002.25227,207.683487 1002.22918,207.775499 C1002.22445,207.818065 1002.20982,207.863991 1002.199,207.902923 C1002.1846,207.959363 1002.16777,208.005174 1002.14467,208.061967 C1002.12535,208.111491 1002.10483,208.158825 1002.08542,208.209405 C1002.08065,208.216401 1002.08065,208.216401 1002.08065,208.219957 L1002.077,208.224608 C1002.06141,208.263501 1002.03852,208.303526 1002.01543,208.337765 C1001.97927,208.396787 1001.94543,208.459249 1001.9055,208.520498 C1001.88626,208.548642 1001.86088,208.578309 1001.83903,208.604184 C1001.77617,208.682162 1001.72899,208.757522 1001.65771,208.837689 C1001.56675,208.946157 1001.4545,209.055757 1001.3396,209.157187 C1000.95154,209.507175 1000.43166,209.851454 999.789627,210.155591 C998.127202,210.961879 995.740523,211.480604 993.106012,211.480604 C992.563042,211.480604 992.048095,211.457034 991.533067,211.415797 C991.452087,211.403875 991.364852,211.401608 991.285195,211.395746 C991.11718,211.382495 990.953896,211.357871 990.788327,211.338953 C990.661565,211.324881 990.534562,211.315461 990.410004,211.29064 C990.268609,211.272973 990.125891,211.247136 989.979605,211.225833 C989.83817,211.199881 989.700423,211.177445 989.572257,211.151568 C989.440404,211.130696 989.309792,211.099778 989.184112,211.073903 C989.042557,211.045487 988.903607,211.006594 988.760849,210.975989 C988.648278,210.952537 988.535988,210.919509 988.422335,210.88773 C988.277211,210.852278 988.134654,210.799471 987.994341,210.764021 C987.893837,210.735877 987.797302,210.705154 987.704174,210.680334 C987.546824,210.623736 987.39701,210.567256 987.251886,210.511712 C987.178202,210.484742 987.101872,210.459844 987.026985,210.430412 C986.817799,210.343169 986.600114,210.254832 986.40552,210.15692 C986.36928,210.136906 986.340455,210.119121 986.306459,210.105129 C985.236355,209.57581 984.549584,208.954522 984.202611,208.362781 C984.200166,208.352112 984.186776,208.339174 984.180762,208.326236 C984.127444,208.226134 984.078054,208.135373 984.044058,208.039883 C984.024574,207.982152 984.001443,207.920981 983.987091,207.86665 C983.980877,207.835887 983.977349,207.799459 983.966525,207.775849 C983.951772,207.678015 983.93742,207.590812 983.943433,207.497629 C983.93722,207.411401 983.951812,207.318491 983.971216,207.226481 C983.977229,207.201661 983.979554,207.175902 983.985567,207.151081 C984.009781,207.07322 984.028984,206.994069 984.064102,206.916402 C984.071399,206.891503 984.073924,206.866958 984.087194,206.842137 C984.128486,206.754894 984.179159,206.661711 984.238411,206.572163 C984.268678,206.516972 984.311053,206.467175 984.342443,206.417808 C984.37271,206.377665 984.40422,206.335295 984.436813,206.297498 C984.843118,205.79296 985.48527,205.279004 986.402874,204.844005 C987.746148,204.198051 989.550168,203.735924 991.573998,203.58626 C991.651371,203.579145 991.723892,203.569609 991.797657,203.563745 C992.224488,203.53439 992.653845,203.510782 993.102364,203.510782 C995.736875,203.509689 998.123474,204.034236 999.785979,204.844082 C1000.71693,205.28264 1001.37111,205.804883 1001.77004,206.316454 L1001.77249,206.316454 C1001.77249,206.320012 1001.77485,206.322318 1001.78211,206.329392 C1001.86196,206.425976 1001.92956,206.526157 1001.98652,206.624069 C1001.99017,206.624069 1001.99017,206.624069 1001.99017,206.624069 C1002.04822,206.72425 1002.10134,206.830294 1002.13646,206.928207 C1002.14115,206.930318 1002.14115,206.93282 1002.1448,206.942201 Z M977.378564,201.786024 L977.378203,201.786495 C975.764166,200.981143 974.99405,199.965034 975.021832,199.178797 C975.001346,198.685949 975.30354,198.100188 975.934666,197.533113 C976.233372,197.715884 976.541619,197.898617 976.874079,198.052971 C978.789107,198.972417 981.353582,199.5135 984.174308,199.515884 C986.990344,199.513657 989.555861,198.972496 991.478225,198.052971 C991.813211,197.898344 992.113039,197.715728 992.415273,197.529477 C993.04644,198.100071 993.351199,198.684815 993.331795,199.178719 C993.361943,199.965113 992.585893,200.981378 990.969331,201.786415 C990.929322,201.800447 990.90162,201.826441 990.866501,201.836995 C990.624883,201.957188 990.363741,202.069094 990.096506,202.169351 C990.083116,202.1776 990.068764,202.182329 990.056577,202.18698 C990.053009,202.18698 990.051886,202.191632 990.048238,202.191632 C989.132878,202.536966 988.066502,202.804478 986.90339,202.973099 L986.899742,202.973099 C986.503098,203.030948 986.105291,203.068512 985.69177,203.103964 C985.61568,203.106073 985.540553,203.113305 985.460895,203.117956 C985.042683,203.146372 984.611041,203.160366 984.175671,203.160366 C981.538875,203.160366 979.150994,202.640508 977.488489,201.836604 C977.447477,201.81917 977.416047,201.800019 977.378564,201.786024 Z M977.378564,196.580287 L977.378524,196.580287 C975.764366,195.77865 974.988237,194.766019 975.023355,193.979782 C974.988237,193.179434 975.794714,192.132604 977.488569,191.322758 C979.14955,190.518777 981.538835,189.995398 984.175751,190.00005 C986.816356,189.995478 989.204197,190.518854 990.867905,191.322758 C992.555706,192.132527 993.363306,193.179317 993.333118,193.979782 C993.363266,194.766099 992.587216,195.781112 990.970654,196.580287 C990.930644,196.606241 990.902943,196.617966 990.867825,196.642787 C989.203035,197.439617 986.816235,197.966551 984.175671,197.959475 C981.538875,197.966551 979.150994,197.439577 977.488489,196.642787 C977.447477,196.618084 977.416047,196.605107 977.378564,196.580287 Z M999.014619,198.612582 L999.01478,198.612582 C997.322088,197.802814 996.522867,196.751253 996.547081,195.950789 C996.521704,195.150363 997.322168,194.102595 999.01478,193.290247 C1000.67368,192.492283 1003.05186,191.966485 1005.69242,191.966485 L1005.70677,191.966485 C1008.34617,191.966485 1010.72909,192.492323 1012.39159,193.290247 C1014.08673,194.103531 1014.8835,195.150323 1014.85929,195.950789 C1014.88342,196.751293 1014.08661,197.802736 1012.39159,198.612582 C1010.72917,199.411835 1008.34738,199.939862 1005.70677,199.939862 C1003.06617,199.939862 1000.67348,199.411757 999.014619,198.612582 Z M1001.33716,216.251342 L1001.33695,216.251342 C1001.9753,216.824085 1002.27641,217.408867 1002.25219,217.906289 C1002.28362,218.708944 1001.47719,219.75937 999.786981,220.566831 C998.124797,221.372064 995.73924,221.891924 993.09619,221.88954 C990.458031,221.891845 988.071232,221.371869 986.404037,220.566831 C984.718601,219.759448 983.908476,218.70906 983.943594,217.906289 C983.931487,217.408867 984.222936,216.824202 984.858833,216.251342 C985.157499,216.442282 985.468232,216.615477 985.800692,216.77937 C987.715961,217.698971 990.271856,218.24115 993.09615,218.244705 C995.920444,218.24115 998.485039,217.698893 1000.39405,216.77937 C1000.73153,216.616689 1001.04346,216.442242 1001.33716,216.251342 Z" id="path-3"></path>
        <filter x="-50%" y="-50%" width="200%" height="200%" filterUnits="objectBoundingBox" id="filter-4">
            <feOffset dx="2" dy="2" in="SourceAlpha" result="shadowOffsetOuter1"></feOffset>
            <feGaussianBlur stdDeviation="0.5" in="shadowOffsetOuter1" result="shadowBlurOuter1"></feGaussianBlur>
            <feColorMatrix values="0 0 0 0 0   0 0 0 0 0   0 0 0 0 0  0 0 0 0.25 0" type="matrix" in="shadowBlurOuter1"></feColorMatrix>
        </filter>
        <path d="M109.509383,152.00835 L97.5016658,160.950298 L75.5016658,177.333333 L97.5016658,193.716369 L109.669223,202.777347 C114.904026,195.712764 118,186.967934 118,177.5 C118,167.936098 114.840946,159.110034 109.509383,152.00835 Z M75.5,220 C52.0278981,220 33,200.972102 33,177.5 C33,154.027898 52.0278981,135 75.5,135 C98.9721019,135 118,154.027898 118,177.5 C118,200.972102 98.9721019,220 75.5,220 Z M81.5,158 C84.5375661,158 87,155.537566 87,152.5 C87,149.462434 84.5375661,147 81.5,147 C78.4624339,147 76,149.462434 76,152.5 C76,155.537566 78.4624339,158 81.5,158 Z" id="path-5"></path>
        <filter x="-50%" y="-50%" width="200%" height="200%" filterUnits="objectBoundingBox" id="filter-6">
            <feOffset dx="2" dy="2" in="SourceAlpha" result="shadowOffsetOuter1"></feOffset>
            <feGaussianBlur stdDeviation="0.5" in="shadowOffsetOuter1" result="shadowBlurOuter1"></feGaussianBlur>
            <feColorMatrix values="0 0 0 0 0   0 0 0 0 0   0 0 0 0 0  0 0 0 0.25 0" type="matrix" in="shadowBlurOuter1"></feColorMatrix>
        </filter>
        <path d="M762.5,155 L726.5,155 C724.0025,155 722,157.0025 722,159.5 L722,184.25 C722,186.7475 724.0025,188.75 726.5,188.75 L735.5,188.75 L735.5,200 L744.5,195.5 L753.5,200 L753.5,188.75 L762.5,188.75 C764.9975,188.75 767,186.7475 767,184.25 L767,159.5 C767,157.0025 764.9975,155 762.5,155 L762.5,155 Z M762.5,184.25 L726.5,184.25 L726.5,179.75 L762.5,179.75 L762.5,184.25 L762.5,184.25 Z M762.5,173 L726.5,173 L726.5,159.5 L762.5,159.5 L762.5,173 L762.5,173 Z" id="path-7"></path>
        <filter x="-50%" y="-50%" width="200%" height="200%" filterUnits="objectBoundingBox" id="filter-8">
            <feOffset dx="2" dy="2" in="SourceAlpha" result="shadowOffsetOuter1"></feOffset>
            <feGaussianBlur stdDeviation="0.5" in="shadowOffsetOuter1" result="shadowBlurOuter1"></feGaussianBlur>
            <feColorMatrix values="0 0 0 0 0   0 0 0 0 0   0 0 0 0 0  0 0 0 0.25 0" type="matrix" in="shadowBlurOuter1"></feColorMatrix>
        </filter>
        <path d="M0.249952481,36.25 L45,36.25" id="path-9"></path>
        <filter x="-50%" y="-50%" width="200%" height="200%" filterUnits="objectBoundingBox" id="filter-10">
            <feMorphology radius="2.25" operator="dilate" in="SourceAlpha" result="shadowSpreadOuter1"></feMorphology>
            <feOffset dx="1" dy="1" in="shadowSpreadOuter1" result="shadowOffsetOuter1"></feOffset>
            <feMorphology radius="2.25" operator="erode" in="SourceAlpha" result="shadowInner"></feMorphology>
            <feOffset dx="1" dy="1" in="shadowInner" result="shadowInner"></feOffset>
            <feComposite in="shadowOffsetOuter1" in2="shadowInner" operator="out" result="shadowOffsetOuter1"></feComposite>
            <feGaussianBlur stdDeviation="0.5" in="shadowOffsetOuter1" result="shadowBlurOuter1"></feGaussianBlur>
            <feColorMatrix values="0 0 0 0 0   0 0 0 0 0   0 0 0 0 0  0 0 0 0.25 0" type="matrix" in="shadowBlurOuter1"></feColorMatrix>
        </filter>
        <path d="M3.25,32.1981889 L3.25,0.245654064" id="path-11"></path>
        <filter x="-50%" y="-50%" width="200%" height="200%" filterUnits="objectBoundingBox" id="filter-12">
            <feMorphology radius="2.25" operator="dilate" in="SourceAlpha" result="shadowSpreadOuter1"></feMorphology>
            <feOffset dx="1" dy="1" in="shadowSpreadOuter1" result="shadowOffsetOuter1"></feOffset>
            <feMorphology radius="2.25" operator="erode" in="SourceAlpha" result="shadowInner"></feMorphology>
            <feOffset dx="1" dy="1" in="shadowInner" result="shadowInner"></feOffset>
            <feComposite in="shadowOffsetOuter1" in2="shadowInner" operator="out" result="shadowOffsetOuter1"></feComposite>
            <feGaussianBlur stdDeviation="0.5" in="shadowOffsetOuter1" result="shadowBlurOuter1"></feGaussianBlur>
            <feColorMatrix values="0 0 0 0 0   0 0 0 0 0   0 0 0 0 0  0 0 0 0.25 0" type="matrix" in="shadowBlurOuter1"></feColorMatrix>
        </filter>
        <polygon id="path-13" points="34.4606742 6.08450704 38.8605618 10.4967887 29.484382 19.8993803 21.7989888 12.192338 7.56179775 26.4889014 10.2708989 29.2056338 21.7989888 17.6450704 29.484382 25.3521127 41.5888764 13.2327887 45.988764 17.6450704 45.988764 6.08450704"></polygon>
        <filter x="-50%" y="-50%" width="200%" height="200%" filterUnits="objectBoundingBox" id="filter-14">
            <feMorphology radius="0.5" operator="dilate" in="SourceAlpha" result="shadowSpreadOuter1"></feMorphology>
            <feOffset dx="1" dy="1" in="shadowSpreadOuter1" result="shadowOffsetOuter1"></feOffset>
            <feGaussianBlur stdDeviation="0.5" in="shadowOffsetOuter1" result="shadowBlurOuter1"></feGaussianBlur>
            <feComposite in="shadowBlurOuter1" in2="SourceAlpha" operator="out" result="shadowBlurOuter1"></feComposite>
            <feColorMatrix values="0 0 0 0 0   0 0 0 0 0   0 0 0 0 0  0 0 0 0.25 0" type="matrix" in="shadowBlurOuter1"></feColorMatrix>
        </filter>
        <path d="M50.4575,49 C73.96,49 93,68.0843373 93,91.5989673 C93,115.113597 73.96,134.197935 50.4575,134.197935 C26.9975,134.197935 8,115.113597 8,91.5989673 C8,68.0843373 26.9975,49 50.4575,49 Z M22.0818649,98.6764644 C23.1936889,113.399738 35.4921512,125 50.5,125 C65.5703337,125 77.9086729,113.302942 78.9314399,98.4924025 C70.3223915,100.09205 60.469192,101 50,101 C39.939264,101 30.4473922,100.161516 22.0818514,98.676462 Z M69.375,87.3390706 C72.9025,87.3390706 75.75,84.4849398 75.75,80.9492255 C75.75,77.4135112 72.9025,74.5593804 69.375,74.5593804 C65.8475,74.5593804 63,77.4135112 63,80.9492255 C63,84.4849398 65.8475,87.3390706 69.375,87.3390706 Z M31.625,87.3390706 C35.1525,87.3390706 38,84.4849398 38,80.9492255 C38,77.4135112 35.1525,74.5593804 31.625,74.5593804 C28.0975,74.5593804 25.25,77.4135112 25.25,80.9492255 C25.25,84.4849398 28.0975,87.3390706 31.625,87.3390706 Z" id="path-15"></path>
        <filter x="-50%" y="-50%" width="200%" height="200%" filterUnits="objectBoundingBox" id="filter-16">
            <feOffset dx="2" dy="2" in="SourceAlpha" result="shadowOffsetOuter1"></feOffset>
            <feGaussianBlur stdDeviation="0.5" in="shadowOffsetOuter1" result="shadowBlurOuter1"></feGaussianBlur>
            <feColorMatrix values="0 0 0 0 0   0 0 0 0 0   0 0 0 0 0  0 0 0 0.25 0" type="matrix" in="shadowBlurOuter1"></feColorMatrix>
        </filter>
        <polygon id="path-17" points="50 0 0 20.9375316 50 41.8750633 90.9090909 24.7411832 90.9090909 48.8542405 100 48.8542405 100 20.9375316"></polygon>
        <filter x="-50%" y="-50%" width="200%" height="200%" filterUnits="objectBoundingBox" id="filter-18">
            <feOffset dx="2" dy="2" in="SourceAlpha" result="shadowOffsetOuter1"></feOffset>
            <feGaussianBlur stdDeviation="0.5" in="shadowOffsetOuter1" result="shadowBlurOuter1"></feGaussianBlur>
            <feColorMatrix values="0 0 0 0 0   0 0 0 0 0   0 0 0 0 0  0 0 0 0.25 0" type="matrix" in="shadowBlurOuter1"></feColorMatrix>
        </filter>
        <polygon id="path-19" points="17.3333333 36.0838311 17.3333333 50.0421855 49.1515152 63.372414 80.969697 50.0421855 80.969697 36.0838311 49.1515152 49.4140596"></polygon>
        <filter x="-50%" y="-50%" width="200%" height="200%" filterUnits="objectBoundingBox" id="filter-20">
            <feOffset dx="2" dy="2" in="SourceAlpha" result="shadowOffsetOuter1"></feOffset>
            <feGaussianBlur stdDeviation="0.5" in="shadowOffsetOuter1" result="shadowBlurOuter1"></feGaussianBlur>
            <feColorMatrix values="0 0 0 0 0   0 0 0 0 0   0 0 0 0 0  0 0 0 0.25 0" type="matrix" in="shadowBlurOuter1"></feColorMatrix>
        </filter>
    </defs>
    <g id="VfastOnline-Unified" stroke="none" stroke-width="1" fill="none" fill-rule="evenodd">
        <g id="欢迎页" transform="translate(-200.000000, -255.000000)">
            <g id="首页顶图" transform="translate(200.000000, 254.000000)">
                <text id="入门" font-family="Tensentype-JiaLiZhongYuanJ, Tensentype JiaLiZhongYuanJ" font-size="24" font-weight="normal" letter-spacing="1" fill="#2D9CC3">
                    <tspan x="50" y="294">入门</tspan>
                </text>
                <text id="考核" font-family="Tensentype-JiaLiZhongYuanJ, Tensentype JiaLiZhongYuanJ" font-size="24" font-weight="normal" letter-spacing="1" fill="#EFBB38">
                    <tspan x="495" y="294">考核</tspan>
                </text>
                <text id="就业" font-family="Tensentype-JiaLiZhongYuanJ, Tensentype JiaLiZhongYuanJ" font-size="24" font-weight="normal" letter-spacing="1" fill="#73C89C">
                    <tspan x="940" y="294">就业</tspan>
                </text>
                <text id="提升" font-family="Tensentype-JiaLiZhongYuanJ, Tensentype JiaLiZhongYuanJ" font-size="24" font-weight="normal" letter-spacing="1" fill="#6B788C">
                    <tspan x="275" y="257">提升</tspan>
                </text>
                <text id="推荐" font-family="Tensentype-JiaLiZhongYuanJ, Tensentype JiaLiZhongYuanJ" font-size="24" font-weight="normal" letter-spacing="1" fill="#6B788C">
                    <tspan x="720" y="257">推荐</tspan>
                </text>
                <path d="M965,252 C1006.42136,252 1040,218.421356 1040,177 C1040,135.578644 1006.42136,102 965,102 C923.578644,102 890,135.578644 890,177 C890,218.421356 923.578644,252 965,252 Z" id="Oval-Copy-5" fill="#73C89C"></path>
                <g id="Combined-Shape">
                    <use fill="black" fill-opacity="1" filter="url(#filter-2)" xlink:href="#path-1"></use>
                    <use fill="#CBF1DD" fill-rule="evenodd" xlink:href="#path-1"></use>
                </g>
                <ellipse id="Oval-18" fill="#73C89C" cx="995" cy="204.5" rx="25" ry="22.5"></ellipse>
                <g id="Combined-Shape">
                    <use fill="black" fill-opacity="1" filter="url(#filter-4)" xlink:href="#path-3"></use>
                    <use fill="#CBF1DD" fill-rule="evenodd" xlink:href="#path-3"></use>
                </g>
                <circle id="Oval" fill="#2D9CC3" cx="75" cy="177" r="75"></circle>
                <g id="Combined-Shape">
                    <use fill="black" fill-opacity="1" filter="url(#filter-6)" xlink:href="#path-5"></use>
                    <use fill="#A5EBFC" fill-rule="evenodd" xlink:href="#path-5"></use>
                </g>
                <g id="Group" transform="translate(186.000000, 172.000000)" fill="#6B788C">
                    <circle id="Oval-4" cx="2.5" cy="5.5" r="2.5"></circle>
                    <circle id="Oval-4-Copy-2" cx="33.5" cy="5.5" r="2.5"></circle>
                    <circle id="Oval-4-Copy" cx="18" cy="5" r="5"></circle>
                    <circle id="Oval-4-Copy-3" cx="49" cy="5" r="5"></circle>
                    <circle id="Oval-4-Copy-5" cx="64.5" cy="5.5" r="2.5"></circle>
                    <circle id="Oval-4-Copy-4" cx="80" cy="5" r="5"></circle>
                    <circle id="Oval-4-Copy-7" cx="95.5" cy="5.5" r="2.5"></circle>
                    <circle id="Oval-4-Copy-6" cx="111" cy="5" r="5"></circle>
                    <circle id="Oval-4-Copy-9" cx="126.5" cy="5.5" r="2.5"></circle>
                    <circle id="Oval-4-Copy-8" cx="142" cy="5" r="5"></circle>
                    <circle id="Oval-4-Copy-11" cx="157.5" cy="5.5" r="2.5"></circle>
                    <circle id="Oval-4-Copy-10" cx="173" cy="5" r="5"></circle>
                    <circle id="Oval-4-Copy-13" cx="188.5" cy="5.5" r="2.5"></circle>
                    <circle id="Oval-4-Copy-14" cx="219.5" cy="5.5" r="2.5"></circle>
                    <circle id="Oval-4-Copy-12" cx="204" cy="5" r="5"></circle>
                </g>
                <g id="Group-Copy" transform="translate(632.000000, 172.000000)" fill="#6B788C">
                    <ellipse id="Oval-4" cx="2.5" cy="5.5" rx="2.5" ry="2.5"></ellipse>
                    <ellipse id="Oval-4-Copy-2" cx="33.5" cy="5.5" rx="2.5" ry="2.5"></ellipse>
                    <ellipse id="Oval-4-Copy" cx="18" cy="5" rx="5" ry="5"></ellipse>
                    <circle id="Oval-4-Copy-3" cx="49" cy="5" r="5"></circle>
                    <ellipse id="Oval-4-Copy-5" cx="64.5" cy="5.5" rx="2.5" ry="2.5"></ellipse>
                    <circle id="Oval-4-Copy-4" cx="80" cy="5" r="5"></circle>
                    <circle id="Oval-4-Copy-7" cx="95.5" cy="5.5" r="2.5"></circle>
                    <circle id="Oval-4-Copy-6" cx="111" cy="5" r="5"></circle>
                    <ellipse id="Oval-4-Copy-9" cx="126.5" cy="5.5" rx="2.5" ry="2.5"></ellipse>
                    <circle id="Oval-4-Copy-8" cx="142" cy="5" r="5"></circle>
                    <circle id="Oval-4-Copy-11" cx="157.5" cy="5.5" r="2.5"></circle>
                    <circle id="Oval-4-Copy-10" cx="173" cy="5" r="5"></circle>
                    <circle id="Oval-4-Copy-13" cx="188.5" cy="5.5" r="2.5"></circle>
                    <circle id="Oval-4-Copy-14" cx="219.5" cy="5.5" r="2.5"></circle>
                    <circle id="Oval-4-Copy-12" cx="204" cy="5" r="5"></circle>
                </g>
                <path d="M744.5,215 C765.210678,215 782,198.210678 782,177.5 C782,156.789322 765.210678,140 744.5,140 C723.789322,140 707,156.789322 707,177.5 C707,198.210678 723.789322,215 744.5,215 Z" id="Oval-Copy-4" fill="#6B788C"></path>
                <g id="Shape">
                    <use fill="black" fill-opacity="1" filter="url(#filter-8)" xlink:href="#path-7"></use>
                    <use fill="#A5B1C4" fill-rule="evenodd" xlink:href="#path-7"></use>
                </g>
                <path d="M297.5,215 C318.210678,215 335,198.210678 335,177.5 C335,156.789322 318.210678,140 297.5,140 C276.789322,140 260,156.789322 260,177.5 C260,198.210678 276.789322,215 297.5,215 Z" id="Oval-Copy" fill="#6B788C"></path>
                <g id="Group-2" transform="translate(275.000000, 158.000000)">
                    <g id="Path-2">
                        <use fill="black" fill-opacity="1" filter="url(#filter-10)" xlink:href="#path-9"></use>
                        <use stroke="#A5B1C4" stroke-width="4.5" xlink:href="#path-9"></use>
                    </g>
                    <g id="Path-2-Copy">
                        <use fill="black" fill-opacity="1" filter="url(#filter-12)" xlink:href="#path-11"></use>
                        <use stroke="#A5B1C4" stroke-width="4.5" xlink:href="#path-11"></use>
                    </g>
                    <g id="Shape">
                        <use fill="black" fill-opacity="1" filter="url(#filter-14)" xlink:href="#path-13"></use>
                        <use stroke="#A5B1C4" stroke-width="1" fill="#A5B1C4" fill-rule="evenodd" xlink:href="#path-13"></use>
                    </g>
                </g>
                <path d="M520,252 C561.421356,252 595,218.421356 595,177 C595,135.578644 561.421356,102 520,102 C478.578644,102 445,135.578644 445,177 C445,218.421356 478.578644,252 520,252 Z" id="Oval-Copy-2" fill="#EFBB38"></path>
                <g id="Group-3" transform="translate(470.000000, 85.000000)">
                    <g id="Combined-Shape">
                        <use fill="black" fill-opacity="1" filter="url(#filter-16)" xlink:href="#path-15"></use>
                        <use fill="#FEEEC7" fill-rule="evenodd" xlink:href="#path-15"></use>
                    </g>
                    <g id="Group-4">
                        <polygon id="Combined-Shape" fill="#EFBB38" points="12.5 55.5406581 50.5687499 71.4895624 88.6374998 55.5406581 88.6374998 38.8402349 50.5687507 38.8402349 12.5 38.8402349"></polygon>
                        <g id="Shape">
                            <use fill="black" fill-opacity="1" filter="url(#filter-18)" xlink:href="#path-17"></use>
                            <use fill="#FEEEC7" fill-rule="evenodd" xlink:href="#path-17"></use>
                        </g>
                        <g id="Shape">
                            <use fill="black" fill-opacity="1" filter="url(#filter-20)" xlink:href="#path-19"></use>
                            <use fill="#FEEEC7" fill-rule="evenodd" xlink:href="#path-19"></use>
                        </g>
                    </g>
                </g>
                <path d="M581,262 L599,262 L599,260 L581,260 C579.9,260 579,260.9 579,262 L579,273 L577,273 L577,276 L591,276 L591,273 L581,273 L581,262 L581,262 Z M600,264 L594,264 C593.45,264 593,264.45 593,265 L593,275 C593,275.55 593.45,276 594,276 L600,276 C600.55,276 601,275.55 601,275 L601,265 C601,264.45 600.55,264 600,264 L600,264 Z M599,273 L595,273 L595,266 L599,266 L599,273 L599,273 Z" id="Shape" fill-opacity="0.0599999987" fill="#EAF8FF" transform="translate(589.000000, 268.000000) rotate(-6.000000) translate(-589.000000, -268.000000) "></path>
                <path d="M460,67.9166667 C456.066667,64.25 450.8,62 445,62 L445,80.3333333 C450.8,80.3333333 456.066667,82.5833333 460,86.25 C463.933333,82.6 469.2,80.3333333 475,80.3333333 L475,62 C469.2,62 463.933333,64.25 460,67.9166667 L460,67.9166667 Z M460,62 C462.766667,62 465,59.7666667 465,57 C465,54.2333333 462.766667,52 460,52 C457.233333,52 455,54.2333333 455,57 C455,59.7666667 457.233333,62 460,62 L460,62 Z" id="Shape" fill-opacity="0.0599999987" fill="#EAF8FF" transform="translate(460.000000, 69.125000) rotate(13.000000) translate(-460.000000, -69.125000) "></path>
                <path d="M446.33474,248.593613 L446.33474,258.506113 L455.08474,258.506113 C455.08474,253.406113 451.27224,249.206113 446.33474,248.593613 L446.33474,248.593613 Z M435.08474,266.006113 C435.08474,271.531113 439.55974,276.006113 445.08474,276.006113 C450.60974,276.006113 455.08474,271.531113 455.08474,266.006113 L455.08474,261.006113 L435.08474,261.006113 L435.08474,266.006113 L435.08474,266.006113 Z M443.83474,248.593613 C438.89724,249.206113 435.08474,253.406113 435.08474,258.506113 L443.83474,258.506113 L443.83474,248.593613 L443.83474,248.593613 Z" id="Shape" fill-opacity="0.0599999987" fill="#EAF8FF" transform="translate(445.084740, 262.299863) rotate(-20.000000) translate(-445.084740, -262.299863) "></path>
                <path d="M637.297929,162.09963 L640.934292,162.09963 L640.934292,151.190539 L637.297929,151.190539 L637.297929,162.09963 L637.297929,162.09963 Z M657.297929,152.09963 C657.297929,151.09963 656.479747,150.281448 655.479747,150.281448 L649.743383,150.281448 L650.60702,146.126903 L650.634292,145.835994 C650.634292,145.463266 650.479747,145.117812 650.234292,144.872357 L649.270656,143.917812 L643.288838,149.908721 C642.952474,150.235994 642.752474,150.690539 642.752474,151.190539 L642.752474,160.281448 C642.752474,161.281448 643.570656,162.09963 644.570656,162.09963 L652.752474,162.09963 C653.50702,162.09963 654.152474,161.645084 654.425202,160.990539 L657.170656,154.581448 C657.252474,154.372357 657.297929,154.154175 657.297929,153.917812 L657.297929,152.181448 L657.288838,152.172357 L657.297929,152.09963 L657.297929,152.09963 Z" id="Shape" fill-opacity="0.0599999987" fill="#EAF8FF" transform="translate(647.297929, 153.008721) rotate(322.000000) translate(-647.297929, -153.008721) "></path>
                <path d="M431,6 L399,6 L399,26 C399,30.42 402.58,34 407,34 L419,34 C423.42,34 427,30.42 427,26 L427,20 L431,20 C433.22,20 435,18.22 435,16 L435,10 C435,7.78 433.22,6 431,6 L431,6 Z M431,16 L427,16 L427,10 L431,10 L431,16 L431,16 Z M395,42 L431,42 L431,38 L395,38 L395,42 L395,42 Z" id="Shape" fill-opacity="0.140000001" fill="#EAF8FF" transform="translate(415.000000, 24.000000) rotate(20.000000) translate(-415.000000, -24.000000) "></path>
                <path d="M702.454545,44.0909091 L661.545455,44.0909091 C659.045455,44.0909091 657,46.1363636 657,48.6363636 L657,75.9090909 C657,78.4090909 659.045455,80.4545455 661.545455,80.4545455 L672.909091,80.4545455 L672.909091,85 L691.090909,85 L691.090909,80.4545455 L702.454545,80.4545455 C704.954545,80.4545455 706.977273,78.4090909 706.977273,75.9090909 L707,48.6363636 C707,46.1363636 704.954545,44.0909091 702.454545,44.0909091 L702.454545,44.0909091 Z M702.454545,75.9090909 L661.545455,75.9090909 L661.545455,48.6363636 L702.454545,48.6363636 L702.454545,75.9090909 L702.454545,75.9090909 Z M697.909091,55.4545455 L672.909091,55.4545455 L672.909091,60 L697.909091,60 L697.909091,55.4545455 L697.909091,55.4545455 Z M697.909091,64.5454545 L672.909091,64.5454545 L672.909091,69.0909091 L697.909091,69.0909091 L697.909091,64.5454545 L697.909091,64.5454545 Z M670.636364,55.4545455 L666.090909,55.4545455 L666.090909,60 L670.636364,60 L670.636364,55.4545455 L670.636364,55.4545455 Z M670.636364,64.5454545 L666.090909,64.5454545 L666.090909,69.0909091 L670.636364,69.0909091 L670.636364,64.5454545 L670.636364,64.5454545 Z" id="Shape" fill-opacity="0.140000001" fill="#EAF8FF" transform="translate(682.000000, 64.545455) rotate(38.000000) translate(-682.000000, -64.545455) "></path>
                <path d="M383.215372,263.215372 L351.215372,263.215372 L351.215372,259.215372 L383.215372,259.215372 L383.215372,263.215372 L383.215372,263.215372 Z M379.215372,251.215372 L355.215372,251.215372 L355.215372,255.215372 L379.215372,255.215372 L379.215372,251.215372 L379.215372,251.215372 Z M387.215372,271.215372 L387.215372,287.215372 C387.215372,289.415372 385.415372,291.215372 383.215372,291.215372 L351.215372,291.215372 C349.015372,291.215372 347.215372,289.415372 347.215372,287.215372 L347.215372,271.215372 C347.215372,269.015372 349.015372,267.215372 351.215372,267.215372 L383.215372,267.215372 C385.415372,267.215372 387.215372,269.015372 387.215372,271.215372 L387.215372,271.215372 Z M375.215372,279.215372 L363.215372,272.675372 L363.215372,285.735372 L375.215372,279.215372 L375.215372,279.215372 Z" id="Shape" fill-opacity="0.140000001" fill="#EAF8FF" transform="translate(367.215372, 271.215372) rotate(49.000000) translate(-367.215372, -271.215372) "></path>
                <path d="M316.284498,110.666667 C304.688998,110.666667 295.284498,107.528917 295.284498,103.666667 L295.284498,96.6666667 C295.284498,96.0576667 295.588998,95.4801667 296.026498,94.9166667 C298.367998,97.9319167 306.508998,100.166667 316.284498,100.166667 C326.059998,100.166667 334.200998,97.9319167 336.542498,94.9166667 C336.979998,95.4801667 337.284498,96.0576667 337.284498,96.6666667 L337.284498,103.666667 C337.284498,107.528917 327.878248,110.666667 316.284498,110.666667 L316.284498,110.666667 Z M316.284498,96.6666667 C304.688998,96.6666667 295.284498,93.5289167 295.284498,89.6666667 L295.284498,82.6666667 C295.284498,82.2956667 295.424498,81.9351667 295.613498,81.5781667 L295.613498,81.5781667 C295.720248,81.3541667 295.860248,81.1336667 296.026498,80.9166667 C298.367998,83.9301667 306.508998,86.1666667 316.284498,86.1666667 C326.059998,86.1666667 334.200998,83.9301667 336.542498,80.9166667 C336.710498,81.1336667 336.850498,81.3541667 336.955498,81.5781667 L336.955498,81.5781667 C337.142748,81.9351667 337.284498,82.2956667 337.284498,82.6666667 L337.284498,89.6666667 C337.284498,93.5289167 327.878248,96.6666667 316.284498,96.6666667 L316.284498,96.6666667 Z M316.284498,82.6666667 C304.688998,82.6666667 295.284498,79.5306667 295.284498,75.6666667 L295.284498,72.1666667 L295.284498,68.6666667 C295.284498,64.8026667 304.688998,61.6666667 316.284498,61.6666667 C327.879998,61.6666667 337.284498,64.8026667 337.284498,68.6666667 L337.284498,72.1666667 L337.284498,75.6666667 C337.284498,79.5306667 327.878248,82.6666667 316.284498,82.6666667 L316.284498,82.6666667 Z M316.284498,65.1666667 C308.552998,65.1666667 302.284498,66.7311667 302.284498,68.6666667 C302.284498,70.6021667 308.552998,72.1666667 316.284498,72.1666667 C324.015998,72.1666667 330.284498,70.6021667 330.284498,68.6666667 C330.284498,66.7311667 324.015998,65.1666667 316.284498,65.1666667 L316.284498,65.1666667 Z" id="Shape" fill-opacity="0.140000001" fill="#EAF8FF" transform="translate(316.284498, 86.166667) rotate(-22.000000) translate(-316.284498, -86.166667) "></path>
                <path d="M693.606196,242.71002 L653.406196,242.71002 C652.080196,242.71002 651.006196,243.78522 651.006196,245.11002 L651.006196,278.71002 C651.006196,280.03602 652.080196,281.11002 653.406196,281.11002 L693.606196,281.11002 C694.930996,281.11002 696.006196,280.03602 696.006196,278.71002 L696.006196,245.11002 C696.006196,243.78522 694.930996,242.71002 693.606196,242.71002 L693.606196,242.71002 Z M667.006996,245.71482 C668.052196,245.71482 668.900596,246.56322 668.900596,247.61082 C668.900596,248.65602 668.052196,249.50442 667.006996,249.50442 C665.959396,249.50442 665.110996,248.65602 665.110996,247.61082 C665.110996,246.56322 665.959396,245.71482 667.006996,245.71482 L667.006996,245.71482 Z M661.656196,245.71482 C662.703796,245.71482 663.552196,246.56322 663.552196,247.61082 C663.552196,248.65602 662.703796,249.50442 661.656196,249.50442 C660.610996,249.50442 659.762596,248.65602 659.762596,247.61082 C659.762596,246.56322 660.610996,245.71482 661.656196,245.71482 L661.656196,245.71482 Z M656.305396,245.71482 C657.352996,245.71482 658.201396,246.56322 658.201396,247.61082 C658.201396,248.65602 657.352996,249.50442 656.305396,249.50442 C655.260196,249.50442 654.411796,248.65602 654.411796,247.61082 C654.411796,246.56322 655.260196,245.71482 656.305396,245.71482 L656.305396,245.71482 Z M691.206196,276.31002 L655.806196,276.31002 L655.806196,251.90922 L691.206196,251.90922 L691.206196,276.31002 L691.206196,276.31002 Z M665.107396,272.71242 C664.646596,272.71242 664.185796,272.53722 663.834196,272.18562 C663.130996,271.48242 663.130996,270.34362 663.834196,269.64042 L669.583396,263.89122 L663.834196,258.14202 C663.130996,257.43882 663.130996,256.30002 663.834196,255.59682 C664.537396,254.89362 665.676196,254.89362 666.379396,255.59682 L673.401796,262.61922 C674.104996,263.32242 674.104996,264.46122 673.401796,265.16442 L666.379396,272.18682 C666.028996,272.53602 665.568196,272.71242 665.107396,272.71242 L665.107396,272.71242 Z M683.907796,272.71242 L674.707396,272.71242 C673.713796,272.71242 672.907396,271.90602 672.907396,270.91242 C672.907396,269.91882 673.713796,269.11242 674.707396,269.11242 L683.907796,269.11242 C684.901396,269.11242 685.707796,269.91882 685.707796,270.91242 C685.707796,271.90602 684.901396,272.71242 683.907796,272.71242 L683.907796,272.71242 Z" id="Shape" fill-opacity="0.140000001" fill="#EAF8FF" transform="translate(673.506196, 261.910020) rotate(25.000000) translate(-673.506196, -261.910020) "></path>
                <path d="M603.389297,54.9246095 L603.389297,51.496038 C603.389297,50.2388952 602.360725,49.2103238 601.103582,49.2103238 L591.960725,49.2103238 C590.703582,49.2103238 589.675011,50.2388952 589.675011,51.496038 L589.675011,54.9246095 L588.532154,54.9246095 L588.532154,61.7817523 L591.960725,68.6388952 L591.960725,72.0674666 L601.103582,72.0674666 L601.103582,68.6388952 L604.532154,61.7817523 L604.532154,54.9246095 L603.389297,54.9246095 L603.389297,54.9246095 Z M591.960725,51.496038 L601.103582,51.496038 L601.103582,54.9246095 L598.817868,54.9246095 L598.817868,52.6388952 L597.675011,52.6388952 L597.675011,54.9246095 L595.389297,54.9246095 L595.389297,52.6388952 L594.24644,52.6388952 L594.24644,54.9246095 L591.960725,54.9246095 L591.960725,51.496038 L591.960725,51.496038 Z" id="Shape" fill-opacity="0.0599999987" fill="#EAF8FF" transform="translate(596.532154, 60.638895) rotate(494.000000) translate(-596.532154, -60.638895) "></path>
            </g>
        </g>
    </g>
</svg>