<svg width="12" height="18" viewBox="0 0 12 18">
  <g fill="#FFF" fill-rule="evenodd" transform="translate(.667 .667)">
    <path d="M3.36443446 14.8555805L3.36443446 15.0856929C3.36443446 15.9831311 4.05477154 16.6734682 4.99823221 16.6734682 5.94169288 16.6734682 6.63202996 15.9831311 6.63202996 15.0856929L6.63202996 14.8555805C6.63202996 13.9581423 5.94169288 13.2678052 4.99823221 13.2678052 4.05477154 13.2678052 3.36443446 13.9581423 3.36443446 14.8555805L3.36443446 14.8555805zM5.13629963 11.2284345C5.66555805 11.2284345 6.03373783 10.8142322 6.12578277 10.307985L6.21782772 9.60901873C8.77207491 9.17180524 10.8660974 7.86016479 10.8660974 4.96074906L10.8660974 4.91472659C10.8660974 2.0383221 8.68002996.243445693 5.45845693.243445693 3.34142322.243445693 1.79967041 1.00281648.580074906 2.15337828.257917603 2.42951311.119850187 2.79769288.119850187 3.14286142.119850187 3.8331985.695131086 4.4084794 1.4084794 4.4084794 1.7306367 4.4084794 2.02978277 4.27041199 2.25989513 4.0863221 3.18034457 3.2579176 4.16982772 2.82070412 5.38942322 2.82070412 7.04623221 2.82070412 8.03571536 3.71814232 8.03571536 5.00677154L8.03571536 5.05279401C8.03571536 6.50250187 6.83913109 7.33090637 4.67607491 7.53800749 4.05477154 7.6070412 3.68659176 8.06726592 3.7786367 8.68856929L4.00874906 10.307985C4.07778277 10.8372434 4.46897378 11.2284345 4.99823221 11.2284345L5.13629963 11.2284345z"/>
  </g>
</svg>
