<?xml version="1.0" encoding="UTF-8"?>
<svg width="85px" height="104px" viewBox="0 0 85 104" version="1.1" xmlns="http://www.w3.org/2000/svg" xmlns:xlink="http://www.w3.org/1999/xlink">
    <!-- Generator: Sketch 42 (36781) - http://www.bohemiancoding.com/sketch -->
    <title>1</title>
    <desc>Created with Sketch.</desc>
    <defs></defs>
    <g id="Page-1" stroke="none" stroke-width="1" fill="none" fill-rule="evenodd">
        <g id="frame_120" transform="translate(-33.000000, -28.000000)">
            <g id="1" transform="translate(35.877641, 30.804394)">
                <ellipse id="Oval-3" stroke="#8C96A5" stroke-width="5.5" cx="39.5596761" cy="39.8889497" rx="39" ry="39"></ellipse>
                <g id="star" transform="translate(28.000000, 78.000000)" fill="#FFCA28">
                    <path d="M22.2955603,10.9062144 C23.2925186,9.88218862 22.7441915,8.09014349 21.298602,7.88533833 L16.4135066,7.21972157 C15.9150274,7.16852028 15.5162441,6.86131254 15.2670046,6.40050094 L12.8244568,1.43397586 C12.2761298,0.307547495 10.6809966,0.307547495 10.1326695,1.43397586 L7.78981761,6.45170223 C7.59042596,6.91251383 7.14179474,7.21972157 6.64331561,7.32212415 L1.75822014,8.09014349 C0.362478574,8.29494865 -0.185848469,10.0869938 0.811109791,11.1110196 L4.40015953,14.6439085 C4.74909492,15.0023176 4.89863866,15.5143305 4.84879075,16.0263433 L4.05122414,21.0440697 C3.80198457,22.4777058 5.29742196,23.5529329 6.54361979,22.8873161 L10.9302361,20.4808555 C11.3788674,20.2248491 11.8773465,20.2248491 12.3259777,20.4808555 L16.712594,22.8361148 C17.9587919,23.5017316 19.4542293,22.3753032 19.2049897,20.9416671 L18.3077273,15.9239408 C18.2080314,15.4119279 18.3575752,14.899915 18.7065106,14.541506 L22.2955603,10.9062144 Z" id="Shape-Copy"></path>
                </g>
            </g>
        </g>
    </g>
</svg>