<?xml version="1.0" encoding="UTF-8"?>
<svg width="103px" height="99px" viewBox="0 0 103 99" version="1.1" xmlns="http://www.w3.org/2000/svg" xmlns:xlink="http://www.w3.org/1999/xlink">
    <!-- Generator: Sketch 42 (36781) - http://www.bohemiancoding.com/sketch -->
    <title>14</title>
    <desc>Created with Sketch.</desc>
    <defs>
        <polygon id="path-1" points="69.6753944 76.5337886 87.6253944 71.2337886 96.8253944 60.8337886 81.0253944 65.4837886 78.0753944 68.3337886"></polygon>
        <filter x="-50%" y="-50%" width="200%" height="200%" filterUnits="objectBoundingBox" id="filter-2">
            <feOffset dx="0" dy="1" in="SourceAlpha" result="shadowOffsetOuter1"></feOffset>
            <feColorMatrix values="0 0 0 0 0   0 0 0 0 0   0 0 0 0 0  0 0 0 0.1 0" type="matrix" in="shadowOffsetOuter1"></feColorMatrix>
        </filter>
        <polygon id="path-3" points="35.2749817 76.5337886 17.2749817 71.1837886 8.12498169 60.8337886 23.9249817 65.4837886 26.8249817 68.3337886"></polygon>
        <filter x="-50%" y="-50%" width="200%" height="200%" filterUnits="objectBoundingBox" id="filter-4">
            <feOffset dx="0" dy="1" in="SourceAlpha" result="shadowOffsetOuter1"></feOffset>
            <feColorMatrix values="0 0 0 0 0   0 0 0 0 0   0 0 0 0 0  0 0 0 0.1 0" type="matrix" in="shadowOffsetOuter1"></feColorMatrix>
        </filter>
        <polygon id="path-5" points="73.55 71.9750011 92.2 66.4750011 101.7 55.6750011 85.35 60.5250011 82.3 63.4750011"></polygon>
        <filter x="-50%" y="-50%" width="200%" height="200%" filterUnits="objectBoundingBox" id="filter-6">
            <feOffset dx="0" dy="1" in="SourceAlpha" result="shadowOffsetOuter1"></feOffset>
            <feColorMatrix values="0 0 0 0 0   0 0 0 0 0   0 0 0 0 0  0 0 0 0.1 0" type="matrix" in="shadowOffsetOuter1"></feColorMatrix>
        </filter>
        <polygon id="path-7" points="31.45 71.9750011 12.8 66.4750011 3.3 55.6750011 19.65 60.5250011 22.7 63.4750011"></polygon>
        <filter x="-50%" y="-50%" width="200%" height="200%" filterUnits="objectBoundingBox" id="filter-8">
            <feOffset dx="0" dy="1" in="SourceAlpha" result="shadowOffsetOuter1"></feOffset>
            <feColorMatrix values="0 0 0 0 0   0 0 0 0 0   0 0 0 0 0  0 0 0 0.1 0" type="matrix" in="shadowOffsetOuter1"></feColorMatrix>
        </filter>
        <polygon id="path-9" points="77.65 67.85 95.7 61.1 104.4 49.85 88.5 55.7 85.7 58.85"></polygon>
        <filter x="-50%" y="-50%" width="200%" height="200%" filterUnits="objectBoundingBox" id="filter-10">
            <feOffset dx="0" dy="1" in="SourceAlpha" result="shadowOffsetOuter1"></feOffset>
            <feColorMatrix values="0 0 0 0 0   0 0 0 0 0   0 0 0 0 0  0 0 0 0.1 0" type="matrix" in="shadowOffsetOuter1"></feColorMatrix>
        </filter>
        <polygon id="path-11" points="27.5 67.7 9.4 61.1 0.65 49.85 16.55 55.65 19.35 58.75"></polygon>
        <filter x="-50%" y="-50%" width="200%" height="200%" filterUnits="objectBoundingBox" id="filter-12">
            <feOffset dx="0" dy="1" in="SourceAlpha" result="shadowOffsetOuter1"></feOffset>
            <feColorMatrix values="0 0 0 0 0   0 0 0 0 0   0 0 0 0 0  0 0 0 0.1 0" type="matrix" in="shadowOffsetOuter1"></feColorMatrix>
        </filter>
        <polygon id="path-13" points="82.35 65 97.75 53.45 102.9 40.15 89.35 50.3 87.55 54.1"></polygon>
        <filter x="-50%" y="-50%" width="200%" height="200%" filterUnits="objectBoundingBox" id="filter-14">
            <feOffset dx="0" dy="1" in="SourceAlpha" result="shadowOffsetOuter1"></feOffset>
            <feColorMatrix values="0 0 0 0 0   0 0 0 0 0   0 0 0 0 0  0 0 0 0.1 0" type="matrix" in="shadowOffsetOuter1"></feColorMatrix>
        </filter>
        <polygon id="path-15" points="21.45 65.2 6.6 52.95 2.05 39.45 15.15 50.15 16.75 54.05"></polygon>
        <filter x="-50%" y="-50%" width="200%" height="200%" filterUnits="objectBoundingBox" id="filter-16">
            <feOffset dx="0" dy="1" in="SourceAlpha" result="shadowOffsetOuter1"></feOffset>
            <feColorMatrix values="0 0 0 0 0   0 0 0 0 0   0 0 0 0 0  0 0 0 0.1 0" type="matrix" in="shadowOffsetOuter1"></feColorMatrix>
        </filter>
    </defs>
    <g id="Page-1" stroke="none" stroke-width="1" fill="none" fill-rule="evenodd">
        <g id="frame_120" transform="translate(-160.000000, -562.000000)">
            <g id="14" transform="translate(158.939231, 564.888871)">
                <g id="Shape">
                    <use fill="black" fill-opacity="1" filter="url(#filter-2)" xlink:href="#path-1"></use>
                    <use fill="#00BCD4" fill-rule="evenodd" xlink:href="#path-1"></use>
                </g>
                <g id="Shape">
                    <use fill="black" fill-opacity="1" filter="url(#filter-4)" xlink:href="#path-3"></use>
                    <use fill="#00BCD4" fill-rule="evenodd" xlink:href="#path-3"></use>
                </g>
                <g id="Shape" transform="translate(87.625000, 63.825001) rotate(-1.000000) translate(-87.625000, -63.825001) ">
                    <use fill="black" fill-opacity="1" filter="url(#filter-6)" xlink:href="#path-5"></use>
                    <use fill="#26C6DA" fill-rule="evenodd" xlink:href="#path-5"></use>
                </g>
                <g id="Shape" transform="translate(17.375000, 63.825001) rotate(1.000000) translate(-17.375000, -63.825001) ">
                    <use fill="black" fill-opacity="1" filter="url(#filter-8)" xlink:href="#path-7"></use>
                    <use fill="#26C6DA" fill-rule="evenodd" xlink:href="#path-7"></use>
                </g>
                <g id="Shape" transform="translate(91.025000, 58.850000) rotate(-3.000000) translate(-91.025000, -58.850000) ">
                    <use fill="black" fill-opacity="1" filter="url(#filter-10)" xlink:href="#path-9"></use>
                    <use fill="#80DEEA" fill-rule="evenodd" xlink:href="#path-9"></use>
                </g>
                <g id="Shape" transform="translate(14.075000, 58.775000) rotate(3.000000) translate(-14.075000, -58.775000) ">
                    <use fill="black" fill-opacity="1" filter="url(#filter-12)" xlink:href="#path-11"></use>
                    <use fill="#80DEEA" fill-rule="evenodd" xlink:href="#path-11"></use>
                </g>
                <g id="Shape">
                    <use fill="black" fill-opacity="1" filter="url(#filter-14)" xlink:href="#path-13"></use>
                    <use fill="#B2EBF2" fill-rule="evenodd" xlink:href="#path-13"></use>
                </g>
                <g id="Shape">
                    <use fill="black" fill-opacity="1" filter="url(#filter-16)" xlink:href="#path-15"></use>
                    <use fill="#B2EBF2" fill-rule="evenodd" xlink:href="#path-15"></use>
                </g>
                <circle id="Oval-3" stroke="#8C96A5" stroke-width="5.5" cx="52.5" cy="39" r="39"></circle>
                <g id="star" transform="translate(17.000000, 77.000000)" fill="#FFCA28">
                    <g id="Group">
                        <path d="M18.3032608,8.97851464 C19.1385483,8.17052717 18.6963372,6.70604989 17.5662424,6.55455224 L13.6846121,5.89806243 C13.2915356,5.84756321 12.9475937,5.59506713 12.80019,5.19107339 L10.9330768,1.20163528 C10.4908657,0.292649378 9.21336716,0.242150161 8.77115612,1.15113606 L6.80577371,5.09007496 C6.60923547,5.44356948 6.26529355,5.69606556 5.87221707,5.74656478 L1.94145227,6.30205616 C0.811357388,6.45355381 0.320011788,7.86753187 1.15529931,8.72601856 L3.95596923,11.6044739 C4.25077659,11.9074692 4.34904571,12.3114629 4.29991115,12.7154567 L3.56289275,16.755394 C3.36635451,17.916876 4.54558395,18.7753627 5.52827515,18.2703705 L9.06596348,16.4018995 C9.4099054,16.1999026 9.85211644,16.1999026 10.1960584,16.4018995 L13.6846121,18.3208697 C14.6673033,18.8763611 15.8956673,18.0178744 15.6991291,16.8563924 L15.0603798,12.8164551 C15.0112452,12.4124614 15.1095144,12.0084676 15.4043217,11.7054723 L18.3032608,8.97851464 Z" id="Shape-Copy-2"></path>
                        <path d="M69.8030158,8.71493767 C70.6383033,7.85762854 70.1469577,6.44558997 69.0168628,6.29430013 L65.1352326,5.73957069 C64.7421561,5.68914074 64.3982142,5.436991 64.2016759,5.08398136 L62.2362935,1.15044536 C61.7940825,0.242706278 60.5165839,0.242706278 60.0743729,1.15044536 L58.2072596,5.13441131 C58.0598559,5.48742095 57.715914,5.73957069 57.3228375,5.84043059 L53.3920727,6.44558997 C52.2619778,6.64730977 51.8197668,8.05934833 52.6550543,8.86622751 L55.5048588,11.6903046 C55.7996661,11.9928843 55.9470698,12.3963239 55.8488007,12.7997635 L55.2100514,16.8341594 C55.0135132,17.9940482 56.1927426,18.8513574 57.2245684,18.2966279 L60.7131222,16.3802899 C61.0570641,16.1785701 61.4992751,16.1785701 61.843217,16.3802899 L65.3809054,18.246198 C66.4127311,18.8009274 67.542826,17.8931883 67.3462878,16.7332995 L66.6584039,12.7493336 C66.6092694,12.345894 66.7075385,11.9424544 67.0023458,11.6398747 L69.8030158,8.71493767 Z" id="Shape-Copy-3"></path>
                    </g>
                </g>
            </g>
        </g>
    </g>
</svg>