<?xml version="1.0" encoding="UTF-8"?>
<svg width="32px" height="32px" viewBox="1220 19 32 33" version="1.1" xmlns="http://www.w3.org/2000/svg" xmlns:xlink="http://www.w3.org/1999/xlink">
    <!-- 头像图标 -->
    <desc>Created with Sketch.</desc>
    <defs></defs>
    <g id="头像" stroke="none" stroke-width="1" fill="none" fill-rule="evenodd" transform="translate(1220.000000, 19.000000)">
        <path d="M15.875969,0.950617284 C7.11243411,0.950617284 0,7.97551169 0,16.6311852 C0,25.2868586 7.11243411,32.311753 15.875969,32.311753 C24.6395039,32.311753 31.751938,25.2868586 31.751938,16.6311852 C31.751938,7.97551169 24.6395039,0.950617284 15.875969,0.950617284 L15.875969,0.950617284 Z" id="Shape" fill="#FAFAFA"></path>
        <path d="M15.875969,27.921194 C11.9069767,27.921194 8.3983876,25.9140813 6.3503876,22.8720512 C6.3980155,19.7516182 12.7007752,18.0424363 15.875969,18.0424363 C19.0352868,18.0424363 25.3539225,19.7516182 25.4015504,22.8720512 C23.3535504,25.9140813 19.8449612,27.921194 15.875969,27.921194 L15.875969,27.921194 Z" id="Path" fill="#546E7A"></path>
        <path d="M20.6387597,10.358958 C20.6387597,12.9619323 18.5113798,15.0631284 15.875969,15.0631284 C13.2405581,15.0631284 11.1131783,12.9619323 11.1131783,10.358958 C11.1131783,7.75598374 13.2405581,5.65478764 15.875969,5.65478764 C18.5113798,5.65478764 20.6387597,7.75598374 20.6387597,10.358958 Z" id="Path" fill="#546E7A"></path>
    </g>
</svg>