<?xml version="1.0" encoding="UTF-8"?>
<svg xmlns="http://www.w3.org/2000/svg" width="101" height="101" viewBox="0 0 101 101">
  <g fill="none" fill-rule="evenodd" transform="translate(.293 .754)">
    <path fill="#5A646E" d="M50.2856046,100 C22.6713671,100 0.285604565,77.6142375 0.285604565,50 C0.285604565,22.3857625 22.6713671,0 50.2856046,0 C77.8998421,0 100.285605,22.3857625 100.285605,50 C100.285605,77.6142375 77.8998421,100 50.2856046,100 Z M50.2856046,92.5 C73.7577064,92.5 92.7856046,73.4721019 92.7856046,50 C92.7856046,26.5278981 73.7577064,7.5 50.2856046,7.5 C26.8135027,7.5 7.78560456,26.5278981 7.78560456,50 C7.78560456,73.4721019 26.8135027,92.5 50.2856046,92.5 Z"/>
    <rect width="50" height="19" x="25.493" y="80.832" fill="#5A646E" rx="4"/>
    <text fill="#FFF" font-family="Tensentype-JiaLiZhongYuanJ, Tensentype JiaLiZhongYuanJ" font-size="14">
      <tspan x="36.493" y="95.832">讲师</tspan>
    </text>
  </g>
</svg>
